<svg xmlns="http://www.w3.org/2000/svg" x="0px" y="0px"
width="60" height="60"
viewBox="0 0 172 172"><g fill="none" fill-rule="nonzero" stroke="none" stroke-width="1" stroke-linecap="butt" stroke-linejoin="miter" stroke-miterlimit="10" stroke-dasharray="" stroke-dashoffset="0" font-family="none" font-weight="none" font-size="none" text-anchor="none" style="mix-blend-mode: normal"><path d="M0,172v-172h172v172z" fill="none"></path><g fill="#032f9c"><path d="M17.2,10.32c-5.6587,0 -10.32,4.6613 -10.32,10.32v41.28c0,5.6587 4.6613,10.32 10.32,10.32h41.28c5.6587,0 10.32,-4.6613 10.32,-10.32v-41.28c0,-5.6587 -4.6613,-10.32 -10.32,-10.32zM17.2,17.2h41.28c1.9437,0 3.44,1.4963 3.44,3.44v41.28c0,1.9437 -1.4963,3.44 -3.44,3.44h-41.28c-1.9437,0 -3.44,-1.4963 -3.44,-3.44v-41.28c0,-1.9437 1.4963,-3.44 3.44,-3.44zM37.84,79.12c-1.89986,0 -3.44,1.54014 -3.44,3.44c0,1.89986 1.54014,3.44 3.44,3.44c1.89986,0 3.44,-1.54014 3.44,-3.44c0,-1.89986 -1.54014,-3.44 -3.44,-3.44zM37.84,92.88c-1.89986,0 -3.44,1.54014 -3.44,3.44c0,1.89986 1.54014,3.44 3.44,3.44c1.89986,0 3.44,-1.54014 3.44,-3.44c0,-1.89986 -1.54014,-3.44 -3.44,-3.44zM113.52,99.76c-5.6587,0 -10.32,4.6613 -10.32,10.32v41.28c0,5.6587 4.6613,10.32 10.32,10.32h41.28c5.6587,0 10.32,-4.6613 10.32,-10.32v-41.28c0,-5.6587 -4.6613,-10.32 -10.32,-10.32zM37.84,106.64c-1.89986,0 -3.44,1.54014 -3.44,3.44c0,1.89986 1.54014,3.44 3.44,3.44c1.89986,0 3.44,-1.54014 3.44,-3.44c0,-1.89986 -1.54014,-3.44 -3.44,-3.44zM113.52,106.64h41.28c1.9437,0 3.44,1.4963 3.44,3.44v41.28c0,1.9437 -1.4963,3.44 -3.44,3.44h-41.28c-1.9437,0 -3.44,-1.4963 -3.44,-3.44v-41.28c0,-1.9437 1.4963,-3.44 3.44,-3.44zM37.84,120.4c-1.89986,0 -3.44,1.54014 -3.44,3.44c0,1.89986 1.54014,3.44 3.44,3.44c1.89986,0 3.44,-1.54014 3.44,-3.44c0,-1.89986 -1.54014,-3.44 -3.44,-3.44zM37.84,134.16c-1.89986,0 -3.44,1.54014 -3.44,3.44c0,1.89986 1.54014,3.44 3.44,3.44c1.89986,0 3.44,-1.54014 3.44,-3.44c0,-1.89986 -1.54014,-3.44 -3.44,-3.44zM51.6,134.16c-1.89986,0 -3.44,1.54014 -3.44,3.44c0,1.89986 1.54014,3.44 3.44,3.44c1.89986,0 3.44,-1.54014 3.44,-3.44c0,-1.89986 -1.54014,-3.44 -3.44,-3.44zM65.36,134.16c-1.89986,0 -3.44,1.54014 -3.44,3.44c0,1.89986 1.54014,3.44 3.44,3.44c1.89986,0 3.44,-1.54014 3.44,-3.44c0,-1.89986 -1.54014,-3.44 -3.44,-3.44zM79.12,134.16c-1.89986,0 -3.44,1.54014 -3.44,3.44c0,1.89986 1.54014,3.44 3.44,3.44c1.89986,0 3.44,-1.54014 3.44,-3.44c0,-1.89986 -1.54014,-3.44 -3.44,-3.44zM92.88,134.16c-1.89986,0 -3.44,1.54014 -3.44,3.44c0,1.89986 1.54014,3.44 3.44,3.44c1.89986,0 3.44,-1.54014 3.44,-3.44c0,-1.89986 -1.54014,-3.44 -3.44,-3.44z"></path></g></g></svg>