<svg xmlns="http://www.w3.org/2000/svg" x="0px" y="0px"
width="50" height="50"
viewBox="0 0 172 172"
style=" fill:#000000;"><g fill="none" fill-rule="nonzero" stroke="none" stroke-width="1" stroke-linecap="butt" stroke-linejoin="miter" stroke-miterlimit="10" stroke-dasharray="" stroke-dashoffset="0" font-family="none" font-weight="none" font-size="none" text-anchor="none" style="mix-blend-mode: normal"><path d="M0,172v-172h172v172z" fill="none"></path><g fill="#032f9c"><path d="M85.6775,-0.1075c-0.14781,0.02687 -0.29562,0.06719 -0.43,0.1075c-1.59906,0.36281 -2.72781,1.80063 -2.6875,3.44v10.32h-82.56v116.96h82.56v5.375l-29.9925,29.9925c-1.37062,1.37063 -1.37062,3.57438 0,4.945c1.37063,1.37063 3.57438,1.37063 4.945,0l25.0475,-25.0475v8.815c-0.01344,1.23625 0.63156,2.39188 1.70656,3.02344c1.075,0.61813 2.39187,0.61813 3.46687,0c1.075,-0.63156 1.72,-1.78719 1.70656,-3.02344v-8.815l25.0475,25.0475c1.37063,1.37063 3.57438,1.37063 4.945,0c1.37063,-1.37062 1.37063,-3.57437 0,-4.945l-29.9925,-29.885v-5.4825h82.56v-116.96h-82.56v-10.32c0.04031,-0.99437 -0.36281,-1.94844 -1.075,-2.62031c-0.72562,-0.68531 -1.70656,-1.02125 -2.6875,-0.92719zM6.88,20.64h158.24v103.2h-78.475c-0.45687,-0.09406 -0.94062,-0.09406 -1.3975,0h-78.3675zM141.04,48.16c-3.80281,0 -6.88,3.07719 -6.88,6.88c0,0.29563 0.06719,0.57781 0.1075,0.86l-35.26,27.1975c-0.81969,-0.34937 -1.73344,-0.5375 -2.6875,-0.5375c-0.95406,0 -1.86781,0.18813 -2.6875,0.5375h-0.1075l-28.165,-20.5325c0.01344,-0.215 0,-0.43 0,-0.645c0,-3.80281 -3.07719,-6.88 -6.88,-6.88c-3.80281,0 -6.88,3.07719 -6.88,6.88c0,0.25531 0.08063,0.49719 0.1075,0.7525l-18.06,13.545c-0.81969,-0.34937 -1.73344,-0.5375 -2.6875,-0.5375c-3.80281,0 -6.88,3.07719 -6.88,6.88c0,3.80281 3.07719,6.88 6.88,6.88c3.80281,0 6.88,-3.07719 6.88,-6.88c0,-0.25531 -0.08062,-0.49719 -0.1075,-0.7525l18.06,-13.545c0.81969,0.34938 1.73344,0.5375 2.6875,0.5375c0.95406,0 1.86781,-0.18812 2.6875,-0.5375h0.1075l28.165,20.5325c-0.01344,0.215 0,0.43 0,0.645c0,3.80281 3.07719,6.88 6.88,6.88c3.80281,0 6.88,-3.07719 6.88,-6.88c0,-0.29562 -0.06719,-0.57781 -0.1075,-0.86l35.26,-27.1975h0.1075c0.79281,0.3225 1.66625,0.5375 2.58,0.5375c3.80281,0 6.88,-3.07719 6.88,-6.88c0,-3.80281 -3.07719,-6.88 -6.88,-6.88z"></path></g></g></svg>