<svg xmlns="http://www.w3.org/2000/svg" x="0px" y="0px"
width="50" height="50"
viewBox="0 0 172 172"><g fill="none" fill-rule="nonzero" stroke="none" stroke-width="1" stroke-linecap="butt" stroke-linejoin="miter" stroke-miterlimit="10" stroke-dasharray="" stroke-dashoffset="0" font-family="none" font-weight="none" font-size="none" text-anchor="none" style="mix-blend-mode: normal"><path d="M0,172v-172h172v172z" fill="none"></path><g fill="#032f9c"><path d="M86,0c-8.43875,0 -15.56062,4.66281 -26.1225,10.105c-10.56187,5.44219 -24.73844,12.01313 -46.87,16.8775l-2.6875,0.645v2.6875c0,52.70188 18.47656,87.92156 36.98,109.7575c18.50344,21.83594 37.3025,30.53 37.3025,30.53l1.505,0.7525l1.505,-0.7525c0,0 74.0675,-38.27 74.0675,-140.2875v-2.6875l-2.6875,-0.645c-22.13156,-4.86437 -36.30812,-11.43531 -46.87,-16.8775c-10.56187,-5.44219 -17.68375,-10.105 -26.1225,-10.105zM86,6.88c5.65719,0 12.21469,3.80281 23.005,9.3525c10.25281,5.2675 24.67125,11.73094 45.58,16.6625c-1.26312,93.28313 -64.27156,128.27438 -68.6925,130.6125c-2.13656,-1.03469 -17.02531,-8.47906 -33.4325,-27.8425c-17.29406,-20.41156 -34.41344,-53.23937 -35.045,-102.77c20.90875,-4.93156 35.32719,-11.395 45.58,-16.6625c10.79031,-5.54969 17.34781,-9.3525 23.005,-9.3525zM55.04,44.72c-3.7625,0 -6.88,3.1175 -6.88,6.88v5.805c-0.20156,0.67188 -0.20156,1.37063 0,2.0425v43.7525c0,3.7625 3.1175,6.88 6.88,6.88h61.92c3.7625,0 6.88,-3.1175 6.88,-6.88v-44.075c0.09406,-0.45687 0.09406,-0.94062 0,-1.3975v-6.1275c0,-3.7625 -3.1175,-6.88 -6.88,-6.88zM55.04,51.6h51.6c0,1.89469 1.54531,3.44 3.44,3.44c1.89469,0 3.44,-1.54531 3.44,-3.44h3.44v3.44h-61.92zM55.04,61.92h61.92v41.28h-61.92z"></path></g></g></svg>