<svg xmlns="http://www.w3.org/2000/svg" x="0px" y="0px"
width="32" height="32"
viewBox="0 0 172 172"
style=" fill:#000000;"><g fill="none" fill-rule="nonzero" stroke="none" stroke-width="1" stroke-linecap="butt" stroke-linejoin="miter" stroke-miterlimit="10" stroke-dasharray="" stroke-dashoffset="0" font-family="none" font-weight="none" font-size="none" text-anchor="none" style="mix-blend-mode: normal"><path d="M0,172v-172h172v172z" fill="none"></path><g fill="#032f9c"><path d="M141.04,6.88c-13.25827,0 -24.08,10.82173 -24.08,24.08c0,6.33988 2.49178,12.10514 6.5239,16.4139l-28.79656,35.1861h-39.92281c-1.68276,-11.63567 -11.71696,-20.64 -23.80453,-20.64c-13.25827,0 -24.08,10.82173 -24.08,24.08c0,13.25827 10.82173,24.08 24.08,24.08c12.08757,0 22.12177,-9.00433 23.80453,-20.64h39.84219l27.63422,36.60375c-3.29709,4.12115 -5.28094,9.33145 -5.28094,14.99625c0,13.25827 10.82173,24.08 24.08,24.08c13.25827,0 24.08,-10.82173 24.08,-24.08c0,-13.25827 -10.82173,-24.08 -24.08,-24.08c-5.10755,0 -9.8416,1.62112 -13.74656,4.35375l-26.59953,-35.2264l28.15156,-34.41344c3.58397,2.12117 7.74453,3.3661 12.19453,3.3661c13.25827,0 24.08,-10.82173 24.08,-24.08c0,-13.25827 -10.82173,-24.08 -24.08,-24.08zM141.04,13.76c9.54004,0 17.2,7.65996 17.2,17.2c0,9.54004 -7.65996,17.2 -17.2,17.2c-9.54004,0 -17.2,-7.65996 -17.2,-17.2c0,-9.54004 7.65996,-17.2 17.2,-17.2zM30.96,68.8c9.54004,0 17.2,7.65996 17.2,17.2c0,9.54004 -7.65996,17.2 -17.2,17.2c-9.54004,0 -17.2,-7.65996 -17.2,-17.2c0,-9.54004 7.65996,-17.2 17.2,-17.2zM141.04,123.84c9.54004,0 17.2,7.65996 17.2,17.2c0,9.54004 -7.65996,17.2 -17.2,17.2c-9.54004,0 -17.2,-7.65996 -17.2,-17.2c0,-9.54004 7.65996,-17.2 17.2,-17.2z"></path></g></g></svg>