<svg xmlns="http://www.w3.org/2000/svg" x="0px" y="0px"
width="50" height="50"
viewBox="0 0 172 172"
style=" fill:#000000;"><g fill="none" fill-rule="nonzero" stroke="none" stroke-width="1" stroke-linecap="butt" stroke-linejoin="miter" stroke-miterlimit="10" stroke-dasharray="" stroke-dashoffset="0" font-family="none" font-weight="none" font-size="none" text-anchor="none" style="mix-blend-mode: normal"><path d="M0,172v-172h172v172z" fill="none"></path><g fill="#032f9c"><path d="M20.64,10.32c-5.6587,0 -10.32,4.6613 -10.32,10.32v34.4c0,5.6587 4.6613,10.32 10.32,10.32h10.32v6.88c-0.01754,1.24059 0.63425,2.39452 1.7058,3.01993c1.07155,0.62541 2.39684,0.62541 3.46839,0c1.07155,-0.62541 1.72335,-1.77935 1.7058,-3.01993v-6.88h17.2c5.6587,0 10.32,-4.6613 10.32,-10.32v-13.76h17.2c1.24059,0.01754 2.39452,-0.63425 3.01993,-1.7058c0.62541,-1.07155 0.62541,-2.39684 0,-3.46839c-0.62541,-1.07155 -1.77935,-1.72335 -3.01993,-1.7058h-17.2v-13.76c0,-5.6587 -4.6613,-10.32 -10.32,-10.32zM116.96,10.32c-5.6587,0 -10.32,4.6613 -10.32,10.32v13.76h-10.32c-1.24059,-0.01754 -2.39452,0.63425 -3.01993,1.7058c-0.62541,1.07155 -0.62541,2.39684 0,3.46839c0.62541,1.07155 1.77935,1.72335 3.01993,1.7058h10.32v13.76c0,5.6587 4.6613,10.32 10.32,10.32h13.76v17.2c-0.01754,1.24059 0.63425,2.39452 1.7058,3.01993c1.07155,0.62541 2.39684,0.62541 3.46839,0c1.07155,-0.62541 1.72335,-1.77935 1.7058,-3.01993v-17.2h13.76c5.6587,0 10.32,-4.6613 10.32,-10.32v-34.4c0,-5.6587 -4.6613,-10.32 -10.32,-10.32zM20.64,17.2h34.4c1.9437,0 3.44,1.4963 3.44,3.44v16.62219c-0.0614,0.37149 -0.0614,0.75054 0,1.12203v16.65578c0,1.9437 -1.4963,3.44 -3.44,3.44h-20.10922c-0.19315,-0.03228 -0.3887,-0.04802 -0.58453,-0.04703c-0.16665,0.00361 -0.33282,0.01933 -0.49719,0.04703h-13.20906c-1.9437,0 -3.44,-1.4963 -3.44,-3.44v-34.4c0,-1.9437 1.4963,-3.44 3.44,-3.44zM116.96,17.2h34.4c1.9437,0 3.44,1.4963 3.44,3.44v34.4c0,1.9437 -1.4963,3.44 -3.44,3.44h-16.66922c-0.19315,-0.03228 -0.3887,-0.04802 -0.58453,-0.04703c-0.16665,0.00361 -0.33282,0.01933 -0.49719,0.04703h-16.64906c-1.9437,0 -3.44,-1.4963 -3.44,-3.44v-34.4c0,-1.9437 1.4963,-3.44 3.44,-3.44zM34.34625,82.51297c-1.89722,0.02966 -3.41223,1.58976 -3.38625,3.48703v20.64h-10.32c-5.6587,0 -10.32,4.6613 -10.32,10.32v34.4c0,5.6587 4.6613,10.32 10.32,10.32h34.4c5.6587,0 10.32,-4.6613 10.32,-10.32v-13.76h10.32c1.24059,0.01754 2.39452,-0.63425 3.01993,-1.7058c0.62541,-1.07155 0.62541,-2.39684 0,-3.46839c-0.62541,-1.07155 -1.77935,-1.72335 -3.01993,-1.7058h-10.32v-13.76c0,-5.6587 -4.6613,-10.32 -10.32,-10.32h-17.2v-20.64c0.01273,-0.92983 -0.35149,-1.82522 -1.00967,-2.48214c-0.65819,-0.65692 -1.55427,-1.01942 -2.48408,-1.00489zM134.10625,92.83297c-1.89722,0.02966 -3.41223,1.58976 -3.38625,3.48703v6.88h-13.76c-5.6587,0 -10.32,4.6613 -10.32,10.32v17.2h-17.2c-1.24059,-0.01754 -2.39452,0.63425 -3.01993,1.7058c-0.62541,1.07155 -0.62541,2.39684 0,3.46839c0.62541,1.07155 1.77935,1.72335 3.01993,1.7058h17.2v10.32c0,5.6587 4.6613,10.32 10.32,10.32h34.4c5.6587,0 10.32,-4.6613 10.32,-10.32v-34.4c0,-5.6587 -4.6613,-10.32 -10.32,-10.32h-13.76v-6.88c0.01273,-0.92983 -0.35149,-1.82522 -1.00967,-2.48214c-0.65819,-0.65692 -1.55427,-1.01942 -2.48408,-1.00489zM116.96,110.08h16.62219c0.37149,0.0614 0.75054,0.0614 1.12203,0h16.65578c1.9437,0 3.44,1.4963 3.44,3.44v34.4c0,1.9437 -1.4963,3.44 -3.44,3.44h-34.4c-1.9437,0 -3.44,-1.4963 -3.44,-3.44v-13.18219c0.0614,-0.37149 0.0614,-0.75054 0,-1.12203v-20.09578c0,-1.9437 1.4963,-3.44 3.44,-3.44zM20.64,113.52h34.4c1.9437,0 3.44,1.4963 3.44,3.44v34.4c0,1.9437 -1.4963,3.44 -3.44,3.44h-34.4c-1.9437,0 -3.44,-1.4963 -3.44,-3.44v-34.4c0,-1.9437 1.4963,-3.44 3.44,-3.44z"></path></g></g></svg>