<svg xmlns="http://www.w3.org/2000/svg" x="0px" y="0px"
width="80" height="80"
viewBox="0 0 172 172"><g fill="none" fill-rule="nonzero" stroke="none" stroke-width="1" stroke-linecap="butt" stroke-linejoin="miter" stroke-miterlimit="10" stroke-dasharray="" stroke-dashoffset="0" font-family="none" font-weight="none" font-size="none" text-anchor="none" style="mix-blend-mode: normal"><path d="M0,172v-172h172v172z" fill="none"></path><g fill="#032f9c"><path d="M53.75,15.05v21.5h-21.5v120.4h96.75v-21.5h21.5v-92.05107l-28.34893,-28.34893h-0.89023zM58.05,19.35h60.2v27.95h27.95v83.85h-88.15zM122.55,21.52939l21.47061,21.47061h-21.47061zM68.8,25.8c-1.18741,0 -2.15,0.96259 -2.15,2.15c0,1.18741 0.96259,2.15 2.15,2.15c1.18741,0 2.15,-0.96259 2.15,-2.15c0,-1.18741 -0.96259,-2.15 -2.15,-2.15zM68.8,34.4c-1.18741,0 -2.15,0.96259 -2.15,2.15c0,1.18741 0.96259,2.15 2.15,2.15c1.18741,0 2.15,-0.96259 2.15,-2.15c0,-1.18741 -0.96259,-2.15 -2.15,-2.15zM36.55,40.85h17.2v94.6h70.95v17.2h-88.15zM68.8,43c-1.18741,0 -2.15,0.96259 -2.15,2.15c0,1.18741 0.96259,2.15 2.15,2.15c1.18741,0 2.15,-0.96259 2.15,-2.15c0,-1.18741 -0.96259,-2.15 -2.15,-2.15zM68.8,51.6c-1.18741,0 -2.15,0.96259 -2.15,2.15c0,1.18741 0.96259,2.15 2.15,2.15c1.18741,0 2.15,-0.96259 2.15,-2.15c0,-1.18741 -0.96259,-2.15 -2.15,-2.15zM68.8,60.2c-1.18741,0 -2.15,0.96259 -2.15,2.15c0,1.18741 0.96259,2.15 2.15,2.15c1.18741,0 2.15,-0.96259 2.15,-2.15c0,-1.18741 -0.96259,-2.15 -2.15,-2.15zM81.7,62.35v4.3h47.3v-4.3zM68.8,68.8c-1.18741,0 -2.15,0.96259 -2.15,2.15c0,1.18741 0.96259,2.15 2.15,2.15c1.18741,0 2.15,-0.96259 2.15,-2.15c0,-1.18741 -0.96259,-2.15 -2.15,-2.15zM81.7,75.25v4.3h38.7v-4.3zM68.8,77.4c-1.18741,0 -2.15,0.96259 -2.15,2.15c0,1.18741 0.96259,2.15 2.15,2.15c1.18741,0 2.15,-0.96259 2.15,-2.15c0,-1.18741 -0.96259,-2.15 -2.15,-2.15zM68.8,86c-1.18741,0 -2.15,0.96259 -2.15,2.15c0,1.18741 0.96259,2.15 2.15,2.15c1.18741,0 2.15,-0.96259 2.15,-2.15c0,-1.18741 -0.96259,-2.15 -2.15,-2.15zM81.7,88.15v4.3h47.3v-4.3zM68.8,94.6c-1.18741,0 -2.15,0.96259 -2.15,2.15c0,1.18741 0.96259,2.15 2.15,2.15c1.18741,0 2.15,-0.96259 2.15,-2.15c0,-1.18741 -0.96259,-2.15 -2.15,-2.15zM81.7,101.05v4.3h38.7v-4.3zM68.8,103.2c-1.18741,0 -2.15,0.96259 -2.15,2.15c0,1.18741 0.96259,2.15 2.15,2.15c1.18741,0 2.15,-0.96259 2.15,-2.15c0,-1.18741 -0.96259,-2.15 -2.15,-2.15zM68.8,111.8c-1.18741,0 -2.15,0.96259 -2.15,2.15c0,1.18741 0.96259,2.15 2.15,2.15c1.18741,0 2.15,-0.96259 2.15,-2.15c0,-1.18741 -0.96259,-2.15 -2.15,-2.15zM68.8,120.4c-1.18741,0 -2.15,0.96259 -2.15,2.15c0,1.18741 0.96259,2.15 2.15,2.15c1.18741,0 2.15,-0.96259 2.15,-2.15c0,-1.18741 -0.96259,-2.15 -2.15,-2.15z"></path></g></g></svg>