<svg xmlns="http://www.w3.org/2000/svg" x="0px" y="0px"
width="64" height="64"
viewBox="0 0 172 172"><defs><linearGradient x1="86" y1="24.98838" x2="86" y2="148.178" gradientUnits="userSpaceOnUse" id="color-1_hmLbbFJm9-bg_gr1"><stop offset="0" stop-color="#00c6ff"></stop><stop offset="1" stop-color="#0072ff"></stop></linearGradient><linearGradient x1="43" y1="35.2815" x2="43" y2="49.95525" gradientUnits="userSpaceOnUse" id="color-2_hmLbbFJm9-bg_gr2"><stop offset="0" stop-color="#70dfff"></stop><stop offset="1" stop-color="#70afff"></stop></linearGradient><linearGradient x1="129" y1="35.2815" x2="129" y2="49.95525" gradientUnits="userSpaceOnUse" id="color-3_hmLbbFJm9-bg_gr3"><stop offset="0" stop-color="#70dfff"></stop><stop offset="1" stop-color="#70afff"></stop></linearGradient><linearGradient x1="43" y1="120.70906" x2="43" y2="135.61931" gradientUnits="userSpaceOnUse" id="color-4_hmLbbFJm9-bg_gr4"><stop offset="0" stop-color="#70dfff"></stop><stop offset="1" stop-color="#70afff"></stop></linearGradient><linearGradient x1="129" y1="120.70906" x2="129" y2="135.61931" gradientUnits="userSpaceOnUse" id="color-5_hmLbbFJm9-bg_gr5"><stop offset="0" stop-color="#70dfff"></stop><stop offset="1" stop-color="#70afff"></stop></linearGradient></defs><g fill="none" fill-rule="nonzero" stroke="none" stroke-width="1" stroke-linecap="butt" stroke-linejoin="miter" stroke-miterlimit="10" stroke-dasharray="" stroke-dashoffset="0" font-family="none" font-weight="none" font-size="none" text-anchor="none" style="mix-blend-mode: normal"><path d="M0,172v-172h172v172z" fill="none"></path><g><path d="M134.375,72.5625c1.4835,0 2.6875,-1.204 2.6875,-2.6875v-5.375h6.9875c3.55556,0 6.45,-2.89444 6.45,-6.45v-30.1c0,-3.55556 -2.89444,-6.45 -6.45,-6.45h-28.4875c-4.44512,0 -8.0625,3.61737 -8.0625,8.0625v5.375h-5.375c-1.4835,0 -2.6875,1.204 -2.6875,2.6875v2.6875h-26.875v-2.6875c0,-1.4835 -1.204,-2.6875 -2.6875,-2.6875h-5.375v-5.375c0,-4.44513 -3.61738,-8.0625 -8.0625,-8.0625h-26.875c-4.44513,0 -8.0625,3.61737 -8.0625,8.0625v26.875c0,4.44512 3.61737,8.0625 8.0625,8.0625h5.375v5.375c0,1.4835 1.204,2.6875 2.6875,2.6875h2.6875v26.875h-2.6875c-1.4835,0 -2.6875,1.204 -2.6875,2.6875v5.375h-5.375c-4.44513,0 -8.0625,3.61738 -8.0625,8.0625v28.4875c0,3.55556 2.89444,6.45 6.45,6.45h30.1c3.55556,0 6.45,-2.89444 6.45,-6.45v-6.9875h5.375c1.4835,0 2.6875,-1.204 2.6875,-2.6875v-2.6875h26.875v2.6875c0,1.4835 1.204,2.6875 2.6875,2.6875h5.375v6.9875c0,3.55556 2.89444,6.45 6.45,6.45h30.1c3.55556,0 6.45,-2.89444 6.45,-6.45v-30.1c0,-3.55556 -2.89444,-6.45 -6.45,-6.45h-6.9875v-5.375c0,-1.4835 -1.204,-2.6875 -2.6875,-2.6875h-2.6875v-26.875zM131.6875,67.1875h-5.375v-2.6875h5.375zM112.875,29.5625c0,-1.48081 1.20669,-2.6875 2.6875,-2.6875h28.4875c0.59394,0 1.075,0.48106 1.075,1.075v30.1c0,0.59394 -0.48106,1.075 -1.075,1.075h-30.1c-0.59394,0 -1.075,-0.48106 -1.075,-1.075zM104.8125,40.3125h2.6875v5.375h-2.6875zM67.1875,40.3125v5.375h-2.6875v-5.375zM26.875,56.4375v-26.875c0,-1.48081 1.20669,-2.6875 2.6875,-2.6875h26.875c1.48081,0 2.6875,1.20669 2.6875,2.6875v26.875c0,1.48081 -1.20669,2.6875 -2.6875,2.6875h-26.875c-1.48081,0 -2.6875,-1.20669 -2.6875,-2.6875zM45.6875,64.5v2.6875h-5.375v-2.6875zM40.3125,104.8125h5.375v2.6875h-5.375zM59.125,144.05c0,0.59394 -0.48106,1.075 -1.075,1.075h-30.1c-0.59394,0 -1.075,-0.48106 -1.075,-1.075v-28.4875c0,-1.48081 1.20669,-2.6875 2.6875,-2.6875h28.4875c0.59394,0 1.075,0.48106 1.075,1.075zM67.1875,131.6875h-2.6875v-5.375h2.6875zM104.8125,131.6875v-5.375h2.6875v5.375zM145.125,113.95v30.1c0,0.59394 -0.48106,1.075 -1.075,1.075h-30.1c-0.59394,0 -1.075,-0.48106 -1.075,-1.075v-28.4875c0,-1.48081 1.20669,-2.6875 2.6875,-2.6875h28.4875c0.59394,0 1.075,0.48106 1.075,1.075zM126.3125,107.5v-2.6875h5.375v2.6875zM126.3125,99.4375h-2.6875c-1.4835,0 -2.6875,1.204 -2.6875,2.6875v5.375h-5.375c-4.44512,0 -8.0625,3.61738 -8.0625,8.0625v5.375h-5.375c-1.4835,0 -2.6875,1.204 -2.6875,2.6875v2.6875h-26.875v-2.6875c0,-1.4835 -1.204,-2.6875 -2.6875,-2.6875h-5.375v-6.9875c0,-3.55556 -2.89444,-6.45 -6.45,-6.45h-6.9875v-5.375c0,-1.4835 -1.204,-2.6875 -2.6875,-2.6875h-2.6875v-26.875h2.6875c1.4835,0 2.6875,-1.204 2.6875,-2.6875v-5.375h5.375c4.44512,0 8.0625,-3.61738 8.0625,-8.0625v-5.375h5.375c1.4835,0 2.6875,-1.204 2.6875,-2.6875v-2.6875h26.875v2.6875c0,1.4835 1.204,2.6875 2.6875,2.6875h5.375v6.9875c0,3.55556 2.89444,6.45 6.45,6.45h6.9875v5.375c0,1.4835 1.204,2.6875 2.6875,2.6875h2.6875z" fill="url(#color-1_hmLbbFJm9-bg_gr1)"></path><path d="M48.75931,51.0625h-11.51862c-1.27119,0 -2.30319,-1.032 -2.30319,-2.30319v-11.51862c0,-1.27119 1.032,-2.30319 2.30319,-2.30319h11.51863c1.27119,0 2.30319,1.032 2.30319,2.30319v11.51863c0,1.27119 -1.032,2.30319 -2.30319,2.30319z" fill="url(#color-2_hmLbbFJm9-bg_gr2)"></path><path d="M134.75931,51.0625h-11.51862c-1.27119,0 -2.30319,-1.032 -2.30319,-2.30319v-11.51862c0,-1.27119 1.032,-2.30319 2.30319,-2.30319h11.51863c1.27119,0 2.30319,1.032 2.30319,2.30319v11.51863c0,1.27119 -1.032,2.30319 -2.30319,2.30319z" fill="url(#color-3_hmLbbFJm9-bg_gr3)"></path><g fill="url(#color-4_hmLbbFJm9-bg_gr4)"><path d="M48.75931,137.0625h-11.51862c-1.27119,0 -2.30319,-1.032 -2.30319,-2.30319v-11.51862c0,-1.27119 1.032,-2.30319 2.30319,-2.30319h11.51863c1.27119,0 2.30319,1.032 2.30319,2.30319v11.51863c0,1.27119 -1.032,2.30319 -2.30319,2.30319z"></path></g><g fill="url(#color-5_hmLbbFJm9-bg_gr5)"><path d="M134.75931,137.0625h-11.51862c-1.27119,0 -2.30319,-1.032 -2.30319,-2.30319v-11.51862c0,-1.27119 1.032,-2.30319 2.30319,-2.30319h11.51863c1.27119,0 2.30319,1.032 2.30319,2.30319v11.51863c0,1.27119 -1.032,2.30319 -2.30319,2.30319z"></path></g></g></g></svg>