<svg xmlns="http://www.w3.org/2000/svg" x="0px" y="0px"
width="64" height="64"
viewBox="0 0 172 172"
style=" fill:#000000;"><g fill="none" fill-rule="nonzero" stroke="none" stroke-width="1" stroke-linecap="butt" stroke-linejoin="miter" stroke-miterlimit="10" stroke-dasharray="" stroke-dashoffset="0" font-family="none" font-weight="none" font-size="none" text-anchor="none" style="mix-blend-mode: normal"><path d="M0,172v-172h172v172z" fill="none"></path><g fill="#032f9c"><path d="M86,8.0625c-43,0 -77.9375,34.9375 -77.9375,77.9375c0,43 34.9375,77.9375 77.9375,77.9375c43,0 77.9375,-34.9375 77.9375,-77.9375c0,-43 -34.9375,-77.9375 -77.9375,-77.9375zM86,16.125c38.56562,0 69.875,31.30937 69.875,69.875c0,38.56562 -31.30938,69.875 -69.875,69.875c-38.56563,0 -69.875,-31.30938 -69.875,-69.875c0,-38.56563 31.30937,-69.875 69.875,-69.875zM96.34845,49.66626c-1.58101,0.11968 -2.99194,1.12749 -3.49585,2.73999l-21.5,64.5c-0.67187,2.15 0.5375,4.43542 2.6875,5.1073c0.40313,0.26875 0.80678,0.2677 1.2099,0.2677c1.74688,0 3.22605,-1.07447 3.76355,-2.82135l21.5,-64.5c0.67188,-2.15 -0.40365,-4.43543 -2.55365,-5.1073c-0.5375,-0.16797 -1.08445,-0.22623 -1.61145,-0.18634zM59.17487,67.10352c-1.02461,-0.05039 -2.06496,0.2845 -2.87121,1.02356l-16.25885,14.91772c-0.80625,0.80625 -1.34375,1.8802 -1.34375,2.9552c0,1.075 0.5375,2.14895 1.34375,2.9552l16.25885,14.91772c0.80625,0.67188 1.74688,1.07343 2.6875,1.07343c1.075,0 2.14895,-0.40312 2.9552,-1.34375c1.47813,-1.6125 1.3448,-4.16457 -0.2677,-5.6427l-13.03595,-11.9599l13.03595,-11.9599c1.6125,-1.47813 1.74582,-4.0302 0.2677,-5.6427c-0.73906,-0.80625 -1.74688,-1.24349 -2.77148,-1.29388zM112.95898,67.10352c-1.02461,0.05039 -2.03242,0.48763 -2.77148,1.29388c-1.47812,1.6125 -1.3448,4.16457 0.2677,5.6427l13.03595,11.9599l-13.03595,11.9599c-1.74688,1.47812 -1.87968,4.0302 -0.40155,5.6427c0.80625,0.80625 1.8802,1.34375 2.9552,1.34375c0.94063,0 2.01563,-0.40155 2.6875,-1.07343l16.25885,-14.91772c0.80625,-0.80625 1.34375,-1.8802 1.34375,-2.9552c0,-1.075 -0.5375,-2.14895 -1.34375,-2.9552l-16.125,-14.91772c-0.80625,-0.73906 -1.84661,-1.07395 -2.87122,-1.02356z"></path></g></g></svg>