<svg xmlns="http://www.w3.org/2000/svg" x="0px" y="0px"
width="50" height="50"
viewBox="0 0 172 172"><g fill="none" fill-rule="nonzero" stroke="none" stroke-width="1" stroke-linecap="butt" stroke-linejoin="miter" stroke-miterlimit="10" stroke-dasharray="" stroke-dashoffset="0" font-family="none" font-weight="none" font-size="none" text-anchor="none" style="mix-blend-mode: normal"><path d="M0,172v-172h172v172z" fill="none"></path><g fill="#032f9c"><path d="M86,10.32c-7.59219,0 -13.76,6.16781 -13.76,13.76c0,6.39625 4.4075,11.73094 10.32,13.27625v10.80375h-30.8525c-15.23812,0 -27.6275,12.38938 -27.6275,27.6275v13.6525h-17.2v41.28h17.2v30.96h123.84v-30.96h17.2v-41.28h-17.2v-13.6525c0,-15.23812 -12.38937,-27.6275 -27.6275,-27.6275h-30.8525v-10.80375c5.92594,-1.54531 10.32,-6.88 10.32,-13.27625c0,-7.59219 -6.16781,-13.76 -13.76,-13.76zM86,17.2c3.78938,0 6.88,3.09063 6.88,6.88c0,3.78938 -3.09062,6.88 -6.88,6.88c-3.78937,0 -6.88,-3.09062 -6.88,-6.88c0,-3.78937 3.09063,-6.88 6.88,-6.88zM51.7075,55.04h68.585c11.43531,0 20.7475,9.31219 20.7475,20.7475v79.0125h-20.64v-27.52h-68.8v27.52h-20.64v-79.0125c0,-11.43531 9.31219,-20.7475 20.7475,-20.7475zM63.64,75.68c-8.53281,0 -15.48,6.94719 -15.48,15.48c0,8.53281 6.94719,15.48 15.48,15.48c8.53281,0 15.48,-6.94719 15.48,-15.48c0,-8.53281 -6.94719,-15.48 -15.48,-15.48zM108.36,75.68c-8.53281,0 -15.48,6.94719 -15.48,15.48c0,8.53281 6.94719,15.48 15.48,15.48c8.53281,0 15.48,-6.94719 15.48,-15.48c0,-8.53281 -6.94719,-15.48 -15.48,-15.48zM63.64,82.56c4.74344,0 8.6,3.85656 8.6,8.6c0,4.74344 -3.85656,8.6 -8.6,8.6c-4.74344,0 -8.6,-3.85656 -8.6,-8.6c0,-4.74344 3.85656,-8.6 8.6,-8.6zM108.36,82.56c4.74344,0 8.6,3.85656 8.6,8.6c0,4.74344 -3.85656,8.6 -8.6,8.6c-4.74344,0 -8.6,-3.85656 -8.6,-8.6c0,-4.74344 3.85656,-8.6 8.6,-8.6zM13.76,96.32h10.32v27.52h-10.32zM147.92,96.32h10.32v27.52h-10.32zM58.48,134.16h13.76v20.64h-13.76zM79.12,134.16h13.76v20.64h-13.76zM99.76,134.16h13.76v20.64h-13.76z"></path></g></g></svg>