<svg xmlns="http://www.w3.org/2000/svg" x="0px" y="0px"
width="50" height="50"
viewBox="0 0 172 172"
style=" fill:#000000;"><g fill="none" fill-rule="nonzero" stroke="none" stroke-width="1" stroke-linecap="butt" stroke-linejoin="miter" stroke-miterlimit="10" stroke-dasharray="" stroke-dashoffset="0" font-family="none" font-weight="none" font-size="none" text-anchor="none" style="mix-blend-mode: normal"><path d="M0,172v-172h172v172z" fill="none"></path><g fill="#032f9c"><path d="M72.24,0c-19.41719,0 -37.04719,3.48031 -50.095,9.3525c-6.51719,2.92938 -11.89219,6.47688 -15.8025,10.6425c-3.72219,3.96406 -6.11406,8.64031 -6.3425,13.6525c-0.01344,0.17469 -0.01344,0.36281 0,0.5375c0,0.06719 0,0.14781 0,0.215v33.755c-0.02687,0.215 -0.02687,0.43 0,0.645v33.755c-0.02687,0.215 -0.02687,0.43 0,0.645v30.96c0,5.30781 2.43219,10.23938 6.3425,14.405c3.91031,4.16563 9.28531,7.71313 15.8025,10.6425c13.04781,5.87219 30.67781,9.3525 50.095,9.3525c10.18563,0 19.91438,-0.92719 28.7025,-2.6875c1.86781,-0.38969 3.07719,-2.21719 2.6875,-4.085c-0.38969,-1.86781 -2.21719,-3.07719 -4.085,-2.6875c-8.30437,1.66625 -17.56281,2.58 -27.305,2.58c-18.58406,0 -35.34062,-3.48031 -47.1925,-8.815c-5.92594,-2.66062 -10.60219,-5.77812 -13.6525,-9.03c-3.05031,-3.25187 -4.515,-6.43656 -4.515,-9.675v-16.0175c3.85656,3.93719 9.01656,7.29656 15.265,10.105c13.04781,5.87219 30.67781,9.3525 50.095,9.3525c3.68188,0 7.32344,-0.08062 10.8575,-0.3225c1.89469,-0.14781 3.31906,-1.81406 3.17125,-3.70875c-0.14781,-1.89469 -1.81406,-3.31906 -3.70875,-3.17125c-3.35937,0.22844 -6.79937,0.3225 -10.32,0.3225c-18.58406,0 -35.34062,-3.48031 -47.1925,-8.815c-5.92594,-2.66062 -10.60219,-5.77812 -13.6525,-9.03c-3.05031,-3.25187 -4.515,-6.43656 -4.515,-9.675c0.02688,-0.215 0.02688,-0.43 0,-0.645v-18.8125c3.85656,3.93719 9.01656,7.29656 15.265,10.105c13.04781,5.87219 30.67781,9.3525 50.095,9.3525c1.23625,0.01344 2.39188,-0.63156 3.02344,-1.70656c0.61813,-1.075 0.61813,-2.39187 0,-3.46687c-0.63156,-1.075 -1.78719,-1.72 -3.02344,-1.70656c-18.58406,0 -35.34062,-3.48031 -47.1925,-8.815c-5.92594,-2.66062 -10.60219,-5.77812 -13.6525,-9.03c-3.05031,-3.25187 -4.515,-6.43656 -4.515,-9.675c0.02688,-0.215 0.02688,-0.43 0,-0.645v-18.8125c3.85656,3.93719 9.01656,7.29656 15.265,10.105c13.04781,5.87219 30.67781,9.3525 50.095,9.3525c19.41719,0 37.04719,-3.48031 50.095,-9.3525c6.24844,-2.80844 11.40844,-6.16781 15.265,-10.105v19.4575c-0.01344,1.23625 0.63156,2.39188 1.70656,3.02344c1.075,0.61813 2.39187,0.61813 3.46687,0c1.075,-0.63156 1.72,-1.78719 1.70656,-3.02344v-34.4c0,-0.1075 0,-0.215 0,-0.3225c0,-0.1075 0,-0.215 0,-0.3225c0,-0.04031 0,-0.06719 0,-0.1075c-0.02687,-0.06719 -0.06719,-0.14781 -0.1075,-0.215c-0.28219,-4.93156 -2.56656,-9.54062 -6.235,-13.4375c-3.91031,-4.16562 -9.28531,-7.71312 -15.8025,-10.6425c-13.04781,-5.87219 -30.67781,-9.3525 -50.095,-9.3525zM72.24,6.88c18.58406,0 35.34063,3.48031 47.1925,8.815c5.92594,2.66063 10.60219,5.77813 13.6525,9.03c3.05031,3.25188 4.515,6.43656 4.515,9.675c0,3.23844 -1.46469,6.42313 -4.515,9.675c-3.05031,3.25188 -7.72656,6.36938 -13.6525,9.03c-11.85187,5.33469 -28.60844,8.815 -47.1925,8.815c-18.58406,0 -35.34062,-3.48031 -47.1925,-8.815c-5.92594,-2.66062 -10.60219,-5.77812 -13.6525,-9.03c-3.05031,-3.25187 -4.515,-6.43656 -4.515,-9.675c0,-0.1075 0,-0.215 0,-0.3225c0.09406,-3.13094 1.55875,-6.20812 4.515,-9.3525c3.05031,-3.25187 7.72656,-6.36937 13.6525,-9.03c11.85188,-5.33469 28.60844,-8.815 47.1925,-8.815zM129,75.68c-5.22719,0 -9.31219,2.6875 -15.05,5.59c-5.73781,2.9025 -13.28969,6.43656 -25.2625,9.03l-2.6875,0.5375v2.795c0,28.79656 10.32,48.375 20.64,60.63c10.32,12.255 20.855,17.415 20.855,17.415l1.6125,0.7525l1.505,-0.86c0,0 41.3875,-22.145 41.3875,-77.9375v-2.795l-2.6875,-0.5375c-11.97281,-2.59344 -19.52469,-6.1275 -25.2625,-9.03c-5.73781,-2.9025 -9.82281,-5.59 -15.05,-5.59zM129,82.56c2.49938,0 5.96625,1.81406 11.9325,4.8375c5.41531,2.74125 13.18219,6.06031 23.9725,8.7075c-1.15562,46.92375 -31.4975,65.87063 -35.905,68.37c-1.96187,-1.03469 -8.98969,-4.87781 -17.2,-14.62c-9.1375,-10.84406 -18.10031,-28.07094 -18.705,-53.75c10.79031,-2.64719 18.55719,-5.96625 23.9725,-8.7075c5.96625,-3.02344 9.43313,-4.8375 11.9325,-4.8375z"></path></g></g></svg>