<svg xmlns="http://www.w3.org/2000/svg" x="0px" y="0px"
width="50" height="50"
viewBox="0 0 172 172"
style=" fill:#000000;"><g fill="none" fill-rule="nonzero" stroke="none" stroke-width="1" stroke-linecap="butt" stroke-linejoin="miter" stroke-miterlimit="10" stroke-dasharray="" stroke-dashoffset="0" font-family="none" font-weight="none" font-size="none" text-anchor="none" style="mix-blend-mode: normal"><path d="M0,172v-172h172v172z" fill="none"></path><g fill="#032f9c"><path d="M130.1825,0.3225c-1.29,0.22844 -2.32469,1.16906 -2.6875,2.41875c-0.36281,1.26313 0.01344,2.60688 0.9675,3.49375l31.605,31.605h-156.6275c-0.1075,0 -0.215,0 -0.3225,0c-0.1075,0 -0.215,0 -0.3225,0c-1.89469,0.17469 -3.29219,1.86781 -3.1175,3.7625c0.17469,1.89469 1.86781,3.29219 3.7625,3.1175h156.6275l-31.605,31.605c-1.02125,0.83313 -1.49156,2.16344 -1.19594,3.45344c0.29562,1.27656 1.30344,2.28438 2.58,2.58c1.29,0.29563 2.62031,-0.17469 3.45344,-1.19594l37.5175,-37.41l2.365,-2.4725l-2.365,-2.4725l-37.5175,-37.41c-0.71219,-0.76594 -1.74687,-1.15562 -2.795,-1.075c-0.1075,0 -0.215,0 -0.3225,0zM34.4,113.1975c-8.45219,0 -15.60094,6.07375 -17.2,14.0825h-13.76c-0.1075,0 -0.215,0 -0.3225,0c-0.1075,0 -0.215,0 -0.3225,0c-1.89469,0.17469 -3.29219,1.86781 -3.1175,3.7625c0.17469,1.89469 1.86781,3.29219 3.7625,3.1175h13.76c1.59906,8.00875 8.74781,14.0825 17.2,14.0825c8.45219,0 15.60094,-6.07375 17.2,-14.0825h17.2c1.59906,8.00875 8.74781,14.0825 17.2,14.0825c8.45219,0 15.60094,-6.07375 17.2,-14.0825h17.2c1.59906,8.00875 8.74781,14.0825 17.2,14.0825c8.45219,0 15.60094,-6.07375 17.2,-14.0825h13.76c1.23625,0.01344 2.39188,-0.63156 3.02344,-1.70656c0.61813,-1.075 0.61813,-2.39187 0,-3.46687c-0.63156,-1.075 -1.78719,-1.72 -3.02344,-1.70656h-13.76c-1.59906,-8.00875 -8.74781,-14.0825 -17.2,-14.0825c-8.45219,0 -15.60094,6.07375 -17.2,14.0825h-17.2c-1.59906,-8.00875 -8.74781,-14.0825 -17.2,-14.0825c-8.45219,0 -15.60094,6.07375 -17.2,14.0825h-17.2c-1.59906,-8.00875 -8.74781,-14.0825 -17.2,-14.0825zM34.4,120.7225c5.59,0 9.9975,4.4075 9.9975,9.9975c-0.01344,0.14781 -0.01344,0.28219 0,0.43c-0.215,5.375 -4.55531,9.5675 -9.9975,9.5675c-5.59,0 -9.9975,-4.4075 -9.9975,-9.9975c0,-5.59 4.4075,-9.9975 9.9975,-9.9975zM86,120.7225c5.50938,0 9.89,4.3 9.9975,9.7825c-0.01344,0.215 -0.01344,0.43 0,0.645c-0.215,5.375 -4.55531,9.5675 -9.9975,9.5675c-5.59,0 -9.9975,-4.4075 -9.9975,-9.9975c0,-5.59 4.4075,-9.9975 9.9975,-9.9975zM137.6,120.7225c5.59,0 9.9975,4.4075 9.9975,9.9975c-0.01344,0.14781 -0.01344,0.28219 0,0.43c-0.215,5.375 -4.55531,9.5675 -9.9975,9.5675c-5.59,0 -9.9975,-4.4075 -9.9975,-9.9975c0,-5.59 4.4075,-9.9975 9.9975,-9.9975z"></path></g></g></svg>