<svg xmlns="http://www.w3.org/2000/svg" x="0px" y="0px"
width="50" height="50"
viewBox="0 0 172 172"><g fill="none" fill-rule="nonzero" stroke="none" stroke-width="1" stroke-linecap="butt" stroke-linejoin="miter" stroke-miterlimit="10" stroke-dasharray="" stroke-dashoffset="0" font-family="none" font-weight="none" font-size="none" text-anchor="none" style="mix-blend-mode: normal"><path d="M0,172v-172h172v172z" fill="none"></path><g fill="#032f9c"><path d="M51.54625,13.71297c-0.16665,0.00361 -0.33282,0.01933 -0.49719,0.04703h-33.84906c-1.89978,0.00019 -3.43981,1.54022 -3.44,3.44v33.82219c-0.0614,0.37149 -0.0614,0.75054 0,1.12203v33.27797c-0.0614,0.37149 -0.0614,0.75054 0,1.12203v33.27797c-0.0614,0.37149 -0.0614,0.75054 0,1.12203v33.85578c0.00019,1.89978 1.54022,3.43981 3.44,3.44h33.82219c0.37149,0.0614 0.75054,0.0614 1.12203,0h33.27797c0.37149,0.0614 0.75054,0.0614 1.12203,0h33.27797c0.37149,0.0614 0.75054,0.0614 1.12203,0h33.85578c1.89978,-0.00019 3.43981,-1.54022 3.44,-3.44v-33.82219c0.0614,-0.37149 0.0614,-0.75054 0,-1.12203v-33.27797c0.0614,-0.37149 0.0614,-0.75054 0,-1.12203v-33.27797c0.0614,-0.37149 0.0614,-0.75054 0,-1.12203v-33.85578c-0.00019,-1.89978 -1.54022,-3.43981 -3.44,-3.44h-33.86922c-0.19315,-0.03228 -0.3887,-0.04802 -0.58453,-0.04703c-0.16665,0.00361 -0.33282,0.01933 -0.49719,0.04703h-33.31828c-0.19315,-0.03228 -0.3887,-0.04802 -0.58453,-0.04703c-0.16665,0.00361 -0.33282,0.01933 -0.49719,0.04703h-33.31828c-0.19315,-0.03228 -0.3887,-0.04802 -0.58453,-0.04703zM20.64,20.64h27.52v27.52h-27.52zM55.04,20.64h27.52v27.52h-27.52zM89.44,20.64h27.52v27.52h-27.52zM123.84,20.64h27.52v27.52h-27.52zM27.52,24.08c-1.89986,0 -3.44,1.54014 -3.44,3.44c0,1.89986 1.54014,3.44 3.44,3.44c1.89986,0 3.44,-1.54014 3.44,-3.44c0,-1.89986 -1.54014,-3.44 -3.44,-3.44zM41.28,24.08c-1.89986,0 -3.44,1.54014 -3.44,3.44c0,1.89986 1.54014,3.44 3.44,3.44c1.89986,0 3.44,-1.54014 3.44,-3.44c0,-1.89986 -1.54014,-3.44 -3.44,-3.44zM61.92,24.08c-1.89986,0 -3.44,1.54014 -3.44,3.44c0,1.89986 1.54014,3.44 3.44,3.44c1.89986,0 3.44,-1.54014 3.44,-3.44c0,-1.89986 -1.54014,-3.44 -3.44,-3.44zM75.68,24.08c-1.89986,0 -3.44,1.54014 -3.44,3.44c0,1.89986 1.54014,3.44 3.44,3.44c1.89986,0 3.44,-1.54014 3.44,-3.44c0,-1.89986 -1.54014,-3.44 -3.44,-3.44zM96.32,24.08c-1.89986,0 -3.44,1.54014 -3.44,3.44c0,1.89986 1.54014,3.44 3.44,3.44c1.89986,0 3.44,-1.54014 3.44,-3.44c0,-1.89986 -1.54014,-3.44 -3.44,-3.44zM110.08,24.08c-1.89986,0 -3.44,1.54014 -3.44,3.44c0,1.89986 1.54014,3.44 3.44,3.44c1.89986,0 3.44,-1.54014 3.44,-3.44c0,-1.89986 -1.54014,-3.44 -3.44,-3.44zM130.72,24.08c-1.89986,0 -3.44,1.54014 -3.44,3.44c0,1.89986 1.54014,3.44 3.44,3.44c1.89986,0 3.44,-1.54014 3.44,-3.44c0,-1.89986 -1.54014,-3.44 -3.44,-3.44zM144.48,24.08c-1.89986,0 -3.44,1.54014 -3.44,3.44c0,1.89986 1.54014,3.44 3.44,3.44c1.89986,0 3.44,-1.54014 3.44,-3.44c0,-1.89986 -1.54014,-3.44 -3.44,-3.44zM27.52,37.84c-1.89986,0 -3.44,1.54014 -3.44,3.44c0,1.89986 1.54014,3.44 3.44,3.44c1.89986,0 3.44,-1.54014 3.44,-3.44c0,-1.89986 -1.54014,-3.44 -3.44,-3.44zM41.28,37.84c-1.89986,0 -3.44,1.54014 -3.44,3.44c0,1.89986 1.54014,3.44 3.44,3.44c1.89986,0 3.44,-1.54014 3.44,-3.44c0,-1.89986 -1.54014,-3.44 -3.44,-3.44zM61.92,37.84c-1.89986,0 -3.44,1.54014 -3.44,3.44c0,1.89986 1.54014,3.44 3.44,3.44c1.89986,0 3.44,-1.54014 3.44,-3.44c0,-1.89986 -1.54014,-3.44 -3.44,-3.44zM75.68,37.84c-1.89986,0 -3.44,1.54014 -3.44,3.44c0,1.89986 1.54014,3.44 3.44,3.44c1.89986,0 3.44,-1.54014 3.44,-3.44c0,-1.89986 -1.54014,-3.44 -3.44,-3.44zM96.32,37.84c-1.89986,0 -3.44,1.54014 -3.44,3.44c0,1.89986 1.54014,3.44 3.44,3.44c1.89986,0 3.44,-1.54014 3.44,-3.44c0,-1.89986 -1.54014,-3.44 -3.44,-3.44zM110.08,37.84c-1.89986,0 -3.44,1.54014 -3.44,3.44c0,1.89986 1.54014,3.44 3.44,3.44c1.89986,0 3.44,-1.54014 3.44,-3.44c0,-1.89986 -1.54014,-3.44 -3.44,-3.44zM130.72,37.84c-1.89986,0 -3.44,1.54014 -3.44,3.44c0,1.89986 1.54014,3.44 3.44,3.44c1.89986,0 3.44,-1.54014 3.44,-3.44c0,-1.89986 -1.54014,-3.44 -3.44,-3.44zM144.48,37.84c-1.89986,0 -3.44,1.54014 -3.44,3.44c0,1.89986 1.54014,3.44 3.44,3.44c1.89986,0 3.44,-1.54014 3.44,-3.44c0,-1.89986 -1.54014,-3.44 -3.44,-3.44zM20.64,55.04h27.52v27.52h-27.52zM55.04,55.04h27.52v27.52h-27.52zM89.44,55.04h27.52v27.52h-27.52zM123.84,55.04h27.52v27.52h-27.52zM27.52,58.48c-1.89986,0 -3.44,1.54014 -3.44,3.44c0,1.89986 1.54014,3.44 3.44,3.44c1.89986,0 3.44,-1.54014 3.44,-3.44c0,-1.89986 -1.54014,-3.44 -3.44,-3.44zM41.28,58.48c-1.89986,0 -3.44,1.54014 -3.44,3.44c0,1.89986 1.54014,3.44 3.44,3.44c1.89986,0 3.44,-1.54014 3.44,-3.44c0,-1.89986 -1.54014,-3.44 -3.44,-3.44zM27.52,72.24c-1.89986,0 -3.44,1.54014 -3.44,3.44c0,1.89986 1.54014,3.44 3.44,3.44c1.89986,0 3.44,-1.54014 3.44,-3.44c0,-1.89986 -1.54014,-3.44 -3.44,-3.44zM41.28,72.24c-1.89986,0 -3.44,1.54014 -3.44,3.44c0,1.89986 1.54014,3.44 3.44,3.44c1.89986,0 3.44,-1.54014 3.44,-3.44c0,-1.89986 -1.54014,-3.44 -3.44,-3.44zM20.64,89.44h27.52v27.52h-27.52zM55.04,89.44h27.52v27.52h-27.52zM89.44,89.44h27.52v27.52h-27.52zM123.84,89.44h27.52v27.52h-27.52zM27.52,92.88c-1.89986,0 -3.44,1.54014 -3.44,3.44c0,1.89986 1.54014,3.44 3.44,3.44c1.89986,0 3.44,-1.54014 3.44,-3.44c0,-1.89986 -1.54014,-3.44 -3.44,-3.44zM41.28,92.88c-1.89986,0 -3.44,1.54014 -3.44,3.44c0,1.89986 1.54014,3.44 3.44,3.44c1.89986,0 3.44,-1.54014 3.44,-3.44c0,-1.89986 -1.54014,-3.44 -3.44,-3.44zM27.52,106.64c-1.89986,0 -3.44,1.54014 -3.44,3.44c0,1.89986 1.54014,3.44 3.44,3.44c1.89986,0 3.44,-1.54014 3.44,-3.44c0,-1.89986 -1.54014,-3.44 -3.44,-3.44zM41.28,106.64c-1.89986,0 -3.44,1.54014 -3.44,3.44c0,1.89986 1.54014,3.44 3.44,3.44c1.89986,0 3.44,-1.54014 3.44,-3.44c0,-1.89986 -1.54014,-3.44 -3.44,-3.44zM20.64,123.84h27.52v27.52h-27.52zM55.04,123.84h27.52v27.52h-27.52zM89.44,123.84h27.52v27.52h-27.52zM123.84,123.84h27.52v27.52h-27.52zM27.52,127.28c-1.89986,0 -3.44,1.54014 -3.44,3.44c0,1.89986 1.54014,3.44 3.44,3.44c1.89986,0 3.44,-1.54014 3.44,-3.44c0,-1.89986 -1.54014,-3.44 -3.44,-3.44zM41.28,127.28c-1.89986,0 -3.44,1.54014 -3.44,3.44c0,1.89986 1.54014,3.44 3.44,3.44c1.89986,0 3.44,-1.54014 3.44,-3.44c0,-1.89986 -1.54014,-3.44 -3.44,-3.44zM27.52,141.04c-1.89986,0 -3.44,1.54014 -3.44,3.44c0,1.89986 1.54014,3.44 3.44,3.44c1.89986,0 3.44,-1.54014 3.44,-3.44c0,-1.89986 -1.54014,-3.44 -3.44,-3.44zM41.28,141.04c-1.89986,0 -3.44,1.54014 -3.44,3.44c0,1.89986 1.54014,3.44 3.44,3.44c1.89986,0 3.44,-1.54014 3.44,-3.44c0,-1.89986 -1.54014,-3.44 -3.44,-3.44z"></path></g></g></svg>