<svg xmlns="http://www.w3.org/2000/svg" x="0px" y="0px"
width="100" height="100"
viewBox="0 0 172 172"
style=" fill:#000000;"><g fill="none" fill-rule="nonzero" stroke="none" stroke-width="1" stroke-linecap="butt" stroke-linejoin="miter" stroke-miterlimit="10" stroke-dasharray="" stroke-dashoffset="0" font-family="none" font-weight="none" font-size="none" text-anchor="none" style="mix-blend-mode: normal"><path d="M0,172v-172h172v172z" fill="none"></path><g fill="#3498db"><path d="M86,10.32c-28.46062,0 -51.6,23.13938 -51.6,51.6c0,17.40156 6.63813,27.74844 12.9,34.9375c3.13094,3.60125 6.15438,6.50375 8.17,9.1375c2.01563,2.63375 3.01,4.75688 3.01,7.525v34.4c0,5.65719 4.66281,10.32 10.32,10.32h3.9775c1.53188,5.9125 6.85313,10.32 13.2225,10.32c6.36938,0 11.69063,-4.4075 13.2225,-10.32h3.9775c5.65719,0 10.32,-4.66281 10.32,-10.32v-34.4c0,-3.88344 1.14219,-6.57094 3.1175,-9.3525c1.97531,-2.78156 4.945,-5.54969 8.0625,-8.9225c6.22156,-6.75906 12.9,-16.24594 12.9,-33.325c0,-28.46062 -23.13937,-51.6 -51.6,-51.6zM86,17.2c24.73844,0 44.72,19.98156 44.72,44.72c0,15.3725 -5.36156,22.40031 -11.18,28.7025c-2.9025,3.15781 -5.95281,6.00656 -8.4925,9.5675c-2.53969,3.56094 -4.4075,7.955 -4.4075,13.33v17.2h-41.28v-17.2c0,-4.63594 -2.01562,-8.46562 -4.515,-11.7175c-2.49937,-3.25187 -5.49594,-6.15437 -8.385,-9.46c-5.77812,-6.62469 -11.18,-14.68719 -11.18,-30.4225c0,-24.73844 19.98156,-44.72 44.72,-44.72zM71.9175,61.8125c-0.14781,0.02688 -0.29562,0.06719 -0.43,0.1075c-1.29,0.22844 -2.32469,1.16906 -2.6875,2.41875c-0.36281,1.26313 0.01344,2.60688 0.9675,3.49375l12.7925,12.7925v43.215h6.88v-43.215l12.7925,-12.7925c1.37063,-1.37062 1.37063,-3.57437 0,-4.945c-1.37062,-1.37062 -3.57437,-1.37062 -4.945,0l-11.2875,11.2875l-11.2875,-11.2875c-0.71219,-0.76594 -1.74687,-1.15562 -2.795,-1.075zM65.36,137.6h41.28v10.32c0,1.90813 -1.53187,3.44 -3.44,3.44h-26.875c-0.45687,-0.09406 -0.94062,-0.09406 -1.3975,0h-6.1275c-1.90812,0 -3.44,-1.53187 -3.44,-3.44zM80.0875,158.24h11.825c-1.1825,2.05594 -3.34594,3.44 -5.9125,3.44c-2.56656,0 -4.73,-1.38406 -5.9125,-3.44z"></path></g></g></svg>