<svg xmlns="http://www.w3.org/2000/svg" x="0px" y="0px"
width="64" height="64"
viewBox="0 0 172 172"><defs><linearGradient x1="48.375" y1="40.64844" x2="48.375" y2="67.9615" gradientUnits="userSpaceOnUse" id="color-1_44014_gr1"><stop offset="0" stop-color="#95facc"></stop><stop offset="1" stop-color="#6ec8ff"></stop></linearGradient><linearGradient x1="86" y1="21.05119" x2="86" y2="152.31138" gradientUnits="userSpaceOnUse" id="color-2_44014_gr2"><stop offset="0" stop-color="#2af598"></stop><stop offset="1" stop-color="#009efd"></stop></linearGradient></defs><g fill="none" fill-rule="nonzero" stroke="none" stroke-width="1" stroke-linecap="butt" stroke-linejoin="miter" stroke-miterlimit="10" stroke-dasharray="" stroke-dashoffset="0" font-family="none" font-weight="none" font-size="none" text-anchor="none" style="mix-blend-mode: normal"><path d="M0,172v-172h172v172z" fill="none"></path><g><path d="M50.01975,41.65894l0.76594,3.79475c0.59931,2.967 2.91594,5.28631 5.88294,5.88294l3.79475,0.76594c1.79525,0.36281 1.79525,2.92937 0,3.29219l-3.79475,0.76594c-2.967,0.59931 -5.28631,2.91594 -5.88294,5.88294l-0.76594,3.79475c-0.36281,1.79525 -2.92937,1.79525 -3.29219,0l-0.76594,-3.79475c-0.59931,-2.967 -2.91594,-5.28631 -5.88294,-5.88294l-3.79475,-0.76594c-1.79525,-0.36281 -1.79525,-2.92937 0,-3.29219l3.79475,-0.76594c2.967,-0.59931 5.28631,-2.91594 5.88294,-5.88294l0.76594,-3.79475c0.36281,-1.79525 2.93206,-1.79525 3.29219,0z" fill="url(#color-1_44014_gr1)"></path><path d="M142.4375,72.5625h-8.0625v-10.75c0,-7.40944 -6.02806,-13.4375 -13.4375,-13.4375h-5.375c-4.41019,0 -8.299,2.16613 -10.75,5.45831c-2.451,-3.29219 -6.33981,-5.45831 -10.75,-5.45831h-5.375c-3.096,0 -5.91519,1.09381 -8.18881,2.86219c-1.29269,-16.61144 -15.18975,-29.73719 -32.12369,-29.73719c-17.78319,0 -32.25,14.46681 -32.25,32.25c0,12.73875 7.32612,24.04237 18.8125,29.29375v5.64375c-2.96431,0 -5.375,2.41069 -5.375,5.375v5.375c0,2.96431 2.41069,5.375 5.375,5.375h2.6875v2.6875c0,2.96431 2.41069,5.375 5.375,5.375h10.75c0,6.49031 4.62519,11.91637 10.75,13.16606v11.02144c0,7.40944 6.02806,13.4375 13.4375,13.4375h16.125c4.41019,0 8.299,-2.16612 10.75,-5.45831c2.451,3.29219 6.33981,5.45831 10.75,5.45831h16.125c7.40944,0 13.4375,-6.02806 13.4375,-13.4375v-11.02144c6.12481,-1.24969 10.75,-6.67575 10.75,-13.16606v-26.875c0,-7.40944 -6.02806,-13.4375 -13.4375,-13.4375zM38.60325,78.76256c-10.38988,-4.0635 -17.10325,-13.88094 -17.10325,-25.01256c0,-14.81887 12.05613,-26.875 26.875,-26.875c14.81887,0 26.875,12.05613 26.875,26.875c0,11.13163 -6.71337,20.94906 -17.10325,25.01256l-1.70925,0.66919v9.25575h-5.375v-8.0625h-5.375v8.0625h-5.375v-9.25575zM34.9375,94.0625h26.875v5.375h-26.875zM43,107.5v-2.6875h10.75v2.6875zM150.5,112.875c0,4.44512 -3.61738,8.0625 -8.0625,8.0625h-13.4375c-4.44512,0 -8.0625,3.61738 -8.0625,8.0625v5.375h5.375v-5.375c0,-1.4835 1.204,-2.6875 2.6875,-2.6875h10.75v10.75c0,4.44512 -3.61738,8.0625 -8.0625,8.0625h-16.125c-4.44512,0 -8.0625,-3.61738 -8.0625,-8.0625v-8.0625v-8.0625c0,-1.4835 1.204,-2.6875 2.6875,-2.6875h5.375v-5.375h-5.375c-4.44512,0 -8.0625,3.61738 -8.0625,8.0625v8.0625v8.0625c0,4.44512 -3.61738,8.0625 -8.0625,8.0625h-16.125c-4.44513,0 -8.0625,-3.61738 -8.0625,-8.0625v-10.75h10.75c1.4835,0 2.6875,1.204 2.6875,2.6875v5.375h5.375v-5.375c0,-4.44512 -3.61737,-8.0625 -8.0625,-8.0625h-13.4375c-4.44512,0 -8.0625,-3.61738 -8.0625,-8.0625v-5.375v-2.6875h2.6875c2.96431,0 5.375,-2.41069 5.375,-5.375v-5.375c0,-2.96431 -2.41069,-5.375 -5.375,-5.375v-5.64375c2.99119,-1.36794 5.69212,-3.15244 8.0625,-5.25944v0.15319h5.375v8.0625h5.375v-18.8125v-5.375c0,-4.44512 3.61737,-8.0625 8.0625,-8.0625h5.375c4.44512,0 8.0625,3.61738 8.0625,8.0625v21.5v2.6875c0,1.4835 -1.204,2.6875 -2.6875,2.6875h-5.375v5.375h5.375c4.44512,0 8.0625,-3.61738 8.0625,-8.0625v-2.6875v-21.5c0,-4.44512 3.61738,-8.0625 8.0625,-8.0625h5.375c4.44512,0 8.0625,3.61738 8.0625,8.0625v24.1875h5.375v-8.0625h8.0625c4.44512,0 8.0625,3.61737 8.0625,8.0625z" fill="url(#color-2_44014_gr2)"></path></g></g></svg>