<svg xmlns="http://www.w3.org/2000/svg" x="0px" y="0px"
width="64" height="64"
viewBox="0 0 172 172"
style=" fill:#000000;"><defs><linearGradient x1="91.375" y1="31.57813" x2="91.375" y2="61.14063" gradientUnits="userSpaceOnUse" id="color-1_43992_gr1"><stop offset="0" stop-color="#95facc"></stop><stop offset="1" stop-color="#6ec8ff"></stop></linearGradient><linearGradient x1="86" y1="13.4375" x2="86" y2="158.68881" gradientUnits="userSpaceOnUse" id="color-2_43992_gr2"><stop offset="0" stop-color="#2af598"></stop><stop offset="1" stop-color="#009efd"></stop></linearGradient><linearGradient x1="40.3125" y1="13.4375" x2="40.3125" y2="158.68881" gradientUnits="userSpaceOnUse" id="color-3_43992_gr3"><stop offset="0" stop-color="#2af598"></stop><stop offset="1" stop-color="#009efd"></stop></linearGradient><linearGradient x1="120.9375" y1="13.4375" x2="120.9375" y2="158.68881" gradientUnits="userSpaceOnUse" id="color-4_43992_gr4"><stop offset="0" stop-color="#2af598"></stop><stop offset="1" stop-color="#009efd"></stop></linearGradient><linearGradient x1="91.375" y1="13.4375" x2="91.375" y2="158.68881" gradientUnits="userSpaceOnUse" id="color-5_43992_gr5"><stop offset="0" stop-color="#2af598"></stop><stop offset="1" stop-color="#009efd"></stop></linearGradient><linearGradient x1="51.0625" y1="13.4375" x2="51.0625" y2="158.68881" gradientUnits="userSpaceOnUse" id="color-6_43992_gr6"><stop offset="0" stop-color="#2af598"></stop><stop offset="1" stop-color="#009efd"></stop></linearGradient><linearGradient x1="77.9375" y1="13.4375" x2="77.9375" y2="158.68881" gradientUnits="userSpaceOnUse" id="color-7_43992_gr7"><stop offset="0" stop-color="#2af598"></stop><stop offset="1" stop-color="#009efd"></stop></linearGradient><linearGradient x1="67.1875" y1="13.4375" x2="67.1875" y2="158.68881" gradientUnits="userSpaceOnUse" id="color-8_43992_gr8"><stop offset="0" stop-color="#2af598"></stop><stop offset="1" stop-color="#009efd"></stop></linearGradient><linearGradient x1="75.25" y1="13.4375" x2="75.25" y2="158.68881" gradientUnits="userSpaceOnUse" id="color-9_43992_gr9"><stop offset="0" stop-color="#2af598"></stop><stop offset="1" stop-color="#009efd"></stop></linearGradient><linearGradient x1="120.9375" y1="13.4375" x2="120.9375" y2="158.68881" gradientUnits="userSpaceOnUse" id="color-10_43992_gr10"><stop offset="0" stop-color="#2af598"></stop><stop offset="1" stop-color="#009efd"></stop></linearGradient><linearGradient x1="120.9375" y1="13.4375" x2="120.9375" y2="158.68881" gradientUnits="userSpaceOnUse" id="color-11_43992_gr11"><stop offset="0" stop-color="#2af598"></stop><stop offset="1" stop-color="#009efd"></stop></linearGradient><linearGradient x1="120.9375" y1="13.4375" x2="120.9375" y2="158.68881" gradientUnits="userSpaceOnUse" id="color-12_43992_gr12"><stop offset="0" stop-color="#2af598"></stop><stop offset="1" stop-color="#009efd"></stop></linearGradient></defs><g fill="none" fill-rule="nonzero" stroke="none" stroke-width="1" stroke-linecap="butt" stroke-linejoin="miter" stroke-miterlimit="10" stroke-dasharray="" stroke-dashoffset="0" font-family="none" font-weight="none" font-size="none" text-anchor="none" style="mix-blend-mode: normal"><path d="M0,172v-172h172v172z" fill="none"></path><g><path d="M102.125,59.125h-21.5v-24.1875c0,-1.4835 1.204,-2.6875 2.6875,-2.6875h16.125c1.4835,0 2.6875,1.204 2.6875,2.6875z" fill="url(#color-1_43992_gr1)"></path><path d="M137.0625,16.125h-59.125c-7.40944,0 -13.4375,6.02806 -13.4375,13.4375v18.8125h-34.9375c-4.44513,0 -8.0625,3.61738 -8.0625,8.0625v91.375c0,4.44512 3.61737,8.0625 8.0625,8.0625h75.25c4.44512,0 8.0625,-3.61738 8.0625,-8.0625v-45.8595c0.35744,-0.32519 0.71487,-0.65575 1.01587,-1.05081l10.28775,-13.3945l0.15587,-0.22575c0.4945,-0.80087 1.3545,-1.28194 2.29512,-1.28194h10.43287c7.40944,0 13.4375,-6.02806 13.4375,-13.4375v-43c0,-7.40944 -6.02806,-13.4375 -13.4375,-13.4375zM107.5,147.8125c0,1.4835 -1.204,2.6875 -2.6875,2.6875h-75.25c-1.4835,0 -2.6875,-1.204 -2.6875,-2.6875v-91.375c0,-1.4835 1.204,-2.6875 2.6875,-2.6875h34.9375v18.8125c0,7.40944 6.02806,13.4375 13.4375,13.4375h10.43287c0.94331,0 1.80062,0.48106 2.29512,1.28463l10.44363,13.62025c1.53725,1.9995 3.86463,3.14706 6.39087,3.14706zM145.125,72.5625c0,4.44513 -3.61738,8.0625 -8.0625,8.0625h-10.43287c-2.76812,0 -5.29706,1.38406 -6.78863,3.70875l-10.2125,13.29506c-1.02394,1.333 -3.23306,1.333 -4.257,0l-10.2125,-13.29506c-1.49156,-2.32469 -4.0205,-3.70875 -6.78863,-3.70875h-10.43287c-4.44513,0 -8.0625,-3.61737 -8.0625,-8.0625v-43c0,-4.44513 3.61737,-8.0625 8.0625,-8.0625h59.125c4.44512,0 8.0625,3.61737 8.0625,8.0625z" fill="url(#color-2_43992_gr2)"></path><path d="M48.375,67.1875v-8.0625h-5.375v8.0625c0,1.4835 -1.204,2.6875 -2.6875,2.6875h-8.0625v5.375h8.0625c4.44512,0 8.0625,-3.61737 8.0625,-8.0625z" fill="url(#color-3_43992_gr3)"></path><path d="M107.5,32.25h26.875v5.375h-26.875z" fill="url(#color-4_43992_gr4)"></path><path d="M80.625,64.5h21.5v5.375h-21.5z" fill="url(#color-5_43992_gr5)"></path><path d="M37.625,86h10.75v21.5h5.375v-21.5h10.75v-5.375h-26.875z" fill="url(#color-6_43992_gr6)"></path><path d="M64.5,102.125h26.875v5.375h-26.875z" fill="url(#color-7_43992_gr7)"></path><path d="M91.375,112.875h-48.375c-2.96431,0 -5.375,2.41069 -5.375,5.375v16.125c0,2.96431 2.41069,5.375 5.375,5.375h48.375c2.96431,0 5.375,-2.41069 5.375,-5.375v-16.125c0,-2.96431 -2.41069,-5.375 -5.375,-5.375zM80.625,118.25v16.125h-26.875v-16.125zM43,118.25h5.375v16.125h-5.375zM86,134.375v-16.125h5.375l0.00538,16.125z" fill="url(#color-8_43992_gr8)"></path><path d="M64.5,91.375h21.5v5.375h-21.5z" fill="url(#color-9_43992_gr9)"></path><path d="M107.5,43h26.875v5.375h-26.875z" fill="url(#color-10_43992_gr10)"></path><path d="M107.5,53.75h26.875v5.375h-26.875z" fill="url(#color-11_43992_gr11)"></path><path d="M107.5,64.5h26.875v5.375h-26.875z" fill="url(#color-12_43992_gr12)"></path></g></g></svg>