<svg xmlns="http://www.w3.org/2000/svg" x="0px" y="0px"
width="64" height="64"
viewBox="0 0 172 172"
style=" fill:#000000;"><defs><linearGradient x1="86" y1="11.64494" x2="86" y2="157.20263" gradientUnits="userSpaceOnUse" id="color-1_43657_gr1"><stop offset="0" stop-color="#2af598"></stop><stop offset="1" stop-color="#009efd"></stop></linearGradient><linearGradient x1="86" y1="70.99569" x2="86" y2="101.23544" gradientUnits="userSpaceOnUse" id="color-2_43657_gr2"><stop offset="0" stop-color="#95facc"></stop><stop offset="1" stop-color="#6ec8ff"></stop></linearGradient><linearGradient x1="86" y1="11.64494" x2="86" y2="157.20263" gradientUnits="userSpaceOnUse" id="color-3_43657_gr3"><stop offset="0" stop-color="#2af598"></stop><stop offset="1" stop-color="#009efd"></stop></linearGradient><linearGradient x1="86" y1="11.64494" x2="86" y2="157.20263" gradientUnits="userSpaceOnUse" id="color-4_43657_gr4"><stop offset="0" stop-color="#2af598"></stop><stop offset="1" stop-color="#009efd"></stop></linearGradient><linearGradient x1="123.625" y1="11.64494" x2="123.625" y2="157.20263" gradientUnits="userSpaceOnUse" id="color-5_43657_gr5"><stop offset="0" stop-color="#2af598"></stop><stop offset="1" stop-color="#009efd"></stop></linearGradient><linearGradient x1="123.625" y1="11.64494" x2="123.625" y2="157.20263" gradientUnits="userSpaceOnUse" id="color-6_43657_gr6"><stop offset="0" stop-color="#2af598"></stop><stop offset="1" stop-color="#009efd"></stop></linearGradient></defs><g fill="none" fill-rule="nonzero" stroke="none" stroke-width="1" stroke-linecap="butt" stroke-linejoin="miter" stroke-miterlimit="10" stroke-dasharray="" stroke-dashoffset="0" font-family="none" font-weight="none" font-size="none" text-anchor="none" style="mix-blend-mode: normal"><path d="M0,172v-172h172v172z" fill="none"></path><g><path d="M88.69825,155.875h-5.3965c-5.92056,0 -10.73925,-4.81869 -10.73925,-10.73925v-3.12019c0,-2.29244 -1.53456,-4.35106 -3.82162,-5.13044c-2.20106,-0.74712 -4.386,-1.6555 -6.49031,-2.69556c-2.1715,-1.06963 -4.73,-0.70413 -6.35325,0.91644l-2.20644,2.21181c-4.18981,4.18981 -11.00263,4.18981 -15.18975,0l-3.81625,-3.81625c-4.18981,-4.18713 -4.18981,-11.00263 0,-15.18706l2.21181,-2.21181c1.62325,-1.62325 1.98875,-4.17638 0.91644,-6.35325c-1.04006,-2.10162 -1.94844,-4.28656 -2.69556,-6.48763c-0.78206,-2.28975 -2.84069,-3.82431 -5.13312,-3.82431h-3.12019c-5.92056,0 -10.73925,-4.81869 -10.73925,-10.73925v-5.3965c0,-5.92056 4.81869,-10.73925 10.73925,-10.73925h3.12019c2.29244,0 4.35106,-1.53456 5.13044,-3.82162c0.74712,-2.20106 1.6555,-4.386 2.69556,-6.49031c1.075,-2.17687 0.70681,-4.73 -0.91644,-6.35325l-2.21181,-2.20644c-4.18981,-4.18981 -4.18981,-11.00531 0,-15.18975l3.81625,-3.81625c4.18713,-4.18712 10.99725,-4.1925 15.18706,0l2.2145,2.2145c1.62325,1.62325 4.17906,1.99144 6.35056,0.91644c2.07744,-1.02663 4.26237,-1.92963 6.48225,-2.68212c2.29244,-0.77937 3.82969,-2.838 3.82969,-5.13312v-0.43806c0,-7.40944 6.02806,-13.4375 13.4375,-13.4375v5.375c-4.44513,0 -8.0625,3.61737 -8.0625,8.0625v0.43806c0,4.59563 -3.00194,8.70481 -7.47394,10.22325c-1.9995,0.67725 -3.96406,1.48888 -5.83456,2.41069c-4.24356,2.08819 -9.27994,1.3115 -12.52912,-1.93769l-2.2145,-2.2145c-2.09087,-2.09625 -5.49325,-2.09087 -7.58412,0l-3.81625,3.81625c-2.09088,2.09087 -2.09088,5.49594 0,7.58681l2.21181,2.20644c3.25456,3.25456 4.03125,8.29362 1.935,12.53719c-0.93794,1.89737 -1.75225,3.86194 -2.42681,5.84262c-1.52113,4.46662 -5.62763,7.46587 -10.22056,7.46587h-3.12019c-2.95625,0 -5.36425,2.408 -5.36425,5.36425v5.3965c0,2.95625 2.408,5.36425 5.36425,5.36425h3.12019c4.59294,0 8.69675,2.99925 10.21787,7.46319c0.67456,1.98069 1.49156,3.94525 2.42681,5.83994c2.09356,4.24356 1.31687,9.28262 -1.935,12.53719l-2.21181,2.21181c-2.09088,2.08819 -2.09088,5.49325 0,7.58413l3.81625,3.81625c2.09625,2.09088 5.49594,2.0855 7.58681,0l2.20644,-2.21181c3.25725,-3.25456 8.299,-4.03125 12.53719,-1.935c1.89737,0.93794 3.86194,1.75225 5.84262,2.42681c4.46663,1.52112 7.46588,5.62762 7.46588,10.22056v3.12019c0,2.95625 2.408,5.36425 5.36425,5.36425h5.3965c2.95625,0 5.36425,-2.408 5.36425,-5.36425v-3.12019c0,-4.59294 2.99925,-8.69675 7.46319,-10.21787c1.98069,-0.67456 3.94525,-1.49156 5.83994,-2.42681c4.24356,-2.10162 9.28262,-1.32494 12.53719,1.935l2.21181,2.21181c2.09087,2.09625 5.49325,2.09087 7.58413,0l3.81625,-3.81625c2.09088,-2.09088 2.09088,-5.49594 0,-7.58681l-2.35425,-2.35156c-3.18738,-3.19006 -3.93719,-8.10281 -1.8705,-12.23081c0.97019,-1.94038 1.81944,-3.95869 2.51819,-6.00387c1.52112,-4.46662 5.633,-7.46587 10.22325,-7.46587h0.4085c4.44244,0 8.05981,-3.61737 8.05981,-8.0625h5.375c0,7.40944 -6.02537,13.4375 -13.43481,13.4375h-0.4085c-2.29244,0 -4.35375,1.53725 -5.13581,3.827c-0.77669,2.27362 -1.71731,4.52038 -2.795,6.67306c-1.02931,2.05594 -0.68263,4.47469 0.86269,6.02269l2.35425,2.35156c4.18981,4.18712 4.18981,11.00263 0,15.18706l-3.81625,3.81625c-4.18713,4.18712 -10.99725,4.1925 -15.18706,0l-2.2145,-2.21181c-1.61787,-1.62325 -4.16831,-1.98338 -6.35325,-0.91644c-2.10163,1.04006 -4.28656,1.94844 -6.48763,2.69556c-2.28706,0.78206 -3.82163,2.84069 -3.82163,5.13313v3.12019c0,5.92056 -4.81869,10.73925 -10.73925,10.73925z" fill="url(#color-1_43657_gr1)"></path><path d="M86,72.5625c-7.42133,0 -13.4375,6.01617 -13.4375,13.4375c0,7.42133 6.01617,13.4375 13.4375,13.4375c7.42133,0 13.4375,-6.01617 13.4375,-13.4375c0,-7.42133 -6.01617,-13.4375 -13.4375,-13.4375z" fill="url(#color-2_43657_gr2)"></path><path d="M86,129c-23.70912,0 -43,-19.29087 -43,-43c0,-23.70913 19.29088,-43 43,-43v5.375c-20.7475,0 -37.625,16.8775 -37.625,37.625c0,20.7475 16.8775,37.625 37.625,37.625c20.7475,0 37.625,-16.8775 37.625,-37.625h5.375c0,23.70913 -19.29087,43 -43,43z" fill="url(#color-3_43657_gr3)"></path><path d="M86,115.5625c-16.29969,0 -29.5625,-13.26281 -29.5625,-29.5625c0,-16.29969 13.26281,-29.5625 29.5625,-29.5625v5.375c-13.33806,0 -24.1875,10.84944 -24.1875,24.1875c0,13.33806 10.84944,24.1875 24.1875,24.1875c13.33806,0 24.1875,-10.84944 24.1875,-24.1875h5.375c0,16.29969 -13.26281,29.5625 -29.5625,29.5625z" fill="url(#color-4_43657_gr4)"></path><path d="M123.625,80.625c-4.44512,0 -8.0625,-3.61737 -8.0625,-8.0625v-1.40825c-0.83581,-0.29025 -1.54263,-0.58856 -2.236,-0.91375l-1.10456,0.94063c-3.03688,3.04225 -8.35275,3.04762 -11.40037,0c-1.52112,-1.52112 -2.36231,-3.5475 -2.36231,-5.70019c0,-2.15538 0.84119,-4.18175 2.36231,-5.70288l0.99437,-0.99169c-0.38162,-0.80356 -0.67725,-1.51306 -0.93525,-2.23869l-1.44319,-0.11019c-4.44512,0 -8.0625,-3.61738 -8.0625,-8.0625c0,-4.44512 3.61738,-8.0625 8.0625,-8.0625h1.40825c0.29025,-0.83581 0.58856,-1.54263 0.91375,-2.236l-0.94063,-1.10456c-1.52112,-1.51844 -2.36231,-3.54481 -2.36231,-5.70019c0,-2.15269 0.84119,-4.17906 2.36231,-5.70019c3.04762,-3.04762 8.36081,-3.04225 11.40306,0l0.99169,0.99437c0.80356,-0.38162 1.51306,-0.67725 2.23869,-0.93525l0.11019,-1.44319c0,-4.44513 3.61738,-8.0625 8.0625,-8.0625c4.44512,0 8.0625,3.61737 8.0625,8.0625v1.40825c0.83581,0.29025 1.54262,0.58856 2.236,0.91375l1.10456,-0.94063c3.03688,-3.04225 8.35544,-3.04762 11.40037,0c1.52113,1.52113 2.36231,3.5475 2.36231,5.70019c0,2.15537 -0.84119,4.18175 -2.36231,5.70287l-0.99437,0.99169c0.38163,0.80356 0.67725,1.51306 0.93525,2.23869l1.44319,0.11019c4.44512,0 8.0625,3.61738 8.0625,8.0625c0,4.44512 -3.61738,8.0625 -8.0625,8.0625h-1.40825c-0.29025,0.83581 -0.58856,1.54263 -0.91375,2.236l0.94062,1.10456c1.52113,1.51844 2.36231,3.54481 2.36231,5.70019c0,2.15269 -0.84119,4.17906 -2.36231,5.70019c-3.04494,3.04762 -8.36081,3.04225 -11.40306,0l-0.99169,-0.99438c-0.80356,0.38162 -1.51306,0.67725 -2.23869,0.93525l-0.11019,1.44319c0,4.44513 -3.61737,8.0625 -8.0625,8.0625zM113.18406,64.82519c0.81431,0 1.64206,0.18006 2.43219,0.55094c0.53213,0.25531 1.07769,0.47837 1.63669,0.67725c2.24138,0.80894 3.68187,2.80844 3.68187,5.09819v1.41094c0,1.4835 1.204,2.6875 2.6875,2.6875c1.4835,0 2.6875,-1.204 2.6875,-2.6875v-1.40825c0,-2.29244 1.4405,-4.29194 3.67113,-5.0955c0.56975,-0.20425 1.11531,-0.42731 1.64475,-0.67994c2.14731,-1.0105 4.58488,-0.61544 6.20544,1.00512l0.99437,0.99438c1.01587,1.02125 2.78156,1.01588 3.80013,0c0.50525,-0.50794 0.78744,-1.1825 0.78744,-1.90006c0,-0.72025 -0.2795,-1.39212 -0.78744,-1.89737l-0.99438,-0.99706c-1.62325,-1.62325 -2.01562,-4.05544 -1.00781,-6.20275c0.25531,-0.53213 0.47837,-1.07769 0.67725,-1.63669c0.80894,-2.24137 2.80844,-3.68187 5.09819,-3.68187h1.41362c1.4835,0 2.6875,-1.204 2.6875,-2.6875c0,-1.4835 -1.204,-2.6875 -2.6875,-2.6875h-1.40825c-2.29244,0 -4.29194,-1.4405 -5.0955,-3.67113c-0.20425,-0.56975 -0.42731,-1.11531 -0.67994,-1.64475c-1.0105,-2.15 -0.61544,-4.58219 1.00513,-6.20544l0.99437,-0.99437c0.50794,-0.50794 0.78744,-1.17981 0.78744,-1.90006c0,-0.71756 -0.2795,-1.39213 -0.78744,-1.90006c-1.02125,-1.01587 -2.78694,-1.01587 -3.79744,0l-0.99706,0.99437c-1.62056,1.62325 -4.05544,2.01563 -6.20275,1.00781c-0.53212,-0.25531 -1.07769,-0.47837 -1.63669,-0.67725c-2.24137,-0.80894 -3.68187,-2.80844 -3.68187,-5.10087v-1.40825c0,-1.4835 -1.204,-2.6875 -2.6875,-2.6875c-1.4835,0 -2.6875,1.204 -2.6875,2.6875v1.40825c0,2.29244 -1.4405,4.29194 -3.67113,5.0955c-0.56975,0.20425 -1.11531,0.42731 -1.64475,0.67994c-2.14463,1.01319 -4.58488,0.61544 -6.20544,-1.00513l-0.99437,-0.99437c-1.01588,-1.01588 -2.77887,-1.0105 -3.80013,0c-0.50525,0.50794 -0.78744,1.1825 -0.78744,1.90006c0,0.72025 0.2795,1.39213 0.78744,1.89738l0.99437,0.99706c1.62325,1.62325 2.01563,4.05544 1.00781,6.20275c-0.25531,0.53213 -0.47837,1.07769 -0.67725,1.63669c-0.80894,2.24137 -2.80844,3.68187 -5.10087,3.68187h-1.40825c-1.4835,0 -2.6875,1.204 -2.6875,2.6875c0,1.4835 1.204,2.6875 2.6875,2.6875h1.40825c2.29244,0 4.29194,1.4405 5.0955,3.67112c0.20425,0.56975 0.42731,1.11531 0.67994,1.64475c1.0105,2.15 0.61544,4.58219 -1.00513,6.20544l-0.99437,0.99437c-0.50794,0.50794 -0.78744,1.17981 -0.78744,1.90006c0,0.71756 0.2795,1.39213 0.78744,1.90006c1.02125,1.01319 2.78694,1.01856 3.79744,0l0.99706,-0.99438c1.02394,-1.02394 2.37306,-1.55875 3.76788,-1.55875z" fill="url(#color-5_43657_gr5)"></path><path d="M123.625,59.125c-5.92863,0 -10.75,-4.82138 -10.75,-10.75c0,-5.92862 4.82137,-10.75 10.75,-10.75c5.92863,0 10.75,4.82138 10.75,10.75c0,5.92862 -4.82137,10.75 -10.75,10.75zM123.625,43c-2.96431,0 -5.375,2.41069 -5.375,5.375c0,2.96431 2.41069,5.375 5.375,5.375c2.96431,0 5.375,-2.41069 5.375,-5.375c0,-2.96431 -2.41069,-5.375 -5.375,-5.375z" fill="url(#color-6_43657_gr6)"></path></g></g></svg>