<svg xmlns="http://www.w3.org/2000/svg" x="0px" y="0px"
width="64" height="64"
viewBox="0 0 172 172"><defs><linearGradient x1="55.31144" y1="86.66381" x2="55.31144" y2="146.09788" gradientUnits="userSpaceOnUse" id="color-1_52497_gr1"><stop offset="0" stop-color="#95facc"></stop><stop offset="1" stop-color="#6ec8ff"></stop></linearGradient><linearGradient x1="86" y1="14.77319" x2="86" y2="159.23169" gradientUnits="userSpaceOnUse" id="color-2_52497_gr2"><stop offset="0" stop-color="#2af598"></stop><stop offset="1" stop-color="#009efd"></stop></linearGradient><linearGradient x1="92.29413" y1="69.19506" x2="92.29413" y2="92.79669" gradientUnits="userSpaceOnUse" id="color-3_52497_gr3"><stop offset="0" stop-color="#95facc"></stop><stop offset="1" stop-color="#6ec8ff"></stop></linearGradient></defs><g fill="none" fill-rule="nonzero" stroke="none" stroke-width="1" stroke-linecap="butt" stroke-linejoin="miter" stroke-miterlimit="10" stroke-dasharray="" stroke-dashoffset="0" font-family="none" font-weight="none" font-size="none" text-anchor="none" style="mix-blend-mode: normal"><path d="M0,172v-172h172v172z" fill="none"></path><g><path d="M83.08406,92.68113l-3.78938,-3.81087l-34.70906,34.51019c-4.31881,-2.59344 -10.02169,-2.064 -13.74656,1.64475c-2.13119,2.11775 -3.30294,4.93425 -3.30294,7.93081c0,2.99119 1.17175,5.79962 3.29487,7.912c2.18494,2.17687 5.06056,3.26262 7.9335,3.26262c2.881,0 5.76469,-1.09113 7.95769,-3.27606c2.13119,-2.11775 3.30294,-4.93425 3.30562,-7.93081c0,-2.064 -0.59394,-4.02588 -1.63669,-5.74856zM42.93281,137.04638c-2.29244,2.28706 -6.02,2.29512 -8.31244,0.01344c-1.10187,-1.09381 -1.70925,-2.55044 -1.70925,-4.10112c0,-1.55338 0.61275,-3.01806 1.72,-4.11994c1.15025,-1.14488 2.66062,-1.71731 4.171,-1.71731c1.50231,0 3.00194,0.56706 4.14412,1.70388c1.10187,1.09381 1.70925,2.55044 1.70925,4.10112c-0.00269,1.55338 -0.61275,3.01806 -1.72269,4.11994z" fill="url(#color-1_52497_gr1)"></path><path d="M38.74031,155.46919c-5.79425,0.00269 -11.58312,-2.18763 -15.98794,-6.56825c-4.27312,-4.24894 -6.62737,-9.90075 -6.62737,-15.91806c0,-6.03344 2.365,-11.70406 6.65694,-15.97181c4.88856,-4.86706 11.73094,-7.224 18.58675,-6.45806l44.18519,-43.93525c-4.16831,-4.945 -6.35594,-10.81181 -6.35594,-17.11669c0,-8.14312 3.63887,-16.24594 10.24744,-22.81687c12.80056,-12.72531 30.51656,-13.58263 42.12119,-2.04519l1.91619,1.90544l-18.41475,18.30994c-0.56975,0.56706 -0.88419,1.31956 -0.88688,2.12044l-0.00806,8.00606c0,0.79281 0.30906,1.53725 0.87075,2.10163c0.56975,0.56975 1.333,0.88419 2.14731,0.88419h0.00269l8.05444,-0.00806c0.79819,-0.00269 1.58294,-0.32519 2.15269,-0.88956l18.39325,-18.28844l1.89469,1.88394c5.3535,5.32931 8.18613,11.93787 8.18613,19.11081c0,8.14044 -3.63887,16.24325 -10.24744,22.8115c-12.08837,12.02656 -28.57081,13.45094 -40.14319,3.8485l-44.14487,43.89763c1.032,6.74294 -1.26581,13.27625 -6.55481,18.53838c-4.42631,4.39944 -10.23938,6.59781 -16.04438,6.59781zM38.82363,115.78556c-4.558,0 -8.98431,1.7845 -12.255,5.03638c-3.27069,3.25187 -5.06862,7.568 -5.06862,12.16094c0,4.57412 1.78988,8.87412 5.04175,12.10719c6.73487,6.69187 17.70256,6.67306 24.45356,-0.02956c4.3215,-4.3 6.03344,-9.64275 4.81869,-15.04194l-0.32519,-1.44856l49.91494,-49.63006l1.89469,1.88394c9.55944,9.503 23.76287,8.66988 34.54244,-2.04788c5.58194,-5.55237 8.65913,-12.30069 8.65913,-19.00062c0,-4.86169 -1.65281,-9.417 -4.80794,-13.31388l-14.50444,14.42112c-1.58831,1.57756 -3.69531,3.02881 -5.93131,3.0315l-8.05981,0.58588h-0.00806c-2.24944,0 -4.36181,-1.45394 -5.94744,-3.03687c-1.58025,-1.58025 -2.44831,-3.96675 -2.44562,-6.19738l0.00806,-8.15387c0.00269,-2.23869 0.8815,-4.41287 2.4725,-5.99581l14.47756,-14.43187c-9.46269,-7.53844 -22.47825,-6.149 -32.52144,3.82969c-5.58463,5.55506 -8.66181,12.29531 -8.66181,18.99794c0,5.70825 2.28706,10.99456 6.60587,15.29188l1.91619,1.90275l-49.87463,49.58437l-1.37062,-0.23919c-1.00781,-0.18006 -2.021,-0.26606 -3.02344,-0.26606z" fill="url(#color-2_52497_gr2)"></path><path d="M87.12069,88.666l-3.78937,-3.81087l14.13625,-14.05294l3.78937,3.81087z" fill="url(#color-3_52497_gr3)"></path></g></g></svg>