<svg xmlns="http://www.w3.org/2000/svg" x="0px" y="0px"
width="64" height="64"
viewBox="0 0 172 172"
style=" fill:#000000;"><defs><linearGradient x1="85.25019" y1="13.77075" x2="86.59394" y2="157.552" gradientUnits="userSpaceOnUse" id="color-1_44851_gr1"><stop offset="0" stop-color="#2af598"></stop><stop offset="1" stop-color="#009efd"></stop></linearGradient><linearGradient x1="104.2105" y1="13.59338" x2="105.55425" y2="157.37463" gradientUnits="userSpaceOnUse" id="color-2_44851_gr2"><stop offset="0" stop-color="#2af598"></stop><stop offset="1" stop-color="#009efd"></stop></linearGradient><linearGradient x1="74.70175" y1="13.87019" x2="76.0455" y2="157.65144" gradientUnits="userSpaceOnUse" id="color-3_44851_gr3"><stop offset="0" stop-color="#2af598"></stop><stop offset="1" stop-color="#009efd"></stop></linearGradient><linearGradient x1="71.91481" y1="13.89438" x2="73.25856" y2="157.67563" gradientUnits="userSpaceOnUse" id="color-4_44851_gr4"><stop offset="0" stop-color="#2af598"></stop><stop offset="1" stop-color="#009efd"></stop></linearGradient><linearGradient x1="103.96056" y1="13.59606" x2="105.30431" y2="157.37731" gradientUnits="userSpaceOnUse" id="color-5_44851_gr5"><stop offset="0" stop-color="#2af598"></stop><stop offset="1" stop-color="#009efd"></stop></linearGradient><linearGradient x1="74.44913" y1="13.87288" x2="75.79288" y2="157.65413" gradientUnits="userSpaceOnUse" id="color-6_44851_gr6"><stop offset="0" stop-color="#2af598"></stop><stop offset="1" stop-color="#009efd"></stop></linearGradient><linearGradient x1="71.66219" y1="13.89706" x2="73.00594" y2="157.67831" gradientUnits="userSpaceOnUse" id="color-7_44851_gr7"><stop offset="0" stop-color="#2af598"></stop><stop offset="1" stop-color="#009efd"></stop></linearGradient><linearGradient x1="104.8125" y1="73.45744" x2="104.8125" y2="82.70781" gradientUnits="userSpaceOnUse" id="color-8_44851_gr8"><stop offset="0" stop-color="#95facc"></stop><stop offset="1" stop-color="#6ec8ff"></stop></linearGradient><linearGradient x1="104.8125" y1="101.23006" x2="104.8125" y2="108.84375" gradientUnits="userSpaceOnUse" id="color-9_44851_gr9"><stop offset="0" stop-color="#95facc"></stop><stop offset="1" stop-color="#6ec8ff"></stop></linearGradient><linearGradient x1="86" y1="134.375" x2="86" y2="142.95888" gradientUnits="userSpaceOnUse" id="color-10_44851_gr10"><stop offset="0" stop-color="#95facc"></stop><stop offset="1" stop-color="#6ec8ff"></stop></linearGradient></defs><g fill="none" fill-rule="nonzero" stroke="none" stroke-width="1" stroke-linecap="butt" stroke-linejoin="miter" stroke-miterlimit="10" stroke-dasharray="" stroke-dashoffset="0" font-family="none" font-weight="none" font-size="none" text-anchor="none" style="mix-blend-mode: normal"><path d="M0,172v-172h172v172z" fill="none"></path><g><path d="M131.6875,32.25h-19.307c-1.11263,-3.12287 -4.06888,-5.375 -7.568,-5.375h-8.0625c0,-5.92862 -4.82137,-10.75 -10.75,-10.75c-5.92863,0 -10.75,4.82138 -10.75,10.75h-8.0625c-3.49912,0 -6.45538,2.25212 -7.568,5.375h-19.307c-4.44512,0 -8.0625,3.61738 -8.0625,8.0625v107.5c0,4.44512 3.61738,8.0625 8.0625,8.0625h91.375c4.44512,0 8.0625,-3.61738 8.0625,-8.0625v-107.5c0,-4.44512 -3.61737,-8.0625 -8.0625,-8.0625zM112.875,48.375h10.75v83.3125h-75.25v-83.3125h10.75h2.6875h13.4375c0,2.96431 2.41069,5.375 5.375,5.375h10.75c2.96431,0 5.375,-2.41069 5.375,-5.375h13.4375zM53.75,137.0625h64.5v2.6875h-64.5zM86,21.5c2.96431,0 5.375,2.41069 5.375,5.375h-10.75c0,-2.96431 2.41069,-5.375 5.375,-5.375zM64.5,34.9375c0,-1.4835 1.204,-2.6875 2.6875,-2.6875h37.625c1.4835,0 2.6875,1.204 2.6875,2.6875v8.0625h-16.125v5.375h-10.75v-5.375h-16.125zM134.375,147.8125c0,1.4835 -1.204,2.6875 -2.6875,2.6875h-91.375c-1.4835,0 -2.6875,-1.204 -2.6875,-2.6875v-107.5c0,-1.4835 1.204,-2.6875 2.6875,-2.6875h18.8125v5.375h-10.75c-2.96431,0 -5.375,2.41069 -5.375,5.375v83.3125c0,2.96431 2.41069,5.375 5.375,5.375v2.6875c0,2.96431 2.41069,5.375 5.375,5.375h64.5c2.96431,0 5.375,-2.41069 5.375,-5.375v-2.6875c2.96431,0 5.375,-2.41069 5.375,-5.375v-83.3125c0,-2.96431 -2.41069,-5.375 -5.375,-5.375h-10.75v-5.375h18.8125c1.4835,0 2.6875,1.204 2.6875,2.6875z" fill="url(#color-1_44851_gr1)"></path><path d="M96.75,80.625c0,2.96431 2.41069,5.375 5.375,5.375h5.375c2.96431,0 5.375,-2.41069 5.375,-5.375v-5.375c0,-2.96431 -2.41069,-5.375 -5.375,-5.375h-5.375c-2.96431,0 -5.375,2.41069 -5.375,5.375zM102.125,75.25h5.375l0.00538,5.375h-5.38038z" fill="url(#color-2_44851_gr2)"></path><path d="M59.125,69.875h32.25v5.375h-32.25z" fill="url(#color-3_44851_gr3)"></path><path d="M59.125,80.625h26.875v5.375h-26.875z" fill="url(#color-4_44851_gr4)"></path><path d="M107.5,96.75h-5.375c-2.96431,0 -5.375,2.41069 -5.375,5.375v5.375c0,2.96431 2.41069,5.375 5.375,5.375h5.375c2.96431,0 5.375,-2.41069 5.375,-5.375v-5.375c0,-2.96431 -2.41069,-5.375 -5.375,-5.375zM102.125,107.5v-5.375h5.375l0.00538,5.375z" fill="url(#color-5_44851_gr5)"></path><path d="M59.125,96.75h32.25v5.375h-32.25z" fill="url(#color-6_44851_gr6)"></path><path d="M59.125,107.5h26.875v5.375h-26.875z" fill="url(#color-7_44851_gr7)"></path><path d="M102.125,75.25h5.375v5.375h-5.375z" fill="url(#color-8_44851_gr8)"></path><path d="M102.125,102.125h5.375v5.375h-5.375z" fill="url(#color-9_44851_gr9)"></path><path d="M53.75,137.0625h64.5v2.6875h-64.5z" fill="url(#color-10_44851_gr10)"></path></g></g></svg>