<svg xmlns="http://www.w3.org/2000/svg" x="0px" y="0px"
width="50" height="50"
viewBox="0 0 172 172"><g fill="none" fill-rule="nonzero" stroke="none" stroke-width="1" stroke-linecap="butt" stroke-linejoin="miter" stroke-miterlimit="10" stroke-dasharray="" stroke-dashoffset="0" font-family="none" font-weight="none" font-size="none" text-anchor="none" style="mix-blend-mode: normal"><path d="M0,172v-172h172v172z" fill="none"></path><g fill="#00bdd5"><path d="M82.56,6.88c-10.27969,0 -19.26937,2.15 -26.9825,5.4825c-1.26312,0.38969 -2.19031,1.49156 -2.37844,2.795c-0.18813,1.31688 0.40312,2.62031 1.505,3.35938c1.10187,0.72562 2.52625,0.76594 3.66844,0.08062c6.89344,-2.98312 14.835,-4.8375 24.1875,-4.8375c13.76,0 25.06094,3.14438 34.5075,8.0625c1.69313,0.88688 3.78938,0.24188 4.67625,-1.45125c0.88688,-1.69312 0.24188,-3.78937 -1.45125,-4.67625c-10.38719,-5.40187 -22.92437,-8.815 -37.7325,-8.815zM45.2575,18.275c-0.55094,0.09406 -1.06156,0.30906 -1.505,0.645c-9.64812,6.73219 -16.72969,15.17094 -21.93,22.2525c-2.59344,3.5475 -4.70312,6.74563 -6.45,9.245c-1.74687,2.49938 -3.21156,4.39406 -3.655,4.73c-1.15562,0.67188 -1.8275,1.96188 -1.69312,3.29219c0.12094,1.34375 1.00781,2.48594 2.27094,2.92938c1.26312,0.44344 2.67406,0.12094 3.61469,-0.84656c1.935,-1.505 3.23844,-3.53406 5.0525,-6.1275c1.81406,-2.59344 3.96406,-5.73781 6.45,-9.1375c4.97188,-6.78594 11.47563,-14.53937 20.21,-20.64c1.33031,-0.83312 1.92156,-2.4725 1.43781,-3.96406c-0.48375,-1.49156 -1.90813,-2.4725 -3.48031,-2.37844c-0.1075,0 -0.215,0 -0.3225,0zM84.8175,24.08c-1.89469,0.26875 -3.225,2.02906 -2.95625,3.92375c0.26875,1.89469 2.02906,3.225 3.92375,2.95625c34.96438,2.0425 49.74563,21.5 56.0075,43.5375c6.26188,22.0375 2.96969,46.82969 0,56.0075c-0.59125,1.81406 0.38969,3.7625 2.20375,4.35375c1.81406,0.59125 3.7625,-0.38969 4.35375,-2.20375c3.57438,-11.03219 6.89344,-36.09312 0.1075,-59.985c-6.78594,-23.89187 -24.75187,-46.39969 -62.2425,-48.59c-0.25531,-0.02687 -0.49719,-0.02687 -0.7525,0c-0.1075,0 -0.215,0 -0.3225,0c-0.1075,0 -0.215,0 -0.3225,0zM131.4725,24.295c-1.37062,0.25531 -2.45906,1.31688 -2.74125,2.6875c-0.28219,1.37063 0.29563,2.76813 1.45125,3.5475c26.90188,18.57063 31.175,60.63 31.175,60.63c0.17469,1.89469 1.86781,3.29219 3.7625,3.1175c1.89469,-0.17469 3.29219,-1.86781 3.1175,-3.7625c0,0 -3.68187,-44.505 -34.185,-65.575c-0.73906,-0.55094 -1.66625,-0.77937 -2.58,-0.645zM71.595,25.37c-0.06719,0.02688 -0.14781,0.06719 -0.215,0.1075c-23.77094,4.71656 -35.27344,21.08344 -44.1825,34.9375c-1.03469,1.59906 -0.57781,3.74906 1.02125,4.78375c1.59906,1.03469 3.74906,0.57781 4.78375,-1.02125c8.80156,-13.70625 18.42281,-27.81562 39.6675,-32.035c1.73344,-0.43 2.86219,-2.10969 2.58,-3.88344c-0.28219,-1.76031 -1.86781,-3.02344 -3.655,-2.88906zM86,41.28c-11.95937,0 -21.09687,3.82969 -28.165,9.5675c-1.49156,1.1825 -1.72,3.35938 -0.5375,4.8375c1.1825,1.49156 3.35938,1.72 4.8375,0.5375c6.02,-4.87781 13.34344,-8.0625 23.865,-8.0625c3.03688,0 5.93938,0.25531 8.7075,0.7525c1.23625,0.26875 2.51281,-0.16125 3.3325,-1.11531c0.83313,-0.9675 1.06156,-2.29781 0.61813,-3.46687c-0.45688,-1.1825 -1.51844,-2.02906 -2.76813,-2.19031c-3.17125,-0.56437 -6.46344,-0.86 -9.89,-0.86zM107.5,46.225c-0.1075,0.02688 -0.215,0.06719 -0.3225,0.1075c-1.42437,0.3225 -2.49937,1.505 -2.66062,2.95625c-0.17469,1.45125 0.59125,2.84875 1.90812,3.49375c15.06344,7.68625 24.295,24.42938 24.295,46.9775c0,6.69188 -0.81969,13.78688 -2.0425,20.5325c-0.36281,1.86781 0.87344,3.66844 2.74125,4.03125c1.86781,0.36281 3.66844,-0.87344 4.03125,-2.74125c1.27656,-7.02781 2.15,-14.55281 2.15,-21.8225c0,-24.45625 -10.38719,-44.08844 -28.0575,-53.105c-0.61812,-0.34937 -1.33031,-0.49719 -2.0425,-0.43zM86,58.48c-8.96281,0 -15.92344,2.87563 -21.1775,7.31c-5.25406,4.43438 -8.84187,10.23938 -12.04,16.2325c-0.88687,1.69313 -0.24187,3.78938 1.45125,4.67625c1.69313,0.88688 3.78938,0.24188 4.67625,-1.45125c3.03688,-5.71094 6.18125,-10.69625 10.32,-14.19c4.13875,-3.49375 9.19125,-5.6975 16.77,-5.6975c7.14875,0 12.3625,2.24406 16.4475,5.805c4.085,3.56094 7.01438,8.54625 8.815,14.0825c0.30906,1.23625 1.27656,2.21719 2.51281,2.51281c1.24969,0.30906 2.55312,-0.09406 3.39969,-1.04813c0.84656,-0.9675 1.10188,-2.31125 0.645,-3.50719c-2.09625,-6.43656 -5.59,-12.60437 -10.8575,-17.2c-5.2675,-4.59562 -12.32219,-7.525 -20.9625,-7.525zM49.7725,60.415c-0.92719,0.17469 -1.74687,0.71219 -2.2575,1.505c-6.86656,9.28531 -11.825,19.59188 -17.5225,26.9825c-5.6975,7.39063 -11.34125,11.78469 -21.3925,10.8575c-1.89469,-0.17469 -3.58781,1.22281 -3.7625,3.1175c-0.17469,1.89469 1.22281,3.58781 3.1175,3.7625c12.47,1.14219 21.13719,-5.25406 27.52,-13.545c6.38281,-8.29094 11.20688,-18.54375 17.5225,-27.09c0.81969,-1.02125 0.98094,-2.40531 0.44344,-3.58781c-0.55094,-1.1825 -1.72,-1.96187 -3.02344,-2.00219c-0.1075,0 -0.215,0 -0.3225,0c-0.1075,0 -0.215,0 -0.3225,0zM22.4675,70.09c-0.18812,0.02688 -0.36281,0.05375 -0.5375,0.1075c-0.87344,0.17469 -1.63937,0.67188 -2.15,1.3975c-4.03125,5.49594 -8.03562,9.47344 -13.0075,11.18c-1.29,0.28219 -2.31125,1.29 -2.60687,2.59344c-0.29563,1.29 0.17469,2.63375 1.20937,3.45344c1.04813,0.83312 2.45906,0.98094 3.655,0.40312c6.94719,-2.39187 11.94594,-7.56531 16.34,-13.545c0.86,-1.06156 1.00781,-2.52625 0.37625,-3.73562c-0.63156,-1.22281 -1.92156,-1.94844 -3.27875,-1.85438zM80.195,73.53c-0.41656,0.06719 -0.81969,0.215 -1.1825,0.43c-5.99312,3.25188 -8.74781,9.79594 -11.0725,16.34c-2.32469,6.54406 -4.21937,13.45094 -6.5575,17.9525c-6.74562,12.99406 -19.63219,25.9075 -37.3025,25.9075c-1.23625,-0.01344 -2.39187,0.63156 -3.02344,1.70656c-0.61813,1.075 -0.61813,2.39187 0,3.46687c0.63156,1.075 1.78719,1.72 3.02344,1.70656c20.97594,0 35.87813,-15.00969 43.43,-29.5625c2.94281,-5.68406 4.71656,-12.69844 6.88,-18.8125c2.16344,-6.11406 4.82406,-10.99187 7.955,-12.685c1.505,-0.77937 2.21719,-2.53969 1.69313,-4.15219c-0.5375,-1.59906 -2.17688,-2.58 -3.84313,-2.29781zM92.1275,74.175c-1.42437,0.24188 -2.53969,1.34375 -2.795,2.75469c-0.26875,1.42438 0.37625,2.84875 1.6125,3.58781c3.39969,2.31125 5.375,8.39844 5.375,16.2325c0,5.18688 -1.86781,17.38813 -6.7725,29.9925c-4.90469,12.60438 -12.84625,25.71938 -24.4025,33.97c-1.57219,1.10188 -1.96187,3.26531 -0.86,4.8375c1.10188,1.57219 3.26531,1.96188 4.8375,0.86c13.14188,-9.37937 21.55375,-23.78437 26.7675,-37.195c5.21375,-13.41062 7.31,-25.75969 7.31,-32.465c0,-8.90906 -1.935,-17.48219 -8.4925,-21.93c-0.73906,-0.55094 -1.66625,-0.77937 -2.58,-0.645zM85.4625,89.44c-1.6125,0.25531 -2.82187,1.59906 -2.9025,3.225c0,0 -0.73906,11.30094 -6.665,24.6175c-0.68531,1.14219 -0.645,2.56656 0.08063,3.66844c0.73906,1.10188 2.0425,1.69313 3.35937,1.505c1.30344,-0.18812 2.40531,-1.11531 2.795,-2.37844c6.43656,-14.44531 7.31,-26.9825 7.31,-26.9825c0.08063,-1.04812 -0.3225,-2.08281 -1.10187,-2.795c-0.77938,-0.71219 -1.84094,-1.02125 -2.87563,-0.86zM48.59,92.88c-1.02125,0.215 -1.89469,0.88688 -2.365,1.8275c-3.31906,6.18125 -6.97406,11.83844 -11.9325,15.8025c-4.95844,3.96406 -11.22031,6.45 -20.64,6.45c-1.23625,-0.01344 -2.39187,0.63156 -3.02344,1.70656c-0.61813,1.075 -0.61813,2.39187 0,3.46687c0.63156,1.075 1.78719,1.72 3.02344,1.70656c10.70969,0 18.82594,-3.07719 24.94,-7.955c6.11406,-4.87781 10.26625,-11.34125 13.76,-17.845c0.67188,-1.14219 0.63156,-2.56656 -0.09406,-3.655c-0.73906,-1.10187 -2.0425,-1.69312 -3.34594,-1.505c-0.1075,0 -0.215,0 -0.3225,0zM116.6375,96.2125c-0.14781,0.02688 -0.29562,0.06719 -0.43,0.1075c-1.59906,0.36281 -2.72781,1.80063 -2.6875,3.44c0,35.67656 -20.7475,62.0275 -20.7475,62.0275c-1.1825,1.51844 -0.92719,3.70875 0.59125,4.89125c1.51844,1.1825 3.70875,0.92719 4.89125,-0.59125c0,0 22.145,-27.99031 22.145,-66.3275c0.04031,-0.99437 -0.36281,-1.94844 -1.075,-2.62031c-0.72562,-0.68531 -1.70656,-1.02125 -2.6875,-0.92719zM72.455,126.5275c-1.02125,0.13438 -1.935,0.72563 -2.4725,1.6125c-5.93937,9.01656 -14.55281,17.53594 -27.305,23.1125c-1.74687,0.73906 -2.56656,2.76813 -1.8275,4.515c0.73906,1.74688 2.76813,2.56656 4.515,1.8275c14.10938,-6.16781 23.78438,-15.8025 30.315,-25.6925c0.76594,-1.11531 0.81969,-2.56656 0.12094,-3.72219c-0.69875,-1.16906 -2.00219,-1.81406 -3.34594,-1.65281zM128.2475,131.9025c-1.3975,0.24188 -2.49937,1.30344 -2.795,2.6875c-2.70094,10.2125 -5.375,17.3075 -5.375,17.3075c-0.51062,1.16906 -0.3225,2.52625 0.48375,3.52063c0.79281,0.99437 2.06938,1.46469 3.3325,1.22281c1.24969,-0.24187 2.2575,-1.15562 2.63375,-2.37844c0,0 2.80844,-7.40406 5.59,-17.9525c0.3225,-1.08844 0.09406,-2.2575 -0.61812,-3.13094c-0.71219,-0.88688 -1.80063,-1.35719 -2.92938,-1.27656c-0.1075,0 -0.215,0 -0.3225,0z"></path></g></g></svg>