<svg xmlns="http://www.w3.org/2000/svg" x="0px" y="0px"
width="60" height="60"
viewBox="0 0 172 172"><g fill="none" fill-rule="nonzero" stroke="none" stroke-width="1" stroke-linecap="butt" stroke-linejoin="miter" stroke-miterlimit="10" stroke-dasharray="" stroke-dashoffset="0" font-family="none" font-weight="none" font-size="none" text-anchor="none" style="mix-blend-mode: normal"><path d="M0,172v-172h172v172z" fill="none"></path><g fill="#032f9c"><path d="M68.155,0c-1.11531,0.18813 -2.06937,0.92719 -2.53969,1.96188c-0.47031,1.02125 -0.40313,2.23062 0.17469,3.19812c5.2675,9.50031 6.67844,17.57625 6.3425,23.5425c-0.33594,5.96625 -2.76812,9.71531 -3.87,10.4275c-0.79281,0.51063 -1.04812,0.47031 -1.935,0.3225c-0.88687,-0.14781 -2.24406,-0.65844 -3.9775,-1.29c-3.45344,-1.27656 -8.82844,-2.58 -14.835,0.43c-0.92719,0.47031 -1.59906,1.34375 -1.80062,2.37844c-0.215,1.02125 0.05375,2.08281 0.72562,2.88906c1.10188,1.29 2.39188,4.04469 3.01,6.7725c0.61813,2.72781 0.5375,5.45563 -0.1075,6.88c-1.1825,2.60688 -10.105,7.82063 -10.105,22.575c0,5.02563 0.73906,10.27969 3.9775,16.2325h-32.895c-5.65719,0 -10.32,4.66281 -10.32,10.32v20.64c0,2.63375 1.03469,5.0525 2.6875,6.88c-1.65281,1.8275 -2.6875,4.24625 -2.6875,6.88v20.64c0,5.65719 4.66281,10.32 10.32,10.32h96.32c2.63375,0 5.0525,-1.03469 6.88,-2.6875c1.8275,1.65281 4.24625,2.6875 6.88,2.6875h41.28c5.65719,0 10.32,-4.66281 10.32,-10.32v-20.64c0,-2.63375 -1.03469,-5.0525 -2.6875,-6.88c1.65281,-1.8275 2.6875,-4.24625 2.6875,-6.88v-20.64c0,-5.65719 -4.66281,-10.32 -10.32,-10.32h-28.4875c2.21719,-9.84969 -0.72562,-17.29406 -4.515,-22.4675c-2.17687,-2.98312 -4.55531,-5.30781 -6.1275,-7.31c-1.57219,-2.00219 -2.17687,-3.41312 -2.15,-4.515c0.1075,-4.23281 3.31906,-10.89781 3.655,-18.1675c0.17469,-3.62812 -0.61812,-7.60562 -3.225,-11.0725c-2.60687,-3.46687 -6.79937,-6.27531 -13.0075,-8.4925c-1.14219,-0.44344 -2.44562,-0.22844 -3.39969,0.55094c-0.95406,0.76594 -1.42438,2.00219 -1.22281,3.21156c0.645,4.32688 0.5375,8.31781 -0.215,10.535c-0.37625,1.11531 -0.86,1.69313 -1.1825,1.935c-0.3225,0.24188 -0.57781,0.34938 -1.505,0.215c-2.01562,-0.28219 -1.6125,-0.33594 -1.72,-0.645c-0.1075,-0.30906 -0.14781,-1.92156 0.215,-4.1925c0.73906,-4.55531 2.31125,-11.74437 -1.3975,-19.2425c-5.68406,-11.46219 -18.1675,-16.6625 -28.595,-16.6625c-0.1075,0 -0.215,0 -0.3225,0c-0.1075,0 -0.215,0 -0.3225,0zM74.39,8.2775c6.70531,1.49156 13.58531,4.87781 16.8775,11.5025c2.59344,5.25406 1.53188,10.18563 0.7525,15.05c-0.38969,2.43219 -0.95406,4.81063 0,7.525c0.95406,2.71438 3.92375,4.78375 7.31,5.2675c2.365,0.33594 4.77031,-0.28219 6.5575,-1.6125c1.78719,-1.33031 2.87563,-3.15781 3.5475,-5.16c0.79281,-2.32469 0.99438,-4.99875 0.9675,-7.74c2.24406,1.27656 3.99094,2.49938 4.945,3.7625c1.54531,2.0425 1.94844,4.11188 1.8275,6.665c-0.24187,5.10625 -3.49375,11.48906 -3.655,18.275c-0.08062,3.58781 1.74688,6.47688 3.655,8.9225c1.90813,2.44563 4.085,4.71656 5.9125,7.2025c3.37281,4.59563 5.75125,9.55406 3.1175,18.3825h-16.4475c1.06156,-4.03125 1.31688,-8.0625 0.3225,-11.825c-1.38406,-5.2675 -5.0525,-9.82281 -10.535,-13.2225c-1.22281,-0.73906 -2.78156,-0.63156 -3.89687,0.24188c-1.11531,0.88687 -1.58563,2.37844 -1.15563,3.73562c0.86,2.64719 0.52406,5.18688 -0.215,6.7725c-0.73906,1.58563 -1.54531,2.2575 -3.1175,2.2575c-0.61812,0 -1.22281,-0.52406 -1.8275,-2.0425c-0.60469,-1.51844 -0.48375,-3.66844 -0.215,-4.1925c4.38063,-8.6 5.20031,-15.05 3.7625,-20.1025c-1.43781,-5.0525 -4.98531,-8.02219 -7.6325,-10.105c-0.72562,-0.59125 -1.65281,-0.86 -2.58,-0.7525c-0.94062,0.13438 -1.78719,0.645 -2.33812,1.41094c-0.55094,0.77938 -0.7525,1.74688 -0.56438,2.67406c0.80625,3.89688 0.34938,6.51719 -0.7525,8.9225c-1.10187,2.40531 -3.01,4.60906 -5.2675,7.095c-4.515,4.95844 -10.535,11.27406 -10.535,21.8225c0,0.91375 0.05375,3.81625 1.075,7.4175c-2.20375,0.24188 -4.23281,1.15563 -5.805,2.58c-1.8275,-1.65281 -4.24625,-2.6875 -6.88,-2.6875h-0.215c-4.74344,-6.57094 -5.2675,-10.69625 -5.2675,-16.2325c0,-12.17437 6.24844,-12.69844 9.46,-19.78c1.6125,-3.58781 1.49156,-7.59219 0.645,-11.2875c-0.44344,-1.96187 -1.53187,-3.44 -2.365,-5.16c2.15,-0.3225 4.04469,-0.01344 6.1275,0.7525c1.53188,0.56438 3.1175,1.27656 5.16,1.6125c2.0425,0.33594 4.67625,0.02688 6.88,-1.3975c4.21938,-2.72781 6.5575,-8.25062 6.9875,-15.695c0.33594,-5.805 -1.38406,-13.08812 -4.6225,-20.855zM86.1075,59.6625c0.02688,0.08063 0.08063,0.13438 0.1075,0.215c0.81969,2.88906 0.69875,7.35031 -3.225,15.05c-0.04031,0 -0.06719,0 -0.1075,0c-1.59906,3.17125 -1.24969,6.65156 0,9.7825c1.24969,3.13094 4.09844,6.45 8.2775,6.45c4.23281,0 7.72656,-2.76812 9.3525,-6.235c0.43,-0.91375 0.52406,-2.00219 0.7525,-3.01c0.99438,1.38406 1.74688,2.87563 2.15,4.4075c0.76594,2.91594 0.45688,6.26188 -0.86,9.9975h-30.96c-1.42437,-3.53406 -1.505,-6.19469 -1.505,-7.31c0,-8.0625 4.05813,-12.09375 8.7075,-17.2c2.32469,-2.55312 4.81063,-5.33469 6.45,-8.9225c0.44344,-0.98094 0.57781,-2.12312 0.86,-3.225zM10.32,103.2h41.28c1.94844,0 3.44,1.49156 3.44,3.44v20.64c0,1.94844 -1.49156,3.44 -3.44,3.44h-41.28c-1.94844,0 -3.44,-1.49156 -3.44,-3.44v-20.64c0,-1.94844 1.49156,-3.44 3.44,-3.44zM65.36,103.2h62.35c0.65844,0.20156 1.38406,0.20156 2.0425,0h31.9275c1.94844,0 3.44,1.49156 3.44,3.44v20.64c0,1.94844 -1.49156,3.44 -3.44,3.44h-96.32c-1.94844,0 -3.44,-1.49156 -3.44,-3.44v-20.64c0,-1.94844 1.49156,-3.44 3.44,-3.44zM10.32,137.6h96.32c1.94844,0 3.44,1.49156 3.44,3.44v20.64c0,1.94844 -1.49156,3.44 -3.44,3.44h-96.32c-1.94844,0 -3.44,-1.49156 -3.44,-3.44v-20.64c0,-1.94844 1.49156,-3.44 3.44,-3.44zM120.4,137.6h41.28c1.94844,0 3.44,1.49156 3.44,3.44v20.64c0,1.94844 -1.49156,3.44 -3.44,3.44h-41.28c-1.94844,0 -3.44,-1.49156 -3.44,-3.44v-20.64c0,-1.94844 1.49156,-3.44 3.44,-3.44z"></path></g></g></svg>