<svg xmlns="http://www.w3.org/2000/svg" x="0px" y="0px"
width="60" height="60"
viewBox="0 0 172 172"><g fill="none" fill-rule="nonzero" stroke="none" stroke-width="1" stroke-linecap="butt" stroke-linejoin="miter" stroke-miterlimit="10" stroke-dasharray="" stroke-dashoffset="0" font-family="none" font-weight="none" font-size="none" text-anchor="none" style="mix-blend-mode: normal"><path d="M0,172v-172h172v172z" fill="none"></path><g fill="#032f9c"><path d="M6.88,3.44c-1.80062,0 -3.64156,0.63156 -4.945,1.935c-1.30344,1.30344 -1.935,3.14438 -1.935,4.945v123.84c0,1.80063 0.63156,3.64156 1.935,4.945c1.30344,1.30344 3.14438,1.935 4.945,1.935h58.48v6.88h-14.0825c-5.65719,0 -9.9975,4.86438 -9.9975,10.32v10.32h89.44v-10.32c0,-5.65719 -4.48812,-10.32 -9.9975,-10.32h-14.0825v-6.88h58.48c1.80063,0 3.64156,-0.63156 4.945,-1.935c1.30344,-1.30344 1.935,-3.14437 1.935,-4.945v-123.84c0,-1.80062 -0.63156,-3.64156 -1.935,-4.945c-1.30344,-1.30344 -3.14437,-1.935 -4.945,-1.935zM6.88,10.32h158.24v123.84h-61.275c-0.45687,-0.09406 -0.94062,-0.09406 -1.3975,0h-33.0025c-0.45687,-0.09406 -0.94062,-0.09406 -1.3975,0h-61.1675zM20.64,17.2c-1.80062,0 -3.64156,0.63156 -4.945,1.935c-1.30344,1.30344 -1.935,3.14438 -1.935,4.945v82.56c0,1.80063 0.63156,3.64156 1.935,4.945c1.30344,1.30344 3.14438,1.935 4.945,1.935h130.72c1.80063,0 3.64156,-0.63156 4.945,-1.935c1.30344,-1.30344 1.935,-3.14437 1.935,-4.945v-82.56c0,-1.80062 -0.63156,-3.64156 -1.935,-4.945c-1.30344,-1.30344 -3.14437,-1.935 -4.945,-1.935zM20.64,24.08h130.72v82.56h-130.72zM86,30.96c-4.11187,0 -7.04125,2.0425 -10.965,4.085c-3.92375,2.0425 -9.04344,4.52844 -17.3075,6.3425c-1.55875,0.34938 -2.67406,1.73344 -2.6875,3.3325c0,20.25031 7.29656,34.01031 14.62,42.57c7.32344,8.55969 14.9425,12.1475 14.9425,12.1475c0.91375,0.43 1.98875,0.43 2.9025,0c0,0 29.455,-15.21125 29.455,-54.7175c-0.01344,-1.59906 -1.12875,-2.98312 -2.6875,-3.3325c-8.26406,-1.81406 -13.38375,-4.3 -17.3075,-6.3425c-3.92375,-2.0425 -6.85312,-4.085 -10.965,-4.085zM86,37.84c1.38406,0 3.58781,1.16906 7.74,3.3325c3.62813,1.89469 9.00313,4.15219 16.125,6.02c-1.10187,31.0675 -20.34437,43.14781 -23.9725,45.15c-1.73344,-0.92719 -5.87219,-3.37281 -11.0725,-9.46c-6.1275,-7.16219 -12.10719,-18.57062 -12.685,-35.69c7.12188,-1.86781 12.49688,-4.12531 16.125,-6.02c4.15219,-2.16344 6.35594,-3.3325 7.74,-3.3325zM144.48,116.96c-3.78937,0 -6.88,3.09063 -6.88,6.88c0,3.78938 3.09063,6.88 6.88,6.88c3.78938,0 6.88,-3.09062 6.88,-6.88c0,-3.78937 -3.09062,-6.88 -6.88,-6.88zM72.24,141.04h27.52v6.88h-27.52zM51.2775,154.8h69.445c1.37063,0 3.1175,1.53188 3.1175,3.44v3.44h-75.68v-3.44c0,-2.10969 1.20938,-3.44 3.1175,-3.44z"></path></g></g></svg>