<svg xmlns="http://www.w3.org/2000/svg" x="0px" y="0px"
width="50" height="50"
viewBox="0 0 172 172"
style=" fill:#000000;"><g fill="none" fill-rule="nonzero" stroke="none" stroke-width="1" stroke-linecap="butt" stroke-linejoin="miter" stroke-miterlimit="10" stroke-dasharray="" stroke-dashoffset="0" font-family="none" font-weight="none" font-size="none" text-anchor="none" style="mix-blend-mode: normal"><path d="M0,172v-172h172v172z" fill="none"></path><g fill="#032f9c"><path d="M86,13.76c-3.79972,0 -6.88,3.08028 -6.88,6.88c0,3.79972 3.08028,6.88 6.88,6.88c3.79972,0 6.88,-3.08028 6.88,-6.88c0,-3.79972 -3.08028,-6.88 -6.88,-6.88zM65.36,20.64c-3.79972,0 -6.88,3.08028 -6.88,6.88c0,3.79972 3.08028,6.88 6.88,6.88c3.79972,0 6.88,-3.08028 6.88,-6.88c0,-3.79972 -3.08028,-6.88 -6.88,-6.88zM106.64,20.64c-3.79972,0 -6.88,3.08028 -6.88,6.88c0,3.79972 3.08028,6.88 6.88,6.88c3.79972,0 6.88,-3.08028 6.88,-6.88c0,-3.79972 -3.08028,-6.88 -6.88,-6.88zM13.60547,27.52c-1.24059,-0.01754 -2.39452,0.63425 -3.01993,1.7058c-0.62541,1.07155 -0.62541,2.39684 0,3.46839c0.62541,1.07155 1.77935,1.72335 3.01993,1.7058c17.51518,0 27.94869,4.91781 34.64188,12.41625c6.69318,7.49844 9.76801,18.04828 11.02547,29.75735l0.0739,0.72562l12.54391,21.61422c0.4371,0.78632 0.26027,1.39632 -0.48375,1.81406l-11.85859,5.93265l-3.3661,23.28719c-0.38996,2.43788 -1.89052,5.55541 -3.88344,7.77359c-1.99291,2.21818 -4.28222,3.39307 -6.12078,3.31906h-0.06719h-15.45984v17.2c-0.01755,1.24059 0.63424,2.39453 1.7058,3.01995c1.07156,0.62542 2.39685,0.62542 3.46841,0c1.07156,-0.62542 1.72335,-1.77936 1.7058,-3.01995v-10.32h8.37156c4.65616,0.18741 8.61734,-2.38469 11.50922,-5.60344c2.89188,-3.21874 4.9142,-7.22394 5.56313,-11.28078l0.00672,-0.02688l2.86219,-19.80687l8.8486,-4.42094l0.06047,-0.04031c3.92093,-2.18279 5.31312,-7.28392 3.15109,-11.17328l-0.01344,-0.02687l-11.97953,-20.64672c-1.40301,-12.09623 -4.63909,-23.81154 -12.53719,-32.65984c-8.11085,-9.08666 -20.92266,-14.71406 -39.76828,-14.71406zM158.24,27.52c-18.84562,0 -31.66376,5.62702 -39.775,14.71406c-7.90136,8.85191 -11.12689,20.57096 -12.53047,32.67328l-11.98625,20.64l-0.01344,0.02687c-2.16203,3.88936 -0.76984,8.9905 3.15109,11.17328l0.06719,0.0336l8.84859,4.42765l2.86219,19.80015l0.00672,0.02688c0.64901,4.05742 2.66421,8.06898 5.5564,11.2875c2.89219,3.21852 6.85399,5.78421 11.50922,5.59672l-0.13438,0.00672h8.51266v10.32c-0.01754,1.24059 0.63425,2.39452 1.7058,3.01993c1.07155,0.62541 2.39684,0.62541 3.46839,0c1.07155,-0.62541 1.72335,-1.77935 1.7058,-3.01993v-17.2h-15.45985h-0.0739c-1.83605,0.07396 -4.12059,-1.10738 -6.11406,-3.32578c-1.99347,-2.2184 -3.49357,-5.3363 -3.88344,-7.77359l-3.3661,-23.28719l-11.86531,-5.93265c-0.74402,-0.41774 -0.92085,-1.02774 -0.48375,-1.81406l12.5439,-21.6075l0.08062,-0.72562c1.25916,-11.71097 4.33181,-22.26515 11.02547,-29.76406c6.69364,-7.49892 17.12669,-12.41625 34.64187,-12.41625c1.24059,0.01754 2.39452,-0.63425 3.01993,-1.7058c0.62541,-1.07155 0.62541,-2.39684 0,-3.46839c-0.62541,-1.07155 -1.77935,-1.72335 -3.01993,-1.7058zM17.2,51.6c-3.79972,0 -6.88,3.08028 -6.88,6.88c0,3.79972 3.08028,6.88 6.88,6.88c3.79972,0 6.88,-3.08028 6.88,-6.88c0,-3.79972 -3.08028,-6.88 -6.88,-6.88zM37.84,51.6c-3.79972,0 -6.88,3.08028 -6.88,6.88c0,3.79972 3.08028,6.88 6.88,6.88c3.79972,0 6.88,-3.08028 6.88,-6.88c0,-3.79972 -3.08028,-6.88 -6.88,-6.88zM134.16,51.6c-3.79972,0 -6.88,3.08028 -6.88,6.88c0,3.79972 3.08028,6.88 6.88,6.88c3.79972,0 6.88,-3.08028 6.88,-6.88c0,-3.79972 -3.08028,-6.88 -6.88,-6.88zM17.2,72.24c-3.79972,0 -6.88,3.08028 -6.88,6.88c0,3.79972 3.08028,6.88 6.88,6.88c3.79972,0 6.88,-3.08028 6.88,-6.88c0,-3.79972 -3.08028,-6.88 -6.88,-6.88zM37.84,72.24c-3.79972,0 -6.88,3.08028 -6.88,6.88c0,3.79972 3.08028,6.88 6.88,6.88c3.79972,0 6.88,-3.08028 6.88,-6.88c0,-3.79972 -3.08028,-6.88 -6.88,-6.88zM134.16,72.24c-3.79972,0 -6.88,3.08028 -6.88,6.88c0,3.79972 3.08028,6.88 6.88,6.88c3.79972,0 6.88,-3.08028 6.88,-6.88c0,-3.79972 -3.08028,-6.88 -6.88,-6.88z"></path></g></g></svg>