<svg xmlns="http://www.w3.org/2000/svg" x="0px" y="0px"
width="50" height="50"
viewBox="0 0 172 172"
style=" fill:#000000;"><g fill="none" fill-rule="nonzero" stroke="none" stroke-width="1" stroke-linecap="butt" stroke-linejoin="miter" stroke-miterlimit="10" stroke-dasharray="" stroke-dashoffset="0" font-family="none" font-weight="none" font-size="none" text-anchor="none" style="mix-blend-mode: normal"><path d="M0,172v-172h172v172z" fill="none"></path><g fill="#032f9c"><path d="M103.14625,6.82625c-0.16125,0.01344 -0.33594,0.02688 -0.49719,0.05375h-78.56906v158.24h123.84v-112.94219c0.06719,-0.37625 0.06719,-0.7525 0,-1.11531v-0.88687l-0.65844,-0.67188c-0.18813,-0.22844 -0.40313,-0.44344 -0.63156,-0.63156c-0.01344,0 -0.01344,-0.01344 -0.02687,-0.01344l-40.67531,-40.68875c-0.18813,-0.24187 -0.40313,-0.45687 -0.645,-0.645l-0.65844,-0.645h-0.88688c-0.20156,-0.02687 -0.38969,-0.05375 -0.59125,-0.05375zM30.96,13.76h68.8v41.28h41.28v103.2h-110.08zM106.64,18.62438l29.53563,29.53562h-29.53563zM48.16,68.8v6.88h3.44v24.08h6.88v-30.96zM80.84,68.8c-6.61125,0 -12.04,5.42875 -12.04,12.04v6.88c0,6.61125 5.42875,12.04 12.04,12.04c6.61125,0 12.04,-5.42875 12.04,-12.04v-6.88c0,-6.61125 -5.42875,-12.04 -12.04,-12.04zM111.8,68.8c-6.61125,0 -12.04,5.42875 -12.04,12.04v6.88c0,6.61125 5.42875,12.04 12.04,12.04c6.61125,0 12.04,-5.42875 12.04,-12.04v-6.88c0,-6.61125 -5.42875,-12.04 -12.04,-12.04zM80.84,75.68c2.88906,0 5.16,2.27094 5.16,5.16v6.88c0,2.88906 -2.27094,5.16 -5.16,5.16c-2.88906,0 -5.16,-2.27094 -5.16,-5.16v-6.88c0,-2.88906 2.27094,-5.16 5.16,-5.16zM111.8,75.68c2.88906,0 5.16,2.27094 5.16,5.16v6.88c0,2.88906 -2.27094,5.16 -5.16,5.16c-2.88906,0 -5.16,-2.27094 -5.16,-5.16v-6.88c0,-2.88906 2.27094,-5.16 5.16,-5.16zM60.2,113.52c-6.61125,0 -12.04,5.42875 -12.04,12.04v6.88c0,6.61125 5.42875,12.04 12.04,12.04c6.61125,0 12.04,-5.42875 12.04,-12.04v-6.88c0,-6.61125 -5.42875,-12.04 -12.04,-12.04zM91.16,113.52c-6.61125,0 -12.04,5.42875 -12.04,12.04v6.88c0,6.61125 5.42875,12.04 12.04,12.04c6.61125,0 12.04,-5.42875 12.04,-12.04v-6.88c0,-6.61125 -5.42875,-12.04 -12.04,-12.04zM110.08,113.52v6.88h3.44v24.08h6.88v-30.96zM60.2,120.4c2.88906,0 5.16,2.27094 5.16,5.16v6.88c0,2.88906 -2.27094,5.16 -5.16,5.16c-2.88906,0 -5.16,-2.27094 -5.16,-5.16v-6.88c0,-2.88906 2.27094,-5.16 5.16,-5.16zM91.16,120.4c2.88906,0 5.16,2.27094 5.16,5.16v6.88c0,2.88906 -2.27094,5.16 -5.16,5.16c-2.88906,0 -5.16,-2.27094 -5.16,-5.16v-6.88c0,-2.88906 2.27094,-5.16 5.16,-5.16z"></path></g></g></svg>