<svg xmlns="http://www.w3.org/2000/svg" x="0px" y="0px"
width="60" height="60"
viewBox="0 0 172 172"><g fill="none" fill-rule="nonzero" stroke="none" stroke-width="1" stroke-linecap="butt" stroke-linejoin="miter" stroke-miterlimit="10" stroke-dasharray="" stroke-dashoffset="0" font-family="none" font-weight="none" font-size="none" text-anchor="none" style="mix-blend-mode: normal"><path d="M0,172v-172h172v172z" fill="none"></path><g fill="#032f9c"><path d="M141.04,0c-11.352,0 -20.64,9.62931 -20.64,21.32531v6.19469h-3.78265c-3.784,0 -6.53735,3.09734 -6.53735,6.53734v34.74266c0,3.784 2.75335,6.88 6.53735,6.88h48.84531c3.44,0 6.53735,-3.09735 6.53735,-6.53735v-35.08531c0,-3.44 -2.75335,-6.53734 -6.53735,-6.53734h-3.78265v-6.19469c0,-11.696 -9.288,-21.32531 -20.64,-21.32531zM141.04,6.88c7.568,0 13.76,6.53331 13.76,14.44531v6.19469h-27.52v-6.19469c0,-7.912 6.192,-14.44531 13.76,-14.44531zM0,27.52v123.84h172v-68.8h-6.88v44.59906l-45.2911,-35.81094c4.17537,-3.70055 5.70166,-5.0634 9.9236,-8.78141h-10.4275c-9.3912,8.30416 -20.61098,18.33031 -21.84937,19.41047c-4.84696,4.21744 -9.63867,4.67625 -11.47563,4.67625c-1.83696,0 -6.62523,-0.45537 -11.47563,-4.67625c-4.816,-4.20024 -60.34125,-52.58959 -67.64437,-58.95703v-8.62015h96.32v-6.88zM116.96,34.4h48.16v34.4h-48.16zM141.04,44.72c-2.752,0 -4.81735,2.06535 -4.81735,4.81735c0,1.376 0.688,2.408 1.72,3.44v4.46797c0,1.72 1.37735,3.09734 3.09735,3.09734c1.72,0 3.09735,-1.37734 3.09735,-3.09734v-4.46797c1.032,-1.032 1.72,-2.064 1.72,-3.44c0,-2.752 -2.06535,-4.81735 -4.81735,-4.81735zM6.88,52.12406c10.95604,9.54688 29.99865,26.14604 45.13656,39.33828l-45.13656,35.69672zM114.595,95.98406l50.525,39.94297v8.55297h-158.24v-8.55297l50.41078,-39.86235c3.49619,3.04661 11.86989,10.34143 12.72531,11.08594c6.59792,5.7448 13.37638,6.36265 15.9839,6.36265c2.60752,0 9.38942,-0.61785 15.9839,-6.36265c0.71558,-0.62339 8.05288,-7.12119 12.6111,-11.16656z"></path></g></g></svg>