<svg xmlns="http://www.w3.org/2000/svg" x="0px" y="0px"
width="50" height="50"
viewBox="0 0 172 172"
style=" fill:#000000;"><g fill="none" fill-rule="nonzero" stroke="none" stroke-width="1" stroke-linecap="butt" stroke-linejoin="miter" stroke-miterlimit="10" stroke-dasharray="" stroke-dashoffset="0" font-family="none" font-weight="none" font-size="none" text-anchor="none" style="mix-blend-mode: normal"><path d="M0,172v-172h172v172z" fill="none"></path><g fill="#032f9c"><path d="M132.44,-0.3225c-1.02125,0.02688 -2.08281,0.09406 -3.1175,0.215c-4.12531,0.47031 -8.385,1.59906 -12.47,3.1175c-8.17,3.03688 -15.695,7.6325 -20.5325,12.47c-5.22719,5.22719 -7.79375,11.61 -7.74,18.1675c0.04031,5.67063 2.16344,11.395 5.2675,16.8775l-7.8475,7.955c-1.02125,0.83313 -1.49156,2.16344 -1.19594,3.45344c0.29562,1.27656 1.30344,2.28438 2.58,2.58c1.29,0.29563 2.62031,-0.17469 3.45344,-1.19594l9.675,-9.675c1.14219,-1.15562 1.31688,-2.94281 0.43,-4.3c-3.52062,-5.44219 -5.44219,-10.81719 -5.4825,-15.695c-0.04031,-4.87781 1.63938,-9.27187 5.6975,-13.33c3.7625,-3.7625 10.8575,-8.12969 18.1675,-10.8575c4.59563,-1.70656 8.97625,-2.35156 13.0075,-2.4725l-13.0075,12.9c-0.04031,0.06719 -0.08062,0.14781 -0.1075,0.215c-3.53406,4.03125 -3.69531,10.17219 0.1075,13.975l18.275,18.275c0.04031,0.04031 0.06719,0.06719 0.1075,0.1075c4.03125,3.53406 10.17219,3.69531 13.975,-0.1075l13.0075,-13.0075c-0.1075,4.09844 -0.7525,8.51938 -2.4725,13.115c-2.71437,7.26969 -7.08156,14.28406 -10.8575,18.06c-4.05812,4.05813 -8.37156,5.54969 -13.2225,5.4825c-4.85094,-0.06719 -10.34687,-1.97531 -16.0175,-5.375c-1.35719,-0.80625 -3.07719,-0.57781 -4.1925,0.5375l-5.4825,5.4825c-1.37062,1.33031 -1.38406,3.52063 -0.05375,4.89125c1.33031,1.37063 3.52063,1.38406 4.89125,0.05375l3.87,-3.87c5.59,2.99656 11.20688,5.07938 16.8775,5.16c6.50375,0.09406 12.94031,-2.29781 18.1675,-7.525c4.82406,-4.82406 9.43313,-12.29531 12.47,-20.425c3.03688,-8.12969 4.63594,-16.94469 2.15,-24.4025c-0.38969,-1.12875 -1.33031,-1.96187 -2.48594,-2.23062c-1.16906,-0.25531 -2.37844,0.09406 -3.21156,0.94062l-18.275,18.1675c-0.9675,0.9675 -2.95625,1.10188 -4.4075,0c-0.06719,-0.05375 -0.14781,-0.05375 -0.215,-0.1075l-18.06,-18.06c-1.02125,-1.02125 -1.075,-3.15781 0.215,-4.6225l18.06,-18.06c0.84656,-0.83312 1.19594,-2.0425 0.94063,-3.21156c-0.26875,-1.15562 -1.10188,-2.09625 -2.23063,-2.48594c-2.75469,-0.94062 -5.65719,-1.27656 -8.7075,-1.1825zM11.5025,0c-0.72562,0.1075 -1.41094,0.44344 -1.935,0.9675l-8.6,8.6c-1.11531,1.11531 -1.34375,2.83531 -0.5375,4.1925l14.5125,25.155c0.72563,1.1825 2.06938,1.81406 3.44,1.6125l7.525,-1.1825l46.655,46.655l-1.72,1.72c-3.80281,3.80281 -3.80281,9.95719 0,13.76l2.365,2.4725c2.74125,2.74125 6.51719,2.72781 9.89,1.6125l5.805,5.6975c-0.38969,4.63594 0.9675,9.245 4.3,12.5775l41.925,42.0325c8.4925,8.4925 22.2525,8.4925 30.745,0c0,-0.04031 0,-0.06719 0,-0.1075c8.15656,-8.57312 8.26406,-22.37344 0,-30.6375l-42.0325,-41.925c-3.46687,-3.46687 -8.07594,-4.54187 -12.5775,-4.3l-5.6975,-5.805c1.11531,-3.37281 1.12875,-7.14875 -1.6125,-9.89l-2.4725,-2.365c-1.89469,-1.89469 -4.38062,-2.9025 -6.88,-2.9025c-2.49937,0 -4.98531,1.00781 -6.88,2.9025l-1.72,1.72l-46.655,-46.655l1.1825,-7.525c0.20156,-1.37062 -0.43,-2.71437 -1.6125,-3.44l-25.155,-14.5125c-0.59125,-0.33594 -1.26312,-0.48375 -1.935,-0.43c-0.1075,0 -0.215,0 -0.3225,0zM12.685,7.74l20.7475,11.9325l-1.075,6.9875c-0.14781,1.06156 0.215,2.13656 0.9675,2.9025l47.8375,47.8375l-3.7625,3.7625l-47.8375,-47.8375c-0.76594,-0.7525 -1.84094,-1.11531 -2.9025,-0.9675l-6.9875,1.075l-11.9325,-20.7475zM94.6,74.9275c0.76594,0 1.53188,0.24188 2.0425,0.7525l2.365,2.4725c1.12875,1.12875 1.11531,2.80844 0.215,3.87c-1.19594,1.38406 -1.10187,3.46688 0.215,4.73l7.8475,7.8475c0.79281,0.79281 1.90813,1.15563 3.01,0.9675c3.18469,-0.52406 6.51719,0.28219 8.7075,2.4725l41.925,42.0325c5.4825,5.4825 5.53625,14.96938 0,20.855c-5.95281,5.95281 -14.90219,5.95281 -20.855,0l-42.0325,-41.925c-2.28437,-2.28437 -3.18469,-5.52281 -2.4725,-8.385c0.30906,-1.20937 -0.06719,-2.4725 -0.9675,-3.3325l-7.8475,-7.8475c-1.26312,-1.31687 -3.34594,-1.41094 -4.73,-0.215c-1.06156,0.90031 -2.74125,0.91375 -3.87,-0.215l-2.4725,-2.365c-1.02125,-1.02125 -1.02125,-3.06375 0,-4.085l16.8775,-16.8775c0.51063,-0.51062 1.27656,-0.7525 2.0425,-0.7525zM60.845,85.2475c-0.77937,0.1075 -1.505,0.49719 -2.0425,1.075l-16.34,16.34c-2.33812,-0.45687 -4.63594,-0.86 -6.9875,-0.86c-19.39031,0 -35.1525,15.76219 -35.1525,35.1525c0,19.39031 15.76219,35.045 35.1525,35.045c19.39031,0 35.045,-15.65469 35.045,-35.045c0,-2.51281 -0.56437,-4.99875 -1.1825,-7.4175l11.825,-11.825c1.37063,-1.33031 1.38406,-3.52062 0.05375,-4.89125c-1.33031,-1.37062 -3.52062,-1.38406 -4.89125,-0.05375l-13.0075,13.115c-0.98094,0.94063 -1.31687,2.37844 -0.86,3.655c0.86,2.28438 1.1825,4.58219 1.1825,7.4175c0,15.695 -12.47,28.165 -28.165,28.165c-15.695,0 -28.2725,-12.47 -28.2725,-28.165c0,-15.695 12.5775,-28.2725 28.2725,-28.2725c2.45906,0 4.93156,0.34938 7.4175,0.9675c1.16906,0.25531 2.39188,-0.1075 3.225,-0.9675l17.5225,-17.5225c1.02125,-0.98094 1.33031,-2.49937 0.77938,-3.80281c-0.5375,-1.30344 -1.84094,-2.13656 -3.25188,-2.10969c-0.1075,0 -0.215,0 -0.3225,0zM109.1125,104.1675l-4.945,4.945l41.28,41.28l4.945,-4.945zM39.13,116.96c-0.18812,0.02688 -0.36281,0.05375 -0.5375,0.1075l-16.125,4.515c-1.14219,0.3225 -2.0425,1.22281 -2.365,2.365l-4.515,16.125c-0.37625,1.22281 -0.04031,2.53969 0.86,3.44l12.04,12.04c0.87344,0.86 2.15,1.19594 3.3325,0.86l16.555,-4.515c1.20938,-0.30906 2.16344,-1.26312 2.4725,-2.4725l4.085,-16.125c0.33594,-1.1825 0,-2.45906 -0.86,-3.3325l-12.04,-12.04c-0.76594,-0.7525 -1.84094,-1.11531 -2.9025,-0.9675zM38.485,124.27l9.245,9.245l-3.1175,12.3625l-12.5775,3.3325l-9.245,-9.245l3.3325,-12.3625z"></path></g></g></svg>