<svg xmlns="http://www.w3.org/2000/svg" x="0px" y="0px"
width="50" height="50"
viewBox="0 0 172 172"><g fill="none" fill-rule="nonzero" stroke="none" stroke-width="1" stroke-linecap="butt" stroke-linejoin="miter" stroke-miterlimit="10" stroke-dasharray="" stroke-dashoffset="0" font-family="none" font-weight="none" font-size="none" text-anchor="none" style="mix-blend-mode: normal"><path d="M0,172v-172h172v172z" fill="none"></path><g fill="#032f9c"><path d="M84.28,6.88c-4.71656,0 -8.6,3.88344 -8.6,8.6v17.2c0,4.71656 3.88344,8.6 8.6,8.6c4.71656,0 8.6,-3.88344 8.6,-8.6v-17.2c0,-4.71656 -3.88344,-8.6 -8.6,-8.6zM84.28,13.76c0.9675,0 1.72,0.7525 1.72,1.72v17.2c0,0.9675 -0.7525,1.72 -1.72,1.72c-0.9675,0 -1.72,-0.7525 -1.72,-1.72v-17.2c0,-0.9675 0.7525,-1.72 1.72,-1.72zM37.71906,25.6925c-2.20375,0 -4.4075,0.83313 -6.08719,2.49938l-5.85875,5.88562h3.45344c-0.05375,2.27094 0.68531,4.55531 2.40531,6.28875l12.17437,12.16094c0.47031,0.47031 1.16906,0.36281 1.72,0.69875l-0.30906,0.30906h1.04813c2.39187,1.1825 4.85094,1.1825 7.25625,0h0.01344c0.02688,-0.01344 0.04031,-0.01344 0.06719,-0.02687l-0.06719,0.02687h1.42438l0.99437,-1.00781c3.34594,-3.3325 3.34594,-8.82844 0.01344,-12.16094l-12.16094,-12.17437c-1.67969,-1.66625 -3.88344,-2.49938 -6.08719,-2.49938zM130.8275,25.6925c-2.20375,0 -4.4075,0.84656 -6.07375,2.51281l-12.16094,12.16094c-3.3325,3.3325 -3.3325,8.82844 0,12.16094l1.00781,1.00781h1.42437l-0.06719,-0.02687c0.02687,0.01344 0.04031,0.01344 0.06719,0.02687h0.01344c2.40531,1.1825 4.86438,1.1825 7.25625,0h1.03469l-0.29563,-0.30906c0.5375,-0.33594 1.24969,-0.22844 1.72,-0.69875l12.16094,-12.16094c1.72,-1.72 2.4725,-4.00437 2.40531,-6.28875h3.45344l-5.85875,-5.87219c-1.66625,-1.66625 -3.87,-2.51281 -6.08719,-2.51281zM37.71906,32.54563c0.44344,0 0.87344,0.17469 1.20937,0.51062l12.17438,12.17438c0.68531,0.68531 0.68531,1.74687 0,2.43219c-0.68531,0.67187 -1.76031,0.67187 -2.43219,0l-12.17438,-12.17438c-0.67187,-0.67187 -0.67187,-1.74687 0,-2.43219c0.34938,-0.33594 0.77938,-0.51062 1.22281,-0.51062zM130.84094,32.55906c0.44344,0 0.87344,0.17469 1.20938,0.51062c0.67187,0.67188 0.67187,1.76031 0,2.43219l-12.16094,12.16094c-0.67188,0.67187 -1.76031,0.67187 -2.43219,0c-0.67187,-0.67188 -0.67187,-1.76031 0,-2.43219l12.16094,-12.16094h0.01344c0.33594,-0.33594 0.76594,-0.51062 1.20937,-0.51062zM84.28,48.16c-17.99281,0 -32.68,14.68719 -32.68,32.68v12.04h-6.88c-3.78937,0 -6.88,3.09063 -6.88,6.88v58.48c0,3.78938 3.09063,6.88 6.88,6.88h79.12c3.78938,0 6.88,-3.09062 6.88,-6.88v-58.48c0,-3.78937 -3.09062,-6.88 -6.88,-6.88h-6.88v-12.04c0,-17.99281 -14.68719,-32.68 -32.68,-32.68zM84.28,55.04c14.23031,0 25.8,11.56969 25.8,25.8v12.04h-6.88v-12.04c0,-10.25281 -8.66719,-18.92 -18.92,-18.92c-10.25281,0 -18.92,8.66719 -18.92,18.92v12.04h-6.88v-12.04c0,-14.23031 11.56969,-25.8 25.8,-25.8zM18.92,68.8c-4.71656,0 -8.6,3.88344 -8.6,8.6v3.44h1.43781c1.3975,2.86219 3.78937,5.16 7.16219,5.16h17.2c3.37281,0 5.76469,-2.29781 7.16219,-5.16h1.43781v-3.44c0,-4.71656 -3.88344,-8.6 -8.6,-8.6zM84.28,68.8c6.53063,0 12.04,5.50938 12.04,12.04v12.04h-24.08v-12.04c0,-6.53062 5.50938,-12.04 12.04,-12.04zM132.44,68.8c-4.71656,0 -8.6,3.88344 -8.6,8.6v3.44h1.43781c1.3975,2.86219 3.78937,5.16 7.16219,5.16h17.2c3.37281,0 5.76469,-2.29781 7.16219,-5.16h1.43781v-3.44c0,-4.71656 -3.88344,-8.6 -8.6,-8.6zM18.92,75.68h17.2c0.9675,0 1.72,0.7525 1.72,1.72c0,0.9675 -0.7525,1.72 -1.72,1.72h-17.2c-0.9675,0 -1.72,-0.7525 -1.72,-1.72c0,-0.9675 0.7525,-1.72 1.72,-1.72zM132.44,75.68h17.2c0.9675,0 1.72,0.7525 1.72,1.72c0,0.9675 -0.7525,1.72 -1.72,1.72h-17.2c-0.9675,0 -1.72,-0.7525 -1.72,-1.72c0,-0.9675 0.7525,-1.72 1.72,-1.72zM44.72,99.76h79.12v58.48h-79.12zM84.28,113.52c-6.61125,0 -12.04,5.42875 -12.04,12.04c0,3.14438 1.45125,5.81844 3.44,7.955v5.805c0,4.71656 3.88344,8.6 8.6,8.6c4.71656,0 8.6,-3.88344 8.6,-8.6v-5.805c1.98875,-2.13656 3.44,-4.81062 3.44,-7.955c0,-6.61125 -5.42875,-12.04 -12.04,-12.04zM84.28,120.4c2.88906,0 5.16,2.27094 5.16,5.16c0,1.69313 -0.80625,3.13094 -2.08281,4.09844l-1.35719,1.03469v8.62687c0,0.9675 -0.7525,1.72 -1.72,1.72c-0.9675,0 -1.72,-0.7525 -1.72,-1.72v-8.62687l-1.35719,-1.03469c-1.27656,-0.9675 -2.08281,-2.40531 -2.08281,-4.09844c0,-2.88906 2.27094,-5.16 5.16,-5.16z"></path></g></g></svg>