<svg xmlns="http://www.w3.org/2000/svg" x="0px" y="0px"
width="50" height="50"
viewBox="0 0 172 172"
style=" fill:#000000;"><g fill="none" fill-rule="nonzero" stroke="none" stroke-width="1" stroke-linecap="butt" stroke-linejoin="miter" stroke-miterlimit="10" stroke-dasharray="" stroke-dashoffset="0" font-family="none" font-weight="none" font-size="none" text-anchor="none" style="mix-blend-mode: normal"><path d="M0,172v-172h172v172z" fill="none"></path><g fill="#032f9c"><path d="M30.96,13.76c-9.45834,0 -17.2,7.74166 -17.2,17.2v110.08c0,9.45834 7.74166,17.2 17.2,17.2h110.08c9.45834,0 17.2,-7.74166 17.2,-17.2v-110.08c0,-9.45834 -7.74166,-17.2 -17.2,-17.2zM30.96,20.64h110.08c5.73958,0 10.32,4.58042 10.32,10.32v110.08c0,5.73958 -4.58042,10.32 -10.32,10.32h-110.08c-5.73958,0 -10.32,-4.58042 -10.32,-10.32v-110.08c0,-5.73958 4.58042,-10.32 10.32,-10.32zM51.6,27.52c-13.25827,0 -24.08,10.82173 -24.08,24.08c0,9.56395 5.64518,17.83427 13.76,21.715v25.37c-8.11482,3.88073 -13.76,12.15105 -13.76,21.715c0,13.25827 10.82173,24.08 24.08,24.08c9.56395,0 17.83427,-5.64518 21.715,-13.76h25.37c3.88073,8.11482 12.15105,13.76 21.715,13.76c13.25827,0 24.08,-10.82173 24.08,-24.08c0,-9.56395 -5.64518,-17.83427 -13.76,-21.715v-25.37c8.11482,-3.88073 13.76,-12.15105 13.76,-21.715c0,-13.25827 -10.82173,-24.08 -24.08,-24.08c-9.56395,0 -17.83427,5.64518 -21.715,13.76h-25.37c-3.88073,-8.11482 -12.15105,-13.76 -21.715,-13.76zM51.6,34.4c9.54004,0 17.2,7.65996 17.2,17.2c0,9.54004 -7.65996,17.2 -17.2,17.2c-9.54004,0 -17.2,-7.65996 -17.2,-17.2c0,-9.54004 7.65996,-17.2 17.2,-17.2zM120.4,34.4c9.54004,0 17.2,7.65996 17.2,17.2c0,9.54004 -7.65996,17.2 -17.2,17.2c-9.54004,0 -17.2,-7.65996 -17.2,-17.2c0,-9.54004 7.65996,-17.2 17.2,-17.2zM75.40453,48.16h21.19094c-0.16298,1.12694 -0.27547,2.2693 -0.27547,3.44c0,13.25827 10.82173,24.08 24.08,24.08c1.1707,0 2.31306,-0.11249 3.44,-0.27547v21.19094c-1.12694,-0.16298 -2.2693,-0.27547 -3.44,-0.27547c-13.25827,0 -24.08,10.82173 -24.08,24.08c0,1.1707 0.11249,2.31306 0.27547,3.44h-21.19094c0.16298,-1.12694 0.27547,-2.2693 0.27547,-3.44c0,-13.25827 -10.82173,-24.08 -24.08,-24.08c-1.1707,0 -2.31306,0.11249 -3.44,0.27547v-21.19094c1.12694,0.16298 2.2693,0.27547 3.44,0.27547c13.25827,0 24.08,-10.82173 24.08,-24.08c0,-1.1707 -0.11249,-2.31306 -0.27547,-3.44zM51.6,103.2c9.54004,0 17.2,7.65996 17.2,17.2c0,9.54004 -7.65996,17.2 -17.2,17.2c-9.54004,0 -17.2,-7.65996 -17.2,-17.2c0,-9.54004 7.65996,-17.2 17.2,-17.2zM120.4,103.2c9.54004,0 17.2,7.65996 17.2,17.2c0,9.54004 -7.65996,17.2 -17.2,17.2c-9.54004,0 -17.2,-7.65996 -17.2,-17.2c0,-9.54004 7.65996,-17.2 17.2,-17.2z"></path></g></g></svg>