<svg xmlns="http://www.w3.org/2000/svg" x="0px" y="0px"
width="50" height="50"
viewBox="0 0 172 172"><g fill="none" fill-rule="nonzero" stroke="none" stroke-width="1" stroke-linecap="butt" stroke-linejoin="miter" stroke-miterlimit="10" stroke-dasharray="" stroke-dashoffset="0" font-family="none" font-weight="none" font-size="none" text-anchor="none" style="mix-blend-mode: normal"><path d="M0,172v-172h172v172z" fill="none"></path><g fill="#032f9c"><path d="M85.57,0c-0.63156,0.08063 -1.22281,0.34938 -1.72,0.7525c0,0 -25.37,19.4575 -25.37,47.085c0,8.35813 1.6125,24.91313 3.3325,41.28c0.40313,3.84313 0.56438,5.44219 0.9675,9.1375l-13.8675,16.4475c-0.51062,0.645 -0.77937,1.43781 -0.7525,2.2575v13.76c0,1.12875 0.55094,2.17688 1.47813,2.82188c0.91375,0.63156 2.09625,0.79281 3.14437,0.40312l13.545,-4.8375c0.88688,2.75469 3.31906,5.0525 6.5575,5.0525h26.23c3.23844,0 5.67063,-2.29781 6.5575,-5.0525l13.545,4.8375c1.04813,0.38969 2.23063,0.22844 3.14438,-0.40312c0.92719,-0.645 1.47812,-1.69313 1.47812,-2.82188v-13.76c0.02688,-0.81969 -0.24187,-1.6125 -0.7525,-2.2575l-13.76,-16.2325c2.08281,-19.0275 4.1925,-40.80969 4.1925,-50.6325c0,-27.6275 -25.37,-47.085 -25.37,-47.085c-0.72562,-0.59125 -1.65281,-0.86 -2.58,-0.7525zM86,8.385c3.50719,3.01 20.64,18.34219 20.64,39.4525c0,14.57969 -5.805,66.03188 -7.525,79.12c0,0.04031 0,0.17469 0,0.215c0,0.01344 -0.04031,0.1075 0,0.1075h-26.23c0,-0.05375 0,-0.26875 0,-0.3225c-0.71219,-6.70531 -2.59344,-22.41375 -4.3,-38.5925c-1.72,-16.31312 -3.225,-33.06969 -3.225,-40.5275c0,-21.11031 17.13281,-36.4425 20.64,-39.4525zM86,34.4c-7.56531,0 -13.76,6.19469 -13.76,13.76c0,7.56531 6.19469,13.76 13.76,13.76c7.56531,0 13.76,-6.19469 13.76,-13.76c0,-7.56531 -6.19469,-13.76 -13.76,-13.76zM86,41.28c3.84313,0 6.88,3.03688 6.88,6.88c0,3.84313 -3.03687,6.88 -6.88,6.88c-3.84312,0 -6.88,-3.03687 -6.88,-6.88c0,-3.84312 3.03688,-6.88 6.88,-6.88zM63.855,107.8225c0.57781,5.07938 1.23625,10.83063 1.6125,14.19l-10.4275,3.7625v-7.4175zM108.2525,108.0375l8.7075,10.32v7.4175l-10.32,-3.7625c0.48375,-3.93719 0.95406,-8.15656 1.6125,-13.975zM74.0675,137.4925c-0.14781,0.02688 -0.29562,0.06719 -0.43,0.1075c-1.11531,0.22844 -2.02906,0.99438 -2.4725,2.0425c-1.03469,2.40531 -2.365,5.30781 -2.365,8.9225c0,6.14094 4.09844,11.32781 7.74,15.48c3.64156,4.15219 7.31,7.2025 7.31,7.2025c1.26313,1.00781 3.03688,1.00781 4.3,0c0,0 3.66844,-3.05031 7.31,-7.2025c3.64156,-4.15219 7.74,-9.33906 7.74,-15.48c0,-3.31906 -0.81969,-6.665 -2.6875,-9.46c-1.075,-1.57219 -3.21156,-1.98875 -4.78375,-0.91375c-1.57219,1.075 -1.98875,3.21156 -0.91375,4.78375c0.88688,1.33031 1.505,3.41313 1.505,5.59c0,2.45906 -2.78156,7.28313 -6.02,10.965c-2.15,2.44563 -3.09062,3.1175 -4.3,4.1925c-1.20937,-1.075 -2.15,-1.74687 -4.3,-4.1925c-3.23844,-3.68187 -6.02,-8.50594 -6.02,-10.965c0,-1.89469 0.79281,-3.72219 1.8275,-6.1275c0.55094,-1.12875 0.45688,-2.45906 -0.25531,-3.49375c-0.72562,-1.02125 -1.935,-1.58562 -3.18469,-1.45125z"></path></g></g></svg>