<svg xmlns="http://www.w3.org/2000/svg" x="0px" y="0px"
width="50" height="50"
viewBox="0 0 172 172"
style=" fill:#000000;"><g fill="none" fill-rule="nonzero" stroke="none" stroke-width="1" stroke-linecap="butt" stroke-linejoin="miter" stroke-miterlimit="10" stroke-dasharray="" stroke-dashoffset="0" font-family="none" font-weight="none" font-size="none" text-anchor="none" style="mix-blend-mode: normal"><path d="M0,172v-172h172v172z" fill="none"></path><g fill="#032f9c"><path d="M72.24,10.32c-32.25522,0 -58.48,26.22478 -58.48,58.48c0,32.25522 26.22478,58.48 58.48,58.48c12.76994,0 24.5586,-4.15848 34.185,-11.12625l45.23063,45.23062l9.72875,-9.72875l-44.81406,-44.81406c8.79567,-10.23618 14.14969,-23.51302 14.14969,-38.04156c0,-32.25522 -26.22478,-58.48 -58.48,-58.48zM72.24,17.2c28.53646,0 51.6,23.06354 51.6,51.6c0,28.53646 -23.06354,51.6 -51.6,51.6c-28.53646,0 -51.6,-23.06354 -51.6,-51.6c0,-28.53646 23.06354,-51.6 51.6,-51.6zM75.68,41.28l-13.76,55.04h6.88l13.76,-55.04zM48.65047,49.83297l-11.38156,18.96703l11.38156,18.96703l5.89906,-3.53406l-9.25844,-15.43297l9.25844,-15.43297zM95.82953,49.83297l-5.89906,3.53406l9.25844,15.43297l-9.25844,15.43297l5.89906,3.53406l11.38156,-18.96703z"></path></g></g></svg>