<svg xmlns="http://www.w3.org/2000/svg" x="0px" y="0px"
width="64" height="64"
viewBox="0 0 172 172"
style=" fill:#000000;"><g fill="none" fill-rule="nonzero" stroke="none" stroke-width="1" stroke-linecap="butt" stroke-linejoin="miter" stroke-miterlimit="10" stroke-dasharray="" stroke-dashoffset="0" font-family="none" font-weight="none" font-size="none" text-anchor="none" style="mix-blend-mode: normal"><path d="M0,172v-172h172v172z" fill="none"></path><g fill="#1abc9c"><path d="M149.0224,2.6875c-2.28438,0 -4.03125,1.74688 -4.03125,4.03125c0,2.28438 1.74687,4.03125 4.03125,4.03125h3.76093l-45.28333,45.4198l-40.17865,-40.17865c-1.6125,-1.6125 -4.16457,-1.6125 -5.6427,0l-44.34375,43.80572c-1.6125,1.6125 -1.6125,4.16458 0,5.6427c0.80625,0.80625 1.88072,1.2099 2.82135,1.2099c1.075,0 2.0151,-0.40365 2.82135,-1.2099l41.5224,-40.98437l40.17865,40.17865c1.6125,1.6125 4.16457,1.6125 5.6427,0l48.24115,-48.24115v3.76355c0,2.28438 1.74687,4.03125 4.03125,4.03125c2.28438,0 4.03125,-1.74687 4.03125,-4.03125v-13.4375c0,-1.6125 -0.94115,-3.09167 -2.55365,-3.76355c-0.40312,-0.13438 -0.9401,-0.2677 -1.4776,-0.2677h-0.13385zM137.0625,68.53125c-2.28438,0 -4.03125,1.74688 -4.03125,4.03125v94.0625c0,2.28438 1.74687,4.03125 4.03125,4.03125h24.1875c2.28438,0 4.03125,-1.74687 4.03125,-4.03125v-94.0625c0,-2.28437 -1.74687,-4.03125 -4.03125,-4.03125zM6.5849,72.02447c-2.28437,0 -4.03177,1.88073 -3.8974,4.1651v0.53802c0,2.15 1.88073,3.8974 4.1651,3.8974c2.28437,0 4.03177,-1.88072 3.8974,-4.1651v-0.53803c0,-2.28437 -1.88073,-3.8974 -4.1651,-3.8974zM51.0625,81.96875c-2.28438,0 -4.03125,1.74688 -4.03125,4.03125v80.625c0,2.28438 1.74687,4.03125 4.03125,4.03125h24.1875c2.28437,0 4.03125,-1.74687 4.03125,-4.03125v-80.625c0,-2.28437 -1.74688,-4.03125 -4.03125,-4.03125zM55.09375,90.03125h16.125v72.5625h-16.125zM94.0625,108.84375c-2.28437,0 -4.03125,1.74688 -4.03125,4.03125v53.75c0,2.28438 1.74688,4.03125 4.03125,4.03125h24.1875c2.28437,0 4.03125,-1.74687 4.03125,-4.03125v-53.75c0,-2.28437 -1.74688,-4.03125 -4.03125,-4.03125zM98.09375,116.90625h16.125v45.6875h-16.125zM8.0625,122.28125c-2.28437,0 -4.03125,1.74688 -4.03125,4.03125v40.3125c0,2.28438 1.74688,4.03125 4.03125,4.03125h24.1875c2.28437,0 4.03125,-1.74687 4.03125,-4.03125v-40.3125c0,-2.28437 -1.74688,-4.03125 -4.03125,-4.03125zM12.09375,130.34375h16.125v32.25h-16.125z"></path></g></g></svg>