<svg xmlns="http://www.w3.org/2000/svg" x="0px" y="0px"
width="50" height="50"
viewBox="0 0 172 172"
style=" fill:#000000;"><g fill="none" fill-rule="nonzero" stroke="none" stroke-width="1" stroke-linecap="butt" stroke-linejoin="miter" stroke-miterlimit="10" stroke-dasharray="" stroke-dashoffset="0" font-family="none" font-weight="none" font-size="none" text-anchor="none" style="mix-blend-mode: normal"><path d="M0,172v-172h172v172z" fill="none"></path><g fill="#032f9c"><path d="M86,6.88c-3.6466,0 -7.25621,0.29837 -10.7836,0.77938c-1.21848,0.1653 -2.25616,0.96822 -2.72202,2.10619c-0.46586,1.13798 -0.2891,2.43806 0.46367,3.41035c0.75278,0.97229 1.96716,1.46901 3.18554,1.30299c3.28381,-0.44779 6.5886,-0.71891 9.8564,-0.71891c26.06034,0 48.66726,13.81116 61.39594,34.4h-23.55594c-1.24059,-0.01754 -2.39452,0.63425 -3.01993,1.7058c-0.62541,1.07155 -0.62541,2.39684 0,3.46839c0.62541,1.07155 1.77935,1.72335 3.01993,1.7058h30.96c1.89978,-0.00019 3.43981,-1.54022 3.44,-3.44v-30.96c0.01273,-0.92983 -0.35149,-1.82522 -1.00967,-2.48214c-0.65819,-0.65692 -1.55427,-1.01942 -2.48408,-1.00489c-1.89722,0.02966 -3.41223,1.58976 -3.38625,3.48703v21.00953c-14.22545,-20.92053 -38.10639,-34.76953 -65.36,-34.76953zM20.64,13.76c-1.24059,-0.01754 -2.39452,0.63425 -3.01993,1.7058c-0.62541,1.07155 -0.62541,2.39684 0,3.46839c0.62541,1.07155 1.77935,1.72335 3.01993,1.7058h20.72063c-20.89517,14.28549 -34.48063,38.38601 -34.48063,65.36c0,3.72536 0.21783,7.25782 0.65172,10.74328c0.12278,1.24355 0.9102,2.32275 2.05696,2.81917c1.14676,0.49642 2.47253,0.33201 3.46329,-0.4295c0.99076,-0.76151 1.4907,-2.00036 1.306,-3.23623c-0.39859,-3.2019 -0.59797,-6.43936 -0.59797,-9.89672c0,-25.91009 13.69423,-48.89105 34.4,-61.60422v23.76422c-0.01754,1.24059 0.63425,2.39452 1.7058,3.01993c1.07155,0.62541 2.39684,0.62541 3.46839,0c1.07155,-0.62541 1.72335,-1.77935 1.7058,-3.01993v-30.96c-0.00019,-1.89978 -1.54022,-3.43981 -3.44,-3.44zM160.81328,72.19297c-0.97093,0.04319 -1.8783,0.49504 -2.49784,1.24386c-0.61954,0.74883 -0.89345,1.72476 -0.75403,2.68661c0.42421,3.2578 0.6786,6.58423 0.6786,9.87656c0,27.48357 -15.36678,51.114 -37.84,63.37797v-25.53797c0.01273,-0.92983 -0.35149,-1.82522 -1.00967,-2.48214c-0.65819,-0.65692 -1.55427,-1.01942 -2.48408,-1.00489c-1.89722,0.02966 -3.41223,1.58976 -3.38625,3.48703v30.96c0.00019,1.89978 1.54022,3.43981 3.44,3.44h30.96c1.24059,0.01754 2.39452,-0.63425 3.01993,-1.7058c0.62541,-1.07155 0.62541,-2.39684 0,-3.46839c-0.62541,-1.07155 -1.77935,-1.72335 -3.01993,-1.7058h-17.56953c20.92053,-14.22545 34.76953,-38.10639 34.76953,-65.36c0,-3.64271 -0.27592,-7.2582 -0.73235,-10.76344c-0.20663,-1.79613 -1.76827,-3.12588 -3.57437,-3.0436zM17.2,116.96c-1.89978,0.00019 -3.43981,1.54022 -3.44,3.44v30.96c-0.01754,1.24059 0.63425,2.39452 1.7058,3.01993c1.07155,0.62541 2.39684,0.62541 3.46839,0c1.07155,-0.62541 1.72335,-1.77935 1.7058,-3.01993v-20.91547c14.27532,20.93587 38.30447,34.67547 65.36,34.67547c2.45339,0 4.82845,-0.09192 7.16219,-0.28219c1.22628,-0.0997 2.30605,-0.84644 2.83214,-1.95862c0.52608,-1.11217 0.41844,-2.42059 -0.28234,-3.43183c-0.70078,-1.01124 -1.88808,-1.57146 -3.11417,-1.4694c-2.13826,0.17435 -4.31776,0.26203 -6.59781,0.26203c-25.89266,0 -48.70887,-13.75641 -61.45641,-34.4h23.61641c1.24059,0.01754 2.39452,-0.63425 3.01993,-1.7058c0.62541,-1.07155 0.62541,-2.39684 0,-3.46839c-0.62541,-1.07155 -1.77935,-1.72335 -3.01993,-1.7058z"></path></g></g></svg>