<svg xmlns="http://www.w3.org/2000/svg" x="0px" y="0px"
width="60" height="60"
viewBox="0 0 172 172"><g fill="none" fill-rule="nonzero" stroke="none" stroke-width="1" stroke-linecap="butt" stroke-linejoin="miter" stroke-miterlimit="10" stroke-dasharray="" stroke-dashoffset="0" font-family="none" font-weight="none" font-size="none" text-anchor="none" style="mix-blend-mode: normal"><path d="M0,172v-172h172v172z" fill="none"></path><g fill="#032f9c"><path d="M86,0c-8.45219,0 -15.57406,4.77031 -26.1225,10.2125c-10.54844,5.44219 -24.68469,11.91906 -46.87,16.6625l-2.6875,0.645v2.795c0,52.74219 18.47656,87.90813 36.98,109.7575c18.50344,21.84938 37.3025,30.53 37.3025,30.53l1.505,0.7525l1.505,-0.7525c0,0 74.0675,-38.18937 74.0675,-140.2875v-2.795l-2.6875,-0.645c-22.18531,-4.74344 -36.32156,-11.22031 -46.87,-16.6625c-10.54844,-5.44219 -17.67031,-10.2125 -26.1225,-10.2125zM86,6.88c5.65719,0 12.10719,3.89688 22.8975,9.46c10.23938,5.28094 24.725,11.62344 45.6875,16.4475c-1.20937,93.44438 -64.27156,128.38188 -68.6925,130.72c-2.13656,-1.03469 -17.02531,-8.46562 -33.4325,-27.8425c-17.3075,-20.43844 -34.44031,-53.23937 -35.045,-102.8775c20.9625,-4.82406 35.44813,-11.16656 45.6875,-16.4475c10.79031,-5.56312 17.24031,-9.46 22.8975,-9.46zM86,37.84c-22.76312,0 -41.28,18.51688 -41.28,41.28c0,22.76313 18.51688,41.28 41.28,41.28c22.76313,0 41.28,-18.51687 41.28,-41.28c0,-22.76312 -18.51687,-41.28 -41.28,-41.28zM82.56,45.4725v13.0075h-10.2125c0.61813,-1.62594 1.29,-3.14437 2.0425,-4.515c2.41875,-4.43437 5.28094,-7.24281 8.17,-8.4925zM89.44,45.4725c2.88906,1.24969 5.75125,4.05813 8.17,8.4925c0.7525,1.37063 1.42438,2.88906 2.0425,4.515h-10.2125zM69.445,49.02c-0.36281,0.57781 -0.73906,1.11531 -1.075,1.72c-1.29,2.365 -2.40531,4.945 -3.3325,7.74h-6.45c2.92938,-3.87 6.57094,-7.10844 10.8575,-9.46zM102.555,49.02c4.28656,2.35156 7.92813,5.59 10.8575,9.46h-6.45c-0.92719,-2.795 -2.0425,-5.375 -3.3325,-7.74c-0.33594,-0.60469 -0.71219,-1.14219 -1.075,-1.72zM117.605,65.2525c1.41094,3.225 2.21719,6.75906 2.58,10.4275h-10.2125c-0.16125,-3.60125 -0.63156,-7.02781 -1.29,-10.32h8.2775c0.215,-0.01344 0.43,-0.05375 0.645,-0.1075zM54.395,65.36c0.215,0.02688 0.43,0.02688 0.645,0h8.2775c-0.65844,3.29219 -1.12875,6.71875 -1.29,10.32h-10.2125c0.36281,-3.62812 1.1825,-7.12187 2.58,-10.32zM70.305,65.36h12.255v10.32h-13.6525c0.18813,-3.62812 0.67188,-7.10844 1.3975,-10.32zM89.44,65.36h12.255c0.72563,3.21156 1.20938,6.69188 1.3975,10.32h-13.6525zM51.815,82.56h10.2125c0.16125,3.60125 0.63156,7.02781 1.29,10.32h-8.2775c-0.1075,0 -0.215,0 -0.3225,0c-0.1075,0 -0.215,0 -0.3225,0c-1.3975,-3.19812 -2.21719,-6.69187 -2.58,-10.32zM68.9075,82.56h13.6525v10.32h-12.255c-0.72562,-3.21156 -1.20937,-6.69187 -1.3975,-10.32zM89.44,82.56h13.6525c-0.18812,3.62813 -0.67187,7.10844 -1.3975,10.32h-12.255zM109.9725,82.56h10.2125c-0.36281,3.62813 -1.1825,7.12188 -2.58,10.32c-0.215,-0.02687 -0.43,-0.02687 -0.645,0h-8.2775c0.65844,-3.29219 1.12875,-6.71875 1.29,-10.32zM58.5875,99.76h6.45c0.92719,2.795 2.0425,5.375 3.3325,7.74c0.33594,0.60469 0.71219,1.14219 1.075,1.72c-4.28656,-2.35156 -7.92812,-5.59 -10.8575,-9.46zM72.3475,99.76h10.2125v13.0075c-2.88906,-1.24969 -5.75125,-4.05812 -8.17,-8.4925c-0.7525,-1.37062 -1.42437,-2.88906 -2.0425,-4.515zM89.44,99.76h10.2125c-0.61812,1.62594 -1.29,3.14438 -2.0425,4.515c-2.41875,4.43438 -5.28094,7.24281 -8.17,8.4925zM106.9625,99.76h6.45c-2.92937,3.87 -6.57094,7.10844 -10.8575,9.46c0.36281,-0.57781 0.73906,-1.11531 1.075,-1.72c1.29,-2.365 2.40531,-4.945 3.3325,-7.74z"></path></g></g></svg>