
<svg xmlns="http://www.w3.org/2000/svg" x="0px" y="0px"
width="50" height="50"
viewBox="0 0 172 172"
style=" fill:#000000;"><g fill="none" fill-rule="nonzero" stroke="none" stroke-width="1" stroke-linecap="butt" stroke-linejoin="miter" stroke-miterlimit="10" stroke-dasharray="" stroke-dashoffset="0" font-family="none" font-weight="none" font-size="none" text-anchor="none" style="mix-blend-mode: normal"><path d="M0,172v-172h172v172z" fill="none"></path><g id="original-icon" fill="#032f9c" opacity="0" visibility="hidden"><path d="M86,6.88c-43.65844,0 -79.12,35.46156 -79.12,79.12c0,43.65844 35.46156,79.12 79.12,79.12c43.65844,0 79.12,-35.46156 79.12,-79.12c0,-43.65844 -35.46156,-79.12 -79.12,-79.12zM86,13.76c39.93625,0 72.24,32.30375 72.24,72.24c0,39.93625 -32.30375,72.24 -72.24,72.24c-39.93625,0 -72.24,-32.30375 -72.24,-72.24c0,-39.93625 32.30375,-72.24 72.24,-72.24zM85.785,37.0875c-0.49719,0.06719 -1.03469,0.26875 -1.505,0.5375l-3.1175,1.8275c-1.85437,1.075 -2.4725,3.52063 -1.3975,5.375l26.9825,46.44l9.89,-5.805l-26.9825,-46.44c-0.80625,-1.38406 -2.365,-2.12312 -3.87,-1.935zM77.5075,52.5675c-1.505,-0.20156 -3.06375,0.43 -3.87,1.8275l-3.44,5.9125l10.2125,5.9125l3.44,-5.805c1.08844,-1.85437 0.45688,-4.28656 -1.3975,-5.375l-3.44,-2.0425c-0.47031,-0.26875 -1.00781,-0.36281 -1.505,-0.43zM69.3375,61.705l-23.7575,40.85l10.105,5.9125l23.865,-40.7425zM35.475,80.195v11.395h14.5125l6.665,-11.395zM73.745,80.195l-6.3425,11.395h36.98l-6.3425,-11.395zM115.9925,80.195l6.1275,11.395h14.19v-11.395zM117.7125,87.3975l-9.89,5.6975l5.6975,9.89l9.89,-5.805zM122.98,99.8675c-0.33594,0.05375 -0.73906,0.24188 -1.075,0.43c-1.6125,0.91375 -3.96406,2.27094 -5.375,3.1175c-2.64719,1.58563 -0.60469,6.19469 0,7.2025c3.42656,5.73781 6.90688,4.97188 9.5675,9.03c1.46469,2.21719 1.04813,3.13094 1.505,3.87c0.17469,0.26875 0.84656,0.63156 1.075,0.3225c4.11188,-5.68406 2.86219,-15.53375 -0.1075,-19.8875c-1.20937,-1.77375 -3.26531,-4.46125 -5.59,-4.085zM44.29,104.705l-4.945,18.5975c-0.09406,0.33594 0.02688,0.68531 0.3225,0.86c0.29563,0.17469 0.72563,0.13438 0.9675,-0.1075l13.76,-13.33z"></path></g><g id="subtracted-icon" fill="#032f9c"><path d="M165.12,86c0,8.35244 -1.29792,16.40487 -3.70285,23.96638c-0.61363,0.03644 -1.30403,0.06138 -2.0443,0.06138c0,-0.34334 0,-0.68667 0,-1.03001c0,-3.43342 -0.87178,-6.63213 -2.40577,-9.40752c0.83567,-4.40086 1.27293,-8.94389 1.27293,-13.59023c0,-39.93625 -32.30375,-72.24 -72.24,-72.24c-39.93625,0 -72.24,32.30375 -72.24,72.24c0,39.93625 32.30375,72.24 72.24,72.24c4.85124,0 9.58986,-0.47668 14.17163,-1.38581c0.31143,3.24315 0.61607,5.32572 0.88145,6.83217c-4.87402,0.94088 -9.9066,1.43364 -15.05308,1.43364c-43.65844,0 -79.12,-35.46156 -79.12,-79.12c0,-43.65844 35.46156,-79.12 79.12,-79.12c43.65844,0 79.12,35.46156 79.12,79.12zM89.655,39.0225l26.9825,46.44l-9.89,5.805l-26.9825,-46.44c-1.075,-1.85437 -0.45687,-4.3 1.3975,-5.375l3.1175,-1.8275c0.47031,-0.26875 1.00781,-0.47031 1.505,-0.5375c1.505,-0.18812 3.06375,0.55094 3.87,1.935zM79.0125,52.9975l3.44,2.0425c1.85438,1.08844 2.48594,3.52063 1.3975,5.375l-3.44,5.805l-10.2125,-5.9125l3.44,-5.9125c0.80625,-1.3975 2.365,-2.02906 3.87,-1.8275c0.49719,0.06719 1.03469,0.16125 1.505,0.43zM79.55,67.725l-23.865,40.7425l-10.105,-5.9125l23.7575,-40.85zM56.6525,80.195l-6.665,11.395h-14.5125v-11.395zM98.04,80.195l6.3425,11.395h-36.98l6.3425,-11.395zM136.31,80.195v9.49567c-2.00145,0.3369 -3.90938,0.98803 -5.66972,1.89933h-8.52028l-6.1275,-11.395zM123.41,97.18l-9.89,5.805l-5.6975,-9.89l9.89,-5.6975zM116.53,103.415c1.41094,-0.84656 3.7625,-2.20375 5.375,-3.1175c0.03877,-0.02171 0.07844,-0.04343 0.1188,-0.06493c-1.36189,2.65069 -2.13466,5.63363 -2.13466,8.76518c0,0.34334 0,0.68667 0,1.03001c-1.03001,0 -2.06002,0 -3.09003,-0.34334c-0.24452,0 -0.48905,0 -0.73357,0c-0.75209,-1.73466 -1.67397,-4.98853 0.46446,-6.26942zM54.395,110.725l-13.76,13.33c-0.24187,0.24188 -0.67187,0.28219 -0.9675,0.1075c-0.29562,-0.17469 -0.41656,-0.52406 -0.3225,-0.86l4.945,-18.5975z"></path></g><g><g fill="#032f9c"><g id="Слой_2" font-family="-apple-system, BlinkMacSystemFont, &quot;San Francisco&quot;, HelveticaNeue-Light, &quot;Helvetica Neue Light&quot;, &quot;Helvetica Neue&quot;, &quot;Segoe UI&quot;, &quot;Fira Sans&quot;, Roboto, Oxygen, Ubuntu, &quot;Droid Sans&quot;, Arial, sans-serif" font-weight="400" font-size="16" text-anchor="start" visibility="hidden"></g><g id="Android_x5F_4" font-family="-apple-system, BlinkMacSystemFont, &quot;San Francisco&quot;, HelveticaNeue-Light, &quot;Helvetica Neue Light&quot;, &quot;Helvetica Neue&quot;, &quot;Segoe UI&quot;, &quot;Fira Sans&quot;, Roboto, Oxygen, Ubuntu, &quot;Droid Sans&quot;, Arial, sans-serif" font-weight="400" font-size="16" text-anchor="start" visibility="hidden"></g><g id="Android_x5F_5" font-family="-apple-system, BlinkMacSystemFont, &quot;San Francisco&quot;, HelveticaNeue-Light, &quot;Helvetica Neue Light&quot;, &quot;Helvetica Neue&quot;, &quot;Segoe UI&quot;, &quot;Fira Sans&quot;, Roboto, Oxygen, Ubuntu, &quot;Droid Sans&quot;, Arial, sans-serif" font-weight="400" font-size="16" text-anchor="start" visibility="hidden"></g><g id="Windows_x5F_8" font-family="-apple-system, BlinkMacSystemFont, &quot;San Francisco&quot;, HelveticaNeue-Light, &quot;Helvetica Neue Light&quot;, &quot;Helvetica Neue&quot;, &quot;Segoe UI&quot;, &quot;Fira Sans&quot;, Roboto, Oxygen, Ubuntu, &quot;Droid Sans&quot;, Arial, sans-serif" font-weight="400" font-size="16" text-anchor="start" visibility="hidden"></g><g id="Windows_x5F_10" font-family="-apple-system, BlinkMacSystemFont, &quot;San Francisco&quot;, HelveticaNeue-Light, &quot;Helvetica Neue Light&quot;, &quot;Helvetica Neue&quot;, &quot;Segoe UI&quot;, &quot;Fira Sans&quot;, Roboto, Oxygen, Ubuntu, &quot;Droid Sans&quot;, Arial, sans-serif" font-weight="400" font-size="16" text-anchor="start" visibility="hidden"></g><g id="Color" font-family="-apple-system, BlinkMacSystemFont, &quot;San Francisco&quot;, HelveticaNeue-Light, &quot;Helvetica Neue Light&quot;, &quot;Helvetica Neue&quot;, &quot;Segoe UI&quot;, &quot;Fira Sans&quot;, Roboto, Oxygen, Ubuntu, &quot;Droid Sans&quot;, Arial, sans-serif" font-weight="400" font-size="16" text-anchor="start" visibility="hidden"></g><g id="IOS" font-family="-apple-system, BlinkMacSystemFont, &quot;San Francisco&quot;, HelveticaNeue-Light, &quot;Helvetica Neue Light&quot;, &quot;Helvetica Neue&quot;, &quot;Segoe UI&quot;, &quot;Fira Sans&quot;, Roboto, Oxygen, Ubuntu, &quot;Droid Sans&quot;, Arial, sans-serif" font-weight="400" font-size="16" text-anchor="start" visibility="hidden"></g><g id="IOS_copy"><path d="M166.50662,116.37948c-0.34334,0 -1.03001,0 -1.37335,0c0,0 -11.33011,1.03001 -15.79348,1.71668c0,-0.34334 0.34334,-0.68667 0.68667,-1.37335c1.71668,-2.74669 2.74669,-4.46338 2.74669,-7.89674c0,-7.21007 -5.83672,-12.70345 -13.04679,-12.70345c-7.21007,0 -13.04679,5.83672 -13.04679,12.70345c0,3.09003 1.03001,5.49338 3.09003,8.24008c0.34334,0.34334 0.34334,0.68667 0.68667,1.03001c-4.12004,-0.34334 -14.76347,-1.71668 -14.76347,-1.71668c-2.06002,-0.34334 -3.7767,0.34334 -4.46338,1.03001c-1.37335,1.03001 -2.40336,3.09003 -2.74669,5.49338c0,1.03001 -0.68667,4.80671 -1.71668,16.48015c0,0.68667 0,1.37335 0,2.06002c0,0.68667 0.68667,3.09003 2.74669,4.12004c2.40336,0.68667 4.12004,-0.68667 5.49338,-1.71668c0.34334,-0.34334 1.03001,-0.68667 1.71668,-1.37335c1.71668,-1.37335 3.09003,-1.71668 4.46338,-1.71668c3.43337,0 6.18006,2.74669 6.18006,5.83672c0,3.43337 -2.74669,5.83672 -6.18006,5.83672c-1.71668,0 -2.74669,-0.34334 -4.46338,-1.71668c-0.34334,-0.34334 -1.03001,-0.68667 -1.37335,-1.03001c-1.03001,-1.03001 -2.74669,-2.74669 -5.15005,-2.06002c-1.03001,0.34334 -2.40336,1.03001 -3.09003,3.09003c-0.34334,0.68667 -0.34334,2.40336 -0.34334,3.09003c0.68667,8.58341 1.37335,10.3001 1.71668,11.67344v0.68667c0.68667,3.43337 3.43337,5.83672 6.52339,5.83672h49.09713c4.46338,0 7.89674,-3.09003 7.89674,-7.89674v-40.51371c0,-2.06002 -0.68667,-5.49338 -5.49338,-7.21007zM165.13327,164.10326c0,0.68667 0,1.03001 -1.03001,1.03001h-48.75379v-0.34334v-0.68667c-0.34334,-1.03001 -0.34334,-2.06002 -1.03001,-6.52339c2.40336,1.37335 4.46338,2.06002 7.21007,2.06002c7.21007,0 13.04679,-5.83672 13.04679,-12.70345c0,-7.21007 -5.83672,-12.70345 -13.04679,-12.70345c-3.09003,0 -5.49338,1.03001 -7.21007,2.40336c0.68667,-9.27009 1.37335,-11.33011 1.37335,-11.67344v-0.34334c0,-0.34334 0,-0.34334 0,-0.68667c2.40336,-0.34334 10.64343,0.68667 14.0768,1.03001c3.09003,0.34334 5.49338,-1.03001 6.86673,-3.09003c1.03001,-1.71668 1.71668,-4.80671 -1.37335,-8.58341c-1.37335,-2.06002 -1.71668,-3.09003 -1.71668,-4.46338c0,-3.43337 2.74669,-5.83672 6.18006,-5.83672c3.43337,0 6.18006,2.74669 6.18006,5.83672c0,1.37335 -0.34334,1.71668 -2.06002,4.46338c-2.74669,4.46338 -1.71668,7.5534 -0.68667,8.92675c1.37335,2.06002 3.7767,3.09003 6.52339,2.74669c3.43337,-0.34334 12.36012,-1.37335 15.10681,-1.71668v0v0c0,0 0,0 0,0.34334v40.51371z"></path></g></g><g fill="#000000" opacity="0"><g id="IOS" font-family="-apple-system, BlinkMacSystemFont, &quot;San Francisco&quot;, HelveticaNeue-Light, &quot;Helvetica Neue Light&quot;, &quot;Helvetica Neue&quot;, &quot;Segoe UI&quot;, &quot;Fira Sans&quot;, Roboto, Oxygen, Ubuntu, &quot;Droid Sans&quot;, Arial, sans-serif" font-weight="400" font-size="16" text-anchor="start" visibility="hidden"></g><g id="IOS_copy"><path d="M99.97562,154.6615c0.68667,8.24008 1.37335,10.3001 1.71668,12.36012v0.68667c1.71668,6.52339 7.21007,10.98677 13.39013,10.98677h49.09713c8.24008,0 14.76347,-6.18006 14.76347,-14.76347v-40.17038c0,-6.52339 -4.12004,-11.67344 -10.64343,-13.73346c-1.03001,-0.34334 -2.06002,-0.34334 -3.09003,-0.34334c-0.34334,0 -0.68667,0 -1.03001,0c0,0 -2.06002,0.34334 -4.80671,0.34334c0,-0.34334 0,-0.68667 0,-1.03001c0,-10.98677 -8.92675,-19.57018 -19.91352,-19.57018c-10.64343,0 -19.57018,8.92675 -19.57018,19.57018c0,0.34334 0,0.68667 0,1.03001c-1.03001,0 -2.06002,0 -3.09003,-0.34334v0c-0.68667,0 -1.37335,0 -2.06002,0c-2.74669,0 -5.49338,1.03001 -7.5534,2.40336c-2.06002,1.71668 -4.80671,4.46338 -5.49338,9.95676c-0.34334,1.71668 -0.68667,6.18006 -1.71668,16.48015c-0.34334,1.71668 0,3.09003 0,3.7767c0.34334,1.71668 0.68667,3.09003 1.37335,4.12004c-0.34334,0.34334 -0.34334,1.03001 -0.68667,1.37335c-0.68667,2.40336 -0.68667,5.15005 -0.68667,6.86673zM113.36575,145.04808v0zM114.39576,144.36141v0z"></path></g></g></g></g></svg>