<svg xmlns="http://www.w3.org/2000/svg" x="0px" y="0px"
width="50" height="50"
viewBox="0 0 172 172"
style=" fill:#000000;"><g fill="none" fill-rule="nonzero" stroke="none" stroke-width="1" stroke-linecap="butt" stroke-linejoin="miter" stroke-miterlimit="10" stroke-dasharray="" stroke-dashoffset="0" font-family="none" font-weight="none" font-size="none" text-anchor="none" style="mix-blend-mode: normal"><path d="M0,172v-172h172v172z" fill="none"></path><g fill="#032f9c"><path d="M19.32313,24.08c-2.59344,0 -4.99875,1.47813 -6.15438,3.81625l-5.92594,11.83844c-0.05375,0.1075 -0.09406,0.20156 -0.12094,0.30906c-0.04031,0.08063 -0.06719,0.17469 -0.09406,0.26875c-0.01344,0.01344 -0.01344,0.04031 -0.02688,0.06719c0,0.01344 0,0.01344 0,0.02688c-0.05375,0.20156 -0.09406,0.41656 -0.12094,0.63156c0,0.01344 0,0.01344 0,0.02687c0,0.06719 0,0.13438 0,0.215c0,0.04031 0,0.08063 0,0.12094v103.07906c0,1.89469 1.54531,3.44 3.44,3.44h68.8c1.89469,0 3.44,-1.54531 3.44,-3.44v-103.2c0,-0.22844 -0.02687,-0.45687 -0.06719,-0.68531c0,-0.01344 0,-0.02687 0,-0.04031c-0.05375,-0.215 -0.12094,-0.41656 -0.20156,-0.61813l-0.01344,-0.01344c-0.02688,-0.06719 -0.05375,-0.12094 -0.08063,-0.18813l-5.92594,-11.85187c-1.16906,-2.32469 -3.56094,-3.80281 -6.15437,-3.80281zM127.28,24.08c-1.89469,0 -3.44,1.54531 -3.44,3.44v27.52c0,1.89469 1.54531,3.44 3.44,3.44h13.76v3.44h-6.88v6.88h9.74219c0.37625,0.06719 0.7525,0.06719 1.11531,0h9.7825v-6.88h-6.88v-3.44h13.76c1.89469,0 3.44,-1.54531 3.44,-3.44v-27.52c0,-1.89469 -1.54531,-3.44 -3.44,-3.44zM19.32313,30.96h50.78031l3.44,6.88h-57.66031zM130.72,30.96h27.52v20.64h-13.2225c-0.20156,-0.02687 -0.38969,-0.05375 -0.59125,-0.05375c-0.16125,0.01344 -0.33594,0.02688 -0.49719,0.05375h-13.20906zM116.96,36.75156l-27.52,29.62969v10.11844l27.52,-29.62969zM13.76,44.72h61.92v96.32h-61.92zM24.08,51.6c-1.89469,0 -3.44,1.54531 -3.44,3.44v34.4c0,1.89469 1.54531,3.44 3.44,3.44h41.28c1.89469,0 3.44,-1.54531 3.44,-3.44v-34.4c0,-1.89469 -1.54531,-3.44 -3.44,-3.44zM27.52,58.48h34.4v10.32h-34.4zM27.52,75.68h34.4v10.32h-34.4zM89.44,85.18031v10.11844l27.52,29.62969v-10.11844zM127.28,103.2c-1.89469,0 -3.44,1.54531 -3.44,3.44v27.52c0,1.89469 1.54531,3.44 3.44,3.44h13.76v3.44h-6.88v6.88h9.74219c0.37625,0.06719 0.7525,0.06719 1.11531,0h9.7825v-6.88h-6.88v-3.44h13.76c1.89469,0 3.44,-1.54531 3.44,-3.44v-27.52c0,-1.89469 -1.54531,-3.44 -3.44,-3.44zM44.72,106.64c-1.89469,0 -3.44,1.54531 -3.44,3.44c0,1.89469 1.54531,3.44 3.44,3.44c1.89469,0 3.44,-1.54531 3.44,-3.44c0,-1.89469 -1.54531,-3.44 -3.44,-3.44zM130.72,110.08h27.52v20.64h-13.2225c-0.20156,-0.02687 -0.38969,-0.05375 -0.59125,-0.05375c-0.16125,0.01344 -0.33594,0.02688 -0.49719,0.05375h-13.20906zM44.72,120.4c-1.89469,0 -3.44,1.54531 -3.44,3.44c0,1.89469 1.54531,3.44 3.44,3.44c1.89469,0 3.44,-1.54531 3.44,-3.44c0,-1.89469 -1.54531,-3.44 -3.44,-3.44z"></path></g></g></svg>