<svg xmlns="http://www.w3.org/2000/svg" x="0px" y="0px"
width="100" height="100"
viewBox="0 0 172 172"
style=" fill:#000000;"><g fill="none" fill-rule="nonzero" stroke="none" stroke-width="1" stroke-linecap="butt" stroke-linejoin="miter" stroke-miterlimit="10" stroke-dasharray="" stroke-dashoffset="0" font-family="none" font-weight="none" font-size="none" text-anchor="none" style="mix-blend-mode: normal"><path d="M0,172v-172h172v172z" fill="none"></path><g fill="#032f9c"><path d="M123.5175,3.44c-1.16906,0.215 -2.15,1.03469 -2.58,2.15l-3.225,7.955c-9.52719,-4.16562 -20.04875,-6.57094 -31.0675,-6.665c-0.45687,-0.09406 -0.94062,-0.09406 -1.3975,0c-0.04031,0 -0.06719,0 -0.1075,0c-42.86562,0.45688 -77.62844,35.11219 -78.26,77.9375c-0.25531,0.72563 -0.25531,1.53188 0,2.2575c0.57781,43.16125 35.82438,78.045 79.12,78.045c43.65844,0 79.12,-35.46156 79.12,-79.12c0,-11.26062 -2.41875,-22.01062 -6.665,-31.7125l7.955,-3.225c0.86,-0.33594 1.54531,-1.00781 1.92156,-1.85437c0.36281,-0.84656 0.36281,-1.80063 0.01344,-2.66063c-8.35812,-20.16969 -24.1875,-35.13906 -42.8925,-42.8925c-0.51062,-0.20156 -1.06156,-0.26875 -1.6125,-0.215c-0.1075,0 -0.215,0 -0.3225,0zM125.8825,11.7175c14.7275,6.93375 26.99594,18.67813 34.4,34.4l-6.1275,2.58c-0.04031,0 -0.06719,0 -0.1075,0c-1.14219,-0.13437 -2.27094,0.30906 -3.01,1.1825c0,0.04031 0,0.06719 0,0.1075l-49.45,20.425l20.7475,-50.095c0.04031,-0.06719 0.08063,-0.14781 0.1075,-0.215c0.18813,-0.29562 0.33594,-0.61812 0.43,-0.9675c0.09406,-0.20156 0.16125,-0.43 0.215,-0.645zM82.2375,13.8675c0.1075,0 0.215,0 0.3225,0v68.6925h-68.6925c1.72,-37.11437 31.29594,-66.81125 68.37,-68.6925zM89.44,13.8675c9.08375,0.41656 17.68375,2.44563 25.585,5.9125l-23.005,55.685c-0.55094,1.29 -0.26875,2.795 0.72563,3.78938c0.99437,0.99437 2.49937,1.27656 3.78937,0.72562l55.685,-23.005c3.88344,8.88219 6.02,18.705 6.02,29.025c0,18.705 -7.17562,35.66313 -18.8125,48.4825l-49.9875,-49.9875zM13.8675,89.44h70.6275l49.9875,49.9875c-12.81937,11.63688 -29.7775,18.8125 -48.4825,18.8125c-38.79406,0 -70.35875,-30.44937 -72.1325,-68.8z"></path></g></g></svg>