<svg xmlns="http://www.w3.org/2000/svg" x="0px" y="0px"
width="50" height="50"
viewBox="0 0 172 172"
style=" fill:#000000;"><g fill="none" fill-rule="nonzero" stroke="none" stroke-width="1" stroke-linecap="butt" stroke-linejoin="miter" stroke-miterlimit="10" stroke-dasharray="" stroke-dashoffset="0" font-family="none" font-weight="none" font-size="none" text-anchor="none" style="mix-blend-mode: normal"><path d="M0,172v-172h172v172z" fill="none"></path><g fill="#032f9c"><path d="M24.08,6.88v158.24h65.90422l1.95515,-6.88h-60.97937v-144.48h68.8v41.28h41.28v42.69094l2.15,-2.15c1.42072,-1.42072 3.01688,-2.59822 4.73,-3.54078v-41.86453l-43.29563,-43.29563zM106.64,18.62438l29.53563,29.53562h-29.53563zM92.88,61.92c-1.89978,0.00019 -3.43981,1.54022 -3.44,3.44v30.96c0.00019,1.89978 1.54022,3.43981 3.44,3.44h30.96c1.89978,-0.00019 3.43981,-1.54022 3.44,-3.44c0,-18.95899 -15.44101,-34.4 -34.4,-34.4zM96.32,69.49203c12.3491,1.60253 21.78544,11.03887 23.38797,23.38797h-23.38797zM79.12,75.68c-18.95899,0 -34.4,15.44101 -34.4,34.4c0,18.95899 15.44101,34.4 34.4,34.4c18.95899,0 34.4,-15.44101 34.4,-34.4c-0.00019,-1.89978 -1.54022,-3.43981 -3.44,-3.44h-27.52v-27.52c-0.00019,-1.89978 -1.54022,-3.43981 -3.44,-3.44zM75.68,83.25203v26.82797c0.00019,1.89978 1.54022,3.43981 3.44,3.44h26.82797c-1.7555,13.52788 -12.80813,24.08 -26.82797,24.08c-15.24149,0 -27.52,-12.27851 -27.52,-27.52c0,-14.01984 10.55212,-25.07247 24.08,-26.82797zM158.11235,96.32c-3.44,0 -6.54003,1.37465 -9.29203,3.78265l-0.68531,0.34266l-0.34265,0.34937l-1.03469,1.02797l-2.40531,2.41203l-0.69203,0.68531l-40.24531,40.59469c-0.344,0.344 -0.69069,1.02663 -1.03469,1.37063l-5.84531,20.64c-0.688,1.72 0.34131,3.78803 2.40531,4.13203c0.688,0.344 1.376,0.344 1.72,0l20.64,-5.50266c0.688,0 1.032,-0.34669 1.72,-1.03469l44.03469,-44.03469l1.02797,-0.68531c5.504,-5.504 5.504,-14.45069 0,-19.95469c-2.752,-3.096 -6.53062,-4.12531 -9.97062,-4.12531zM158.11235,103.2c1.72,0 3.784,0.68665 5.16,2.06265c2.752,2.752 2.75065,6.88269 0.34265,9.63469l-9.97735,-9.97735c1.376,-1.032 2.75469,-1.72 4.47469,-1.72zM148.47765,109.73735l10.32,10.32l-37.49734,37.49734l-10.32,-9.97734zM107.54031,154.11469l7.22265,7.22266l-9.97062,2.74797z"></path></g></g></svg>