<svg xmlns="http://www.w3.org/2000/svg" x="0px" y="0px"
width="50" height="50"
viewBox="0 0 172 172"
style=" fill:#000000;"><g fill="none" fill-rule="nonzero" stroke="none" stroke-width="1" stroke-linecap="butt" stroke-linejoin="miter" stroke-miterlimit="10" stroke-dasharray="" stroke-dashoffset="0" font-family="none" font-weight="none" font-size="none" text-anchor="none" style="mix-blend-mode: normal"><path d="M0,172v-172h172v172z" fill="none"></path><g fill="#032f9c"><path d="M86,6.88c-15.15815,0 -27.52,12.36185 -27.52,27.52c0,8.75926 3.99186,15.13487 7.54515,19.98156c3.55329,4.84669 6.21485,8.29936 6.21485,10.97844v6.88c0,4.71507 3.25262,8.69968 7.60563,9.91015c1.12209,2.27498 3.44502,3.84985 6.15437,3.84985c2.70935,0 5.03229,-1.57486 6.15437,-3.84985c4.353,-1.21047 7.60563,-5.19508 7.60563,-9.91015v-6.88c0,-2.57032 2.66653,-6.05563 6.22156,-10.92469c3.55503,-4.86906 7.53844,-11.27606 7.53844,-20.03531c0,-15.15815 -12.36185,-27.52 -27.52,-27.52zM86,13.76c11.43993,0 20.64,9.20007 20.64,20.64c0,6.72074 -2.89659,11.42323 -6.22156,15.97719c-2.66738,3.65331 -5.87105,7.1283 -7.04797,11.54281h-14.73422c-1.17207,-4.4606 -4.38708,-7.96222 -7.0614,-11.61c-3.32671,-4.53763 -6.21485,-9.18926 -6.21485,-15.91c0,-11.43993 9.20007,-20.64 20.64,-20.64zM79.12,68.8h13.76v3.44c0,1.9437 -1.4963,3.44 -3.44,3.44h-6.88c-1.9437,0 -3.44,-1.4963 -3.44,-3.44zM48.2675,79.12c-7.45018,0 -13.48822,1.86515 -17.7375,5.42203c-4.24928,3.55688 -6.45,8.78027 -6.45,14.35797c0,2.16024 0.49782,4.35972 0.95406,6.24172c0.20909,0.86249 0.25747,0.95307 0.42328,1.54531c-0.76746,1.2274 -1.37734,2.92018 -1.37734,5.11297c0,2.72333 0.7345,5.06137 2.29781,6.62469c0.70019,0.70019 1.45532,0.58223 2.24406,0.88688c0.45288,1.82979 0.91571,3.69221 1.72,5.20031c0.55486,1.0404 1.14885,1.97578 1.78047,2.78828c0.14524,0.18683 0.41481,0.32738 0.55766,0.50391v5.33469c-0.47456,1.02497 -1.4535,2.01847 -3.50047,3.10406c-2.18026,1.15628 -5.17492,2.25939 -8.29094,3.70203c-3.11601,1.44264 -6.40805,3.2486 -9.09047,6.13422c-2.68242,2.88561 -4.6015,6.91015 -4.91141,11.95265c-0.05732,0.94667 0.2787,1.87502 0.92866,2.56568c0.64996,0.69067 1.55622,1.08238 2.50462,1.0826h72.24h10.32h68.8c0.94841,-0.00021 1.85466,-0.39193 2.50462,-1.0826c0.64996,-0.69067 0.98598,-1.61901 0.92866,-2.56568c-0.31685,-5.15541 -2.57464,-9.26555 -5.61688,-12.12062c-3.04223,-2.85508 -6.72791,-4.60643 -10.25953,-6.03344c-3.53162,-1.427 -6.95987,-2.53831 -9.46672,-3.71547c-2.36705,-1.11151 -3.46335,-2.15499 -3.89015,-3.04359v-5.32125c0.14255,-0.17644 0.4126,-0.31713 0.55765,-0.50391c0.63072,-0.81208 1.21909,-1.74154 1.77375,-2.78156c0.80409,-1.5077 1.2729,-3.3711 1.72672,-5.20031c0.78874,-0.30465 1.54387,-0.18669 2.24406,-0.88688c1.56332,-1.56331 2.29781,-3.90135 2.29781,-6.62469c0,-2.19279 -0.60989,-3.88557 -1.37735,-5.11297c0.16581,-0.59225 0.21421,-0.68282 0.42328,-1.54531c0.45624,-1.882 0.95406,-4.08148 0.95406,-6.24172c0,-3.63313 -0.93317,-7.5431 -3.3661,-10.77687c-2.03072,-2.69918 -5.43755,-4.43516 -9.41969,-5.04578l-1.35047,-2.27094c-0.61888,-1.04433 -1.74232,-1.6852 -2.95625,-1.6864c-7.45018,0 -13.48822,1.86515 -17.7375,5.42203c-4.24928,3.55688 -6.45,8.78027 -6.45,14.35797c0,2.16024 0.49782,4.35972 0.95406,6.24172c0.20908,0.86249 0.25745,0.95307 0.42328,1.54531c-0.76746,1.2274 -1.37735,2.92018 -1.37735,5.11297c0,2.72333 0.7345,5.06137 2.29781,6.62469c0.70019,0.70019 1.45532,0.58223 2.24406,0.88688c0.45288,1.82979 0.91571,3.69221 1.72,5.20031c0.55487,1.0404 1.14885,1.97578 1.78047,2.78828c0.14524,0.18683 0.41481,0.32738 0.55765,0.50391v5.33469c-0.47456,1.02497 -1.4535,2.01847 -3.50047,3.10406c-2.18026,1.15628 -5.17493,2.25939 -8.29094,3.70203c-3.11601,1.44264 -6.40805,3.2486 -9.09047,6.13422c-2.68242,2.88561 -4.6015,6.91015 -4.91141,11.95265c-0.0028,0.0358 -0.00504,0.07163 -0.00672,0.1075c-0.00168,-0.03587 -0.00392,-0.0717 -0.00672,-0.1075c-0.31685,-5.15541 -2.57464,-9.26555 -5.61688,-12.12062c-3.04223,-2.85508 -6.72791,-4.60643 -10.25953,-6.03344c-3.53162,-1.427 -6.95987,-2.53831 -9.46672,-3.71547c-2.36705,-1.11151 -3.46335,-2.15499 -3.89015,-3.04359v-5.32125c0.14255,-0.17644 0.4126,-0.31713 0.55765,-0.50391c0.63072,-0.81208 1.21909,-1.74154 1.77375,-2.78156c0.80409,-1.5077 1.2729,-3.3711 1.72672,-5.20031c0.78874,-0.30465 1.54387,-0.18669 2.24406,-0.88688c1.56332,-1.56331 2.29781,-3.90135 2.29781,-6.62469c0,-2.19279 -0.60989,-3.88557 -1.37735,-5.11297c0.16581,-0.59225 0.21421,-0.68282 0.42328,-1.54531c0.45624,-1.882 0.95406,-4.08148 0.95406,-6.24172c0,-3.63313 -0.93317,-7.5431 -3.3661,-10.77687c-2.03072,-2.69918 -5.43755,-4.43516 -9.41969,-5.04578l-1.35047,-2.27094c-0.61888,-1.04433 -1.74232,-1.6852 -2.95625,-1.6864zM46.45344,86.24187l0.90031,1.51172c0.61888,1.04433 1.74232,1.6852 2.95625,1.6864c3.22318,0 4.89382,1.11065 6.18125,2.82187c1.28743,1.71122 1.98875,4.25126 1.98875,6.63813c0,0.84976 -0.36218,2.95028 -0.76594,4.61578c-0.40376,1.6655 -0.79953,2.96969 -0.79953,2.96969c-0.43435,1.41513 0.08521,2.94945 1.29,3.80953c0.04491,0.06641 0.27547,0.37869 0.27547,1.505c0,1.57667 -0.34049,1.81863 -0.28219,1.76031c0.05831,-0.05832 0.13885,-0.04031 -0.14781,-0.04031c-1.75437,-0.00009 -3.2278,1.31992 -3.41985,3.06375c-0.14304,1.29979 -0.81536,3.20761 -1.60578,4.68969c-0.39521,0.74104 -0.81992,1.3857 -1.14219,1.80063c-0.32226,0.41493 -0.71523,0.58031 -0.13437,0.28219c-1.14805,0.58999 -1.86925,1.77297 -1.86781,3.06375v7.74c0.00121,0.4181 0.07862,0.83248 0.22844,1.22281c1.36507,3.5804 4.48178,5.53762 7.61235,7.00765c3.13056,1.47004 6.59973,2.56366 9.81609,3.86328c3.21637,1.29962 6.12533,2.7952 8.12969,4.67625c1.16842,1.09654 1.98351,2.38131 2.58,3.87h-63.02859c0.5352,-1.32275 0.71584,-3.06616 1.61922,-4.03797c1.71971,-1.84997 4.16806,-3.29191 6.94047,-4.57547c2.77241,-1.28356 5.81505,-2.37877 8.62687,-3.87c2.81182,-1.49123 5.63149,-3.531 6.92703,-6.93375c0.14982,-0.39034 0.22723,-0.80471 0.22844,-1.22281v-7.74c0.00015,-1.29225 -0.72388,-2.4756 -1.87453,-3.06375c0.58014,0.29704 0.18785,0.13233 -0.13437,-0.28219c-0.32222,-0.41451 -0.74046,-1.05997 -1.13547,-1.80063c-0.79001,-1.48132 -1.46404,-3.39128 -1.60578,-4.68969c-0.19204,-1.74383 -1.66547,-3.06384 -3.41985,-3.06375c-0.28667,0 -0.20613,-0.01789 -0.14781,0.04031c0.05832,0.05831 -0.28219,-0.18365 -0.28219,-1.76031c0,-1.12631 0.23056,-1.43859 0.27547,-1.505c1.20479,-0.86008 1.72435,-2.3944 1.29,-3.80953c0,0 -0.39577,-1.30419 -0.79953,-2.96969c-0.40376,-1.6655 -0.76594,-3.76602 -0.76594,-4.61578c0,-3.8823 1.29846,-6.82891 3.98422,-9.07703c2.38184,-1.99372 6.31107,-3.27571 11.50922,-3.5811zM125.57344,86.24187l0.90031,1.51172c0.61888,1.04433 1.74232,1.6852 2.95625,1.6864c3.22318,0 4.89382,1.11065 6.18125,2.82187c1.28743,1.71122 1.98875,4.25126 1.98875,6.63813c0,0.84976 -0.36218,2.95028 -0.76594,4.61578c-0.40376,1.6655 -0.79953,2.96969 -0.79953,2.96969c-0.43435,1.41513 0.08521,2.94945 1.29,3.80953c0.04491,0.06641 0.27547,0.37869 0.27547,1.505c0,1.57667 -0.34049,1.81863 -0.28219,1.76031c0.05831,-0.05832 0.13885,-0.04031 -0.14781,-0.04031c-1.75437,-0.00009 -3.2278,1.31992 -3.41985,3.06375c-0.14304,1.29979 -0.81536,3.20761 -1.60578,4.68969c-0.3952,0.74104 -0.81992,1.3857 -1.14219,1.80063c-0.32226,0.41493 -0.71523,0.58031 -0.13437,0.28219c-1.14805,0.58999 -1.86925,1.77297 -1.86781,3.06375v7.74c0.00121,0.4181 0.07862,0.83248 0.22844,1.22281c1.36507,3.5804 4.48178,5.53762 7.61235,7.00765c3.13056,1.47004 6.59973,2.56366 9.81609,3.86328c3.21637,1.29962 6.12533,2.7952 8.12969,4.67625c1.16842,1.09654 1.98351,2.38131 2.58,3.87h-63.0286c0.5352,-1.32275 0.71584,-3.06616 1.61922,-4.03797c1.71971,-1.84997 4.16806,-3.29191 6.94047,-4.57547c2.77241,-1.28356 5.81505,-2.37877 8.62688,-3.87c2.81182,-1.49123 5.63149,-3.531 6.92703,-6.93375c0.14982,-0.39034 0.22723,-0.80471 0.22844,-1.22281v-7.74c0.00015,-1.29225 -0.72388,-2.4756 -1.87453,-3.06375c0.58014,0.29704 0.18785,0.13233 -0.13437,-0.28219c-0.32222,-0.41451 -0.74047,-1.05997 -1.13547,-1.80063c-0.79002,-1.48132 -1.46404,-3.39128 -1.60578,-4.68969c-0.19204,-1.74383 -1.66547,-3.06384 -3.41985,-3.06375c-0.28666,0 -0.20612,-0.01789 -0.14781,0.04031c0.05832,0.05831 -0.28219,-0.18365 -0.28219,-1.76031c0,-1.12631 0.23054,-1.43859 0.27547,-1.505c1.20479,-0.86008 1.72435,-2.3944 1.29,-3.80953c0,0 -0.39577,-1.30419 -0.79953,-2.96969c-0.40376,-1.6655 -0.76594,-3.76602 -0.76594,-4.61578c0,-3.8823 1.29846,-6.82891 3.98422,-9.07703c2.38184,-1.99372 6.31107,-3.27571 11.50922,-3.5811z"></path></g></g></svg>