<svg xmlns="http://www.w3.org/2000/svg" x="0px" y="0px"
width="50" height="50"
viewBox="0 0 172 172"
style=" fill:#000000;"><g fill="none" fill-rule="nonzero" stroke="none" stroke-width="1" stroke-linecap="butt" stroke-linejoin="miter" stroke-miterlimit="10" stroke-dasharray="" stroke-dashoffset="0" font-family="none" font-weight="none" font-size="none" text-anchor="none" style="mix-blend-mode: normal"><path d="M0,172v-172h172v172z" fill="none"></path><g id="original-icon" fill="#032f9c" opacity="0" visibility="hidden"><path d="M86,6.88c-36.48281,0 -67.26812,24.8325 -76.37875,58.48h7.17563c2.58,-8.61344 6.75906,-16.51469 12.12062,-23.44844c5.87219,3.30562 12.67156,6.07375 20.19656,8.19687c-1.26313,4.82406 -2.29781,9.90344 -3.02344,15.25156h7.01437c0.69875,-4.73 1.65281,-9.245 2.78156,-13.545c8.29094,1.8275 17.25375,2.91594 26.67344,3.1175v10.4275h6.88v-10.4275c9.41969,-0.20156 18.3825,-1.27656 26.67344,-3.1175c1.12875,4.3 2.08281,8.815 2.78156,13.545h7.01438c-0.72563,-5.34812 -1.76031,-10.4275 -3.02344,-15.25156c7.525,-2.12312 14.32438,-4.89125 20.19656,-8.19687c5.36156,6.93375 9.54063,14.835 12.10719,23.44844h7.18906c-9.11062,-33.6475 -39.89594,-58.48 -76.37875,-58.48zM82.56,14.17656v33.87594c-8.74781,-0.20156 -17.06562,-1.20937 -24.725,-2.87562c5.65719,-16.91781 14.62,-28.76969 24.725,-31.00031zM89.44,14.17656c10.105,2.23062 19.06781,14.0825 24.725,31.00031c-7.65937,1.66625 -15.97719,2.67406 -24.725,2.87562zM65.81688,16.68938c-6.06031,6.39625 -11.12625,15.61437 -14.78125,26.79437c-6.57094,-1.85437 -12.51031,-4.20594 -17.58969,-6.93375c8.7075,-9.25844 19.84719,-16.19219 32.37094,-19.86062zM106.18313,16.68938c12.52375,3.66844 23.66344,10.60219 32.37094,19.86062c-5.07938,2.72781 -11.01875,5.07938 -17.58969,6.93375c-3.655,-11.18 -8.72094,-20.39812 -14.78125,-26.79437zM10.32,72.24l8.73438,27.52h8.00875l7.28312,-20.57281l7.28313,20.57281h7.83406l8.89563,-27.52h-7.44438l-5.61687,19.22906l-6.42313,-19.22906h-8.77469l-6.69187,18.90656l-5.52281,-18.90656zM61.97375,72.24l8.74781,27.52h8.02219l7.25625,-20.57281l7.29656,20.57281h7.83406l8.89562,-27.52h-7.45781l-5.60344,19.22906l-6.42312,-19.22906h-8.78813l-6.69187,18.90656l-5.50938,-18.90656zM113.46625,72.24l8.76125,27.52h8.04906l7.29656,-20.57281l7.32344,20.57281h7.86094l8.9225,-27.52h-7.47125l-5.64375,19.22906l-6.43656,-19.22906h-8.815l-6.71875,18.90656l-5.54969,-18.90656zM9.62125,106.64c9.11063,33.6475 39.89594,58.48 76.37875,58.48c36.48281,0 67.26813,-24.8325 76.37875,-58.48h-7.18906c-2.56656,8.61344 -6.74562,16.51469 -12.10719,23.44844c-5.87219,-3.30562 -12.67156,-6.07375 -20.19656,-8.19687c1.26313,-4.82406 2.29781,-9.90344 3.02344,-15.25156h-7.01438c-0.69875,4.73 -1.65281,9.245 -2.78156,13.545c-8.29094,-1.8275 -17.25375,-2.91594 -26.67344,-3.1175v-10.4275h-6.88v10.4275c-9.41969,0.20156 -18.3825,1.27656 -26.67344,3.1175c-1.12875,-4.3 -2.08281,-8.815 -2.78156,-13.545h-7.01437c0.72562,5.34813 1.76031,10.4275 3.02344,15.25156c-7.525,2.12312 -14.32438,4.89125 -20.19656,8.19687c-5.36156,-6.93375 -9.54062,-14.835 -12.12062,-23.44844zM82.56,123.9475v33.87594c-10.105,-2.23062 -19.06781,-14.0825 -24.725,-31.00031c7.65938,-1.66625 15.97719,-2.67406 24.725,-2.87563zM89.44,123.9475c8.74781,0.20156 17.06563,1.20938 24.725,2.87563c-5.65719,16.91781 -14.62,28.76969 -24.725,31.00031zM51.04906,128.51625c3.655,11.18 8.7075,20.39813 14.76781,26.78094c-12.52375,-3.655 -23.66344,-10.58875 -32.37094,-19.84719c5.07938,-2.74125 11.01875,-5.07937 17.60313,-6.93375zM120.96438,128.51625c6.57094,1.85438 12.51031,4.20594 17.58969,6.93375c-8.7075,9.25844 -19.84719,16.19219 -32.37094,19.84719c6.06031,-6.38281 11.12625,-15.60094 14.78125,-26.78094z"></path></g><g id="subtracted-icon" fill="#032f9c"><path d="M162.37875,65.36h-7.18906c-2.56656,-8.61344 -6.74562,-16.51469 -12.10719,-23.44844c-5.87219,3.30562 -12.67156,6.07375 -20.19656,8.19687c1.26313,4.82406 2.29781,9.90344 3.02344,15.25156h-7.01438c-0.69875,-4.73 -1.65281,-9.245 -2.78156,-13.545c-8.29094,1.84094 -17.25375,2.91594 -26.67344,3.1175v10.4275h-6.88v-10.4275c-9.41969,-0.20156 -18.3825,-1.29 -26.67344,-3.1175c-1.12875,4.3 -2.08281,8.815 -2.78156,13.545h-7.01437c0.72562,-5.34812 1.76031,-10.4275 3.02344,-15.25156c-7.525,-2.12312 -14.32438,-4.89125 -20.19656,-8.19687c-5.36156,6.93375 -9.54062,14.835 -12.12062,23.44844h-7.17563c9.11063,-33.6475 39.89594,-58.48 76.37875,-58.48c36.48281,0 67.26813,24.8325 76.37875,58.48zM57.835,45.17688c7.65938,1.66625 15.97719,2.67406 24.725,2.87562v-33.87594c-10.105,2.23062 -19.06781,14.0825 -24.725,31.00031zM89.44,48.0525c8.74781,-0.20156 17.06563,-1.20937 24.725,-2.87562c-5.65719,-16.91781 -14.62,-28.76969 -24.725,-31.00031zM33.44594,36.55c5.07938,2.72781 11.01875,5.07938 17.58969,6.93375c3.655,-11.18 8.72094,-20.39812 14.78125,-26.79437c-12.52375,3.66844 -23.66344,10.60219 -32.37094,19.86062zM120.96438,43.48375c6.57094,-1.85437 12.51031,-4.20594 17.58969,-6.93375c-8.7075,-9.25844 -19.84719,-16.19219 -32.37094,-19.86062c6.06031,6.39625 11.12625,15.61437 14.78125,26.79437zM17.88531,72.24l5.52281,18.90656l6.69187,-18.90656h8.77469l6.42313,19.22906l5.61687,-19.22906h7.44438l-8.89563,27.52h-7.83406l-7.28313,-20.57281l-7.28312,20.57281h-8.00875l-8.73438,-27.52zM69.5525,72.24l5.50938,18.90656l6.69187,-18.90656h8.78813l6.42312,19.22906l5.60344,-19.22906h7.45781l-8.89562,27.52h-7.83406l-7.29656,-20.57281l-7.25625,20.57281h-8.02219l-8.74781,-27.52zM121.045,72.24l5.54969,18.90656l6.71875,-18.90656h8.815l6.43656,19.22906l5.64375,-19.22906h7.47125l-7.59131,23.41417c-3.26076,-3.45004 -7.78137,-5.71577 -12.84307,-6.15031l-3.67249,-10.31666l-3.95886,11.16209c-4.84148,1.56223 -8.91759,4.99541 -11.33951,9.41072h-0.04725l-8.76125,-27.52zM16.79688,106.64c2.58,8.61344 6.75906,16.51469 12.12062,23.44844c5.87219,-3.30562 12.67156,-6.07375 20.19656,-8.19687c-1.26313,-4.82406 -2.29781,-9.90344 -3.02344,-15.25156h7.01437c0.69875,4.73 1.65281,9.245 2.78156,13.545c8.29094,-1.84094 17.25375,-2.91594 26.67344,-3.1175v-10.4275h6.88v10.4275c4.54237,0.0972 8.97849,0.40063 13.28427,0.89371c-0.46988,1.1628 -0.83536,2.51048 -1.03197,4.08332c-0.1128,0.564 -0.2256,1.42446 -0.36275,2.69098c-3.85513,-0.42677 -7.82595,-0.69438 -11.88956,-0.78801v33.87594c3.72836,-0.82302 7.30123,-2.9558 10.60995,-6.16955c-0.07433,1.13738 -0.07433,2.18948 -0.07433,3.00762c0.37805,4.53656 0.75609,7.19992 1.07685,9.02137c-4.87425,0.9431 -9.90669,1.43712 -15.05247,1.43712c-36.48281,0 -67.26812,-24.8325 -76.37875,-58.48zM118.895,106.64l1.14111,0c-0.09697,0.77429 -0.14697,1.56121 -0.14697,2.35774c0,0.34334 0,0.68667 0,1.03001c-0.51207,0 -1.02414,0 -1.53621,-0.04219c0.19447,-1.10297 0.37552,-2.21816 0.54207,-3.34557zM162.37875,106.64c-0.30302,1.11911 -0.63001,2.22847 -0.9804,3.32749c-0.60892,0.03583 -1.29278,0.06026 -2.02551,0.06026c0,-0.34334 0,-0.68667 0,-1.03001c0,-0.79943 -0.04726,-1.58614 -0.13914,-2.35774zM57.835,126.82313c5.65719,16.91781 14.62,28.76969 24.725,31.00031v-33.87594c-8.74781,0.20156 -17.06562,1.20938 -24.725,2.87563zM33.44594,135.45c8.7075,9.25844 19.84719,16.19219 32.37094,19.84719c-6.06031,-6.38281 -11.11281,-15.60094 -14.76781,-26.78094c-6.58438,1.85438 -12.52375,4.1925 -17.60313,6.93375z"></path></g><g><g fill="#032f9c"><g id="Слой_2" font-family="-apple-system, BlinkMacSystemFont, &quot;San Francisco&quot;, HelveticaNeue-Light, &quot;Helvetica Neue Light&quot;, &quot;Helvetica Neue&quot;, &quot;Segoe UI&quot;, &quot;Fira Sans&quot;, Roboto, Oxygen, Ubuntu, &quot;Droid Sans&quot;, Arial, sans-serif" font-weight="400" font-size="16" text-anchor="start" visibility="hidden"></g><g id="Android_x5F_4" font-family="-apple-system, BlinkMacSystemFont, &quot;San Francisco&quot;, HelveticaNeue-Light, &quot;Helvetica Neue Light&quot;, &quot;Helvetica Neue&quot;, &quot;Segoe UI&quot;, &quot;Fira Sans&quot;, Roboto, Oxygen, Ubuntu, &quot;Droid Sans&quot;, Arial, sans-serif" font-weight="400" font-size="16" text-anchor="start" visibility="hidden"></g><g id="Android_x5F_5" font-family="-apple-system, BlinkMacSystemFont, &quot;San Francisco&quot;, HelveticaNeue-Light, &quot;Helvetica Neue Light&quot;, &quot;Helvetica Neue&quot;, &quot;Segoe UI&quot;, &quot;Fira Sans&quot;, Roboto, Oxygen, Ubuntu, &quot;Droid Sans&quot;, Arial, sans-serif" font-weight="400" font-size="16" text-anchor="start" visibility="hidden"></g><g id="Windows_x5F_8" font-family="-apple-system, BlinkMacSystemFont, &quot;San Francisco&quot;, HelveticaNeue-Light, &quot;Helvetica Neue Light&quot;, &quot;Helvetica Neue&quot;, &quot;Segoe UI&quot;, &quot;Fira Sans&quot;, Roboto, Oxygen, Ubuntu, &quot;Droid Sans&quot;, Arial, sans-serif" font-weight="400" font-size="16" text-anchor="start" visibility="hidden"></g><g id="Windows_x5F_10" font-family="-apple-system, BlinkMacSystemFont, &quot;San Francisco&quot;, HelveticaNeue-Light, &quot;Helvetica Neue Light&quot;, &quot;Helvetica Neue&quot;, &quot;Segoe UI&quot;, &quot;Fira Sans&quot;, Roboto, Oxygen, Ubuntu, &quot;Droid Sans&quot;, Arial, sans-serif" font-weight="400" font-size="16" text-anchor="start" visibility="hidden"></g><g id="Color" font-family="-apple-system, BlinkMacSystemFont, &quot;San Francisco&quot;, HelveticaNeue-Light, &quot;Helvetica Neue Light&quot;, &quot;Helvetica Neue&quot;, &quot;Segoe UI&quot;, &quot;Fira Sans&quot;, Roboto, Oxygen, Ubuntu, &quot;Droid Sans&quot;, Arial, sans-serif" font-weight="400" font-size="16" text-anchor="start" visibility="hidden"></g><g id="IOS" font-family="-apple-system, BlinkMacSystemFont, &quot;San Francisco&quot;, HelveticaNeue-Light, &quot;Helvetica Neue Light&quot;, &quot;Helvetica Neue&quot;, &quot;Segoe UI&quot;, &quot;Fira Sans&quot;, Roboto, Oxygen, Ubuntu, &quot;Droid Sans&quot;, Arial, sans-serif" font-weight="400" font-size="16" text-anchor="start" visibility="hidden"></g><g id="IOS_copy"><path d="M166.50662,116.37948c-0.34334,0 -1.03001,0 -1.37335,0c0,0 -11.33011,1.03001 -15.79348,1.71668c0,-0.34334 0.34334,-0.68667 0.68667,-1.37335c1.71668,-2.74669 2.74669,-4.46338 2.74669,-7.89674c0,-7.21007 -5.83672,-12.70345 -13.04679,-12.70345c-7.21007,0 -13.04679,5.83672 -13.04679,12.70345c0,3.09003 1.03001,5.49338 3.09003,8.24008c0.34334,0.34334 0.34334,0.68667 0.68667,1.03001c-4.12004,-0.34334 -14.76347,-1.71668 -14.76347,-1.71668c-2.06002,-0.34334 -3.7767,0.34334 -4.46338,1.03001c-1.37335,1.03001 -2.40336,3.09003 -2.74669,5.49338c0,1.03001 -0.68667,4.80671 -1.71668,16.48015c0,0.68667 0,1.37335 0,2.06002c0,0.68667 0.68667,3.09003 2.74669,4.12004c2.40336,0.68667 4.12004,-0.68667 5.49338,-1.71668c0.34334,-0.34334 1.03001,-0.68667 1.71668,-1.37335c1.71668,-1.37335 3.09003,-1.71668 4.46338,-1.71668c3.43337,0 6.18006,2.74669 6.18006,5.83672c0,3.43337 -2.74669,5.83672 -6.18006,5.83672c-1.71668,0 -2.74669,-0.34334 -4.46338,-1.71668c-0.34334,-0.34334 -1.03001,-0.68667 -1.37335,-1.03001c-1.03001,-1.03001 -2.74669,-2.74669 -5.15005,-2.06002c-1.03001,0.34334 -2.40336,1.03001 -3.09003,3.09003c-0.34334,0.68667 -0.34334,2.40336 -0.34334,3.09003c0.68667,8.58341 1.37335,10.3001 1.71668,11.67344v0.68667c0.68667,3.43337 3.43337,5.83672 6.52339,5.83672h49.09713c4.46338,0 7.89674,-3.09003 7.89674,-7.89674v-40.51371c0,-2.06002 -0.68667,-5.49338 -5.49338,-7.21007zM165.13327,164.10326c0,0.68667 0,1.03001 -1.03001,1.03001h-48.75379v-0.34334v-0.68667c-0.34334,-1.03001 -0.34334,-2.06002 -1.03001,-6.52339c2.40336,1.37335 4.46338,2.06002 7.21007,2.06002c7.21007,0 13.04679,-5.83672 13.04679,-12.70345c0,-7.21007 -5.83672,-12.70345 -13.04679,-12.70345c-3.09003,0 -5.49338,1.03001 -7.21007,2.40336c0.68667,-9.27009 1.37335,-11.33011 1.37335,-11.67344v-0.34334c0,-0.34334 0,-0.34334 0,-0.68667c2.40336,-0.34334 10.64343,0.68667 14.0768,1.03001c3.09003,0.34334 5.49338,-1.03001 6.86673,-3.09003c1.03001,-1.71668 1.71668,-4.80671 -1.37335,-8.58341c-1.37335,-2.06002 -1.71668,-3.09003 -1.71668,-4.46338c0,-3.43337 2.74669,-5.83672 6.18006,-5.83672c3.43337,0 6.18006,2.74669 6.18006,5.83672c0,1.37335 -0.34334,1.71668 -2.06002,4.46338c-2.74669,4.46338 -1.71668,7.5534 -0.68667,8.92675c1.37335,2.06002 3.7767,3.09003 6.52339,2.74669c3.43337,-0.34334 12.36012,-1.37335 15.10681,-1.71668v0v0c0,0 0,0 0,0.34334v40.51371z"></path></g></g><g fill="#000000" opacity="0"><g id="IOS" font-family="-apple-system, BlinkMacSystemFont, &quot;San Francisco&quot;, HelveticaNeue-Light, &quot;Helvetica Neue Light&quot;, &quot;Helvetica Neue&quot;, &quot;Segoe UI&quot;, &quot;Fira Sans&quot;, Roboto, Oxygen, Ubuntu, &quot;Droid Sans&quot;, Arial, sans-serif" font-weight="400" font-size="16" text-anchor="start" visibility="hidden"></g><g id="IOS_copy"><path d="M99.97562,154.6615c0.68667,8.24008 1.37335,10.3001 1.71668,12.36012v0.68667c1.71668,6.52339 7.21007,10.98677 13.39013,10.98677h49.09713c8.24008,0 14.76347,-6.18006 14.76347,-14.76347v-40.17038c0,-6.52339 -4.12004,-11.67344 -10.64343,-13.73346c-1.03001,-0.34334 -2.06002,-0.34334 -3.09003,-0.34334c-0.34334,0 -0.68667,0 -1.03001,0c0,0 -2.06002,0.34334 -4.80671,0.34334c0,-0.34334 0,-0.68667 0,-1.03001c0,-10.98677 -8.92675,-19.57018 -19.91352,-19.57018c-10.64343,0 -19.57018,8.92675 -19.57018,19.57018c0,0.34334 0,0.68667 0,1.03001c-1.03001,0 -2.06002,0 -3.09003,-0.34334v0c-0.68667,0 -1.37335,0 -2.06002,0c-2.74669,0 -5.49338,1.03001 -7.5534,2.40336c-2.06002,1.71668 -4.80671,4.46338 -5.49338,9.95676c-0.34334,1.71668 -0.68667,6.18006 -1.71668,16.48015c-0.34334,1.71668 0,3.09003 0,3.7767c0.34334,1.71668 0.68667,3.09003 1.37335,4.12004c-0.34334,0.34334 -0.34334,1.03001 -0.68667,1.37335c-0.68667,2.40336 -0.68667,5.15005 -0.68667,6.86673zM113.36575,145.04808v0zM114.39576,144.36141v0z"></path></g></g></g></g></svg>