<svg xmlns="http://www.w3.org/2000/svg" x="0px" y="0px"
width="50" height="50"
viewBox="0 0 172 172"
style=" fill:#000000;"><g fill="none" fill-rule="nonzero" stroke="none" stroke-width="1" stroke-linecap="butt" stroke-linejoin="miter" stroke-miterlimit="10" stroke-dasharray="" stroke-dashoffset="0" font-family="none" font-weight="none" font-size="none" text-anchor="none" style="mix-blend-mode: normal"><path d="M0,172v-172h172v172z" fill="none"></path><g fill="#032f9c"><path d="M86,3.44c-10.87289,0 -19.95781,1.95603 -26.6264,5.42203c-6.66859,3.466 -11.2136,8.83712 -11.2136,15.21797v20.64v13.76h6.88v-1.31687c1.30745,1.02088 2.7566,1.9552 4.3336,2.77484c6.66859,3.466 15.75352,5.42203 26.6264,5.42203c10.87289,0 19.95781,-1.95603 26.6264,-5.42203c1.577,-0.81964 3.02614,-1.75396 4.3336,-2.77484v1.31687h6.88v-13.76v-20.64c0,-6.38085 -4.545,-11.75197 -11.2136,-15.21797c-6.66859,-3.466 -15.75352,-5.42203 -26.6264,-5.42203zM86,10.32c10.02855,0 18.14239,1.89156 23.44844,4.64937c5.30605,2.75782 7.51156,5.98676 7.51156,9.11062c0,3.12387 -2.20551,6.35281 -7.51156,9.11062c-5.30605,2.75782 -13.41988,4.64937 -23.44844,4.64937c-10.02855,0 -18.14239,-1.89156 -23.44844,-4.64937c-5.30605,-2.75782 -7.51156,-5.98676 -7.51156,-9.11062c0,-3.12387 2.20551,-6.35281 7.51156,-9.11062c5.30605,-2.75782 13.41988,-4.64937 23.44844,-4.64937zM55.04,36.52313c1.30745,1.02088 2.7566,1.9552 4.3336,2.77484c6.66859,3.466 15.75352,5.42203 26.6264,5.42203c10.87289,0 19.95781,-1.95603 26.6264,-5.42203c1.577,-0.81964 3.02614,-1.75396 4.3336,-2.77484v8.19687c0,3.12387 -2.20551,6.3528 -7.51156,9.11063c-5.30605,2.75781 -13.41988,4.64937 -23.44844,4.64937c-10.02855,0 -18.14239,-1.89156 -23.44844,-4.64937c-5.30605,-2.75783 -7.51156,-5.98676 -7.51156,-9.11063zM44.72,65.36c-10.87289,0 -19.95781,1.95603 -26.62641,5.42203c-6.66859,3.466 -11.21359,8.83712 -11.21359,15.21797v20.64v41.28c0,6.38085 4.545,11.75197 11.21359,15.21797c6.66859,3.466 15.75352,5.42203 26.62641,5.42203c10.87289,0 19.95781,-1.95603 26.6264,-5.42203c6.66859,-3.466 11.2136,-8.83712 11.2136,-15.21797v-41.28v-20.64c0,-6.38085 -4.545,-11.75197 -11.2136,-15.21797c-6.66859,-3.466 -15.75352,-5.42203 -26.6264,-5.42203zM127.28,65.36c-10.87289,0 -19.95781,1.95603 -26.6264,5.42203c-6.66859,3.466 -11.2136,8.83712 -11.2136,15.21797v20.64v41.28c0,6.38085 4.545,11.75197 11.2136,15.21797c6.66859,3.466 15.75352,5.42203 26.6264,5.42203c10.87289,0 19.95781,-1.95603 26.6264,-5.42203c6.66859,-3.466 11.2136,-8.83712 11.2136,-15.21797v-41.28v-20.64c0,-6.38085 -4.545,-11.75197 -11.2136,-15.21797c-6.66859,-3.466 -15.75352,-5.42203 -26.6264,-5.42203zM44.72,72.24c10.02855,0 18.14239,1.89156 23.44844,4.64937c5.30605,2.75782 7.51156,5.98676 7.51156,9.11063c0,3.12387 -2.20551,6.35281 -7.51156,9.11063c-5.30605,2.75782 -13.41988,4.64937 -23.44844,4.64937c-10.02855,0 -18.14239,-1.89156 -23.44844,-4.64937c-5.30605,-2.75782 -7.51156,-5.98676 -7.51156,-9.11063c0,-3.12387 2.20552,-6.35281 7.51156,-9.11063c5.30605,-2.75782 13.41988,-4.64937 23.44844,-4.64937zM127.28,72.24c10.02855,0 18.14239,1.89156 23.44844,4.64937c5.30605,2.75782 7.51156,5.98676 7.51156,9.11063c0,3.12387 -2.20551,6.35281 -7.51156,9.11063c-5.30605,2.75782 -13.41988,4.64937 -23.44844,4.64937c-10.02855,0 -18.14239,-1.89156 -23.44844,-4.64937c-5.30605,-2.75782 -7.51156,-5.98676 -7.51156,-9.11063c0,-3.12387 2.20551,-6.35281 7.51156,-9.11063c5.30605,-2.75782 13.41988,-4.64937 23.44844,-4.64937zM13.76,98.44313c1.30745,1.02088 2.7566,1.9552 4.33359,2.77484c6.66859,3.466 15.75352,5.42203 26.62641,5.42203c10.87289,0 19.95781,-1.95603 26.6264,-5.42203c1.577,-0.81964 3.02614,-1.75397 4.3336,-2.77484v8.19687c0,3.12387 -2.20551,6.35281 -7.51156,9.11063c-5.30605,2.75781 -13.41988,4.64937 -23.44844,4.64937c-10.02855,0 -18.14239,-1.89156 -23.44844,-4.64937c-5.30605,-2.75782 -7.51156,-5.98676 -7.51156,-9.11063zM96.32,98.44313c1.30745,1.02088 2.7566,1.9552 4.3336,2.77484c6.66859,3.466 15.75352,5.42203 26.6264,5.42203c10.87289,0 19.95781,-1.95603 26.6264,-5.42203c1.577,-0.81964 3.02614,-1.75396 4.3336,-2.77484v8.19687c0,3.12387 -2.20551,6.35281 -7.51156,9.11063c-5.30605,2.75781 -13.41988,4.64937 -23.44844,4.64937c-10.02855,0 -18.14239,-1.89156 -23.44844,-4.64937c-5.30605,-2.75782 -7.51156,-5.98676 -7.51156,-9.11063zM13.76,119.08313c1.30745,1.02088 2.7566,1.9552 4.33359,2.77484c6.66859,3.466 15.75352,5.42203 26.62641,5.42203c10.87289,0 19.95781,-1.95603 26.6264,-5.42203c1.577,-0.81964 3.02614,-1.75396 4.3336,-2.77484v8.19687c0,3.12387 -2.20551,6.35281 -7.51156,9.11063c-5.30605,2.75781 -13.41988,4.64937 -23.44844,4.64937c-10.02855,0 -18.14239,-1.89156 -23.44844,-4.64937c-5.30605,-2.75782 -7.51156,-5.98676 -7.51156,-9.11063zM96.32,119.08313c1.30745,1.02088 2.7566,1.9552 4.3336,2.77484c6.66859,3.466 15.75352,5.42203 26.6264,5.42203c10.87289,0 19.95781,-1.95603 26.6264,-5.42203c1.577,-0.81964 3.02614,-1.75396 4.3336,-2.77484v8.19687c0,3.12387 -2.20551,6.35281 -7.51156,9.11063c-5.30605,2.75781 -13.41988,4.64937 -23.44844,4.64937c-10.02855,0 -18.14239,-1.89156 -23.44844,-4.64937c-5.30605,-2.75782 -7.51156,-5.98676 -7.51156,-9.11063zM13.76,139.72313c1.30745,1.02088 2.7566,1.9552 4.33359,2.77484c6.66859,3.466 15.75352,5.42203 26.62641,5.42203c10.87289,0 19.95781,-1.95603 26.6264,-5.42203c1.577,-0.81964 3.02614,-1.75396 4.3336,-2.77484v8.19687c0,3.12387 -2.20551,6.35281 -7.51156,9.11063c-5.30605,2.75781 -13.41988,4.64937 -23.44844,4.64937c-10.02855,0 -18.14239,-1.89156 -23.44844,-4.64937c-5.30605,-2.75782 -7.51156,-5.98676 -7.51156,-9.11063zM96.32,139.72313c1.30745,1.02088 2.7566,1.9552 4.3336,2.77484c6.66859,3.466 15.75352,5.42203 26.6264,5.42203c10.87289,0 19.95781,-1.95603 26.6264,-5.42203c1.577,-0.81964 3.02614,-1.75396 4.3336,-2.77484v8.19687c0,3.12387 -2.20551,6.35281 -7.51156,9.11063c-5.30605,2.75781 -13.41988,4.64937 -23.44844,4.64937c-10.02855,0 -18.14239,-1.89156 -23.44844,-4.64937c-5.30605,-2.75782 -7.51156,-5.98676 -7.51156,-9.11063z"></path></g></g></svg>