<svg xmlns="http://www.w3.org/2000/svg" x="0px" y="0px"
width="50" height="50"
viewBox="0 0 172 172"
style=" fill:#000000;"><g fill="none" fill-rule="nonzero" stroke="none" stroke-width="1" stroke-linecap="butt" stroke-linejoin="miter" stroke-miterlimit="10" stroke-dasharray="" stroke-dashoffset="0" font-family="none" font-weight="none" font-size="none" text-anchor="none" style="mix-blend-mode: normal"><path d="M0,172v-172h172v172z" fill="none"></path><g fill="#032f9c"><path d="M24.08,6.88v158.24h73.44265c-0.76368,-2.15344 -1.20265,-4.46512 -1.20265,-6.88h-65.36v-144.48h68.8v41.28h41.28v41.28h6.88v-46.14437l-43.29563,-43.29563zM106.64,18.62438l29.53563,29.53562h-29.53563zM123.84,79.12c-3.79972,0 -6.88,3.08028 -6.88,6.88c0.00009,0.85511 0.15958,1.70272 0.47031,2.49937l-20.08235,25.10797c-0.33999,-0.0548 -0.68361,-0.084 -1.02797,-0.08735c-0.46517,0.00235 -0.92889,0.05188 -1.38406,0.14781l-19.61203,-22.06438c0.23358,-0.69747 0.35381,-1.42789 0.3561,-2.16344c0,-3.79972 -3.08028,-6.88 -6.88,-6.88c-3.79972,0 -6.88,3.08028 -6.88,6.88c0.00025,0.60121 0.07931,1.1998 0.23515,1.78047l-12.2214,12.2214c-0.57819,-0.15753 -1.17449,-0.23884 -1.77375,-0.24187c-3.79972,0 -6.88,3.08028 -6.88,6.88c0,3.79972 3.08028,6.88 6.88,6.88c3.79972,0 6.88,-3.08028 6.88,-6.88c-0.00025,-0.60121 -0.07931,-1.1998 -0.23515,-1.78047l12.2214,-12.2214c0.57819,0.15753 1.17449,0.23884 1.77375,0.24187c0.46517,-0.00235 0.92889,-0.05188 1.38406,-0.14781l19.61203,22.06438c-0.23358,0.69747 -0.35381,1.42789 -0.3561,2.16344c0,3.79972 3.08028,6.88 6.88,6.88c3.79972,0 6.88,-3.08028 6.88,-6.88c-0.00009,-0.85511 -0.15958,-1.70272 -0.47031,-2.49937l20.08235,-25.10797c0.33999,0.0548 0.68361,0.084 1.02797,0.08735c3.79972,0 6.88,-3.08028 6.88,-6.88c0,-3.79972 -3.08028,-6.88 -6.88,-6.88zM120.4,103.2c-1.89544,0 -3.44,1.54456 -3.44,3.44v37.84c-7.60584,0 -13.76,6.15416 -13.76,13.76c0,7.60584 6.15416,13.76 13.76,13.76h37.84c0.1204,0 0.22586,-0.01344 0.33594,-0.01344c9.29832,-0.1892 16.86406,-7.86072 16.86406,-17.18656v-48.16c0,-1.89544 -1.54456,-3.44 -3.44,-3.44zM123.84,110.08h41.28v44.72c0,5.69664 -4.62336,10.32 -10.32,10.32c-4.09704,0 -6.88,-2.78296 -6.88,-6.88c0,-4.09704 2.78296,-6.88 6.88,-6.88c1.89888,0 3.44,-1.54112 3.44,-3.44c0,-1.89888 -1.54112,-3.44 -3.44,-3.44h-30.96zM116.96,151.36h26.18969c-1.2212,2.05712 -2.10969,4.31376 -2.10969,6.88c0,2.56624 0.88849,4.82288 2.10969,6.88h-26.18969c-4.09704,0 -6.88,-2.78296 -6.88,-6.88c0,-4.09704 2.78296,-6.88 6.88,-6.88z"></path></g></g></svg>