<svg xmlns="http://www.w3.org/2000/svg" x="0px" y="0px"
width="50" height="50"
viewBox="0 0 172 172"
style=" fill:#000000;"><g fill="none" fill-rule="nonzero" stroke="none" stroke-width="1" stroke-linecap="butt" stroke-linejoin="miter" stroke-miterlimit="10" stroke-dasharray="" stroke-dashoffset="0" font-family="none" font-weight="none" font-size="none" text-anchor="none" style="mix-blend-mode: normal"><path d="M0,172v-172h172v172z" fill="none"></path><g id="original-icon" fill="#032f9c" opacity="0" visibility="hidden"><path d="M86,6.88c-43.65844,0 -79.12,35.46156 -79.12,79.12c0,43.65844 35.46156,79.12 79.12,79.12c43.65844,0 79.12,-35.46156 79.12,-79.12c0,-43.65844 -35.46156,-79.12 -79.12,-79.12zM82.56,14.10938v33.94312c-9.71531,-0.22844 -18.94687,-1.42437 -27.27812,-3.42656c6.27531,-16.78344 16.15187,-28.50094 27.27812,-30.51656zM89.44,14.10938c11.12625,2.01562 21.00281,13.73312 27.27813,30.51656c-8.33125,2.00219 -17.56281,3.19813 -27.27813,3.42656zM63.5325,17.33438c-6.15437,6.20812 -11.32781,14.90219 -15.14406,25.39687c-5.54969,-1.73344 -10.56187,-3.81625 -14.98281,-6.18125c8.19687,-8.72094 18.47656,-15.41281 30.12687,-19.21562zM108.4675,17.33438c11.65031,3.80281 21.93,10.49469 30.11344,19.21562c-4.4075,2.365 -9.41969,4.44781 -14.96937,6.18125c-3.81625,-10.49469 -8.98969,-19.18875 -15.14406,-25.39687zM28.86375,41.87125c5.14656,2.9025 10.95156,5.41531 17.37469,7.4175c-1.15562,4.01781 -2.15,8.22375 -2.91594,12.63125h7.13531c0.71219,-3.70875 1.59906,-7.28312 2.60687,-10.70969c9.05688,2.21719 19.01406,3.49375 29.49531,3.72219v6.9875h6.88v-6.9875c10.48125,-0.22844 20.45188,-1.49156 29.49531,-3.70875c1.00781,3.41313 1.89469,6.9875 2.60687,10.69625h7.13531c-0.76594,-4.39406 -1.76031,-8.6 -2.91594,-12.61781c6.42312,-2.01562 12.22812,-4.52844 17.37469,-7.43094c8.78813,11.35469 14.2975,25.37 15.00969,40.68875h-17.10594v6.88h17.10594c-0.71219,15.31875 -6.22156,29.33406 -15.00969,40.68875c-5.14656,-2.9025 -10.95156,-5.41531 -17.37469,-7.4175c1.15562,-4.01781 2.15,-8.22375 2.91594,-12.63125h-7.13531c-0.71219,3.70875 -1.59906,7.28313 -2.60687,10.70969c-9.05688,-2.21719 -19.01406,-3.49375 -29.49531,-3.72219v-6.9875h-6.88v6.9875c-10.48125,0.22844 -20.45187,1.49156 -29.49531,3.70875c-1.00781,-3.41312 -1.89469,-6.9875 -2.60687,-10.69625h-7.13531c0.76594,4.39406 1.76031,8.6 2.91594,12.61781c-6.42312,2.01562 -12.22812,4.52844 -17.37469,7.43094c-8.78812,-11.35469 -14.2975,-25.37 -15.02312,-40.68875h17.11937v-6.88h-17.11937c0.72562,-15.31875 6.235,-29.33406 15.02312,-40.68875zM121.31375,68.8c-1.90812,0 -3.655,0.22844 -5.24062,0.68531c-1.58563,0.44344 -2.94281,1.075 -4.11188,1.89469c-1.14219,0.80625 -2.0425,1.78719 -2.67406,2.95625c-0.63156,1.15563 -0.9675,2.43219 -0.9675,3.81625c0,1.46469 0.3225,2.74125 0.95406,3.82969c0.61813,1.10188 1.46469,2.06938 2.52625,2.9025c1.04813,0.83313 2.28438,1.55875 3.68188,2.17688c1.3975,0.60469 2.86219,1.15562 4.39406,1.62594c1.30344,0.43 2.32469,0.83313 3.10406,1.22281c0.77938,0.37625 1.38406,0.76594 1.81406,1.1825c0.41656,0.40312 0.68531,0.83312 0.81969,1.30344c0.13438,0.45688 0.20156,0.9675 0.20156,1.55875c0,0.52406 -0.09406,1.03469 -0.22844,1.49156c-0.14781,0.45687 -0.40313,0.86 -0.73906,1.19594c-0.36281,0.3225 -0.80625,0.57781 -1.35719,0.76594c-0.55094,0.20156 -1.22281,0.29563 -2.01563,0.29563c-0.9675,0 -1.8275,-0.09406 -2.55312,-0.29563c-0.72563,-0.18812 -1.35719,-0.49719 -1.85438,-0.92719c-0.48375,-0.44344 -0.86,-1.02125 -1.10187,-1.72c-0.24188,-0.69875 -0.36281,-1.55875 -0.36281,-2.58h-8.30438c0,1.90813 0.41656,3.5475 1.22281,4.93156c0.81969,1.37062 1.89469,2.51281 3.225,3.41312c1.33031,0.91375 2.84875,1.57219 4.54188,2.01563c1.69312,0.44344 3.42656,0.65844 5.18687,0.65844c1.94844,0 3.70875,-0.215 5.2675,-0.63156c1.54531,-0.41656 2.87563,-1.03469 3.9775,-1.8275c1.08844,-0.77937 1.92156,-1.74687 2.52625,-2.9025c0.57781,-1.14219 0.87344,-2.44562 0.87344,-3.92375c0,-1.38406 -0.22844,-2.62031 -0.69875,-3.72219c-0.47031,-1.08844 -1.1825,-2.06937 -2.13656,-2.95625c-0.95406,-0.87344 -2.15,-1.65281 -3.57438,-2.33812c-1.41094,-0.68531 -3.09062,-1.31688 -4.99875,-1.88125c-0.91375,-0.3225 -1.76031,-0.645 -2.52625,-0.99438c-0.7525,-0.33594 -1.3975,-0.69875 -1.935,-1.075c-0.52406,-0.38969 -0.94062,-0.79281 -1.23625,-1.23625c-0.29562,-0.45687 -0.43,-0.94062 -0.43,-1.505c0,-0.52406 0.08063,-1.03469 0.26875,-1.505c0.20156,-0.48375 0.48375,-0.90031 0.86,-1.23625c0.36281,-0.34937 0.84656,-0.61812 1.41094,-0.81969c0.57781,-0.20156 1.24969,-0.30906 2.0425,-0.30906c0.84656,0 1.55875,0.12094 2.16344,0.36281c0.60469,0.22844 1.08844,0.56437 1.47812,0.98094c0.38969,0.43 0.67188,0.92719 0.84656,1.51844c0.17469,0.59125 0.26875,1.24969 0.26875,1.94844h8.23719c0,-1.51844 -0.29562,-2.91594 -0.90031,-4.16563c-0.60469,-1.27656 -1.45125,-2.365 -2.58,-3.27875c-1.10187,-0.90031 -2.44562,-1.6125 -4.04469,-2.13656c-1.58562,-0.51062 -3.34594,-0.76594 -5.32125,-0.76594zM37.84,69.27031v33.45937h10.75c2.39188,0 4.56875,-0.3225 6.51719,-0.94062c1.94844,-0.63156 3.61469,-1.54531 4.99875,-2.75469c1.3975,-1.19594 2.45906,-2.67406 3.21156,-4.42094c0.7525,-1.74687 1.12875,-3.74906 1.12875,-5.99312v-5.20031c0,-2.2575 -0.38969,-4.24625 -1.14219,-6.00656c-0.76594,-1.76031 -1.8275,-3.23844 -3.21156,-4.43437c-1.37062,-1.20938 -3.02344,-2.13656 -4.97187,-2.76813c-1.935,-0.63156 -4.09844,-0.94062 -6.46344,-0.94062zM72.24,69.27031v33.45937h7.955v-21.94344l11.61,21.94344h7.955v-33.45937h-7.91469v21.97031l-11.65031,-21.97031zM46.1175,74.88719h2.55313c1.42437,0 2.62031,0.16125 3.58781,0.47031c0.9675,0.3225 1.73344,0.81969 2.31125,1.49156c0.59125,0.67187 1.00781,1.54531 1.23625,2.62031c0.24188,1.075 0.36281,2.37844 0.36281,3.91031v5.24063c0,1.51844 -0.12094,2.80844 -0.36281,3.88344c-0.22844,1.075 -0.645,1.96188 -1.23625,2.64719c-0.57781,0.68531 -1.35719,1.19594 -2.32469,1.505c-0.98094,0.30906 -2.20375,0.47031 -3.655,0.47031h-2.4725zM82.56,123.9475v33.95656c-11.12625,-2.02906 -21.00281,-13.74656 -27.27812,-30.53c8.33125,-2.00219 17.56281,-3.19813 27.27812,-3.42656zM89.44,123.9475c9.71531,0.22844 18.94688,1.42438 27.27813,3.42656c-6.27531,16.78344 -16.15188,28.50094 -27.27813,30.53zM48.38844,129.26875c3.81625,10.49469 8.98969,19.18875 15.14406,25.39688c-11.65031,-3.80281 -21.93,-10.49469 -30.12687,-19.21563c4.42094,-2.365 9.43312,-4.44781 14.98281,-6.18125zM123.61156,129.26875c5.54969,1.73344 10.56187,3.81625 14.96937,6.18125c-8.18344,8.72094 -18.46312,15.41281 -30.11344,19.21563c6.15438,-6.20813 11.32781,-14.90219 15.14406,-25.39688z"></path></g><g id="subtracted-icon" fill="#032f9c"><path d="M165.12,86c0,5.25612 -0.51399,10.39343 -1.49438,15.36436c-1.65307,-2.39674 -3.66861,-4.51539 -5.96448,-6.27675c0.23373,-1.86067 0.3963,-3.74408 0.4848,-5.64761h-17.10594v-6.88h17.10594c-0.71219,-15.31875 -6.22156,-29.33406 -15.00969,-40.68875c-5.14656,2.9025 -10.95156,5.41531 -17.37469,7.43094c1.15562,4.01781 2.15,8.22375 2.91594,12.61781h-7.13531c-0.71219,-3.70875 -1.59906,-7.28312 -2.60687,-10.69625c-9.04344,2.21719 -19.01406,3.48031 -29.49531,3.70875v6.9875h-6.88v-6.9875c-10.48125,-0.22844 -20.43844,-1.505 -29.49531,-3.72219c-1.00781,3.42656 -1.89469,7.00094 -2.60687,10.70969h-7.13531c0.76594,-4.4075 1.76031,-8.61344 2.91594,-12.63125c-6.42312,-2.00219 -12.22812,-4.515 -17.37469,-7.4175c-8.78812,11.35469 -14.2975,25.37 -15.02312,40.68875h17.11937v6.88h-17.11937c0.72562,15.31875 6.235,29.33406 15.02312,40.68875c5.14656,-2.9025 10.95156,-5.41531 17.37469,-7.43094c-1.15562,-4.01781 -2.15,-8.22375 -2.91594,-12.61781h7.13531c0.71219,3.70875 1.59906,7.28313 2.60687,10.69625c9.04344,-2.21719 19.01406,-3.48031 29.49531,-3.70875v-6.9875h6.88v6.9875c7.01928,0.15298 13.80352,0.77605 20.23971,1.8369c-2.348,1.4551 -4.23906,3.63301 -5.35907,6.18474c-4.78563,-0.633 -9.7661,-1.02139 -14.88064,-1.14165v33.95656c4.89535,-0.89275 9.54878,-3.66103 13.76,-7.91112v13.24783c-5.53835,1.23032 -11.29418,1.87923 -17.2,1.87923c-43.65844,0 -79.12,-35.46156 -79.12,-79.12c0,-43.65844 35.46156,-79.12 79.12,-79.12c43.65844,0 79.12,35.46156 79.12,79.12zM55.28188,44.62594c8.33125,2.00219 17.56281,3.19813 27.27812,3.42656v-33.94312c-11.12625,2.01562 -21.00281,13.73312 -27.27812,30.51656zM89.44,48.0525c9.71531,-0.22844 18.94688,-1.42437 27.27813,-3.42656c-6.27531,-16.78344 -16.15188,-28.50094 -27.27813,-30.51656zM33.40563,36.55c4.42094,2.365 9.43312,4.44781 14.98281,6.18125c3.81625,-10.49469 8.98969,-19.18875 15.14406,-25.39687c-11.65031,3.80281 -21.93,10.49469 -30.12687,19.21562zM123.61156,42.73125c5.54969,-1.73344 10.56187,-3.81625 14.96937,-6.18125c-8.18344,-8.72094 -18.46312,-15.41281 -30.11344,-19.21562c6.15438,6.20812 11.32781,14.90219 15.14406,25.39687zM126.635,69.56594c1.59906,0.52406 2.94281,1.23625 4.04469,2.13656c1.12875,0.91375 1.97531,2.00219 2.58,3.27875c0.60469,1.24969 0.90031,2.64719 0.90031,4.16563h-8.23719c0,-0.69875 -0.09406,-1.35719 -0.26875,-1.94844c-0.17469,-0.59125 -0.45688,-1.08844 -0.84656,-1.51844c-0.38969,-0.41656 -0.87344,-0.7525 -1.47812,-0.98094c-0.60469,-0.24188 -1.31688,-0.36281 -2.16344,-0.36281c-0.79281,0 -1.46469,0.1075 -2.0425,0.30906c-0.56437,0.20156 -1.04812,0.47031 -1.41094,0.81969c-0.37625,0.33594 -0.65844,0.7525 -0.86,1.23625c-0.18812,0.47031 -0.26875,0.98094 -0.26875,1.505c0,0.56438 0.13438,1.04813 0.43,1.505c0.29563,0.44344 0.71219,0.84656 1.23625,1.23625c0.5375,0.37625 1.1825,0.73906 1.935,1.075c0.76594,0.34938 1.6125,0.67188 2.52625,0.99438c1.90813,0.56437 3.58781,1.19594 4.99875,1.88125c1.42438,0.68531 2.62031,1.46469 3.57438,2.33812c0.95406,0.88688 1.66625,1.86781 2.13656,2.95625c0.04147,0.09715 0.08105,0.19534 0.11877,0.29459c-2.77654,0.7939 -5.37751,2.01785 -7.7263,3.59794c0.00126,-0.04324 0.00191,-0.08659 0.00191,-0.13003c0,-0.59125 -0.06719,-1.10187 -0.20156,-1.55875c-0.13437,-0.47031 -0.40312,-0.90031 -0.81969,-1.30344c-0.43,-0.41656 -1.03469,-0.80625 -1.81406,-1.1825c-0.77937,-0.38969 -1.80062,-0.79281 -3.10406,-1.22281c-1.53187,-0.47031 -2.99656,-1.02125 -4.39406,-1.62594c-1.3975,-0.61813 -2.63375,-1.34375 -3.68188,-2.17688c-1.06156,-0.83312 -1.90812,-1.80062 -2.52625,-2.9025c-0.63156,-1.08844 -0.95406,-2.365 -0.95406,-3.82969c0,-1.38406 0.33594,-2.66062 0.9675,-3.81625c0.63156,-1.16906 1.53188,-2.15 2.67406,-2.95625c1.16906,-0.81969 2.52625,-1.45125 4.11188,-1.89469c1.58562,-0.45688 3.3325,-0.68531 5.24062,-0.68531c1.97531,0 3.73563,0.25531 5.32125,0.76594zM116.28813,102.54156c-1.69313,-0.44344 -3.21156,-1.10188 -4.54188,-2.01563c-1.33031,-0.90031 -2.40531,-2.0425 -3.225,-3.41312c-0.80625,-1.38406 -1.22281,-3.02344 -1.22281,-4.93156h8.30438c0,1.02125 0.12094,1.88125 0.36281,2.58c0.24187,0.69875 0.61812,1.27656 1.10187,1.72c0.49719,0.43 1.12875,0.73906 1.85438,0.92719c0.72413,0.20115 1.58209,0.29524 2.54717,0.29563c-1.50499,1.5391 -2.83434,3.25583 -3.95428,5.11765c-0.41108,-0.08033 -0.82002,-0.17365 -1.22664,-0.28015zM48.65719,69.27031c2.365,0 4.52844,0.30906 6.46344,0.94062c1.94844,0.63156 3.60125,1.55875 4.97187,2.76813c1.38406,1.19594 2.44563,2.67406 3.21156,4.43437c0.7525,1.76031 1.14219,3.74906 1.14219,6.00656v5.20031c0,2.24406 -0.37625,4.24625 -1.12875,5.99312c-0.7525,1.74688 -1.81406,3.225 -3.21156,4.42094c-1.38406,1.20937 -3.05031,2.12312 -4.99875,2.75469c-1.94844,0.61812 -4.12531,0.94062 -6.51719,0.94062h-10.75v-33.45937zM80.195,69.27031l11.65031,21.97031v-21.97031h7.91469v33.45937h-7.955l-11.61,-21.94344v21.94344h-7.955v-33.45937zM46.1175,97.12625h2.4725c1.45125,0 2.67406,-0.16125 3.655,-0.47031c0.9675,-0.30906 1.74688,-0.81969 2.32469,-1.505c0.59125,-0.68531 1.00781,-1.57219 1.23625,-2.64719c0.24188,-1.075 0.36281,-2.365 0.36281,-3.88344v-5.24063c0,-1.53187 -0.12094,-2.83531 -0.36281,-3.91031c-0.22844,-1.075 -0.645,-1.94844 -1.23625,-2.62031c-0.57781,-0.67188 -1.34375,-1.16906 -2.31125,-1.49156c-0.9675,-0.30906 -2.16344,-0.47031 -3.58781,-0.47031h-2.55313zM55.28188,127.37406c6.27531,16.78344 16.15187,28.50094 27.27812,30.53v-33.95656c-9.71531,0.22844 -18.94687,1.42438 -27.27812,3.42656zM33.40563,135.45c8.19687,8.72094 18.47656,15.41281 30.12687,19.21563c-6.15437,-6.20813 -11.32781,-14.90219 -15.14406,-25.39688c-5.54969,1.73344 -10.56187,3.81625 -14.98281,6.18125z"></path></g><g><g fill="#032f9c"><g id="Слой_2" font-family="-apple-system, BlinkMacSystemFont, &quot;San Francisco&quot;, HelveticaNeue-Light, &quot;Helvetica Neue Light&quot;, &quot;Helvetica Neue&quot;, &quot;Segoe UI&quot;, &quot;Fira Sans&quot;, Roboto, Oxygen, Ubuntu, &quot;Droid Sans&quot;, Arial, sans-serif" font-weight="400" font-size="16" text-anchor="start" visibility="hidden"></g><g id="Android_x5F_4" font-family="-apple-system, BlinkMacSystemFont, &quot;San Francisco&quot;, HelveticaNeue-Light, &quot;Helvetica Neue Light&quot;, &quot;Helvetica Neue&quot;, &quot;Segoe UI&quot;, &quot;Fira Sans&quot;, Roboto, Oxygen, Ubuntu, &quot;Droid Sans&quot;, Arial, sans-serif" font-weight="400" font-size="16" text-anchor="start" visibility="hidden"></g><g id="Android_x5F_5" font-family="-apple-system, BlinkMacSystemFont, &quot;San Francisco&quot;, HelveticaNeue-Light, &quot;Helvetica Neue Light&quot;, &quot;Helvetica Neue&quot;, &quot;Segoe UI&quot;, &quot;Fira Sans&quot;, Roboto, Oxygen, Ubuntu, &quot;Droid Sans&quot;, Arial, sans-serif" font-weight="400" font-size="16" text-anchor="start" visibility="hidden"></g><g id="Windows_x5F_8" font-family="-apple-system, BlinkMacSystemFont, &quot;San Francisco&quot;, HelveticaNeue-Light, &quot;Helvetica Neue Light&quot;, &quot;Helvetica Neue&quot;, &quot;Segoe UI&quot;, &quot;Fira Sans&quot;, Roboto, Oxygen, Ubuntu, &quot;Droid Sans&quot;, Arial, sans-serif" font-weight="400" font-size="16" text-anchor="start" visibility="hidden"></g><g id="Windows_x5F_10" font-family="-apple-system, BlinkMacSystemFont, &quot;San Francisco&quot;, HelveticaNeue-Light, &quot;Helvetica Neue Light&quot;, &quot;Helvetica Neue&quot;, &quot;Segoe UI&quot;, &quot;Fira Sans&quot;, Roboto, Oxygen, Ubuntu, &quot;Droid Sans&quot;, Arial, sans-serif" font-weight="400" font-size="16" text-anchor="start" visibility="hidden"></g><g id="Color" font-family="-apple-system, BlinkMacSystemFont, &quot;San Francisco&quot;, HelveticaNeue-Light, &quot;Helvetica Neue Light&quot;, &quot;Helvetica Neue&quot;, &quot;Segoe UI&quot;, &quot;Fira Sans&quot;, Roboto, Oxygen, Ubuntu, &quot;Droid Sans&quot;, Arial, sans-serif" font-weight="400" font-size="16" text-anchor="start" visibility="hidden"></g><g id="IOS" font-family="-apple-system, BlinkMacSystemFont, &quot;San Francisco&quot;, HelveticaNeue-Light, &quot;Helvetica Neue Light&quot;, &quot;Helvetica Neue&quot;, &quot;Segoe UI&quot;, &quot;Fira Sans&quot;, Roboto, Oxygen, Ubuntu, &quot;Droid Sans&quot;, Arial, sans-serif" font-weight="400" font-size="16" text-anchor="start" visibility="hidden"></g><g id="IOS_copy"><path d="M165.464,123.84h-3.784v-6.192c0,-11.696 -9.288,-21.328 -20.64,-21.328c-11.352,0 -20.64,9.632 -20.64,21.328v6.192h-3.784c-3.784,0 -6.536,3.096 -6.536,6.536v34.744c0,3.784 2.752,6.88 6.536,6.88h48.848c3.44,0 6.536,-3.096 6.536,-6.536v-35.088c0,-3.44 -2.752,-6.536 -6.536,-6.536zM127.28,117.648c0,-7.912 6.192,-14.448 13.76,-14.448c7.568,0 13.76,6.536 13.76,14.448v6.192h-27.52zM165.12,165.12h-48.16v-34.4h48.16zM144.136,149.296v4.472c0,1.72 -1.376,3.096 -3.096,3.096c-1.72,0 -3.096,-1.376 -3.096,-3.096v-4.472c-1.032,-1.032 -1.72,-2.064 -1.72,-3.44c0,-2.752 2.064,-4.816 4.816,-4.816c2.752,0 4.816,2.064 4.816,4.816c0,1.376 -0.688,2.408 -1.72,3.44z"></path></g></g><g fill="#000000" opacity="0"><g id="IOS" font-family="-apple-system, BlinkMacSystemFont, &quot;San Francisco&quot;, HelveticaNeue-Light, &quot;Helvetica Neue Light&quot;, &quot;Helvetica Neue&quot;, &quot;Segoe UI&quot;, &quot;Fira Sans&quot;, Roboto, Oxygen, Ubuntu, &quot;Droid Sans&quot;, Arial, sans-serif" font-weight="400" font-size="16" text-anchor="start" visibility="hidden"></g><g id="IOS_copy"><path d="M116.616,178.88h48.848c7.224,0 13.416,-6.192 13.416,-13.416v-35.088c0,-6.536 -4.472,-11.696 -10.32,-13.072c0,-15.48 -12.384,-27.864 -27.52,-27.864c-15.136,0 -27.52,12.384 -27.52,27.864c-5.848,1.376 -10.32,6.88 -10.32,13.072v34.744c0,7.568 5.848,13.76 13.416,13.76zM141.04,110.08c3.44,0 6.536,3.096 6.88,6.88h-13.76c0.344,-3.784 3.44,-6.88 6.88,-6.88z"></path></g></g></g></g></svg>