<svg xmlns="http://www.w3.org/2000/svg" x="0px" y="0px"
width="50" height="50"
viewBox="0 0 172 172"
style=" fill:#000000;"><g fill="none" fill-rule="nonzero" stroke="none" stroke-width="1" stroke-linecap="butt" stroke-linejoin="miter" stroke-miterlimit="10" stroke-dasharray="" stroke-dashoffset="0" font-family="none" font-weight="none" font-size="none" text-anchor="none" style="mix-blend-mode: normal"><path d="M0,172v-172h172v172z" fill="none"></path><g fill="#032f9c"><path d="M86,10.32c-3.21458,0 -9.14134,0.66133 -14.25047,5.02563c-1.57807,1.195 -5.10343,4.30171 -10.21922,8.73437h-23.69031c-1.89978,0.00019 -3.43981,1.54022 -3.44,3.44v20.51235c-12.13868,10.73691 -22.93109,20.35109 -22.93109,20.35109c-0.73108,0.65281 -1.14902,1.58644 -1.14891,2.56656v87.29c0.00019,1.89978 1.54022,3.43981 3.44,3.44h144.48c1.89978,-0.00019 3.43981,-1.54022 3.44,-3.44v-87.29c0.00011,-0.98012 -0.41783,-1.91376 -1.1489,-2.56656c0,0 -10.79204,-9.61652 -22.9311,-20.35109v-20.51235c-0.00019,-1.89978 -1.54022,-3.43981 -3.44,-3.44h-23.8986c-4.92276,-4.42916 -8.44618,-7.5515 -10.01765,-8.74109c-5.10735,-4.35826 -11.03081,-5.01891 -14.24375,-5.01891zM86,17.2c2.20141,0 6.48965,0.54653 9.80265,3.38625c0.05668,0.04892 0.11494,0.09598 0.17469,0.14109c0.20225,0.15153 2.74262,2.41604 3.82969,3.35266h-27.7014c1.09544,-0.93377 3.71576,-3.20186 3.91703,-3.35266c0.05975,-0.04512 0.11801,-0.09217 0.17469,-0.14109c3.31302,-2.83972 7.60124,-3.38625 9.80265,-3.38625zM41.28,30.96h20.59969c0.53634,0.131 1.09632,0.131 1.63266,0h44.89469c0.3934,0.06903 0.79582,0.06903 1.18922,0h21.12375v18.63781v41.71l-19.39703,15.265c-3.65736,-2.87179 -10.33566,-8.09005 -11.13297,-8.72766c-5.29978,-4.24144 -10.96997,-4.96515 -14.19,-4.96515c-3.47322,0 -8.8614,1.05049 -14.07578,4.87781c-0.947,0.69384 -7.84577,6.13426 -11.26735,8.80156l-19.37687,-15.25156v-41.26656c0.05216,-0.34292 0.05216,-0.69176 0,-1.03469zM55.04,48.16c-1.24059,-0.01754 -2.39452,0.63425 -3.01993,1.7058c-0.62541,1.07155 -0.62541,2.39684 0,3.46839c0.62541,1.07155 1.77935,1.72335 3.01993,1.7058h61.92c1.24059,0.01754 2.39452,-0.63425 3.01993,-1.7058c0.62541,-1.07155 0.62541,-2.39684 0,-3.46839c-0.62541,-1.07155 -1.77935,-1.72335 -3.01993,-1.7058zM34.4,57.23031v28.65547l-17.11266,-13.4711c0.8205,-0.73128 9.19912,-8.16887 17.11266,-15.18437zM137.6,57.23031c7.91502,7.01629 16.295,14.46211 17.11265,15.19109l-17.11265,13.4711zM55.04,65.36c-1.24059,-0.01754 -2.39452,0.63425 -3.01993,1.7058c-0.62541,1.07155 -0.62541,2.39684 0,3.46839c0.62541,1.07155 1.77935,1.72335 3.01993,1.7058h37.84c1.24059,0.01754 2.39452,-0.63425 3.01993,-1.7058c0.62541,-1.07155 0.62541,-2.39684 0,-3.46839c-0.62541,-1.07155 -1.77935,-1.72335 -3.01993,-1.7058zM17.2,81.10875l37.8736,29.8111c-5.60412,4.38856 -8.12196,6.31739 -14.88203,11.63015c-11.72632,9.21576 -19.16725,15.08061 -22.99156,18.0936zM154.8,81.10875v59.54828c-5.01189,-3.92787 -22.33106,-17.49928 -37.90047,-29.71031zM86,99.76c2.20141,0 6.16322,0.4776 9.89,3.46015c4.66477,3.7304 57.09225,44.75557 58.91,46.17797v5.40187h-137.6v-5.4086c0.94288,-0.74258 13.35388,-10.51609 27.24453,-21.43281c14.40826,-11.32351 29.70176,-23.29602 31.55125,-24.6511c3.81218,-2.79812 8.056,-3.5475 10.00422,-3.5475z"></path></g></g></svg>