
<svg xmlns="http://www.w3.org/2000/svg" x="0px" y="0px"
width="50" height="50"
viewBox="0 0 172 172"
style=" fill:#000000;"><g fill="none" fill-rule="nonzero" stroke="none" stroke-width="1" stroke-linecap="butt" stroke-linejoin="miter" stroke-miterlimit="10" stroke-dasharray="" stroke-dashoffset="0" font-family="none" font-weight="none" font-size="none" text-anchor="none" style="mix-blend-mode: normal"><path d="M0,172v-172h172v172z" fill="none"></path><g fill="#3255ae"><path d="M24.08,6.88c-9.45834,0 -17.2,7.74166 -17.2,17.2v123.84c0,9.45834 7.74166,17.2 17.2,17.2h123.84c9.45834,0 17.2,-7.74166 17.2,-17.2v-123.84c0,-9.45834 -7.74166,-17.2 -17.2,-17.2zM24.08,13.76h123.84c5.73958,0 10.32,4.58042 10.32,10.32v123.84c0,5.73958 -4.58042,10.32 -10.32,10.32h-123.84c-5.73958,0 -10.32,-4.58042 -10.32,-10.32v-123.84c0,-5.73958 4.58042,-10.32 10.32,-10.32zM86,20.64l-2.12313,4.52844l-4.75687,0.72563l3.44,3.52734l-0.81297,4.97859l4.25297,-2.35156l4.25297,2.35156l-0.81297,-4.97859l3.44,-3.52734l-4.75687,-0.72563zM55.9,29.67l-2.12313,4.52844l-4.75687,0.72563l3.44,3.52734l-0.81297,4.9786l4.25297,-2.35156l4.25297,2.35156l-0.81297,-4.9786l3.44,-3.52734l-4.75687,-0.72563zM116.1,29.67l-2.12313,4.52844l-4.75687,0.72563l3.44,3.52734l-0.81297,4.9786l4.25297,-2.35156l4.25297,2.35156l-0.81297,-4.9786l3.44,-3.52734l-4.75687,-0.72563zM86,48.16c-9.45834,0 -17.2,7.74166 -17.2,17.2v6.88h-3.44c-3.76014,0 -6.88,3.11986 -6.88,6.88v30.96c0,3.76014 3.11986,6.88 6.88,6.88h41.28c3.76014,0 6.88,-3.11986 6.88,-6.88v-30.96c0,-3.76014 -3.11986,-6.88 -6.88,-6.88h-3.44v-6.88c0,-9.45834 -7.74166,-17.2 -17.2,-17.2zM35.69,49.88l-2.12313,4.52844l-4.75687,0.72563l3.44,3.52734l-0.81297,4.9786l4.25297,-2.35156l4.25297,2.35156l-0.81297,-4.9786l3.44,-3.52734l-4.75687,-0.72563zM136.31,49.88l-2.12313,4.52844l-4.75687,0.72563l3.44,3.52734l-0.81297,4.9786l4.25297,-2.35156l4.25297,2.35156l-0.81297,-4.9786l3.44,-3.52734l-4.75687,-0.72563zM86,55.04c5.73958,0 10.32,4.58042 10.32,10.32v6.88h-20.64v-6.88c0,-5.73958 4.58042,-10.32 10.32,-10.32zM27.52,79.12l-2.12313,4.52844l-4.75687,0.72563l3.44,3.52734l-0.81297,4.9786l4.25297,-2.35156l4.25297,2.35156l-0.81297,-4.9786l3.44,-3.52734l-4.75687,-0.72563zM65.36,79.12h41.28v30.96h-41.28zM144.48,79.12l-2.12313,4.52844l-4.75687,0.72563l3.44,3.52734l-0.81297,4.9786l4.25297,-2.35156l4.25297,2.35156l-0.81297,-4.9786l3.44,-3.52734l-4.75687,-0.72563zM86,86c-1.89888,0 -3.44,1.54112 -3.44,3.44v10.32c0,1.89888 1.54112,3.44 3.44,3.44c1.89888,0 3.44,-1.54112 3.44,-3.44v-10.32c0,-1.89888 -1.54112,-3.44 -3.44,-3.44zM35.69,108.36l-2.12313,4.52844l-4.75687,0.72563l3.44,3.52734l-0.81297,4.9786l4.25297,-2.35156l4.25297,2.35156l-0.81297,-4.9786l3.44,-3.52734l-4.75687,-0.72563zM135.88,108.36l-2.12313,4.52844l-4.75687,0.72563l3.44,3.52734l-0.81297,4.9786l4.25297,-2.35156l4.25297,2.35156l-0.81297,-4.9786l3.44,-3.52734l-4.75687,-0.72563zM55.9,128.57l-2.12313,4.52844l-4.75687,0.72563l3.44,3.52734l-0.81297,4.9786l4.25297,-2.35156l4.25297,2.35156l-0.81297,-4.9786l3.44,-3.52734l-4.75687,-0.72563zM116.1,128.57l-2.12313,4.52844l-4.75687,0.72563l3.44,3.52734l-0.81297,4.9786l4.25297,-2.35156l4.25297,2.35156l-0.81297,-4.9786l3.44,-3.52734l-4.75687,-0.72563zM86,137.6l-2.12313,4.52844l-4.75687,0.72563l3.44,3.52734l-0.81297,4.9786l4.25297,-2.35156l4.25297,2.35156l-0.81297,-4.9786l3.44,-3.52734l-4.75687,-0.72563z"></path></g></g></svg>