<svg xmlns="http://www.w3.org/2000/svg" x="0px" y="0px"
width="50" height="50"
viewBox="0 0 172 172"
style=" fill:#000000;"><g fill="none" fill-rule="nonzero" stroke="none" stroke-width="1" stroke-linecap="butt" stroke-linejoin="miter" stroke-miterlimit="10" stroke-dasharray="" stroke-dashoffset="0" font-family="none" font-weight="none" font-size="none" text-anchor="none" style="mix-blend-mode: normal"><path d="M0,172v-172h172v172z" fill="none"></path><g fill="#3255ae"><path d="M27.52,13.76c-7.60562,0 -13.76,6.15438 -13.76,13.76v30.96h6.88v-30.96c0,-4.09844 2.78156,-6.88 6.88,-6.88h116.96c4.09844,0 6.88,2.78156 6.88,6.88v51.6h6.88v-51.6c0,-7.60562 -6.15437,-13.76 -13.76,-13.76zM30.315,27.52c-1.63937,0.30906 -2.82187,1.76031 -2.795,3.44v27.52h6.88v-24.08h103.2v44.72h6.88v-48.16c0,-1.89469 -1.54531,-3.44 -3.44,-3.44h-110.08c-0.1075,0 -0.215,0 -0.3225,0c-0.1075,0 -0.215,0 -0.3225,0zM6.88,61.92c-1.80062,0 -3.64156,0.63156 -4.945,1.935c-1.30344,1.30344 -1.935,3.14438 -1.935,4.945v82.56c0,1.80063 0.63156,3.64156 1.935,4.945c1.30344,1.30344 3.14438,1.935 4.945,1.935h65.36c1.80063,0 3.64156,-0.63156 4.945,-1.935c1.30344,-1.30344 1.935,-3.14437 1.935,-4.945v-82.56c0,-1.80062 -0.63156,-3.64156 -1.935,-4.945c-1.30344,-1.30344 -3.14437,-1.935 -4.945,-1.935zM6.88,68.8h65.36v82.56h-65.36zM13.115,72.24c-1.63937,0.30906 -2.82187,1.76031 -2.795,3.44v61.92c0,1.89469 1.54531,3.44 3.44,3.44h51.6c1.89469,0 3.44,-1.54531 3.44,-3.44v-61.92c0,-1.89469 -1.54531,-3.44 -3.44,-3.44h-51.6c-0.1075,0 -0.215,0 -0.3225,0c-0.1075,0 -0.215,0 -0.3225,0zM17.2,79.12h44.72v55.04h-44.72zM127.28,82.56c-1.80062,0 -3.64156,0.63156 -4.945,1.935c-1.30344,1.30344 -1.935,3.14438 -1.935,4.945v61.92c0,1.80063 0.63156,3.64156 1.935,4.945c1.30344,1.30344 3.14438,1.935 4.945,1.935h37.84c1.80063,0 3.64156,-0.63156 4.945,-1.935c1.30344,-1.30344 1.935,-3.14437 1.935,-4.945v-61.92c0,-1.80062 -0.63156,-3.64156 -1.935,-4.945c-1.30344,-1.30344 -3.14437,-1.935 -4.945,-1.935zM127.28,89.44h37.84v61.92h-37.84zM133.515,92.88c-1.63937,0.30906 -2.82187,1.76031 -2.795,3.44v41.28c0,1.89469 1.54531,3.44 3.44,3.44h24.08c1.89469,0 3.44,-1.54531 3.44,-3.44v-41.28c0,-1.89469 -1.54531,-3.44 -3.44,-3.44h-24.08c-0.1075,0 -0.215,0 -0.3225,0c-0.1075,0 -0.215,0 -0.3225,0zM137.6,99.76h17.2v34.4h-17.2zM82.56,110.08v6.88h34.4v-6.88zM99.76,120.4v17.2h17.2v-6.88h-10.32v-3.44h10.32v-6.88zM82.56,141.04v6.88h34.4v-6.88zM39.56,142.76c-1.89469,0 -3.44,1.54531 -3.44,3.44c0,1.89469 1.54531,3.44 3.44,3.44c1.89469,0 3.44,-1.54531 3.44,-3.44c0,-1.89469 -1.54531,-3.44 -3.44,-3.44zM146.2,142.76c-1.89469,0 -3.44,1.54531 -3.44,3.44c0,1.89469 1.54531,3.44 3.44,3.44c1.89469,0 3.44,-1.54531 3.44,-3.44c0,-1.89469 -1.54531,-3.44 -3.44,-3.44z"></path></g></g></svg>