
<svg xmlns="http://www.w3.org/2000/svg" x="0px" y="0px"
width="50" height="50"
viewBox="0 0 172 172"
style=" fill:#000000;"><g fill="none" fill-rule="nonzero" stroke="none" stroke-width="1" stroke-linecap="butt" stroke-linejoin="miter" stroke-miterlimit="10" stroke-dasharray="" stroke-dashoffset="0" font-family="none" font-weight="none" font-size="none" text-anchor="none" style="mix-blend-mode: normal"><path d="M0,172v-172h172v172z" fill="none"></path><g fill="#3255ae"><path d="M68.8,3.44c-22.76248,0 -41.28,18.51752 -41.28,41.28v17.2h-13.76c-5.68976,0 -10.32,4.63024 -10.32,10.32v82.56c0,5.68976 4.63024,10.32 10.32,10.32h71.25235c-1.44824,-1.12832 -2.81844,-2.26449 -4.11188,-3.39969c-0.06192,-0.05504 -0.12276,-0.10621 -0.18812,-0.16125c-1.27624,-1.12488 -2.46998,-2.23202 -3.5811,-3.31906h-63.37125c-1.89544,0 -3.44,-1.54112 -3.44,-3.44v-82.56c0,-1.89888 1.54456,-3.44 3.44,-3.44h110.08c1.89544,0 3.44,1.54112 3.44,3.44v31.55797c2.35984,0.36464 4.64744,0.91123 6.88,1.59235v-33.15031c0,-5.68976 -4.63024,-10.32 -10.32,-10.32h-13.76v-17.2c0,-22.76248 -18.51752,-41.28 -41.28,-41.28zM68.8,10.32c18.96816,0 34.4,15.43184 34.4,34.4v17.2h-68.8v-17.2c0,-18.96816 15.43184,-34.4 34.4,-34.4zM68.8,96.32c-5.848,0 -10.32,4.472 -10.32,10.32c0,3.096 1.376,5.84531 3.44,7.56531v9.63469c0,3.784 3.096,6.88 6.88,6.88c3.784,0 6.88,-3.096 6.88,-6.88v-9.63469c2.064,-1.72 3.44,-4.46931 3.44,-7.56531c0,-5.848 -4.472,-10.32 -10.32,-10.32zM120.34625,110.08c-26.144,0 -46.77997,27.86535 -47.46797,28.89735l-1.37735,2.06265l1.37735,2.06265c0.688,1.032 21.32397,28.89735 47.46797,28.89735c26.144,0 46.78669,-27.86535 47.47469,-28.89735l1.37735,-2.06265l-1.37735,-2.06265c-0.688,-1.032 -21.33069,-28.89735 -47.47469,-28.89735zM120.34625,116.96c18.92,0 35.43603,17.888 40.25203,24.08c-4.816,6.192 -21.33203,24.08 -40.25203,24.08c-18.92,0 -35.08531,-17.888 -40.24531,-24.08c4.816,-6.192 21.32531,-24.08 40.24531,-24.08zM120.34625,120.4c-11.352,0 -20.64,9.288 -20.64,20.64c0,11.352 9.288,20.64 20.64,20.64c11.352,0 20.64,-9.288 20.64,-20.64c0,-11.352 -9.288,-20.64 -20.64,-20.64zM120.34625,127.28c7.568,0 13.76,6.192 13.76,13.76c0,7.568 -6.192,13.76 -13.76,13.76c-7.568,0 -13.76,-6.192 -13.76,-13.76c0,-7.568 6.192,-13.76 13.76,-13.76zM120.34625,134.16c-3.784,0 -6.88,3.096 -6.88,6.88c0,3.784 3.096,6.88 6.88,6.88c3.784,0 6.88,-3.096 6.88,-6.88c0,-3.784 -3.096,-6.88 -6.88,-6.88z"></path></g></g></svg>