<svg xmlns="http://www.w3.org/2000/svg" x="0px" y="0px"
width="50" height="50"
viewBox="0 0 172 172"
style=" fill:#000000;"><g fill="none" fill-rule="nonzero" stroke="none" stroke-width="1" stroke-linecap="butt" stroke-linejoin="miter" stroke-miterlimit="10" stroke-dasharray="" stroke-dashoffset="0" font-family="none" font-weight="none" font-size="none" text-anchor="none" style="mix-blend-mode: normal"><path d="M0,172v-172h172v172z" fill="none"></path><g fill="#032f9c"><path d="M86.57781,17.22016c-1.32816,-0.03087 -2.66062,0.03114 -3.99094,0.19484c-3.5475,0.43654 -7.0651,1.57883 -10.34687,3.47359c-4.34085,2.50623 -7.33541,6.21721 -9.66828,10.28641l-0.3964,-0.22844l-48.16,82.56l0.39641,0.22844c-2.36703,4.06097 -4.09172,8.52173 -4.09172,13.545c0,15.15813 12.36186,27.52 27.52,27.52c10.13487,0 18.65259,-5.78165 23.42828,-13.975l0.3964,0.22844l24.33531,-41.71672l24.33531,41.71672c7.58274,13.11704 24.46196,17.6345 37.58469,10.05797c13.12713,-7.57907 17.65046,-24.46431 10.0714,-37.5914v-0.00672l-48.16,-82.55328c-4.97377,-8.61468 -13.9565,-13.52378 -23.25359,-13.73984zM86.45015,24.06656c6.96402,0.14833 13.66799,3.8319 17.42172,10.33344l0.00672,0.00672v0.00672l48.16,82.56c5.70901,9.90474 2.34403,22.46107 -7.5586,28.17844c-9.90715,5.71999 -22.47191,2.35523 -28.19187,-7.55187l-0.00672,-0.00672l-48.15328,-82.55328v-0.00672l-0.00672,-0.00672c-5.70901,-9.90474 -2.34403,-22.46107 7.5586,-28.17844c2.47679,-1.43 5.11959,-2.29312 7.78031,-2.62703c0.99777,-0.12522 1.99498,-0.17572 2.98984,-0.15453zM59.21235,49.67844c0.55067,3.00614 1.34439,6.00979 2.95625,8.80156v0.00672l19.84719,34.02375l-17.58969,30.15375c-2.27999,-12.88566 -13.06309,-22.90422 -26.5861,-22.90422c-3.14902,0 -6.06701,0.81937 -8.88891,1.80063zM37.84,106.64c11.43991,0 20.64,9.20009 20.64,20.64c0,11.43991 -9.20009,20.64 -20.64,20.64c-11.43991,0 -20.64,-9.20009 -20.64,-20.64c0,-11.43991 9.20009,-20.64 20.64,-20.64z"></path></g></g></svg>