<svg xmlns="http://www.w3.org/2000/svg" x="0px" y="0px"
width="50" height="50"
viewBox="0 0 172 172"
style=" fill:#000000;"><g fill="none" fill-rule="nonzero" stroke="none" stroke-width="1" stroke-linecap="butt" stroke-linejoin="miter" stroke-miterlimit="10" stroke-dasharray="" stroke-dashoffset="0" font-family="none" font-weight="none" font-size="none" text-anchor="none" style="mix-blend-mode: normal"><path d="M0,172v-172h172v172z" fill="none"></path><g fill="#032f9c"><path d="M37.84,6.88c-3.39086,0 -6.23317,1.71817 -8.2775,3.7625c-0.21075,0.2085 -0.39368,0.44336 -0.54422,0.69875l-6.94047,11.89219c-0.93739,1.22727 -1.43781,2.76104 -1.43781,4.28656v130.72c0,1.79644 0.65817,3.62786 1.95516,4.92485c1.29698,1.29698 3.1284,1.95515 4.92484,1.95515h44.72c1.24059,0.01754 2.39452,-0.63425 3.01993,-1.7058c0.62541,-1.07155 0.62541,-2.39684 0,-3.46839c-0.62541,-1.07155 -1.77935,-1.72335 -3.01993,-1.7058h-44.72v-130.72h82.56v61.92c-0.01754,1.24059 0.63425,2.39452 1.7058,3.01993c1.07155,0.62541 2.39684,0.62541 3.46839,0c1.07155,-0.62541 1.72335,-1.77935 1.7058,-3.01993v-61.92c0,-1.69403 -0.60602,-3.40421 -1.76031,-4.68297c-0.02778,-0.05225 -0.0569,-0.10378 -0.08734,-0.15453l-6.88,-11.69734c-0.06555,-0.11145 -0.13733,-0.21913 -0.215,-0.3225c-1.8576,-2.4768 -4.70402,-3.78266 -7.91469,-3.78266zM37.84,13.76h62.26265c0.90469,0 2.14585,0.73698 2.37844,1.02125l3.44672,5.85875h-74.36313l3.05031,-5.22719c1.2407,-1.21255 1.87803,-1.65281 3.225,-1.65281zM41.28,37.84c-1.79644,0 -3.62786,0.65817 -4.92485,1.95515c-1.29698,1.29699 -1.95515,3.1284 -1.95515,4.92485v13.76c0,1.19069 0.31423,2.38438 0.88687,3.44c-0.57264,1.05562 -0.88687,2.24931 -0.88687,3.44v13.76c0,1.79644 0.65817,3.62786 1.95515,4.92485c1.29699,1.29698 3.1284,1.95515 4.92485,1.95515h55.04c1.79644,0 3.62786,-0.65817 4.92485,-1.95515c1.29698,-1.29699 1.95515,-3.1284 1.95515,-4.92485v-13.76c0,-1.19069 -0.31423,-2.38438 -0.88687,-3.44c0.57264,-1.05562 0.88687,-2.24931 0.88687,-3.44v-13.76c0,-1.79644 -0.65817,-3.62786 -1.95515,-4.92485c-1.29699,-1.29698 -3.1284,-1.95515 -4.92485,-1.95515zM41.28,44.72h55.04v13.76h-55.04zM41.28,65.36h55.04v13.76h-55.04zM89.41985,96.32c-3.76014,0 -6.88,3.11986 -6.88,6.88v61.92h0.03359c0.02156,3.67247 3.0474,6.88 6.84641,6.88h66.22c4.14438,0 7.73574,-3.01118 8.46562,-7.08828l7.89453,-40.7425v-0.32922c0,-3.76014 -3.11986,-6.88 -6.88,-6.88h-0.02015v-6.88c0,-3.75598 -3.11979,-6.88 -6.88,-6.88h-45.6875c-0.28756,-0.34976 -0.738,-1.0114 -1.24969,-1.8275c-0.54184,-0.86418 -1.13037,-1.84378 -1.98875,-2.81515c-0.85837,-0.97138 -2.22943,-2.23735 -4.39406,-2.23735zM68.8,103.2c-3.79972,0 -6.88,3.08028 -6.88,6.88c0,3.79972 3.08028,6.88 6.88,6.88c3.79972,0 6.88,-3.08028 6.88,-6.88c0,-3.79972 -3.08028,-6.88 -6.88,-6.88zM89.41985,103.2h14.78125c0.28707,0.34022 0.74434,1.01081 1.2564,1.8275c0.5366,0.85582 1.11022,1.82894 1.94844,2.795c0.83822,0.96606 2.18045,2.2575 4.37391,2.2575h46.44v6.88h-60.2c-3.52388,0 -6.44785,2.74867 -6.8061,6.18797l-1.7939,8.53953zM98.01985,123.84h67.03297l-7.71313,39.83547l-0.00672,0.02688c-0.15059,0.84214 -0.83575,1.41765 -1.69312,1.41765h-66.22l8.6,-40.9239zM68.8,130.72c-3.79972,0 -6.88,3.08028 -6.88,6.88c0,3.79972 3.08028,6.88 6.88,6.88c3.79972,0 6.88,-3.08028 6.88,-6.88c0,-3.79972 -3.08028,-6.88 -6.88,-6.88z"></path></g></g></svg>