<svg xmlns="http://www.w3.org/2000/svg" x="0px" y="0px"
width="50" height="50"
viewBox="0 0 172 172"
style=" fill:#000000;"><g fill="none" fill-rule="nonzero" stroke="none" stroke-width="1" stroke-linecap="butt" stroke-linejoin="miter" stroke-miterlimit="10" stroke-dasharray="" stroke-dashoffset="0" font-family="none" font-weight="none" font-size="none" text-anchor="none" style="mix-blend-mode: normal"><path d="M0,172v-172h172v172z" fill="none"></path><g fill="#032f9c"><path d="M86,6.88c-43.62608,0 -79.12,35.49048 -79.12,79.12c0,43.62952 35.49392,79.12 79.12,79.12c12.83464,0 24.95392,-3.09401 35.68328,-8.53953c-0.602,-0.38872 -1.17353,-0.83758 -1.69985,-1.3639l-3.71547,-3.70875c-9.2192,4.27936 -19.44917,6.73219 -30.26797,6.73219c-39.8352,0 -72.24,-32.40824 -72.24,-72.24c0,-39.83176 32.4048,-72.24 72.24,-72.24c39.8352,0 72.24,32.40824 72.24,72.24c0,11.16624 -2.61795,21.70861 -7.16219,31.15485c2.40456,0.26144 4.71183,0.81834 6.92031,1.59234c4.56144,-9.98632 7.12187,-21.07183 7.12187,-32.74719c0,-43.62952 -35.49392,-79.12 -79.12,-79.12zM85.94625,24.03297c-1.89722,0.02966 -3.41223,1.58976 -3.38625,3.48703v48.76469c-2.75235,0.97772 -4.96149,3.07598 -6.07953,5.77438c-1.11804,2.69841 -1.04025,5.74421 0.21406,8.38203l-20.64672,20.64672c-0.89867,0.86281 -1.26068,2.14404 -0.94641,3.34956c0.31427,1.20552 1.2557,2.14696 2.46122,2.46122c1.20552,0.31427 2.48675,-0.04774 3.34956,-0.94641l20.64,-20.64c1.3889,0.66343 2.9086,1.00777 4.44781,1.00781c5.02507,-0.00143 9.31863,-3.62208 10.16843,-8.57478c0.84979,-4.9527 -1.99125,-9.79752 -6.72843,-11.47397v-48.75125c0.01273,-0.92983 -0.35149,-1.82522 -1.00967,-2.48214c-0.65819,-0.65692 -1.55427,-1.01942 -2.48408,-1.00489zM127.21281,103.1664c-0.89371,0.02663 -1.74194,0.40014 -2.365,1.04141l-23.07219,23.07219l23.07219,23.07219c0.86281,0.89867 2.14404,1.26068 3.34956,0.94641c1.20552,-0.31427 2.14696,-1.2557 2.46122,-2.46122c0.31427,-1.20552 -0.04774,-2.48675 -0.94641,-3.34956l-14.76781,-14.76781h32.69344c9.72111,0 17.48219,7.68419 17.48219,17.2c0,9.51581 -7.76107,17.2 -17.48219,17.2c-1.24059,-0.01754 -2.39452,0.63425 -3.01993,1.7058c-0.62541,1.07155 -0.62541,2.39684 0,3.46839c0.62541,1.07155 1.77935,1.72335 3.01993,1.7058c13.38881,0 24.36219,-10.79549 24.36219,-24.08c0,-13.28451 -10.97338,-24.08 -24.36219,-24.08h-32.69344l14.76781,-14.76781c1.01742,-0.98897 1.32333,-2.50111 0.77034,-3.80778c-0.55299,-1.30667 -1.85145,-2.13983 -3.26971,-2.098z"></path></g></g></svg>