<svg xmlns="http://www.w3.org/2000/svg" x="0px" y="0px"
width="50" height="50"
viewBox="0 0 172 172"
style=" fill:#000000;"><g fill="none" fill-rule="nonzero" stroke="none" stroke-width="1" stroke-linecap="butt" stroke-linejoin="miter" stroke-miterlimit="10" stroke-dasharray="" stroke-dashoffset="0" font-family="none" font-weight="none" font-size="none" text-anchor="none" style="mix-blend-mode: normal"><path d="M0,172v-172h172v172z" fill="none"></path><g fill="#3255ae"><path d="M72.24,10.32c-32.26344,0 -58.48,26.21656 -58.48,58.48c0,32.26344 26.21656,58.48 58.48,58.48c12.76563,0 24.56375,-4.11187 34.185,-11.0725l45.2575,45.15l9.675,-9.675l-44.72,-44.8275c8.78813,-10.23937 14.0825,-23.52906 14.0825,-38.055c0,-32.26344 -26.21656,-58.48 -58.48,-58.48zM72.24,17.2c24.32188,0 44.6125,16.74313 50.095,39.345c-12.72531,-9.15094 -30.27469,-18.275 -50.095,-18.275c-19.82031,0 -37.36969,9.23156 -50.095,18.3825c5.45563,-22.65562 25.74625,-39.4525 50.095,-39.4525zM72.24,44.29c7.78031,0 15.34563,1.57219 22.36,4.085c4.68969,5.28094 7.525,12.1475 7.525,19.78c0,16.56844 -13.31656,29.9925 -29.885,29.9925c-16.56844,0 -29.885,-13.42406 -29.885,-29.9925c0,-7.56531 2.71438,-14.41844 7.31,-19.6725c7.10844,-2.56656 14.68719,-4.1925 22.575,-4.1925zM39.775,52.7825c-2.23062,4.64938 -3.44,9.86313 -3.44,15.3725c0,19.79344 16.11156,35.905 35.905,35.905c19.79344,0 35.905,-16.11156 35.905,-35.905c0,-5.45562 -1.23625,-10.62906 -3.44,-15.265c6.96063,3.53406 13.2225,7.68625 18.3825,11.7175c0.20156,0.13438 0.41656,0.24188 0.645,0.3225c0.09406,1.29 0.1075,2.56656 0.1075,3.87c0,28.54125 -23.05875,51.6 -51.6,51.6c-28.54125,0 -51.6,-23.05875 -51.6,-51.6c0,-1.57219 0.08063,-3.09062 0.215,-4.6225c0.80625,0.01344 1.57219,-0.29562 2.15,-0.86c4.82406,-3.655 10.50813,-7.36375 16.77,-10.535zM72.24,53.2125c-8.26406,0 -14.9425,6.67844 -14.9425,14.9425c0,8.26406 6.67844,15.05 14.9425,15.05c8.26406,0 14.9425,-6.78594 14.9425,-15.05c0,-8.26406 -6.67844,-14.9425 -14.9425,-14.9425z"></path></g></g></svg>