<svg xmlns="http://www.w3.org/2000/svg" x="0px" y="0px"
width="50" height="50"
viewBox="0 0 172 172"
style=" fill:#000000;"><g fill="none" fill-rule="nonzero" stroke="none" stroke-width="1" stroke-linecap="butt" stroke-linejoin="miter" stroke-miterlimit="10" stroke-dasharray="" stroke-dashoffset="0" font-family="none" font-weight="none" font-size="none" text-anchor="none" style="mix-blend-mode: normal"><path d="M0,172v-172h172v172z" fill="none"></path><g fill="#032f9c"><path d="M69.1225,0c-1.54531,0.17469 -2.78156,1.37063 -3.01,2.9025l-3.3325,20.5325c-4.01781,1.16906 -7.88781,2.66063 -11.5025,4.6225l-16.8775,-12.04c-1.35719,-0.98094 -3.21156,-0.83312 -4.4075,0.3225l-13.4375,13.4375c-1.15562,1.19594 -1.30344,3.05031 -0.3225,4.4075l11.825,16.985c-2.00219,3.66844 -3.64156,7.51156 -4.8375,11.61l-20.3175,3.3325c-1.69312,0.26875 -2.92937,1.73344 -2.9025,3.44v18.92c0.02688,1.63938 1.19594,3.02344 2.795,3.3325l20.5325,3.655c1.19594,4.04469 2.74125,7.87438 4.73,11.5025l-12.04,16.8775c-0.98094,1.35719 -0.83312,3.21156 0.3225,4.4075l13.4375,13.4375c1.19594,1.15563 3.05031,1.30344 4.4075,0.3225l16.8775,-11.9325c3.655,2.00219 7.53844,3.53406 11.61,4.73l3.44,20.5325c0.26875,1.69313 1.73344,2.92938 3.44,2.9025h18.92c0.33594,-0.02687 0.65844,-0.09406 0.9675,-0.215v10.535c0,1.89469 1.54531,3.44 3.44,3.44h75.68c1.89469,0 3.44,-1.54531 3.44,-3.44v-55.04c0,-0.1075 0,-0.215 0,-0.3225v-3.655c0,-5.36156 -4.42094,-9.7825 -9.7825,-9.7825h-28.81c0.52406,-1.42437 1.06156,-2.91594 1.505,-4.3l20.425,-3.655c1.65281,-0.25531 2.87563,-1.66625 2.9025,-3.3325v-18.92c0.02688,-1.70656 -1.20937,-3.17125 -2.9025,-3.44l-20.64,-3.3325c-1.1825,-3.9775 -2.78156,-7.80719 -4.73,-11.395l12.04,-17.2c0.98094,-1.35719 0.83313,-3.21156 -0.3225,-4.4075l-13.4375,-13.4375c-1.19594,-1.15562 -3.05031,-1.30344 -4.4075,-0.3225l-16.8775,12.1475c-3.61469,-1.98875 -7.45781,-3.53406 -11.5025,-4.73l-3.655,-20.64c-0.30906,-1.59906 -1.69312,-2.76812 -3.3325,-2.795h-18.92c-0.14781,-0.01344 -0.28219,-0.01344 -0.43,0zM72.455,6.88h13.115l3.44,19.565c0.24188,1.29 1.19594,2.33813 2.4725,2.6875c5.02563,1.24969 9.76906,3.30563 14.0825,5.9125c1.16906,0.71219 2.64719,0.67188 3.7625,-0.1075l16.125,-11.61l9.245,9.245l-11.395,16.34c-0.81969,1.10188 -0.90031,2.58 -0.215,3.7625c2.58,4.3 4.55531,8.96281 5.805,13.975c0.3225,1.34375 1.42438,2.365 2.795,2.58l19.6725,3.225v13.115l-19.6725,3.44c-1.37062,0.215 -2.4725,1.23625 -2.795,2.58c-0.40312,1.63938 -1.72,5.28094 -2.795,8.17h-26.875c-0.06719,0 -0.14781,0 -0.215,0c5.42875,-5.22719 8.815,-12.55062 8.815,-20.64c0,-15.78906 -12.91344,-28.7025 -28.7025,-28.7025c-15.78906,0 -28.7025,12.91344 -28.7025,28.7025c0,15.78906 12.91344,28.7025 28.7025,28.7025c3.95063,0 7.75344,-0.80625 11.18,-2.2575c-0.55094,1.22281 -0.86,2.55313 -0.86,3.9775v3.3325c-0.01344,0.14781 -0.01344,0.28219 0,0.43v19.0275l-3.87,19.0275h-13.115l-3.225,-19.4575c-0.215,-1.37062 -1.23625,-2.4725 -2.58,-2.795c-5.03906,-1.23625 -9.84969,-3.19812 -14.19,-5.805c-1.16906,-0.71219 -2.64719,-0.67187 -3.7625,0.1075l-16.125,11.2875l-9.245,-9.245l11.395,-16.0175c0.77938,-1.11531 0.81969,-2.59344 0.1075,-3.7625c-2.63375,-4.35375 -4.55531,-9.03 -5.805,-14.0825c-0.3225,-1.34375 -1.42437,-2.365 -2.795,-2.58l-19.35,-3.44v-13.115l19.35,-3.225c1.37063,-0.215 2.4725,-1.23625 2.795,-2.58c1.26313,-5.07937 3.29219,-9.83625 5.9125,-14.19c0.71219,-1.16906 0.67188,-2.64719 -0.1075,-3.7625l-11.395,-16.125l9.3525,-9.245l16.0175,11.395c1.10188,0.81969 2.58,0.90031 3.7625,0.215c4.31344,-2.59344 9.04344,-4.56875 14.0825,-5.805c1.34375,-0.3225 2.365,-1.42437 2.58,-2.795zM79.12,57.2975c12.06688,0 21.8225,9.75563 21.8225,21.8225c0,12.06688 -9.75562,21.8225 -21.8225,21.8225c-12.06687,0 -21.8225,-9.75562 -21.8225,-21.8225c0,-12.06687 9.75563,-21.8225 21.8225,-21.8225zM99.2225,106.64h28.2725c0.65844,0.20156 1.38406,0.20156 2.0425,0h32.68c1.65281,0 2.9025,1.24969 2.9025,2.9025v0.5375h-68.8v-0.5375c0,-1.65281 1.24969,-2.9025 2.9025,-2.9025zM96.32,116.96h68.8v48.16h-68.8v-32.3575c0.14781,-0.56437 0.14781,-1.15562 0,-1.72zM127.28,119.0025l-2.4725,2.365l-11.5025,11.5025l-4.4075,-3.7625l-2.58,-2.2575l-4.515,5.2675l2.58,2.15l6.88,5.9125l2.4725,2.15l16.0175,-16.0175l2.365,-2.4725zM127.28,136.2025l-2.4725,2.365l-11.5025,11.5025l-4.4075,-3.7625l-2.58,-2.2575l-4.515,5.2675l2.58,2.15l6.88,5.9125l2.4725,2.15l16.0175,-16.0175l2.365,-2.4725z"></path></g></g></svg>