<svg xmlns="http://www.w3.org/2000/svg" x="0px" y="0px"
width="50" height="50"
viewBox="0 0 172 172"
style=" fill:#000000;"><g fill="none" fill-rule="nonzero" stroke="none" stroke-width="1" stroke-linecap="butt" stroke-linejoin="miter" stroke-miterlimit="10" stroke-dasharray="" stroke-dashoffset="0" font-family="none" font-weight="none" font-size="none" text-anchor="none" style="mix-blend-mode: normal"><path d="M0,172v-172h172v172z" fill="none"></path><g id="original-icon" fill="#3255ae" opacity="0" visibility="hidden"><path d="M51.6,10.32c-5.65719,0 -10.32,4.66281 -10.32,10.32v9.74219c-0.06719,0.37625 -0.06719,0.7525 0,1.11531v105.52469c-0.06719,0.37625 -0.06719,0.7525 0,1.11531v13.2225c0,5.65719 4.66281,10.32 10.32,10.32h68.8c5.65719,0 10.32,-4.66281 10.32,-10.32v-13.18219c0.06719,-0.37625 0.06719,-0.7525 0,-1.11531v-105.52469c0.06719,-0.37625 0.06719,-0.7525 0,-1.11531v-9.7825c0,-5.65719 -4.66281,-10.32 -10.32,-10.32zM51.6,17.2h68.8c1.90813,0 3.44,1.53188 3.44,3.44v6.88h-75.68v-6.88c0,-1.90812 1.53188,-3.44 3.44,-3.44zM48.16,34.4h75.68v99.76h-75.68zM81.67313,42.57c-0.76594,0 -1.26313,0.48375 -1.26313,1.19594v8.78813c0,0.71219 0.49719,1.19594 1.26313,1.19594h8.64031c0.76594,0 1.27656,-0.48375 1.27656,-1.19594v-8.78813c0,-0.71219 -0.51062,-1.19594 -1.27656,-1.19594zM81.74031,66.65c-0.79281,0 -1.33031,0.49719 -1.33031,1.23625v56.8675c0,0.73906 0.5375,1.23625 1.33031,1.23625h8.51937c0.79281,0 1.33031,-0.49719 1.33031,-1.23625v-56.8675c0,-0.73906 -0.52406,-1.23625 -1.33031,-1.23625zM48.16,141.04h75.68v10.32c0,1.90813 -1.53187,3.44 -3.44,3.44h-68.8c-1.90812,0 -3.44,-1.53187 -3.44,-3.44zM75.68,144.48c-1.23625,-0.01344 -2.39187,0.63156 -3.02344,1.70656c-0.61813,1.075 -0.61813,2.39187 0,3.46687c0.63156,1.075 1.78719,1.72 3.02344,1.70656h20.64c1.23625,0.01344 2.39188,-0.63156 3.02344,-1.70656c0.61813,-1.075 0.61813,-2.39187 0,-3.46687c-0.63156,-1.075 -1.78719,-1.72 -3.02344,-1.70656z"></path></g><g id="subtracted-icon" fill="#3255ae"><path d="M120.4,10.32c5.65719,0 10.32,4.66281 10.32,10.32v9.7825c0.06719,0.36281 0.06719,0.73906 0,1.11531v57.90219h-6.88v-55.04h-75.68v99.76l41.28,0l0,6.88h-41.28v10.32c0,1.90813 1.53188,3.44 3.44,3.44h42.85257l-1.22857,1.72l4.128,4.128l1.06759,1.032h-46.81959c-5.65719,0 -10.32,-4.66281 -10.32,-10.32v-13.2225c-0.06719,-0.36281 -0.06719,-0.73906 0,-1.11531v-105.52469c-0.06719,-0.36281 -0.06719,-0.73906 0,-1.11531v-9.74219c0,-5.65719 4.66281,-10.32 10.32,-10.32zM48.16,20.64v6.88h75.68v-6.88c0,-1.90812 -1.53187,-3.44 -3.44,-3.44h-68.8c-1.90812,0 -3.44,1.53188 -3.44,3.44zM90.31344,42.57c0.76594,0 1.27656,0.48375 1.27656,1.19594v8.78813c0,0.71219 -0.51062,1.19594 -1.27656,1.19594h-8.64031c-0.76594,0 -1.26313,-0.48375 -1.26313,-1.19594v-8.78813c0,-0.71219 0.49719,-1.19594 1.26313,-1.19594zM90.25969,66.65c0.80625,0 1.33031,0.49719 1.33031,1.23625v52.47834l-2.15,0.37941l0,5.246h-7.69969c-0.79281,0 -1.33031,-0.49719 -1.33031,-1.23625v-56.8675c0,-0.73906 0.5375,-1.23625 1.33031,-1.23625zM96.32,151.36h-20.64c-1.23625,0.01344 -2.39187,-0.63156 -3.02344,-1.70656c-0.61813,-1.075 -0.61813,-2.39187 0,-3.46687c0.63156,-1.075 1.78719,-1.72 3.02344,-1.70656h13.76v2.408l5.848,1.032l3.44,0.344l-1.83264,3.0544c-0.18864,0.02955 -0.381,0.04371 -0.57536,0.0416z"></path></g><g><g fill="#3255ae"><g id="Слой_2" font-family="-apple-system, BlinkMacSystemFont, &quot;San Francisco&quot;, HelveticaNeue-Light, &quot;Helvetica Neue Light&quot;, &quot;Helvetica Neue&quot;, &quot;Segoe UI&quot;, &quot;Fira Sans&quot;, Roboto, Oxygen, Ubuntu, &quot;Droid Sans&quot;, Arial, sans-serif" font-weight="400" font-size="16" text-anchor="start" visibility="hidden"></g><g id="Android_x5F_4" font-family="-apple-system, BlinkMacSystemFont, &quot;San Francisco&quot;, HelveticaNeue-Light, &quot;Helvetica Neue Light&quot;, &quot;Helvetica Neue&quot;, &quot;Segoe UI&quot;, &quot;Fira Sans&quot;, Roboto, Oxygen, Ubuntu, &quot;Droid Sans&quot;, Arial, sans-serif" font-weight="400" font-size="16" text-anchor="start" visibility="hidden"></g><g id="Android_x5F_5" font-family="-apple-system, BlinkMacSystemFont, &quot;San Francisco&quot;, HelveticaNeue-Light, &quot;Helvetica Neue Light&quot;, &quot;Helvetica Neue&quot;, &quot;Segoe UI&quot;, &quot;Fira Sans&quot;, Roboto, Oxygen, Ubuntu, &quot;Droid Sans&quot;, Arial, sans-serif" font-weight="400" font-size="16" text-anchor="start" visibility="hidden"></g><g id="Windows_x5F_8" font-family="-apple-system, BlinkMacSystemFont, &quot;San Francisco&quot;, HelveticaNeue-Light, &quot;Helvetica Neue Light&quot;, &quot;Helvetica Neue&quot;, &quot;Segoe UI&quot;, &quot;Fira Sans&quot;, Roboto, Oxygen, Ubuntu, &quot;Droid Sans&quot;, Arial, sans-serif" font-weight="400" font-size="16" text-anchor="start" visibility="hidden"></g><g id="Windows_x5F_10" font-family="-apple-system, BlinkMacSystemFont, &quot;San Francisco&quot;, HelveticaNeue-Light, &quot;Helvetica Neue Light&quot;, &quot;Helvetica Neue&quot;, &quot;Segoe UI&quot;, &quot;Fira Sans&quot;, Roboto, Oxygen, Ubuntu, &quot;Droid Sans&quot;, Arial, sans-serif" font-weight="400" font-size="16" text-anchor="start" visibility="hidden"></g><g id="Color" font-family="-apple-system, BlinkMacSystemFont, &quot;San Francisco&quot;, HelveticaNeue-Light, &quot;Helvetica Neue Light&quot;, &quot;Helvetica Neue&quot;, &quot;Segoe UI&quot;, &quot;Fira Sans&quot;, Roboto, Oxygen, Ubuntu, &quot;Droid Sans&quot;, Arial, sans-serif" font-weight="400" font-size="16" text-anchor="start" visibility="hidden"></g><g id="IOS" font-family="-apple-system, BlinkMacSystemFont, &quot;San Francisco&quot;, HelveticaNeue-Light, &quot;Helvetica Neue Light&quot;, &quot;Helvetica Neue&quot;, &quot;Segoe UI&quot;, &quot;Fira Sans&quot;, Roboto, Oxygen, Ubuntu, &quot;Droid Sans&quot;, Arial, sans-serif" font-weight="400" font-size="16" text-anchor="start" visibility="hidden"></g><g id="IOS_copy"><path d="M141.384,172h-14.104l-1.72,-11.008c-1.376,-0.344 -2.408,-0.688 -3.784,-1.376l-9.288,6.192l-10.32,-10.32l6.192,-9.288c-0.688,-1.032 -1.032,-2.408 -1.376,-3.44l-10.664,-1.72v-14.448l10.664,-1.72c0.344,-1.376 1.032,-2.408 1.376,-3.784l-6.192,-8.6l10.32,-10.32l9.288,6.536c1.032,-0.688 2.408,-1.032 3.44,-1.376l2.064,-11.008h14.448l1.72,11.008c1.032,0.344 2.408,0.688 3.44,1.376l8.944,-6.536l9.976,9.976l-6.192,9.288c0.688,1.032 1.032,2.408 1.376,3.44l11.008,1.72v14.448l-10.664,2.064c-0.344,1.032 -0.688,2.408 -1.376,3.784l6.536,8.944l-10.32,10.32l-9.288,-6.192c-1.376,0.688 -2.408,1.032 -3.44,1.376zM132.784,165.12h2.752l1.72,-9.632l2.064,-0.688c2.064,-0.688 4.128,-1.376 6.192,-2.408l1.72,-1.032l7.912,5.504l2.064,-2.064l-5.848,-7.912l1.376,-2.064c1.032,-1.72 1.72,-3.784 2.408,-5.848l0.688,-2.064l9.288,-2.064v-2.752l-9.632,-1.376l-0.688,-2.064c-0.688,-2.064 -1.376,-4.128 -2.408,-6.192l-1.032,-1.72l5.504,-7.912l-1.72,-1.72l-7.912,5.848l-2.064,-1.376c-1.72,-1.032 -3.784,-1.72 -5.848,-2.408l-2.064,-0.688l-1.376,-9.288h-2.752l-1.72,9.632l-2.064,0.344c-2.064,0.688 -4.128,1.72 -6.536,2.752l-1.72,0.688l-7.912,-5.504l-2.064,2.064l5.504,7.912l-1.376,1.72c-1.032,1.72 -1.72,3.784 -2.064,5.504l-0.344,2.408l-9.632,1.72v2.752l9.288,1.72l0.688,2.064c0.688,1.72 1.376,4.128 2.408,6.192l1.032,1.72l-5.504,7.912l2.064,2.064l8.256,-5.504l2.064,1.376c1.72,1.032 3.784,1.72 5.848,2.408l2.064,0.688zM134.16,147.576c-7.568,0 -13.76,-6.192 -13.76,-13.76c0,-7.568 6.192,-13.76 13.76,-13.76c7.568,0 13.76,6.192 13.76,13.76c0,7.912 -6.192,13.76 -13.76,13.76zM134.16,127.28c-3.784,0 -6.88,3.096 -6.88,6.88c0,3.784 3.096,6.88 6.88,6.88c3.784,0 6.88,-3.096 6.88,-6.88c0,-4.128 -3.096,-6.88 -6.88,-6.88z"></path></g></g><g fill="#000000" opacity="0"><g id="IOS" font-family="-apple-system, BlinkMacSystemFont, &quot;San Francisco&quot;, HelveticaNeue-Light, &quot;Helvetica Neue Light&quot;, &quot;Helvetica Neue&quot;, &quot;Segoe UI&quot;, &quot;Fira Sans&quot;, Roboto, Oxygen, Ubuntu, &quot;Droid Sans&quot;, Arial, sans-serif" font-weight="400" font-size="16" text-anchor="start" visibility="hidden"></g><g id="IOS_copy"><path d="M178.88,146.544v-5.504v-14.448v-5.848l-5.848,-1.032l-3.784,-0.688l2.064,-3.096l3.44,-4.816l-4.128,-4.128l-9.976,-9.632l-4.128,-4.472l-4.816,3.784l-2.752,2.064l-0.688,-3.44l-1.032,-5.848h-5.848h-14.104h-5.848l-1.032,5.848l-0.688,3.44l-3.096,-2.064l-4.816,-3.44l-4.128,4.128l-10.32,10.32l-4.128,3.784l3.44,4.816l2.064,3.096l-3.44,0.344l-5.848,1.032v5.848v14.448v5.848l5.848,1.032l3.44,0.344l-2.064,3.44l-3.44,4.816l4.128,4.128l10.32,9.976l3.784,4.128l4.816,-3.096l3.44,-2.408l0.688,3.784l1.032,5.848h5.848h14.104h5.848l1.032,-5.848l0.688,-3.784l3.44,2.408l4.816,3.096l3.784,-4.128l10.32,-10.32l4.472,-4.128l-3.784,-4.816l-2.064,-3.096l3.44,-0.688z"></path></g></g></g></g></svg>