<svg xmlns="http://www.w3.org/2000/svg" x="0px" y="0px"
width="50" height="50"
viewBox="0 0 172 172"
style=" fill:#000000;"><g fill="none" fill-rule="nonzero" stroke="none" stroke-width="1" stroke-linecap="butt" stroke-linejoin="miter" stroke-miterlimit="10" stroke-dasharray="" stroke-dashoffset="0" font-family="none" font-weight="none" font-size="none" text-anchor="none" style="mix-blend-mode: normal"><path d="M0,172v-172h172v172z" fill="none"></path><g fill="#032f9c"><path d="M35.81094,13.76l-19.10812,34.4l19.10812,34.4h41.925l18.46313,-34.4l-18.46313,-34.4zM39.86906,20.64h33.755l14.75437,27.52l-14.75437,27.52h-33.755l-15.29188,-27.52zM101.13063,51.6l-18.31531,34.4l3.31906,6.24844l6.235,-2.92937l-1.76031,-3.31906l14.66031,-27.52h33.74156l15.29188,27.52l-15.29188,27.52h-33.74156l-1.57219,-2.92937l-5.4825,4.32687l2.91594,5.4825h41.93844l19.10812,-34.4l-19.10812,-34.4zM108.45406,78.30031l4.52844,7.65937l-73.32844,34.84344l12.13406,6.07375v14.16312l65.69594,-47.44781l4.63594,7.88781l6.88,-20.64zM35.81094,89.44l-19.10812,34.4l19.10812,34.4h41.89813l19.10812,-34.4l-3.02344,-5.42875l-5.46906,4.32688l0.61813,1.10187l-15.29188,27.52h-33.78187l-15.29188,-27.52l15.29188,-27.52h33.78187l0.79281,1.43781l6.235,-2.94281l-2.96969,-5.375z"></path></g></g></svg>