<svg xmlns="http://www.w3.org/2000/svg" x="0px" y="0px"
width="50" height="50"
viewBox="0 0 172 172"
style=" fill:#000000;"><g fill="none" fill-rule="nonzero" stroke="none" stroke-width="1" stroke-linecap="butt" stroke-linejoin="miter" stroke-miterlimit="10" stroke-dasharray="" stroke-dashoffset="0" font-family="none" font-weight="none" font-size="none" text-anchor="none" style="mix-blend-mode: normal"><path d="M0,172v-172h172v172z" fill="none"></path><g fill="#032f9c"><path d="M106.64,0c-25.8,0 -47.81062,14.76781 -58.48,36.4425c2.75469,-0.68531 5.84531,-1.37062 8.6,-1.72c10.32,-16.51469 28.89063,-27.8425 49.88,-27.8425c32.33063,0 58.48,26.14938 58.48,58.48c0,20.98938 -11.31437,39.56 -28.165,49.88c-0.34937,3.09063 -1.03469,5.84531 -1.72,8.6c22.01063,-10.66937 36.765,-32.68 36.765,-58.48c0,-36.12 -29.24,-65.36 -65.36,-65.36zM105.995,34.4c-1.89469,0.17469 -3.29219,1.86781 -3.1175,3.7625c0.17469,1.89469 1.86781,3.29219 3.7625,3.1175h19.2425l-57.0825,56.975v-19.135c0.02688,-1.06156 -0.44344,-2.06937 -1.26312,-2.74125c-0.80625,-0.67187 -1.89469,-0.92719 -2.92938,-0.69875c-1.59906,0.36281 -2.72781,1.80063 -2.6875,3.44v30.96h30.96c1.23625,0.01344 2.39188,-0.63156 3.02344,-1.70656c0.61813,-1.075 0.61813,-2.39187 0,-3.46687c-0.63156,-1.075 -1.78719,-1.72 -3.02344,-1.70656h-19.135l56.975,-57.0825v19.2425c-0.01344,1.23625 0.63156,2.39188 1.70656,3.02344c1.075,0.61813 2.39187,0.61813 3.46687,0c1.075,-0.63156 1.72,-1.78719 1.70656,-3.02344v-30.96h-30.96c-0.1075,0 -0.215,0 -0.3225,0c-0.1075,0 -0.215,0 -0.3225,0zM62.4575,41.3875c-15.70844,0.65844 -31.13469,7.05469 -43.215,19.135c-25.39688,25.39688 -25.37,66.82469 0,92.5575c25.39688,25.39688 66.82469,25.37 92.5575,0c22.10469,-22.10469 25.10125,-55.56406 9.1375,-80.9475c-0.60469,-1.14219 -1.80062,-1.85437 -3.09062,-1.84094c-1.29,0.01344 -2.45906,0.7525 -3.03688,1.92156c-0.57781,1.15562 -0.44344,2.53969 0.3225,3.57437c14.31094,22.77656 11.70406,52.58094 -8.17,72.455c-23.1125,22.79 -60.11937,22.76313 -82.8825,0c-22.79,-23.1125 -22.76312,-60.11937 0,-82.8825c19.87406,-19.87406 49.67844,-22.37344 72.455,-8.0625c1.03469,0.76594 2.41875,0.90031 3.57438,0.3225c1.16906,-0.57781 1.90812,-1.74687 1.92156,-3.03687c0.01344,-1.29 -0.69875,-2.48594 -1.84094,-3.09063c-9.52719,-5.97969 -20.18312,-9.33906 -30.96,-9.9975c-2.24406,-0.13437 -4.52844,-0.20156 -6.7725,-0.1075z"></path></g></g></svg>