<svg xmlns="http://www.w3.org/2000/svg" x="0px" y="0px"
width="50" height="50"
viewBox="0 0 172 172"
style=" fill:#000000;"><g fill="none" fill-rule="nonzero" stroke="none" stroke-width="1" stroke-linecap="butt" stroke-linejoin="miter" stroke-miterlimit="10" stroke-dasharray="" stroke-dashoffset="0" font-family="none" font-weight="none" font-size="none" text-anchor="none" style="mix-blend-mode: normal"><path d="M0,172v-172h172v172z" fill="none"></path><g id="original-icon" fill="#032f9c" opacity="0" visibility="hidden"><path d="M51.6,6.88c-9.45834,0 -17.2,7.74166 -17.2,17.2v123.84c0,9.45834 7.74166,17.2 17.2,17.2h68.8c9.45834,0 17.2,-7.74166 17.2,-17.2v-123.84c0,-9.45834 -7.74166,-17.2 -17.2,-17.2zM59.22578,13.76h53.54844c-0.81382,1.40094 -1.42005,2.9441 -1.69985,4.61578l-1.0414,6.26859c0,0.00224 0,0.00448 0,0.00672c-0.27873,1.67936 -1.68651,2.86891 -3.39297,2.86891h-41.28c-1.70646,0 -3.11208,-1.19377 -3.39297,-2.87562l-1.04813,-6.26187v-0.00672c-0.27903,-1.67238 -0.87996,-3.2154 -1.69312,-4.61578zM49.28875,14.03547c0.04446,0.0166 0.08926,0.03228 0.13438,0.04703c2.40537,0.76514 4.27367,2.80713 4.70984,5.42875l1.04813,6.26859c0.82679,4.95047 5.15673,8.62016 10.1789,8.62016h41.28c5.02012,0 9.35429,-3.67028 10.1789,-8.62016v-0.00672l1.04141,-6.26187c0.44864,-2.6805 2.39953,-4.74958 4.87781,-5.46906c4.59144,1.05086 7.98187,5.10725 7.98187,10.03781v123.84c0,5.73958 -4.58042,10.32 -10.32,10.32h-68.8c-5.73958,0 -10.32,-4.58042 -10.32,-10.32v-123.84c0,-4.94033 3.40341,-9.0036 8.00875,-10.04453zM75.68,17.2c-1.24059,-0.01754 -2.39452,0.63425 -3.01993,1.7058c-0.62541,1.07155 -0.62541,2.39684 0,3.46839c0.62541,1.07155 1.77935,1.72335 3.01993,1.7058h10.32c1.24059,0.01754 2.39452,-0.63425 3.01993,-1.7058c0.62541,-1.07155 0.62541,-2.39684 0,-3.46839c-0.62541,-1.07155 -1.77935,-1.72335 -3.01993,-1.7058zM96.32,17.2c-1.89986,0 -3.44,1.54014 -3.44,3.44c0,1.89986 1.54014,3.44 3.44,3.44c1.89986,0 3.44,-1.54014 3.44,-3.44c0,-1.89986 -1.54014,-3.44 -3.44,-3.44z"></path></g><g id="subtracted-icon" fill="#032f9c"><path d="M120.4,6.88c9.45834,0 17.2,7.74166 17.2,17.2v72.24c-2.34257,0 -4.64119,0.19776 -6.88,0.5774v-72.8174c0,-4.93056 -3.39043,-8.98695 -7.98187,-10.03781c-2.47828,0.71948 -4.42917,2.78856 -4.87781,5.46906l-1.04141,6.26188v0.00672c-0.82461,4.94988 -5.15879,8.62016 -10.1789,8.62016h-41.28c-5.02218,0 -9.35211,-3.66969 -10.1789,-8.62016l-1.04813,-6.26859c-0.43617,-2.62162 -2.30447,-4.66361 -4.70984,-5.42875c-0.04511,-0.01475 -0.08991,-0.03043 -0.13438,-0.04703c-4.60534,1.04093 -8.00875,5.1042 -8.00875,10.04453v123.84c0,5.73958 4.58042,10.32 10.32,10.32h50.28751c1.4339,2.46475 3.11553,4.76967 5.01013,6.88h-55.29764c-9.45834,0 -17.2,-7.74166 -17.2,-17.2v-123.84c0,-9.45834 7.74166,-17.2 17.2,-17.2zM60.9189,18.37578v0.00672l1.04813,6.26188c0.28089,1.68185 1.68651,2.87562 3.39297,2.87562h41.28c1.70646,0 3.11424,-1.18954 3.39297,-2.86891c0,-0.00224 0,-0.00448 0,-0.00672l1.0414,-6.26859c0.2798,-1.67169 0.88602,-3.21484 1.69985,-4.61578h-53.54844c0.81316,1.40039 1.4141,2.9434 1.69312,4.61578zM86,17.2c1.24059,-0.01754 2.39452,0.63425 3.01993,1.7058c0.62541,1.07155 0.62541,2.39684 0,3.46839c-0.62541,1.07155 -1.77935,1.72335 -3.01993,1.7058h-10.32c-1.24059,0.01754 -2.39452,-0.63425 -3.01993,-1.7058c-0.62541,-1.07155 -0.62541,-2.39684 0,-3.46839c0.62541,-1.07155 1.77935,-1.72335 3.01993,-1.7058zM99.76,20.64c0,1.89986 -1.54014,3.44 -3.44,3.44c-1.89986,0 -3.44,-1.54014 -3.44,-3.44c0,-1.89986 1.54014,-3.44 3.44,-3.44c1.89986,0 3.44,1.54014 3.44,3.44z"></path></g><g><g fill="#032f9c"><g id="Слой_2" font-family="-apple-system, BlinkMacSystemFont, &quot;San Francisco&quot;, HelveticaNeue-Light, &quot;Helvetica Neue Light&quot;, &quot;Helvetica Neue&quot;, &quot;Segoe UI&quot;, &quot;Fira Sans&quot;, Roboto, Oxygen, Ubuntu, &quot;Droid Sans&quot;, Arial, sans-serif" font-weight="400" font-size="16" text-anchor="start" visibility="hidden"></g><g id="Android_x5F_4" font-family="-apple-system, BlinkMacSystemFont, &quot;San Francisco&quot;, HelveticaNeue-Light, &quot;Helvetica Neue Light&quot;, &quot;Helvetica Neue&quot;, &quot;Segoe UI&quot;, &quot;Fira Sans&quot;, Roboto, Oxygen, Ubuntu, &quot;Droid Sans&quot;, Arial, sans-serif" font-weight="400" font-size="16" text-anchor="start" visibility="hidden"></g><g id="Android_x5F_5" font-family="-apple-system, BlinkMacSystemFont, &quot;San Francisco&quot;, HelveticaNeue-Light, &quot;Helvetica Neue Light&quot;, &quot;Helvetica Neue&quot;, &quot;Segoe UI&quot;, &quot;Fira Sans&quot;, Roboto, Oxygen, Ubuntu, &quot;Droid Sans&quot;, Arial, sans-serif" font-weight="400" font-size="16" text-anchor="start" visibility="hidden"></g><g id="Windows_x5F_8" font-family="-apple-system, BlinkMacSystemFont, &quot;San Francisco&quot;, HelveticaNeue-Light, &quot;Helvetica Neue Light&quot;, &quot;Helvetica Neue&quot;, &quot;Segoe UI&quot;, &quot;Fira Sans&quot;, Roboto, Oxygen, Ubuntu, &quot;Droid Sans&quot;, Arial, sans-serif" font-weight="400" font-size="16" text-anchor="start" visibility="hidden"></g><g id="Windows_x5F_10" font-family="-apple-system, BlinkMacSystemFont, &quot;San Francisco&quot;, HelveticaNeue-Light, &quot;Helvetica Neue Light&quot;, &quot;Helvetica Neue&quot;, &quot;Segoe UI&quot;, &quot;Fira Sans&quot;, Roboto, Oxygen, Ubuntu, &quot;Droid Sans&quot;, Arial, sans-serif" font-weight="400" font-size="16" text-anchor="start" visibility="hidden"></g><g id="Color" font-family="-apple-system, BlinkMacSystemFont, &quot;San Francisco&quot;, HelveticaNeue-Light, &quot;Helvetica Neue Light&quot;, &quot;Helvetica Neue&quot;, &quot;Segoe UI&quot;, &quot;Fira Sans&quot;, Roboto, Oxygen, Ubuntu, &quot;Droid Sans&quot;, Arial, sans-serif" font-weight="400" font-size="16" text-anchor="start" visibility="hidden"></g><g id="IOS" font-family="-apple-system, BlinkMacSystemFont, &quot;San Francisco&quot;, HelveticaNeue-Light, &quot;Helvetica Neue Light&quot;, &quot;Helvetica Neue&quot;, &quot;Segoe UI&quot;, &quot;Fira Sans&quot;, Roboto, Oxygen, Ubuntu, &quot;Droid Sans&quot;, Arial, sans-serif" font-weight="400" font-size="16" text-anchor="start" visibility="hidden"></g><g id="IOS_copy"><path d="M137.6,172c-18.92,0 -34.4,-15.48 -34.4,-34.4c0,-18.92 15.48,-34.4 34.4,-34.4c18.92,0 34.4,15.48 34.4,34.4c0,18.92 -15.48,34.4 -34.4,34.4zM137.6,110.08c-15.136,0 -27.52,12.384 -27.52,27.52c0,15.136 12.384,27.52 27.52,27.52c15.136,0 27.52,-12.384 27.52,-27.52c0,-15.136 -12.384,-27.52 -27.52,-27.52zM157.552,126.248l-5.16,-4.472l-18.576,21.672l-11.352,-8.6l-4.128,5.504l16.168,12.384z"></path></g></g><g fill="#000000" opacity="0"><g id="IOS" font-family="-apple-system, BlinkMacSystemFont, &quot;San Francisco&quot;, HelveticaNeue-Light, &quot;Helvetica Neue Light&quot;, &quot;Helvetica Neue&quot;, &quot;Segoe UI&quot;, &quot;Fira Sans&quot;, Roboto, Oxygen, Ubuntu, &quot;Droid Sans&quot;, Arial, sans-serif" font-weight="400" font-size="16" text-anchor="start" visibility="hidden"></g><g id="IOS_copy"><path d="M137.6,178.88c22.704,0 41.28,-18.576 41.28,-41.28c0,-22.704 -18.576,-41.28 -41.28,-41.28c-22.704,0 -41.28,18.576 -41.28,41.28c0,22.704 18.576,41.28 41.28,41.28z"></path></g></g></g></g></svg>