<svg xmlns="http://www.w3.org/2000/svg" x="0px" y="0px"
width="50" height="50"
viewBox="0 0 172 172"
style=" fill:#000000;"><g fill="none" fill-rule="nonzero" stroke="none" stroke-width="1" stroke-linecap="butt" stroke-linejoin="miter" stroke-miterlimit="10" stroke-dasharray="" stroke-dashoffset="0" font-family="none" font-weight="none" font-size="none" text-anchor="none" style="mix-blend-mode: normal"><path d="M0,172v-172h172v172z" fill="none"></path><g fill="#032f9c"><path d="M24.08,27.52c-9.44656,0 -17.2,7.75344 -17.2,17.2v82.56c0,9.44656 7.75344,17.2 17.2,17.2h14.05563c0.47031,4.12531 0.41656,7.96844 -0.63156,11.18c-1.31688,3.93719 -3.7625,7.21594 -8.31781,9.94375c-1.31687,0.80625 -1.94844,2.37844 -1.53187,3.87c0.40312,1.49156 1.76031,2.52625 3.30562,2.52625c14.60656,0 31.39,-7.59219 39.82875,-27.52h77.13125c9.44656,0 17.2,-7.75344 17.2,-17.2v-82.56c0,-9.44656 -7.75344,-17.2 -17.2,-17.2zM24.08,34.4h123.84c5.6975,0 10.32,4.6225 10.32,10.32v82.56c0,5.6975 -4.6225,10.32 -10.32,10.32h-79.12c-1.43781,0 -2.74125,0.90031 -3.225,2.2575c-5.36156,14.62 -14.9425,21.52688 -24.88625,24.06656c1.35719,-1.94844 2.62031,-3.92375 3.3325,-6.11406c1.80063,-5.41531 1.74688,-11.34125 0.645,-17.38812c-0.29562,-1.63938 -1.72,-2.82188 -3.38625,-2.82188h-17.2c-5.6975,0 -10.32,-4.6225 -10.32,-10.32v-82.56c0,-5.6975 4.6225,-10.32 10.32,-10.32zM51.54625,72.18625c-1.89469,0.04031 -3.41312,1.59906 -3.38625,3.49375v3.7625l-3.09062,-2.15c-0.56438,-0.40312 -1.23625,-0.61812 -1.92156,-0.645c-1.53188,-0.02687 -2.9025,0.95406 -3.35938,2.40531c-0.45687,1.46469 0.09406,3.05031 1.37063,3.89687l4.4075,3.05031l-4.4075,3.05031c-1.075,0.67187 -1.67969,1.88125 -1.58563,3.14437c0.08063,1.24969 0.84656,2.365 2.00219,2.88906c1.14219,0.52406 2.48594,0.37625 3.49375,-0.37625l3.09062,-2.15v3.7625c-0.01344,1.23625 0.63156,2.39188 1.70656,3.02344c1.075,0.61813 2.39187,0.61813 3.46687,0c1.075,-0.63156 1.72,-1.78719 1.70656,-3.02344v-3.7625l3.09063,2.15c1.00781,0.7525 2.35156,0.90031 3.49375,0.37625c1.15562,-0.52406 1.92156,-1.63937 2.00219,-2.88906c0.09406,-1.26312 -0.51063,-2.4725 -1.58563,-3.14437l-4.4075,-3.05031l4.4075,-3.05031c1.29,-0.86 1.84094,-2.4725 1.34375,-3.93719c-0.48375,-1.46469 -1.88125,-2.43219 -3.42656,-2.35156c-0.65844,0.02688 -1.29,0.25531 -1.8275,0.63156l-3.09063,2.15v-3.7625c0.01344,-0.92719 -0.34937,-1.8275 -1.00781,-2.48594c-0.65844,-0.65844 -1.55875,-1.02125 -2.48594,-1.00781zM85.94625,72.18625c-1.89469,0.04031 -3.41312,1.59906 -3.38625,3.49375v3.7625l-3.09062,-2.15c-0.56438,-0.40312 -1.23625,-0.61812 -1.92156,-0.645c-1.53188,-0.02687 -2.9025,0.95406 -3.35938,2.40531c-0.45687,1.46469 0.09406,3.05031 1.37063,3.89687l4.4075,3.05031l-4.4075,3.05031c-1.075,0.67187 -1.67969,1.88125 -1.58563,3.14437c0.08063,1.24969 0.84656,2.365 2.00219,2.88906c1.14219,0.52406 2.48594,0.37625 3.49375,-0.37625l3.09062,-2.15v3.7625c-0.01344,1.23625 0.63156,2.39188 1.70656,3.02344c1.075,0.61813 2.39187,0.61813 3.46687,0c1.075,-0.63156 1.72,-1.78719 1.70656,-3.02344v-3.7625l3.09063,2.15c1.00781,0.7525 2.35156,0.90031 3.49375,0.37625c1.15562,-0.52406 1.92156,-1.63937 2.00219,-2.88906c0.09406,-1.26312 -0.51063,-2.4725 -1.58563,-3.14437l-4.4075,-3.05031l4.4075,-3.05031c1.29,-0.86 1.84094,-2.4725 1.34375,-3.93719c-0.48375,-1.46469 -1.88125,-2.43219 -3.42656,-2.35156c-0.65844,0.02688 -1.29,0.25531 -1.8275,0.63156l-3.09063,2.15v-3.7625c0.01344,-0.92719 -0.34937,-1.8275 -1.00781,-2.48594c-0.65844,-0.65844 -1.55875,-1.02125 -2.48594,-1.00781zM120.34625,72.18625c-1.89469,0.04031 -3.41312,1.59906 -3.38625,3.49375v3.7625l-3.09062,-2.15c-0.56438,-0.40312 -1.23625,-0.61812 -1.92156,-0.645c-1.53188,-0.02687 -2.9025,0.95406 -3.35938,2.40531c-0.45687,1.46469 0.09406,3.05031 1.37063,3.89687l4.4075,3.05031l-4.4075,3.05031c-1.075,0.67187 -1.67969,1.88125 -1.58563,3.14437c0.08063,1.24969 0.84656,2.365 2.00219,2.88906c1.14219,0.52406 2.48594,0.37625 3.49375,-0.37625l3.09062,-2.15v3.7625c-0.01344,1.23625 0.63156,2.39188 1.70656,3.02344c1.075,0.61813 2.39187,0.61813 3.46687,0c1.075,-0.63156 1.72,-1.78719 1.70656,-3.02344v-3.7625l3.09063,2.15c1.00781,0.7525 2.35156,0.90031 3.49375,0.37625c1.15562,-0.52406 1.92156,-1.63937 2.00219,-2.88906c0.09406,-1.26312 -0.51063,-2.4725 -1.58563,-3.14437l-4.4075,-3.05031l4.4075,-3.05031c1.29,-0.86 1.84094,-2.4725 1.34375,-3.93719c-0.48375,-1.46469 -1.88125,-2.43219 -3.42656,-2.35156c-0.65844,0.02688 -1.29,0.25531 -1.8275,0.63156l-3.09063,2.15v-3.7625c0.01344,-0.92719 -0.34937,-1.8275 -1.00781,-2.48594c-0.65844,-0.65844 -1.55875,-1.02125 -2.48594,-1.00781z"></path></g></g></svg>