<svg xmlns="http://www.w3.org/2000/svg" x="0px" y="0px"
width="50" height="50"
viewBox="0 0 172 172"
style=" fill:#000000;"><g transform=""><g fill="none" fill-rule="nonzero" stroke="none" stroke-width="1" stroke-linecap="butt" stroke-linejoin="miter" stroke-miterlimit="10" stroke-dasharray="" stroke-dashoffset="0" font-family="none" font-weight="none" font-size="none" text-anchor="none" style="mix-blend-mode: normal"><path d="M0,172v-172h172v172z" fill="none" stroke="none"></path><path d="" fill="none" stroke="none"></path><path d="" fill="none" stroke="none"></path><path d="" fill="none" stroke="none"></path><path d="M86,172c-47.49649,0 -86,-38.50351 -86,-86v0c0,-47.49649 38.50351,-86 86,-86h0c47.49649,0 86,38.50351 86,86v0c0,47.49649 -38.50351,86 -86,86z" fill="none" stroke="none"></path><path d="M86,168.56c-45.59663,0 -82.56,-36.96337 -82.56,-82.56v0c0,-45.59663 36.96337,-82.56 82.56,-82.56h0c45.59663,0 82.56,36.96337 82.56,82.56v0c0,45.59663 -36.96337,82.56 -82.56,82.56z" fill="none" stroke="none"></path><path d="M0,172v-172h172v172z" fill="none" stroke="none"></path><path d="M3.44,168.56v-165.12h165.12v165.12z" fill="none" stroke="none"></path><g id="original-icon" fill="#032f9c" stroke="none" opacity="0" visibility="hidden"><path d="M34.4,13.76c-11.35841,0 -20.64,9.28159 -20.64,20.64c0,11.35841 9.28159,20.64 20.64,20.64c11.35841,0 20.64,-9.28159 20.64,-20.64c0,-11.35841 -9.28159,-20.64 -20.64,-20.64zM86,13.76c-11.35841,0 -20.64,9.28159 -20.64,20.64c0,11.35841 9.28159,20.64 20.64,20.64c11.35841,0 20.64,-9.28159 20.64,-20.64c0,-11.35841 -9.28159,-20.64 -20.64,-20.64zM137.6,13.76c-11.35841,0 -20.64,9.28159 -20.64,20.64c0,11.35841 9.28159,20.64 20.64,20.64c11.35841,0 20.64,-9.28159 20.64,-20.64c0,-11.35841 -9.28159,-20.64 -20.64,-20.64zM34.4,20.64c7.64018,0 13.76,6.11982 13.76,13.76c0,7.64018 -6.11982,13.76 -13.76,13.76c-7.64018,0 -13.76,-6.11982 -13.76,-13.76c0,-7.64018 6.11982,-13.76 13.76,-13.76zM86,20.64c7.64018,0 13.76,6.11982 13.76,13.76c0,7.64018 -6.11982,13.76 -13.76,13.76c-7.64018,0 -13.76,-6.11982 -13.76,-13.76c0,-7.64018 6.11982,-13.76 13.76,-13.76zM137.6,20.64c7.64018,0 13.76,6.11982 13.76,13.76c0,7.64018 -6.11982,13.76 -13.76,13.76c-7.64018,0 -13.76,-6.11982 -13.76,-13.76c0,-7.64018 6.11982,-13.76 13.76,-13.76zM34.4,65.36c-11.35841,0 -20.64,9.28159 -20.64,20.64c0,11.35841 9.28159,20.64 20.64,20.64c11.35841,0 20.64,-9.28159 20.64,-20.64c0,-11.35841 -9.28159,-20.64 -20.64,-20.64zM86,65.36c-11.35841,0 -20.64,9.28159 -20.64,20.64c0,11.35841 9.28159,20.64 20.64,20.64c11.35841,0 20.64,-9.28159 20.64,-20.64c0,-11.35841 -9.28159,-20.64 -20.64,-20.64zM137.6,65.36c-11.35841,0 -20.64,9.28159 -20.64,20.64c0,11.35841 9.28159,20.64 20.64,20.64c11.35841,0 20.64,-9.28159 20.64,-20.64c0,-11.35841 -9.28159,-20.64 -20.64,-20.64zM34.4,72.24c7.64018,0 13.76,6.11982 13.76,13.76c0,7.64018 -6.11982,13.76 -13.76,13.76c-7.64018,0 -13.76,-6.11982 -13.76,-13.76c0,-7.64018 6.11982,-13.76 13.76,-13.76zM86,72.24c7.64018,0 13.76,6.11982 13.76,13.76c0,7.64018 -6.11982,13.76 -13.76,13.76c-7.64018,0 -13.76,-6.11982 -13.76,-13.76c0,-7.64018 6.11982,-13.76 13.76,-13.76zM137.6,72.24c7.64018,0 13.76,6.11982 13.76,13.76c0,7.64018 -6.11982,13.76 -13.76,13.76c-7.64018,0 -13.76,-6.11982 -13.76,-13.76c0,-7.64018 6.11982,-13.76 13.76,-13.76zM34.4,116.96c-11.35841,0 -20.64,9.28159 -20.64,20.64c0,11.35841 9.28159,20.64 20.64,20.64c11.35841,0 20.64,-9.28159 20.64,-20.64c0,-11.35841 -9.28159,-20.64 -20.64,-20.64zM86,116.96c-11.35841,0 -20.64,9.28159 -20.64,20.64c0,11.35841 9.28159,20.64 20.64,20.64c11.35841,0 20.64,-9.28159 20.64,-20.64c0,-11.35841 -9.28159,-20.64 -20.64,-20.64zM137.6,116.96c-11.35841,0 -20.64,9.28159 -20.64,20.64c0,11.35841 9.28159,20.64 20.64,20.64c11.35841,0 20.64,-9.28159 20.64,-20.64c0,-11.35841 -9.28159,-20.64 -20.64,-20.64zM34.4,123.84c7.64018,0 13.76,6.11982 13.76,13.76c0,7.64018 -6.11982,13.76 -13.76,13.76c-7.64018,0 -13.76,-6.11982 -13.76,-13.76c0,-7.64018 6.11982,-13.76 13.76,-13.76zM86,123.84c7.64018,0 13.76,6.11982 13.76,13.76c0,7.64018 -6.11982,13.76 -13.76,13.76c-7.64018,0 -13.76,-6.11982 -13.76,-13.76c0,-7.64018 6.11982,-13.76 13.76,-13.76zM137.6,123.84c7.64018,0 13.76,6.11982 13.76,13.76c0,7.64018 -6.11982,13.76 -13.76,13.76c-7.64018,0 -13.76,-6.11982 -13.76,-13.76c0,-7.64018 6.11982,-13.76 13.76,-13.76z"></path></g><g id="subtracted-icon" fill="#032f9c" stroke="none"><path d="M55.04,34.4c0,11.35841 -9.28159,20.64 -20.64,20.64c-11.35841,0 -20.64,-9.28159 -20.64,-20.64c0,-11.35841 9.28159,-20.64 20.64,-20.64c11.35841,0 20.64,9.28159 20.64,20.64zM106.64,34.4c0,11.35841 -9.28159,20.64 -20.64,20.64c-11.35841,0 -20.64,-9.28159 -20.64,-20.64c0,-11.35841 9.28159,-20.64 20.64,-20.64c11.35841,0 20.64,9.28159 20.64,20.64zM158.24,34.4c0,11.35841 -9.28159,20.64 -20.64,20.64c-11.35841,0 -20.64,-9.28159 -20.64,-20.64c0,-11.35841 9.28159,-20.64 20.64,-20.64c11.35841,0 20.64,9.28159 20.64,20.64zM20.64,34.4c0,7.64018 6.11982,13.76 13.76,13.76c7.64018,0 13.76,-6.11982 13.76,-13.76c0,-7.64018 -6.11982,-13.76 -13.76,-13.76c-7.64018,0 -13.76,6.11982 -13.76,13.76zM72.24,34.4c0,7.64018 6.11982,13.76 13.76,13.76c7.64018,0 13.76,-6.11982 13.76,-13.76c0,-7.64018 -6.11982,-13.76 -13.76,-13.76c-7.64018,0 -13.76,6.11982 -13.76,13.76zM123.84,34.4c0,7.64018 6.11982,13.76 13.76,13.76c7.64018,0 13.76,-6.11982 13.76,-13.76c0,-7.64018 -6.11982,-13.76 -13.76,-13.76c-7.64018,0 -13.76,6.11982 -13.76,13.76zM55.04,86c0,11.35841 -9.28159,20.64 -20.64,20.64c-11.35841,0 -20.64,-9.28159 -20.64,-20.64c0,-11.35841 9.28159,-20.64 20.64,-20.64c11.35841,0 20.64,9.28159 20.64,20.64zM106.64,86c0,2.74049 -0.54031,5.36008 -1.51974,7.75758c-0.51216,0.65211 -0.95224,1.3711 -1.3054,2.14804c-0.1074,0.3222 -0.20363,0.64439 -0.28792,0.9662c-1.86851,2.99583 -4.48285,5.48344 -7.57871,7.19849c-0.13234,0.03278 -0.26468,0.06586 -0.39701,0.09895c-0.54673,0.24851 -1.06476,0.5329 -1.55098,0.85005c-2.46298,1.04319 -5.167,1.62069 -8.00024,1.62069c-11.35841,0 -20.64,-9.28159 -20.64,-20.64c0,-11.35841 9.28159,-20.64 20.64,-20.64c11.35841,0 20.64,9.28159 20.64,20.64zM158.24,86c0,8.65554 -5.38984,16.10507 -12.98128,19.16035c-1.03404,-2.08762 -2.38037,-4.06476 -4.02573,-5.87843c5.85815,-1.58039 10.12701,-6.90089 10.12701,-13.28192c0,-7.64018 -6.11982,-13.76 -13.76,-13.76c-7.64018,0 -13.76,6.11982 -13.76,13.76c0,1.55825 0.25457,3.05326 0.72469,4.44601c-2.61149,-0.43466 -5.12048,-0.61336 -7.25979,-0.68683c-0.22647,-1.21964 -0.3449,-2.47616 -0.3449,-3.75918c0,-11.35841 9.28159,-20.64 20.64,-20.64c11.35841,0 20.64,9.28159 20.64,20.64zM20.64,86c0,7.64018 6.11982,13.76 13.76,13.76c7.64018,0 13.76,-6.11982 13.76,-13.76c0,-7.64018 -6.11982,-13.76 -13.76,-13.76c-7.64018,0 -13.76,6.11982 -13.76,13.76zM72.24,86c0,7.64018 6.11982,13.76 13.76,13.76c7.64018,0 13.76,-6.11982 13.76,-13.76c0,-7.64018 -6.11982,-13.76 -13.76,-13.76c-7.64018,0 -13.76,6.11982 -13.76,13.76zM55.04,137.6c0,11.35841 -9.28159,20.64 -20.64,20.64c-11.35841,0 -20.64,-9.28159 -20.64,-20.64c0,-11.35841 9.28159,-20.64 20.64,-20.64c11.35841,0 20.64,9.28159 20.64,20.64zM86,158.24c-11.35841,0 -20.64,-9.28159 -20.64,-20.64c0,-11.35841 9.28159,-20.64 20.64,-20.64c1.16127,0 2.30084,0.09702 3.411,0.28336c0.0794,2.34828 0.25728,4.77916 0.62904,7.1913c-1.27586,-0.38685 -2.63213,-0.59466 -4.04003,-0.59466c-7.64018,0 -13.76,6.11982 -13.76,13.76c0,7.64018 6.11982,13.76 13.76,13.76c6.18702,0 11.37702,-4.01323 13.12747,-9.59716c1.80972,1.59709 3.78709,2.88236 5.88404,3.85579c-3.1433,7.40132 -10.49339,12.62137 -19.01151,12.62137zM20.64,137.6c0,7.64018 6.11982,13.76 13.76,13.76c7.64018,0 13.76,-6.11982 13.76,-13.76c0,-7.64018 -6.11982,-13.76 -13.76,-13.76c-7.64018,0 -13.76,6.11982 -13.76,13.76zM146.85467,122.41814c0.27187,-0.97097 0.48241,-1.94632 0.6326,-2.9221c4.95052,2.72075 8.67919,7.41334 10.11181,13.00357c-4.44336,-4.0284 -8.21384,-7.5509 -10.74441,-10.08147zM122.06374,146.86475l9.50859,10.47323c-5.1793,-1.59109 -9.50532,-5.17475 -12.07447,-9.8474c0.81943,-0.16091 1.6688,-0.36952 2.56588,-0.62583z"></path></g><g stroke="none"><g fill="#032f9c"><g id="Слой_2" font-family="-apple-system, BlinkMacSystemFont, &quot;San Francisco&quot;, HelveticaNeue-Light, &quot;Helvetica Neue Light&quot;, &quot;Helvetica Neue&quot;, &quot;Segoe UI&quot;, &quot;Fira Sans&quot;, Roboto, Oxygen, Ubuntu, &quot;Droid Sans&quot;, Arial, sans-serif" font-weight="400" font-size="16" text-anchor="start" visibility="hidden"></g><g id="Android_x5F_4" font-family="-apple-system, BlinkMacSystemFont, &quot;San Francisco&quot;, HelveticaNeue-Light, &quot;Helvetica Neue Light&quot;, &quot;Helvetica Neue&quot;, &quot;Segoe UI&quot;, &quot;Fira Sans&quot;, Roboto, Oxygen, Ubuntu, &quot;Droid Sans&quot;, Arial, sans-serif" font-weight="400" font-size="16" text-anchor="start" visibility="hidden"></g><g id="Android_x5F_5" font-family="-apple-system, BlinkMacSystemFont, &quot;San Francisco&quot;, HelveticaNeue-Light, &quot;Helvetica Neue Light&quot;, &quot;Helvetica Neue&quot;, &quot;Segoe UI&quot;, &quot;Fira Sans&quot;, Roboto, Oxygen, Ubuntu, &quot;Droid Sans&quot;, Arial, sans-serif" font-weight="400" font-size="16" text-anchor="start" visibility="hidden"></g><g id="Windows_x5F_8" font-family="-apple-system, BlinkMacSystemFont, &quot;San Francisco&quot;, HelveticaNeue-Light, &quot;Helvetica Neue Light&quot;, &quot;Helvetica Neue&quot;, &quot;Segoe UI&quot;, &quot;Fira Sans&quot;, Roboto, Oxygen, Ubuntu, &quot;Droid Sans&quot;, Arial, sans-serif" font-weight="400" font-size="16" text-anchor="start" visibility="hidden"></g><g id="Windows_x5F_10" font-family="-apple-system, BlinkMacSystemFont, &quot;San Francisco&quot;, HelveticaNeue-Light, &quot;Helvetica Neue Light&quot;, &quot;Helvetica Neue&quot;, &quot;Segoe UI&quot;, &quot;Fira Sans&quot;, Roboto, Oxygen, Ubuntu, &quot;Droid Sans&quot;, Arial, sans-serif" font-weight="400" font-size="16" text-anchor="start" visibility="hidden"></g><g id="Color" font-family="-apple-system, BlinkMacSystemFont, &quot;San Francisco&quot;, HelveticaNeue-Light, &quot;Helvetica Neue Light&quot;, &quot;Helvetica Neue&quot;, &quot;Segoe UI&quot;, &quot;Fira Sans&quot;, Roboto, Oxygen, Ubuntu, &quot;Droid Sans&quot;, Arial, sans-serif" font-weight="400" font-size="16" text-anchor="start" visibility="hidden"></g><g id="IOS" font-family="-apple-system, BlinkMacSystemFont, &quot;San Francisco&quot;, HelveticaNeue-Light, &quot;Helvetica Neue Light&quot;, &quot;Helvetica Neue&quot;, &quot;Segoe UI&quot;, &quot;Fira Sans&quot;, Roboto, Oxygen, Ubuntu, &quot;Droid Sans&quot;, Arial, sans-serif" font-weight="400" font-size="16" text-anchor="start" visibility="hidden"></g><g id="IOS_copy"><path d="M171.89704,158.22726c-0.34432,-2.75455 -1.72159,-5.5091 -3.7875,-7.23069c-12.39546,-11.01819 -26.51252,-23.75797 -29.61139,-27.20116c3.7875,-6.88637 2.75455,-15.15001 -3.09887,-21.00343l-1.03296,-1.03296c-5.16478,-5.16478 -16.18297,-5.16478 -21.00343,-5.5091v0c-1.37727,0 -2.41023,1.03296 -3.09887,2.06591c-0.34432,1.37727 0,2.75455 0.68864,3.7875l8.95228,8.95228l-2.41023,6.88637l-6.88637,2.41023l-8.60796,-9.2966c-1.03296,-0.68864 -2.41023,-1.03296 -3.7875,-0.68864c-1.03296,0.68864 -1.72159,1.72159 -2.06591,3.09887c0,7.23069 0.68864,16.18297 5.5091,21.00343l1.03296,1.03296c3.44318,3.44318 8.26364,5.5091 12.73978,5.16478c2.75455,0 5.5091,-0.68864 8.26364,-2.06591l26.85684,29.61139c2.06591,2.06591 5.5091,3.7875 8.95228,3.7875c2.75455,0 5.85341,-1.03296 8.60796,-3.7875c3.7875,-3.44318 4.13182,-7.57501 3.7875,-9.98524zM107.50948,131.0261l-1.03296,-1.03296c-1.72159,-1.72159 -2.75455,-4.82046 -3.09887,-8.26364l4.13182,4.13182c1.03296,1.03296 2.41023,1.37727 3.44318,1.03296l10.32955,-3.44318c1.03296,-0.34432 1.72159,-1.03296 2.06591,-2.06591l3.44318,-10.32955c0.34432,-1.03296 0,-2.41023 -0.68864,-3.44318l-4.47614,-4.13182c3.44318,0.34432 6.54205,1.37727 8.26364,3.09887l1.03296,1.03296c4.47614,4.47614 4.47614,11.70683 0,16.18297l-6.88637,6.88637c-4.82046,4.82046 -12.05115,4.82046 -16.52729,0.34432zM163.97771,164.08068c-4.13182,4.13182 -8.60796,0 -8.60796,0v0l-26.51252,-28.92275l5.85341,-6.19773c3.44318,3.7875 11.70683,11.36251 28.92275,26.51252c0.68864,0.68864 1.72159,2.06591 1.72159,3.7875c0.68864,1.72159 0,3.09887 -1.37727,4.82046z"></path></g></g><g fill="#000000" opacity="0"><g id="IOS" font-family="-apple-system, BlinkMacSystemFont, &quot;San Francisco&quot;, HelveticaNeue-Light, &quot;Helvetica Neue Light&quot;, &quot;Helvetica Neue&quot;, &quot;Segoe UI&quot;, &quot;Fira Sans&quot;, Roboto, Oxygen, Ubuntu, &quot;Droid Sans&quot;, Arial, sans-serif" font-weight="400" font-size="16" text-anchor="start" visibility="hidden"></g><g id="IOS_copy"><path d="M173.02287,146.17612v0v0c-10.67387,-9.2966 -21.00343,-18.5932 -26.1682,-23.75797c2.41023,-8.60796 0,-17.56024 -6.54205,-24.10229l-1.03296,-1.03296c-7.23069,-7.57501 -20.31479,-7.57501 -25.82388,-7.57501v0v0v0c-4.13182,0 -7.91932,2.41023 -9.64092,6.19773c-1.03296,3.09887 -1.03296,6.19773 0.68864,8.95228c-1.72159,-1.03296 -3.09887,-1.37727 -4.82046,-1.37727c-1.37727,0 -2.75455,0.34432 -4.13182,0.68864c-3.7875,1.72159 -6.19773,5.16478 -6.19773,9.2966c0,8.60796 0.68864,19.28183 7.57501,26.1682l1.03296,1.03296c4.82046,4.82046 11.01819,7.23069 17.56024,7.23069c2.06591,0 4.13182,-0.34432 6.54205,-1.03296l23.75797,26.1682v0v0c3.44318,3.44318 8.60796,5.5091 13.77274,5.5091c5.16478,0 9.64092,-2.06591 13.42842,-5.5091c4.47614,-4.47614 6.54205,-10.32955 5.5091,-16.18297c-0.68864,-3.7875 -2.75455,-7.91932 -5.5091,-10.67387zM99.68304,110.367c0,0 -0.34432,0 0,0c-0.34432,0 -0.34432,0 0,0zM100.716,110.71131v0z"></path></g></g></g><path d="M96.14697,172v-75.75006h75.85303v75.75006z" id="overlay-drag" fill="#ff0000" stroke="none" opacity="0"></path></g></g></svg>