<svg xmlns="http://www.w3.org/2000/svg" x="0px" y="0px"
width="50" height="50"
viewBox="0 0 172 172"
style=" fill:#000000;"><g fill="none" fill-rule="nonzero" stroke="none" stroke-width="1" stroke-linecap="butt" stroke-linejoin="miter" stroke-miterlimit="10" stroke-dasharray="" stroke-dashoffset="0" font-family="none" font-weight="none" font-size="none" text-anchor="none" style="mix-blend-mode: normal"><path d="M0,172v-172h172v172z" fill="none"></path><g fill="#032f9c"><path d="M19.995,0c-1.63937,0.30906 -2.82187,1.76031 -2.795,3.44v147.92c0,1.89469 1.54531,3.44 3.44,3.44h68.2625c7.22938,4.32688 15.60094,6.88 24.6175,6.88c12.05344,0 23.04531,-4.48812 31.4975,-11.825l22.145,22.145l4.8375,-4.8375l-22.145,-22.145c7.33688,-8.45219 11.825,-19.44406 11.825,-31.4975c0,-16.32656 -8.18344,-30.73156 -20.64,-39.4525v-70.6275c0,-1.89469 -1.54531,-3.44 -3.44,-3.44h-116.96c-0.1075,0 -0.215,0 -0.3225,0c-0.1075,0 -0.215,0 -0.3225,0zM24.08,6.88h110.08v63.21c-6.27531,-2.99656 -13.23594,-4.73 -20.64,-4.73c-11.23375,0 -21.58062,3.85656 -29.7775,10.32h-35.5825v6.88h28.4875c-3.41312,4.05813 -6.1275,8.72094 -8.0625,13.76h-20.425v6.88h18.3825c-0.73906,3.3325 -1.1825,6.75906 -1.1825,10.32c0,1.16906 0.02688,2.29781 0.1075,3.44h-17.3075v6.88h18.275c2.02906,9.29875 6.7725,17.64344 13.33,24.08h-55.685zM48.16,34.4v6.88h65.36v-6.88zM48.16,55.04v6.88h65.36v-6.88zM113.52,72.24c8.15656,0 15.74875,2.28438 22.145,6.3425c0.1075,0.08063 0.215,0.14781 0.3225,0.215c11.34125,7.35031 18.8125,20.16969 18.8125,34.7225c0,22.84375 -18.43625,41.28 -41.28,41.28c-8.29094,0 -16.00406,-2.365 -22.4675,-6.5575c-11.34125,-7.35031 -18.8125,-20.16969 -18.8125,-34.7225c0,-22.84375 18.43625,-41.28 41.28,-41.28zM86,92.88c-2.40531,3.09063 -4.12531,6.53063 -5.16,10.32h49.88v-10.32zM79.765,120.4c0.68531,3.78938 2.15,7.22938 3.87,10.32h47.085v-10.32z"></path></g></g></svg>