<svg xmlns="http://www.w3.org/2000/svg" x="0px" y="0px"
width="50" height="50"
viewBox="0 0 172 172"
style=" fill:#000000;"><g fill="none" fill-rule="nonzero" stroke="none" stroke-width="1" stroke-linecap="butt" stroke-linejoin="miter" stroke-miterlimit="10" stroke-dasharray="" stroke-dashoffset="0" font-family="none" font-weight="none" font-size="none" text-anchor="none" style="mix-blend-mode: normal"><path d="M0,172v-172h172v172z" fill="none"></path><g fill="#032f9c"><path d="M102.13844,6.89344c-18.39594,0.55094 -33.33844,16.11156 -33.33844,34.49406c0,9.70188 4.85094,17.28063 9.245,23.435c4.38063,6.14094 7.955,11.09938 7.955,14.47219v10.14531c0,5.65719 4.66281,10.32 10.32,10.32h0.95406c1.19594,2.0425 3.38625,3.44 5.92594,3.44c2.53969,0 4.73,-1.3975 5.92594,-3.44h0.95406c5.65719,0 10.32,-4.66281 10.32,-10.32v-10.32c0,-3.25187 3.57438,-8.19687 7.955,-14.33781c4.39406,-6.14094 9.245,-13.76 9.245,-23.50219c0,-19.30969 -16.03094,-34.96437 -35.46156,-34.38656zM102.34,13.77344c15.65469,-0.47031 28.38,11.98625 28.38,27.50656c0,7.45781 -3.74906,13.59875 -7.955,19.49781c-3.50719,4.89125 -7.525,9.44656 -8.80156,14.90219h-7.32344v-29.53562l5.87219,-5.87219c0.90031,-0.86 1.26313,-2.15 0.94063,-3.34594c-0.30906,-1.20937 -1.24969,-2.15 -2.45906,-2.45906c-1.19594,-0.3225 -2.48594,0.04031 -3.34594,0.94063l-4.44781,4.44781l-4.44781,-4.44781c-0.645,-0.67188 -1.53187,-1.03469 -2.4725,-1.03469c-1.3975,0 -2.64719,0.84656 -3.18469,2.13656c-0.52406,1.30344 -0.215,2.78156 0.79281,3.7625l5.87219,5.87219v29.53562h-7.36375c-1.31687,-5.42875 -5.28094,-9.9975 -8.76125,-14.86187c-4.20594,-5.9125 -7.955,-12.04 -7.955,-19.43063c0,-14.63344 12.05344,-27.17062 26.66,-27.61406zM92.88,82.56h20.64v6.88c0,1.94844 -1.49156,3.44 -3.44,3.44h-13.76c-1.94844,0 -3.44,-1.49156 -3.44,-3.44zM151.8975,96.30656c-0.61812,0.01344 -1.24969,0.06719 -1.86781,0.17469c-1.65281,0.25531 -3.27875,0.86 -4.77031,1.78719l-38.21625,23.55594c-0.88688,-0.48375 -1.96188,-1.00781 -3.38625,-1.69313c-1.63938,-0.79281 -3.34594,-1.59906 -4.31344,-2.0425c-5.20031,-2.35156 -21.76875,-9.17781 -34.34625,-14.70062c-5.375,-2.365 -11.12625,-3.57438 -16.8775,-3.62813c-5.75125,-0.05375 -11.51594,1.04813 -16.94469,3.31906l-22.17187,9.21812c-1.16906,0.45688 -1.98875,1.505 -2.16344,2.74125c-0.17469,1.23625 0.34938,2.4725 1.34375,3.225c0.99438,0.73906 2.32469,0.90031 3.45344,0.38969l22.18531,-9.23156c9.11063,-3.80281 19.37688,-3.70875 28.42031,0.26875c12.685,5.56312 29.52219,12.52375 34.26563,14.67375c0.84656,0.37625 2.56656,1.1825 4.16562,1.94844c1.59906,0.77938 3.27875,1.62594 3.41313,1.72c1.53187,0.88688 2.55312,2.48594 2.55312,4.4075c0,2.88906 -2.27094,5.16 -5.16,5.16c-0.41656,0 -0.79281,-0.04031 -1.16906,-0.13437c0,0 0,0 -0.01344,-0.01344c-0.08062,-0.01344 -2.795,-0.76594 -6.10062,-1.73344c-3.30563,-0.98094 -7.49813,-2.21719 -11.62344,-3.44c-8.25062,-2.45906 -16.2325,-4.85094 -16.2325,-4.85094c-1.1825,-0.41656 -2.51281,-0.14781 -3.44,0.71219c-0.94062,0.86 -1.33031,2.15 -1.02125,3.37281c0.30906,1.23625 1.26313,2.19031 2.49938,2.49937c0,0 7.98187,2.39188 16.24594,4.85094c4.12531,1.22281 8.31781,2.4725 11.63688,3.45344c3.30562,0.9675 5.41531,1.59906 6.45,1.84094c0.90031,0.215 1.8275,0.3225 2.76812,0.3225c6.61125,0 12.04,-5.42875 12.04,-12.04c0,-2.0425 -0.5375,-3.95062 -1.45125,-5.64375l36.80531,-22.66906c0,0 0.01344,-0.01344 0.02687,-0.01344c2.87563,-1.81406 6.58438,-0.98094 8.39844,1.89469c1.76031,2.795 1.02125,6.39625 -1.69313,8.26406c-0.04031,0.04031 -0.08062,0.06719 -0.12094,0.09406l-54.27406,41.11875c-3.69531,2.795 -8.54625,3.56094 -12.94031,2.00219l-40.21844,-14.27062l0.16125,0.06719c-9.27187,-3.82969 -19.87406,-2.53969 -27.95,3.39969v-0.01344l-11.98625,8.78812c-1.54531,1.12875 -1.86781,3.27875 -0.7525,4.81063c1.12875,1.54531 3.27875,1.86781 4.81063,0.7525l11.98625,-8.80156c6.15437,-4.515 14.20344,-5.49594 21.25812,-2.58c0.05375,0.02688 0.1075,0.04031 0.16125,0.05375l40.24531,14.28406c6.54406,2.32469 13.85406,1.1825 19.39031,-3.01l54.26062,-41.11875l-0.12094,0.08062c5.32125,-3.66844 6.88,-10.68281 4.07156,-16.36687c-0.08063,-0.43 -0.24188,-0.84656 -0.47031,-1.22281c-2.49938,-3.95062 -6.82625,-6.10062 -11.22031,-6.03344z"></path></g></g></svg>