<svg xmlns="http://www.w3.org/2000/svg" x="0px" y="0px"
width="50" height="50"
viewBox="0 0 172 172"
style=" fill:#000000;"><g fill="none" fill-rule="nonzero" stroke="none" stroke-width="1" stroke-linecap="butt" stroke-linejoin="miter" stroke-miterlimit="10" stroke-dasharray="" stroke-dashoffset="0" font-family="none" font-weight="none" font-size="none" text-anchor="none" style="mix-blend-mode: normal"><path d="M0,172v-172h172v172z" fill="none"></path><g fill="#032f9c"><path d="M30.96,0c-3.7625,0 -6.88,3.1175 -6.88,6.88v89.44c0,3.7625 3.1175,6.88 6.88,6.88h123.84c3.7625,0 6.88,-3.1175 6.88,-6.88v-89.44c0,-3.7625 -3.1175,-6.88 -6.88,-6.88zM30.96,6.88h123.84v89.44h-123.84zM73.96,13.76c-4.70312,0 -8.6,3.89688 -8.6,8.6c0,4.70313 3.89688,8.6 8.6,8.6h37.84c4.70313,0 8.6,-3.89687 8.6,-8.6c0,-4.70312 -3.89687,-8.6 -8.6,-8.6zM73.96,20.64h37.84c0.98094,0 1.72,0.73906 1.72,1.72c0,0.98094 -0.73906,1.72 -1.72,1.72h-37.84c-0.98094,0 -1.72,-0.73906 -1.72,-1.72c0,-0.98094 0.73906,-1.72 1.72,-1.72zM30.96,110.08c-17.05219,0 -30.96,13.90781 -30.96,30.96c0,17.05219 13.90781,30.96 30.96,30.96h141.04v-6.88h-141.04c-13.34344,0 -24.08,-10.73656 -24.08,-24.08c0,-13.34344 10.73656,-24.08 24.08,-24.08h141.04v-6.88zM34.4,123.84c-9.46,0 -17.2,7.74 -17.2,17.2c0,9.46 7.74,17.2 17.2,17.2c9.46,0 17.2,-7.74 17.2,-17.2c0,-9.46 -7.74,-17.2 -17.2,-17.2zM92.88,123.84c-9.46,0 -17.2,7.74 -17.2,17.2c0,9.46 7.74,17.2 17.2,17.2c9.46,0 17.2,-7.74 17.2,-17.2c0,-9.46 -7.74,-17.2 -17.2,-17.2zM154.8,123.84c-9.46,0 -17.2,7.74 -17.2,17.2c0,9.46 7.74,17.2 17.2,17.2c9.46,0 17.2,-7.74 17.2,-17.2c0,-9.46 -7.74,-17.2 -17.2,-17.2zM34.4,130.72c5.73781,0 10.32,4.58219 10.32,10.32c0,5.73781 -4.58219,10.32 -10.32,10.32c-5.73781,0 -10.32,-4.58219 -10.32,-10.32c0,-5.73781 4.58219,-10.32 10.32,-10.32zM92.88,130.72c5.73781,0 10.32,4.58219 10.32,10.32c0,5.73781 -4.58219,10.32 -10.32,10.32c-5.73781,0 -10.32,-4.58219 -10.32,-10.32c0,-5.73781 4.58219,-10.32 10.32,-10.32zM154.8,130.72c5.73781,0 10.32,4.58219 10.32,10.32c0,5.73781 -4.58219,10.32 -10.32,10.32c-5.73781,0 -10.32,-4.58219 -10.32,-10.32c0,-5.73781 4.58219,-10.32 10.32,-10.32z"></path></g></g></svg>