<svg xmlns="http://www.w3.org/2000/svg" x="0px" y="0px"
width="50" height="50"
viewBox="0 0 172 172"
style=" fill:#000000;"><g fill="none" fill-rule="nonzero" stroke="none" stroke-width="1" stroke-linecap="butt" stroke-linejoin="miter" stroke-miterlimit="10" stroke-dasharray="" stroke-dashoffset="0" font-family="none" font-weight="none" font-size="none" text-anchor="none" style="mix-blend-mode: normal"><path d="M0,172v-172h172v172z" fill="none"></path><g id="original-icon" fill="#032f9c" opacity="0" visibility="hidden"><path d="M86,0c-8.43875,0 -15.56062,4.66281 -26.1225,10.105c-10.56187,5.44219 -24.73844,12.01313 -46.87,16.8775l-2.6875,0.645v2.6875c0,52.70188 18.47656,87.92156 36.98,109.7575c18.50344,21.83594 37.3025,30.53 37.3025,30.53l1.505,0.7525l1.505,-0.7525c0,0 74.0675,-38.27 74.0675,-140.2875v-2.6875l-2.6875,-0.645c-22.13156,-4.86437 -36.30812,-11.43531 -46.87,-16.8775c-10.56187,-5.44219 -17.68375,-10.105 -26.1225,-10.105zM86,6.88c5.65719,0 12.21469,3.80281 23.005,9.3525c10.25281,5.2675 24.67125,11.73094 45.58,16.6625c-1.26312,93.28313 -64.27156,128.27438 -68.6925,130.6125c-2.13656,-1.03469 -17.02531,-8.47906 -33.4325,-27.8425c-17.29406,-20.41156 -34.41344,-53.23937 -35.045,-102.77c20.90875,-4.93156 35.32719,-11.395 45.58,-16.6625c10.79031,-5.54969 17.34781,-9.3525 23.005,-9.3525zM86,41.28c-20.855,0 -37.84,16.985 -37.84,37.84c0,20.855 16.985,37.84 37.84,37.84c20.855,0 37.84,-16.985 37.84,-37.84c0,-20.855 -16.985,-37.84 -37.84,-37.84zM86,48.16c17.13281,0 30.96,13.82719 30.96,30.96c0,9.17781 -4.00437,17.34781 -10.32,23.005c-5.28094,-2.95625 -12.02656,-3.88344 -13.545,-7.955c-0.215,-2.31125 -0.1075,-3.91031 -0.1075,-6.02c1.04813,-0.55094 2.9025,-4.03125 3.225,-6.9875c0.81969,-0.06719 2.09625,-0.80625 2.4725,-3.9775c0.20156,-1.70656 -0.57781,-2.70094 -1.075,-3.01c1.34375,-4.03125 4.09844,-16.4475 -5.16,-17.7375c-0.95406,-1.67969 -3.38625,-2.58 -6.5575,-2.58c-12.685,0.22844 -14.28406,9.60781 -11.5025,20.3175c-0.49719,0.30906 -1.27656,1.19594 -1.075,2.9025c0.37625,3.17125 1.65281,4.01781 2.4725,4.085c0.3225,2.95625 2.28438,6.43656 3.3325,6.9875c0,2.10969 0.1075,3.70875 -0.1075,6.02c-1.51844,4.085 -8.34469,5.07938 -13.6525,8.0625c-6.3425,-5.65719 -10.32,-13.90781 -10.32,-23.1125c0,-17.13281 13.82719,-30.96 30.96,-30.96z"></path></g><g id="subtracted-icon" fill="#032f9c"><path d="M112.1225,10.105c10.56188,5.44219 24.73844,12.01313 46.87,16.8775l2.6875,0.645v2.6875c0,22.85986 -3.71899,42.51891 -9.4903,59.26378c-2.19332,-0.45967 -4.46427,-0.70146 -6.78896,-0.70146c-0.07158,0 -0.14311,0.00023 -0.21458,0.00069c5.46622,-15.71891 9.10486,-34.27216 9.39884,-55.98301c-20.90875,-4.93156 -35.32719,-11.395 -45.58,-16.6625c-10.79031,-5.54969 -17.34781,-9.3525 -23.005,-9.3525c-5.65719,0 -12.21469,3.80281 -23.005,9.3525c-10.25281,5.2675 -24.67125,11.73094 -45.58,16.6625c0.63156,49.53063 17.75094,82.35844 35.045,102.77c16.40719,19.36344 31.29594,26.80781 33.4325,27.8425c0.47618,-0.25184 1.63208,-0.88251 3.31731,-1.92405v7.09165c0,0.3407 0.0157,0.67658 0.04646,1.00696c-1.06142,0.61955 -1.64377,0.92044 -1.64377,0.92044l-1.505,0.7525l-1.505,-0.7525c0,0 -18.79906,-8.69406 -37.3025,-30.53c-18.50344,-21.83594 -36.98,-57.05562 -36.98,-109.7575v-2.6875l2.6875,-0.645c22.13156,-4.86437 36.30813,-11.43531 46.87,-16.8775c10.56188,-5.44219 17.68375,-10.105 26.1225,-10.105c8.43875,0 15.56063,4.66281 26.1225,10.105zM123.84,79.12c0,20.855 -16.985,37.84 -37.84,37.84c-20.855,0 -37.84,-16.985 -37.84,-37.84c0,-20.855 16.985,-37.84 37.84,-37.84c20.855,0 37.84,16.985 37.84,37.84zM55.04,79.12c0,9.20469 3.9775,17.45531 10.32,23.1125c5.30781,-2.98312 12.13406,-3.9775 13.6525,-8.0625c0.215,-2.31125 0.1075,-3.91031 0.1075,-6.02c-1.04812,-0.55094 -3.01,-4.03125 -3.3325,-6.9875c-0.81969,-0.06719 -2.09625,-0.91375 -2.4725,-4.085c-0.20156,-1.70656 0.57781,-2.59344 1.075,-2.9025c-2.78156,-10.70969 -1.1825,-20.08906 11.5025,-20.3175c3.17125,0 5.60344,0.90031 6.5575,2.58c9.25844,1.29 6.50375,13.70625 5.16,17.7375c0.49719,0.30906 1.27656,1.30344 1.075,3.01c-0.37625,3.17125 -1.65281,3.91031 -2.4725,3.9775c-0.3225,2.95625 -2.17687,6.43656 -3.225,6.9875c0,2.10969 -0.1075,3.70875 0.1075,6.02c1.51844,4.07156 8.26406,4.99875 13.545,7.955c6.31563,-5.65719 10.32,-13.82719 10.32,-23.005c0,-17.13281 -13.82719,-30.96 -30.96,-30.96c-17.13281,0 -30.96,13.82719 -30.96,30.96z"></path></g><g><g fill="#032f9c"><g id="Слой_2" font-family="-apple-system, BlinkMacSystemFont, &quot;San Francisco&quot;, HelveticaNeue-Light, &quot;Helvetica Neue Light&quot;, &quot;Helvetica Neue&quot;, &quot;Segoe UI&quot;, &quot;Fira Sans&quot;, Roboto, Oxygen, Ubuntu, &quot;Droid Sans&quot;, Arial, sans-serif" font-weight="400" font-size="16" text-anchor="start" visibility="hidden"></g><g id="Android_x5F_4" font-family="-apple-system, BlinkMacSystemFont, &quot;San Francisco&quot;, HelveticaNeue-Light, &quot;Helvetica Neue Light&quot;, &quot;Helvetica Neue&quot;, &quot;Segoe UI&quot;, &quot;Fira Sans&quot;, Roboto, Oxygen, Ubuntu, &quot;Droid Sans&quot;, Arial, sans-serif" font-weight="400" font-size="16" text-anchor="start" visibility="hidden"></g><g id="Android_x5F_5" font-family="-apple-system, BlinkMacSystemFont, &quot;San Francisco&quot;, HelveticaNeue-Light, &quot;Helvetica Neue Light&quot;, &quot;Helvetica Neue&quot;, &quot;Segoe UI&quot;, &quot;Fira Sans&quot;, Roboto, Oxygen, Ubuntu, &quot;Droid Sans&quot;, Arial, sans-serif" font-weight="400" font-size="16" text-anchor="start" visibility="hidden"></g><g id="Windows_x5F_8" font-family="-apple-system, BlinkMacSystemFont, &quot;San Francisco&quot;, HelveticaNeue-Light, &quot;Helvetica Neue Light&quot;, &quot;Helvetica Neue&quot;, &quot;Segoe UI&quot;, &quot;Fira Sans&quot;, Roboto, Oxygen, Ubuntu, &quot;Droid Sans&quot;, Arial, sans-serif" font-weight="400" font-size="16" text-anchor="start" visibility="hidden"></g><g id="Windows_x5F_10" font-family="-apple-system, BlinkMacSystemFont, &quot;San Francisco&quot;, HelveticaNeue-Light, &quot;Helvetica Neue Light&quot;, &quot;Helvetica Neue&quot;, &quot;Segoe UI&quot;, &quot;Fira Sans&quot;, Roboto, Oxygen, Ubuntu, &quot;Droid Sans&quot;, Arial, sans-serif" font-weight="400" font-size="16" text-anchor="start" visibility="hidden"></g><g id="Color" font-family="-apple-system, BlinkMacSystemFont, &quot;San Francisco&quot;, HelveticaNeue-Light, &quot;Helvetica Neue Light&quot;, &quot;Helvetica Neue&quot;, &quot;Segoe UI&quot;, &quot;Fira Sans&quot;, Roboto, Oxygen, Ubuntu, &quot;Droid Sans&quot;, Arial, sans-serif" font-weight="400" font-size="16" text-anchor="start" visibility="hidden"></g><g id="IOS" font-family="-apple-system, BlinkMacSystemFont, &quot;San Francisco&quot;, HelveticaNeue-Light, &quot;Helvetica Neue Light&quot;, &quot;Helvetica Neue&quot;, &quot;Segoe UI&quot;, &quot;Fira Sans&quot;, Roboto, Oxygen, Ubuntu, &quot;Droid Sans&quot;, Arial, sans-serif" font-weight="400" font-size="16" text-anchor="start" visibility="hidden"></g><g id="IOS_copy"><path d="M152.05056,108.82677c3.6574,0 6.64981,2.99242 6.64981,6.64981c0,3.6574 -2.99242,6.64981 -6.64981,6.64981c-3.6574,0 -6.64981,-2.99242 -6.64981,-6.64981c0,-3.6574 2.99242,-6.64981 6.64981,-6.64981zM172,122.12639c0,14.62959 -11.96967,26.59926 -26.59926,26.59926c-0.99747,0 -2.32743,0 -3.32491,-0.33249v6.9823c0,1.99494 -1.32996,3.32491 -3.32491,3.32491h-6.64981v6.64981c0,1.99494 -1.32996,3.32491 -3.32491,3.32491h-8.64476l-2.32743,2.32743c-0.66498,0.66498 -1.32996,0.99747 -2.32743,0.99747h-16.29204c-1.99494,0 -3.32491,-1.32996 -3.32491,-3.32491v-16.62454c0,-0.99747 0.33249,-1.66245 0.99747,-2.32743l22.60937,-22.60937c-0.33249,-1.66245 -0.66498,-3.32491 -0.66498,-4.98736c0,-14.62959 11.96967,-26.59926 26.59926,-26.59926c14.62959,0 26.59926,11.96967 26.59926,26.59926zM135.42602,146.73071c-1.99494,-0.66498 -3.98989,-1.99494 -5.65234,-3.32491l-12.30216,12.30216c-0.66498,0.66498 -1.66245,0.99747 -2.32743,0.99747c-0.66498,0 -1.66245,-0.33249 -2.32743,-0.99747c-1.32996,-1.32996 -1.32996,-3.32491 0,-4.65487l11.96967,-11.96967c-1.32996,-1.66245 -2.32743,-3.32491 -3.32491,-4.98736l-19.28446,19.28446v11.96967h11.63717l2.32743,-2.32743c0.66498,-0.66498 1.32996,-0.99747 2.32743,-0.99747h6.64981v-6.64981c0,-1.99494 1.32996,-3.32491 3.32491,-3.32491h6.64981v-5.31985zM165.35019,122.12639c0,-10.97219 -8.97725,-19.94944 -19.94944,-19.94944c-10.97219,0 -19.94944,8.97725 -19.94944,19.94944c0,10.97219 8.97725,19.94944 19.94944,19.94944c10.97219,0 19.94944,-8.97725 19.94944,-19.94944z"></path></g></g><g fill="#000000" opacity="0"><g id="IOS" font-family="-apple-system, BlinkMacSystemFont, &quot;San Francisco&quot;, HelveticaNeue-Light, &quot;Helvetica Neue Light&quot;, &quot;Helvetica Neue&quot;, &quot;Segoe UI&quot;, &quot;Fira Sans&quot;, Roboto, Oxygen, Ubuntu, &quot;Droid Sans&quot;, Arial, sans-serif" font-weight="400" font-size="16" text-anchor="start" visibility="hidden"></g><g id="IOS_copy"><path d="M99.18454,178.64981h16.29204c2.65993,0 4.98736,-0.99747 6.9823,-2.65993l0.33249,-0.33249h5.98483c5.65234,0 9.97472,-4.32238 9.97472,-9.97472c5.65234,0 9.97472,-4.32238 9.97472,-9.97472v-0.33249c16.62454,-1.66245 29.92416,-15.95955 29.92416,-33.24907c0,-18.28699 -14.96208,-33.24907 -33.24907,-33.24907c-18.28699,0 -33.24907,14.96208 -33.24907,33.24907c0,0.99747 0,1.66245 0,2.65993l-20.28193,20.28193c-1.66245,1.66245 -2.65993,4.32238 -2.65993,6.9823v16.62454c0,5.65234 4.32238,9.97472 9.97472,9.97472z"></path></g></g></g></g></svg>