<svg xmlns="http://www.w3.org/2000/svg" x="0px" y="0px"
width="50" height="50"
viewBox="0 0 172 172"
style=" fill:#000000;"><g transform=""><g fill="none" fill-rule="nonzero" stroke="none" stroke-width="1" stroke-linecap="butt" stroke-linejoin="miter" stroke-miterlimit="10" stroke-dasharray="" stroke-dashoffset="0" font-family="none" font-weight="none" font-size="none" text-anchor="none" style="mix-blend-mode: normal"><path d="M0,172v-172h172v172z" fill="none"></path><path d="" fill="none"></path><path d="" fill="none"></path><path d="" fill="none"></path><path d="M86,172c-47.49649,0 -86,-38.50351 -86,-86v0c0,-47.49649 38.50351,-86 86,-86h0c47.49649,0 86,38.50351 86,86v0c0,47.49649 -38.50351,86 -86,86z" fill="none"></path><path d="M86,168.56c-45.59663,0 -82.56,-36.96337 -82.56,-82.56v0c0,-45.59663 36.96337,-82.56 82.56,-82.56h0c45.59663,0 82.56,36.96337 82.56,82.56v0c0,45.59663 -36.96337,82.56 -82.56,82.56z" fill="none"></path><path d="M0,172v-172h172v172z" fill="none"></path><path d="M3.44,168.56v-165.12h165.12v165.12z" fill="none"></path><g id="original-icon" fill="#032f9c" opacity="0" visibility="hidden"><path d="M118.86813,13.70625c-2.68212,-0.09019 -5.48957,0.37743 -8.30438,1.29c-5.62962,1.82515 -11.52889,5.38191 -17.58297,10.30656c-2.3726,1.92997 -4.76672,4.13612 -7.16891,6.47687c-2.34922,-2.28133 -4.69415,-4.43498 -7.01437,-6.32234c-6.04921,-4.9207 -11.9325,-8.47211 -17.54937,-10.29313c-5.61687,-1.82101 -11.20568,-1.87744 -15.79578,0.77266c-4.59011,2.6501 -7.33502,7.51483 -8.56641,13.28969c-1.23139,5.77486 -1.10246,12.65197 0.13438,20.35109c0.42961,2.67426 1.04903,5.47981 1.74687,8.33797c-2.62278,0.79487 -5.16982,1.63062 -7.53172,2.55312c-7.12801,2.78404 -13.02601,6.11473 -17.32094,10.07812c-4.29493,3.9634 -7.06813,8.77369 -7.06813,14.05563c0,5.28193 2.7732,10.08551 7.06813,14.0489c4.29493,3.9634 10.19293,7.30081 17.32094,10.08485c2.52556,0.98642 5.2599,1.87463 8.08266,2.71438c-1.01534,3.79377 -1.83797,7.47522 -2.3986,10.965c-1.23783,7.70531 -1.36855,14.58328 -0.13438,20.37125c1.23419,5.78797 3.98049,10.68024 8.59328,13.34344c4.6128,2.6632 10.22663,2.5978 15.85625,0.77265c5.62962,-1.82515 11.52217,-5.37519 17.57625,-10.29984c2.35074,-1.9122 4.72863,-4.09354 7.10844,-6.40969c2.39115,2.32881 4.78081,4.52256 7.14203,6.44328c6.04922,4.92069 11.93922,8.47211 17.5561,10.29313c5.61687,1.82101 11.19896,1.87744 15.78906,-0.77266c4.5901,-2.6501 7.33502,-7.51483 8.5664,-13.28969c1.23139,-5.77486 1.09574,-12.65198 -0.1411,-20.3511c-0.56214,-3.49924 -1.38528,-7.18618 -2.40531,-10.99187c2.916,-0.86019 5.73672,-1.77229 8.33797,-2.78828c7.12801,-2.78404 13.02601,-6.12145 17.32094,-10.08485c4.29493,-3.96339 7.06813,-8.76697 7.06813,-14.0489c0,-5.28193 -2.7732,-10.09223 -7.06813,-14.05563c-4.29493,-3.96339 -10.19293,-7.29409 -17.32094,-10.07812c-2.39579,-0.93574 -4.98192,-1.78238 -7.64594,-2.58672c0.70351,-2.87567 1.32811,-5.70134 1.76031,-8.39172c1.23783,-7.70531 1.36857,-14.59 0.13438,-20.37797c-1.23416,-5.78796 -3.9872,-10.67352 -8.6,-13.33672c-2.3064,-1.3316 -4.86304,-1.97919 -7.54515,-2.06938zM118.55235,20.70719c1.68306,0.04602 3.11886,0.44654 4.34703,1.15563c2.45635,1.41817 4.27199,4.17831 5.24063,8.72094c0.96864,4.54263 0.93516,10.68019 -0.20828,17.79797c-0.39149,2.43698 -0.95994,5.01978 -1.60578,7.6661c-7.03462,-1.69296 -14.74276,-2.94995 -22.95797,-3.6886c-4.12708,-5.7181 -8.36909,-10.91969 -12.64469,-15.54047c2.26054,-2.20663 4.50646,-4.27041 6.69859,-6.05359c5.59246,-4.54915 10.88696,-7.64459 15.30531,-9.07703c2.20918,-0.71623 4.14209,-1.02696 5.82516,-0.98094zM53.27297,20.72734c1.69279,-0.04726 3.62976,0.26265 5.84531,0.98094c4.4311,1.43658 9.73487,4.53065 15.33219,9.08375c2.14763,1.74698 4.34429,3.76577 6.5575,5.91922c-4.30644,4.65744 -8.57817,9.9135 -12.73203,15.68156c-8.18601,0.75228 -15.86664,2.02119 -22.87062,3.72219c-0.64167,-2.63367 -1.20255,-5.20611 -1.59235,-7.6325c-1.14444,-7.12396 -1.173,-13.26911 -0.20156,-17.82484c0.97144,-4.55574 2.80189,-7.32997 5.28094,-8.76125c1.23952,-0.71564 2.68783,-1.12181 4.38062,-1.16906zM85.91937,41.77047c2.80189,3.04921 5.60549,6.38712 8.385,9.97735c-2.73146,-0.11389 -5.49634,-0.18141 -8.30437,-0.18141c-2.86395,0 -5.68147,0.06971 -8.46563,0.18813c2.78052,-3.59348 5.58205,-6.93224 8.385,-9.98406zM86,58.5136c4.67804,0 9.2376,0.19223 13.67265,0.51734c3.0517,4.38309 6.03389,9.03309 8.87547,13.95485c2.49681,4.3246 4.75628,8.64254 6.81281,12.90672c-2.07824,4.32075 -4.37558,8.69708 -6.90687,13.0814c-2.22821,3.85937 -4.55509,7.52488 -6.92031,11.05906c-5.00971,0.41872 -10.20071,0.65172 -15.53375,0.65172c-5.46143,0 -10.76905,-0.24682 -15.88985,-0.68531c-2.32584,-3.48337 -4.61347,-7.10007 -6.80609,-10.89781c-2.5255,-4.3743 -4.81176,-8.73593 -6.88672,-13.04781c2.08366,-4.33623 4.38019,-8.72881 6.92031,-13.12844c2.82668,-4.89595 5.80018,-9.51904 8.83516,-13.88094c4.4828,-0.33243 9.09529,-0.53078 13.82719,-0.53078zM108.53469,59.89094c5.66826,0.70748 10.99036,1.69036 15.9436,2.86891c-1.47032,4.81994 -3.28139,9.85445 -5.47578,15.05c-1.42479,-2.74657 -2.90044,-5.50247 -4.49485,-8.26406c-1.93115,-3.34486 -3.93909,-6.53887 -5.97297,-9.65485zM63.1025,59.94469c-1.99209,3.05925 -3.95226,6.18786 -5.84531,9.46672c-1.61486,2.79703 -3.12115,5.59001 -4.56203,8.37156c-2.17545,-5.16431 -3.97563,-10.17019 -5.43547,-14.96265c4.91824,-1.18114 10.21159,-2.16 15.84281,-2.87563zM131.28437,64.58735c2.43855,0.73783 4.79365,1.50782 6.95391,2.35156c6.57093,2.56645 11.76859,5.60551 15.13735,8.71422c3.36874,3.10871 4.83078,6.07335 4.83078,8.94937c0,2.87603 -1.46203,5.84067 -4.83078,8.94937c-3.36875,3.10871 -8.56642,6.14777 -15.13735,8.71422c-2.4006,0.93762 -5.03818,1.78786 -7.78031,2.59344c-1.95608,-6.0502 -4.4528,-12.36216 -7.42422,-18.80578c3.41647,-7.39786 6.17639,-14.61084 8.25062,-21.4664zM40.6014,64.62094c2.05045,6.78691 4.77513,13.92874 8.14313,21.25141c-2.99091,6.48118 -5.49999,12.82901 -7.46453,18.91328c-2.6455,-0.78439 -5.19367,-1.6116 -7.51828,-2.51953c-6.57093,-2.56645 -11.76859,-5.60551 -15.13734,-8.71422c-3.36875,-3.10871 -4.83078,-6.07335 -4.83078,-8.94937c0,-2.87603 1.46203,-5.84067 4.83078,-8.94937c3.36875,-3.10871 8.56642,-6.14777 15.13734,-8.71422c2.12702,-0.83076 4.44263,-1.58979 6.83969,-2.31797zM86,68.8c-9.45855,0 -17.2,7.74145 -17.2,17.2c0,9.45855 7.74145,17.2 17.2,17.2c9.45855,0 17.2,-7.74145 17.2,-17.2c0,-9.45855 -7.74145,-17.2 -17.2,-17.2zM86,75.68c5.74032,0 10.32,4.57968 10.32,10.32c0,5.74032 -4.57968,10.32 -10.32,10.32c-5.74032,0 -10.32,-4.57968 -10.32,-10.32c0,-5.74032 4.57968,-10.32 10.32,-10.32zM119.08985,94.12969c1.80413,4.26977 3.3723,8.44784 4.68969,12.47672c-4.13699,0.95926 -8.54197,1.76753 -13.17547,2.40531c1.33378,-2.12824 2.65099,-4.29616 3.93719,-6.5239c1.61226,-2.79251 3.10966,-5.58136 4.5486,-8.35813zM52.77578,94.1364c1.44655,2.79398 2.95315,5.59523 4.57547,8.40516c1.27002,2.19974 2.56685,4.34737 3.88344,6.45c-4.6198,-0.6406 -9.01125,-1.45164 -13.13515,-2.41203c1.31143,-4.01659 2.88039,-8.18591 4.67625,-12.44313zM46.1175,113.25797c6.22579,1.47487 12.97384,2.60781 20.12937,3.34594c4.77762,6.91014 9.75194,13.11605 14.7611,18.54375c-2.23949,2.18354 -4.45914,4.23283 -6.6314,5.99985c-5.59246,4.54915 -10.89368,7.63786 -15.31203,9.07031c-4.41836,1.43245 -7.71584,1.24348 -10.17219,-0.17469c-2.45635,-1.41818 -4.26527,-4.17831 -5.23391,-8.72094c-0.96864,-4.54263 -0.94187,-10.67347 0.20156,-17.79125c0.51873,-3.229 1.29396,-6.68661 2.2575,-10.27297zM125.76828,113.28485c0.9709,3.60632 1.74938,7.0801 2.27094,10.32672c1.14444,7.12396 1.173,13.26239 0.20156,17.81812c-0.97144,4.55574 -2.79518,7.33669 -5.27422,8.76797c-2.47904,1.43128 -5.80156,1.62472 -10.23266,0.18813c-4.4311,-1.43658 -9.73488,-4.53737 -15.33219,-9.09047c-2.18789,-1.77972 -4.4229,-3.83891 -6.67844,-6.04016c5.04172,-5.44817 10.05312,-11.68775 14.86187,-18.63781c7.17358,-0.7332 13.94037,-1.85938 20.18313,-3.3325zM75.22313,117.30937c3.53206,0.19249 7.11067,0.3225 10.77687,0.3225c3.54493,0 7.0075,-0.12221 10.4275,-0.30234c-3.49603,4.71683 -7.05962,9.00498 -10.6089,12.8664c-3.54713,-3.86967 -7.10402,-8.16549 -10.59547,-12.88656z"></path></g><g id="subtracted-icon" fill="#032f9c"><path d="M126.41328,15.77563c4.6128,2.6632 7.36584,7.54876 8.6,13.33672c1.2342,5.78797 1.10346,12.67266 -0.13438,20.37797c-0.4322,2.69038 -1.0568,5.51605 -1.76031,8.39172c2.66401,0.80434 5.25014,1.65098 7.64594,2.58672c7.12801,2.78404 13.02601,6.11473 17.32094,10.07812c4.29493,3.9634 7.06813,8.77369 7.06813,14.05563c0,5.28193 -2.7732,10.08551 -7.06813,14.0489c-0.35576,0.3283 -0.72252,0.65231 -1.10007,0.97206c-1.12819,-2.05074 -2.61752,-3.87133 -4.38374,-5.38596c0.26779,-0.22806 0.52584,-0.45665 0.77397,-0.68563c3.36875,-3.1087 4.83078,-6.07335 4.83078,-8.94937c0,-2.87603 -1.46203,-5.84067 -4.83078,-8.94937c-3.36875,-3.10871 -8.56642,-6.14777 -15.13735,-8.71422c-2.16025,-0.84374 -4.51535,-1.61373 -6.95391,-2.35156c-2.07423,6.85557 -4.83415,14.06854 -8.25062,21.4664c1.2868,2.79047 2.48457,5.55625 3.58797,8.28677c-2.03578,1.79176 -3.70836,3.9912 -4.87722,6.45778c-0.81785,-2.19177 -1.70346,-4.41745 -2.65465,-6.66862c-1.43893,2.77676 -2.93634,5.56561 -4.5486,8.35813c-1.28619,2.22775 -2.60341,4.39567 -3.93719,6.5239c3.23216,-0.44489 6.35312,-0.97274 9.34948,-1.57694c-0.04265,0.51622 -0.06441,1.0375 -0.06441,1.56296c0,0.34334 0,0.68667 0,1.03001c-1.03001,0 -2.06002,0 -3.09003,-0.34334c-0.68667,0 -1.37335,0 -2.06002,0c-2.74669,0 -5.49338,1.03001 -7.5534,2.40336c-2.05816,1.71513 -4.80176,4.45842 -5.49152,9.9419c-3.59541,4.81253 -7.275,9.23165 -10.97089,13.22548c2.25554,2.20125 4.49055,4.26044 6.67844,6.04016c0.95254,0.77484 1.89657,1.50761 2.82926,2.19728c0.27522,1.17296 0.59827,2.14924 1.11799,2.92883c-0.34334,0.34334 -0.34334,1.03001 -0.68667,1.37335c-0.3675,1.28626 -0.53832,2.67087 -0.61772,3.94328c-2.29914,-1.47889 -4.6291,-3.18644 -6.98317,-5.10134c-2.36122,-1.92072 -4.75088,-4.11447 -7.14203,-6.44328c-2.37981,2.31615 -4.75769,4.49749 -7.10844,6.40969c-6.05408,4.92465 -11.94663,8.47469 -17.57625,10.29984c-5.62962,1.82515 -11.24345,1.89054 -15.85625,-0.77265c-4.61279,-2.6632 -7.3591,-7.55547 -8.59328,-13.34344c-1.23417,-5.78796 -1.10346,-12.66594 0.13438,-20.37125c0.56062,-3.48978 1.38325,-7.17123 2.3986,-10.965c-2.82276,-0.83975 -5.5571,-1.72795 -8.08266,-2.71438c-7.12801,-2.78404 -13.02601,-6.12145 -17.32094,-10.08485c-4.29493,-3.96339 -7.06813,-8.76697 -7.06813,-14.0489c0,-5.28193 2.7732,-10.09223 7.06813,-14.05563c4.29493,-3.96339 10.19293,-7.29409 17.32094,-10.07812c2.3619,-0.9225 4.90894,-1.75826 7.53172,-2.55312c-0.69784,-2.85816 -1.31726,-5.66371 -1.74687,-8.33797c-1.23684,-7.69912 -1.36577,-14.57623 -0.13438,-20.35109c1.23139,-5.77486 3.9763,-10.63959 8.56641,-13.28969c4.5901,-2.6501 10.17892,-2.59367 15.79578,-0.77266c5.61687,1.82101 11.50016,5.37243 17.54937,10.29313c2.32022,1.88737 4.66515,4.04101 7.01437,6.32234c2.40219,-2.34076 4.79631,-4.5469 7.16891,-6.47687c6.05408,-4.92465 11.95335,-8.48142 17.58297,-10.30656c2.81481,-0.91257 5.62226,-1.38019 8.30438,-1.29c2.68211,0.09019 5.23876,0.73778 7.54515,2.06938zM112.72719,21.68813c-4.41835,1.43245 -9.71286,4.52789 -15.30531,9.07703c-2.19214,1.78318 -4.43805,3.84696 -6.69859,6.05359c4.2756,4.62078 8.5176,9.82237 12.64469,15.54047c8.21521,0.73864 15.92335,1.99563 22.95797,3.6886c0.64585,-2.64632 1.21429,-5.22911 1.60578,-7.6661c1.14344,-7.11778 1.17692,-13.25534 0.20828,-17.79797c-0.96864,-4.54263 -2.78427,-7.30276 -5.24063,-8.72094c-1.22817,-0.70909 -2.66396,-1.1096 -4.34703,-1.15563c-1.68307,-0.04602 -3.61598,0.26471 -5.82516,0.98094zM48.89235,21.89641c-2.47905,1.43128 -4.3095,4.20551 -5.28094,8.76125c-0.97144,4.55574 -0.94288,10.70088 0.20156,17.82484c0.38979,2.42639 0.95067,4.99883 1.59235,7.6325c7.00398,-1.701 14.68461,-2.96991 22.87062,-3.72219c4.15387,-5.76807 8.42559,-11.02413 12.73203,-15.68156c-2.21321,-2.15345 -4.40987,-4.17224 -6.5575,-5.91922c-5.59732,-4.5531 -10.90109,-7.64717 -15.33219,-9.08375c-2.21555,-0.71829 -4.15252,-1.02819 -5.84531,-0.98094c-1.69279,0.04726 -3.14111,0.45343 -4.38062,1.16906zM77.53437,51.75453c2.78416,-0.11842 5.60168,-0.18813 8.46563,-0.18813c2.80803,0 5.57291,0.06752 8.30437,0.18141c-2.77951,-3.59022 -5.58311,-6.92814 -8.385,-9.97735c-2.80295,3.05183 -5.60448,6.39058 -8.385,9.98406zM72.17281,59.04437c-3.03498,4.3619 -6.00848,8.98499 -8.83516,13.88094c-2.54012,4.39963 -4.83665,8.7922 -6.92031,13.12844c2.07496,4.31188 4.36121,8.67352 6.88672,13.04781c2.19263,3.79774 4.48025,7.41444 6.80609,10.89781c5.12079,0.43849 10.42842,0.68531 15.88985,0.68531c5.33304,0 10.52404,-0.23299 15.53375,-0.65172c2.36522,-3.53418 4.6921,-7.1997 6.92031,-11.05906c2.53129,-4.38432 4.82864,-8.76065 6.90687,-13.0814c-2.05653,-4.26418 -4.316,-8.58212 -6.81281,-12.90672c-2.84158,-4.92175 -5.82378,-9.57175 -8.87547,-13.95485c-4.43506,-0.32511 -8.99462,-0.51734 -13.67265,-0.51734c-4.73189,0 -9.34439,0.19834 -13.82719,0.53078zM114.50765,69.54578c1.59441,2.76159 3.07006,5.51749 4.49485,8.26406c2.19439,-5.19555 4.00546,-10.23006 5.47578,-15.05c-4.95324,-1.17855 -10.27534,-2.16143 -15.9436,-2.86891c2.03388,3.11597 4.04181,6.30999 5.97297,9.65485zM47.25969,62.82031c1.45984,4.79246 3.26002,9.79834 5.43547,14.96265c1.44089,-2.78156 2.94717,-5.57454 4.56203,-8.37156c1.89305,-3.27886 3.85322,-6.40747 5.84531,-9.46672c-5.63122,0.71563 -10.92457,1.69448 -15.84281,2.87563zM33.76172,66.9389c-6.57093,2.56645 -11.76859,5.60551 -15.13734,8.71422c-3.36875,3.10871 -4.83078,6.07335 -4.83078,8.94937c0,2.87603 1.46203,5.84067 4.83078,8.94937c3.36875,3.10871 8.56642,6.14777 15.13734,8.71422c2.32461,0.90794 4.87278,1.73515 7.51828,2.51953c1.96454,-6.08427 4.47362,-12.4321 7.46453,-18.91328c-3.368,-7.32267 -6.09268,-14.4645 -8.14313,-21.25141c-2.39706,0.72818 -4.71266,1.4872 -6.83969,2.31797zM103.2,86c0,9.45855 -7.74145,17.2 -17.2,17.2c-9.45855,0 -17.2,-7.74145 -17.2,-17.2c0,-9.45855 7.74145,-17.2 17.2,-17.2c9.45855,0 17.2,7.74145 17.2,17.2zM75.68,86c0,5.74032 4.57968,10.32 10.32,10.32c5.74032,0 10.32,-4.57968 10.32,-10.32c0,-5.74032 -4.57968,-10.32 -10.32,-10.32c-5.74032,0 -10.32,4.57968 -10.32,10.32zM48.09953,106.57953c4.1239,0.96039 8.51536,1.77143 13.13515,2.41203c-1.31658,-2.10263 -2.61342,-4.25026 -3.88344,-6.45c-1.62231,-2.80993 -3.12892,-5.61118 -4.57547,-8.40516c-1.79586,4.25721 -3.36482,8.42654 -4.67625,12.44313zM43.86,123.53094c-1.14344,7.11778 -1.1702,13.24862 -0.20156,17.79125c0.96864,4.54263 2.77756,7.30276 5.23391,8.72094c2.45635,1.41817 5.75383,1.60713 10.17219,0.17469c4.41835,-1.43245 9.71958,-4.52116 15.31203,-9.07031c2.17226,-1.76701 4.39191,-3.81631 6.6314,-5.99985c-5.00916,-5.4277 -9.98348,-11.63361 -14.7611,-18.54375c-7.15553,-0.73813 -13.90358,-1.87107 -20.12937,-3.34594c-0.96354,3.58636 -1.73877,7.04396 -2.2575,10.27297zM85.8186,130.19594c3.54928,-3.86142 7.11287,-8.14958 10.6089,-12.8664c-3.42,0.18014 -6.88257,0.30234 -10.4275,0.30234c-3.6662,0 -7.24481,-0.13001 -10.77687,-0.3225c3.49145,4.72108 7.04834,9.01689 10.59547,12.88656z"></path></g><g><g fill="#032f9c"><g id="Слой_2" font-family="-apple-system, BlinkMacSystemFont, &quot;San Francisco&quot;, HelveticaNeue-Light, &quot;Helvetica Neue Light&quot;, &quot;Helvetica Neue&quot;, &quot;Segoe UI&quot;, &quot;Fira Sans&quot;, Roboto, Oxygen, Ubuntu, &quot;Droid Sans&quot;, Arial, sans-serif" font-weight="400" font-size="16" text-anchor="start" visibility="hidden"></g><g id="Android_x5F_4" font-family="-apple-system, BlinkMacSystemFont, &quot;San Francisco&quot;, HelveticaNeue-Light, &quot;Helvetica Neue Light&quot;, &quot;Helvetica Neue&quot;, &quot;Segoe UI&quot;, &quot;Fira Sans&quot;, Roboto, Oxygen, Ubuntu, &quot;Droid Sans&quot;, Arial, sans-serif" font-weight="400" font-size="16" text-anchor="start" visibility="hidden"></g><g id="Android_x5F_5" font-family="-apple-system, BlinkMacSystemFont, &quot;San Francisco&quot;, HelveticaNeue-Light, &quot;Helvetica Neue Light&quot;, &quot;Helvetica Neue&quot;, &quot;Segoe UI&quot;, &quot;Fira Sans&quot;, Roboto, Oxygen, Ubuntu, &quot;Droid Sans&quot;, Arial, sans-serif" font-weight="400" font-size="16" text-anchor="start" visibility="hidden"></g><g id="Windows_x5F_8" font-family="-apple-system, BlinkMacSystemFont, &quot;San Francisco&quot;, HelveticaNeue-Light, &quot;Helvetica Neue Light&quot;, &quot;Helvetica Neue&quot;, &quot;Segoe UI&quot;, &quot;Fira Sans&quot;, Roboto, Oxygen, Ubuntu, &quot;Droid Sans&quot;, Arial, sans-serif" font-weight="400" font-size="16" text-anchor="start" visibility="hidden"></g><g id="Windows_x5F_10" font-family="-apple-system, BlinkMacSystemFont, &quot;San Francisco&quot;, HelveticaNeue-Light, &quot;Helvetica Neue Light&quot;, &quot;Helvetica Neue&quot;, &quot;Segoe UI&quot;, &quot;Fira Sans&quot;, Roboto, Oxygen, Ubuntu, &quot;Droid Sans&quot;, Arial, sans-serif" font-weight="400" font-size="16" text-anchor="start" visibility="hidden"></g><g id="Color" font-family="-apple-system, BlinkMacSystemFont, &quot;San Francisco&quot;, HelveticaNeue-Light, &quot;Helvetica Neue Light&quot;, &quot;Helvetica Neue&quot;, &quot;Segoe UI&quot;, &quot;Fira Sans&quot;, Roboto, Oxygen, Ubuntu, &quot;Droid Sans&quot;, Arial, sans-serif" font-weight="400" font-size="16" text-anchor="start" visibility="hidden"></g><g id="IOS" font-family="-apple-system, BlinkMacSystemFont, &quot;San Francisco&quot;, HelveticaNeue-Light, &quot;Helvetica Neue Light&quot;, &quot;Helvetica Neue&quot;, &quot;Segoe UI&quot;, &quot;Fira Sans&quot;, Roboto, Oxygen, Ubuntu, &quot;Droid Sans&quot;, Arial, sans-serif" font-weight="400" font-size="16" text-anchor="start" visibility="hidden"></g><g id="IOS_copy"><path d="M166.50662,116.37948c-0.34334,0 -1.03001,0 -1.37335,0c0,0 -11.33011,1.03001 -15.79348,1.71668c0,-0.34334 0.34334,-0.68667 0.68667,-1.37335c1.71668,-2.74669 2.74669,-4.46338 2.74669,-7.89674c0,-7.21007 -5.83672,-12.70345 -13.04679,-12.70345c-7.21007,0 -13.04679,5.83672 -13.04679,12.70345c0,3.09003 1.03001,5.49338 3.09003,8.24008c0.34334,0.34334 0.34334,0.68667 0.68667,1.03001c-4.12004,-0.34334 -14.76347,-1.71668 -14.76347,-1.71668c-2.06002,-0.34334 -3.7767,0.34334 -4.46338,1.03001c-1.37335,1.03001 -2.40336,3.09003 -2.74669,5.49338c0,1.03001 -0.68667,4.80671 -1.71668,16.48015c0,0.68667 0,1.37335 0,2.06002c0,0.68667 0.68667,3.09003 2.74669,4.12004c2.40336,0.68667 4.12004,-0.68667 5.49338,-1.71668c0.34334,-0.34334 1.03001,-0.68667 1.71668,-1.37335c1.71668,-1.37335 3.09003,-1.71668 4.46338,-1.71668c3.43337,0 6.18006,2.74669 6.18006,5.83672c0,3.43337 -2.74669,5.83672 -6.18006,5.83672c-1.71668,0 -2.74669,-0.34334 -4.46338,-1.71668c-0.34334,-0.34334 -1.03001,-0.68667 -1.37335,-1.03001c-1.03001,-1.03001 -2.74669,-2.74669 -5.15005,-2.06002c-1.03001,0.34334 -2.40336,1.03001 -3.09003,3.09003c-0.34334,0.68667 -0.34334,2.40336 -0.34334,3.09003c0.68667,8.58341 1.37335,10.3001 1.71668,11.67344v0.68667c0.68667,3.43337 3.43337,5.83672 6.52339,5.83672h49.09713c4.46338,0 7.89674,-3.09003 7.89674,-7.89674v-40.51371c0,-2.06002 -0.68667,-5.49338 -5.49338,-7.21007zM165.13327,164.10326c0,0.68667 0,1.03001 -1.03001,1.03001h-48.75379v-0.34334v-0.68667c-0.34334,-1.03001 -0.34334,-2.06002 -1.03001,-6.52339c2.40336,1.37335 4.46338,2.06002 7.21007,2.06002c7.21007,0 13.04679,-5.83672 13.04679,-12.70345c0,-7.21007 -5.83672,-12.70345 -13.04679,-12.70345c-3.09003,0 -5.49338,1.03001 -7.21007,2.40336c0.68667,-9.27009 1.37335,-11.33011 1.37335,-11.67344v-0.34334c0,-0.34334 0,-0.34334 0,-0.68667c2.40336,-0.34334 10.64343,0.68667 14.0768,1.03001c3.09003,0.34334 5.49338,-1.03001 6.86673,-3.09003c1.03001,-1.71668 1.71668,-4.80671 -1.37335,-8.58341c-1.37335,-2.06002 -1.71668,-3.09003 -1.71668,-4.46338c0,-3.43337 2.74669,-5.83672 6.18006,-5.83672c3.43337,0 6.18006,2.74669 6.18006,5.83672c0,1.37335 -0.34334,1.71668 -2.06002,4.46338c-2.74669,4.46338 -1.71668,7.5534 -0.68667,8.92675c1.37335,2.06002 3.7767,3.09003 6.52339,2.74669c3.43337,-0.34334 12.36012,-1.37335 15.10681,-1.71668v0v0c0,0 0,0 0,0.34334v40.51371z"></path></g></g><g fill="#000000" opacity="0"><g id="IOS" font-family="-apple-system, BlinkMacSystemFont, &quot;San Francisco&quot;, HelveticaNeue-Light, &quot;Helvetica Neue Light&quot;, &quot;Helvetica Neue&quot;, &quot;Segoe UI&quot;, &quot;Fira Sans&quot;, Roboto, Oxygen, Ubuntu, &quot;Droid Sans&quot;, Arial, sans-serif" font-weight="400" font-size="16" text-anchor="start" visibility="hidden"></g><g id="IOS_copy"><path d="M99.97562,154.6615c0.68667,8.24008 1.37335,10.3001 1.71668,12.36012v0.68667c1.71668,6.52339 7.21007,10.98677 13.39013,10.98677h49.09713c8.24008,0 14.76347,-6.18006 14.76347,-14.76347v-40.17038c0,-6.52339 -4.12004,-11.67344 -10.64343,-13.73346c-1.03001,-0.34334 -2.06002,-0.34334 -3.09003,-0.34334c-0.34334,0 -0.68667,0 -1.03001,0c0,0 -2.06002,0.34334 -4.80671,0.34334c0,-0.34334 0,-0.68667 0,-1.03001c0,-10.98677 -8.92675,-19.57018 -19.91352,-19.57018c-10.64343,0 -19.57018,8.92675 -19.57018,19.57018c0,0.34334 0,0.68667 0,1.03001c-1.03001,0 -2.06002,0 -3.09003,-0.34334v0c-0.68667,0 -1.37335,0 -2.06002,0c-2.74669,0 -5.49338,1.03001 -7.5534,2.40336c-2.06002,1.71668 -4.80671,4.46338 -5.49338,9.95676c-0.34334,1.71668 -0.68667,6.18006 -1.71668,16.48015c-0.34334,1.71668 0,3.09003 0,3.7767c0.34334,1.71668 0.68667,3.09003 1.37335,4.12004c-0.34334,0.34334 -0.34334,1.03001 -0.68667,1.37335c-0.68667,2.40336 -0.68667,5.15005 -0.68667,6.86673zM113.36575,145.04808v0zM114.39576,144.36141v0z"></path></g></g></g></g></g></svg>