<svg xmlns="http://www.w3.org/2000/svg" x="0px" y="0px"
width="50" height="50"
viewBox="0 0 172 172"
style=" fill:#000000;"><g fill="none" fill-rule="nonzero" stroke="none" stroke-width="1" stroke-linecap="butt" stroke-linejoin="miter" stroke-miterlimit="10" stroke-dasharray="" stroke-dashoffset="0" font-family="none" font-weight="none" font-size="none" text-anchor="none" style="mix-blend-mode: normal"><path d="M0,172v-172h172v172z" fill="none"></path><g fill="#032f9c"><path d="M86,10.45438c-3.55504,0 -7.10998,1.71993 -9.07031,5.16672l-72.09219,126.78953c-3.91834,6.89328 1.15173,15.82937 9.07703,15.82937h144.17094c7.9253,0 12.99381,-8.94057 9.07703,-15.8361l-72.09219,-126.78281c-1.96033,-3.44678 -5.51527,-5.16672 -9.07031,-5.16672zM86,17.06563c1.17324,0 2.34711,0.65458 3.09063,1.96187l72.09219,126.7761h-0.00672c1.48418,2.61263 -0.20745,5.5564 -3.09063,5.5564h-144.17094c-2.88318,0 -4.57981,-2.94169 -3.09734,-5.54969l72.09219,-126.78281c0.74351,-1.3073 1.91739,-1.96187 3.09063,-1.96187zM30.96672,17.15969c-1.33938,-0.01601 -2.56628,0.74682 -3.14446,1.95509c-0.57818,1.20826 -0.4025,2.64226 0.45024,3.67522l13.76,17.2c0.768,0.96054 1.99017,1.43829 3.20598,1.25323c1.21582,-0.18506 2.2405,-1.0048 2.68793,-2.15034c0.44743,-1.14554 0.24961,-2.44277 -0.51891,-3.40289l-13.76,-17.2c-0.64382,-0.82923 -1.63102,-1.31912 -2.68078,-1.33031zM140.9325,17.16641c-1.01301,0.03952 -1.95702,0.52382 -2.58,1.32359l-13.76,17.2c-0.76853,0.96012 -0.96634,2.25735 -0.51891,3.40289c0.44743,1.14554 1.47211,1.96528 2.68793,2.15034c1.21582,0.18506 2.43799,-0.29269 3.20598,-1.25323l13.76,-17.2c0.8617,-1.04716 1.02784,-2.50284 0.42427,-3.71724c-0.60357,-1.2144 -1.86424,-1.96093 -3.21927,-1.90635zM10.19906,41.25985c-1.58923,0.03635 -2.94663,1.15679 -3.28352,2.71033c-0.33689,1.55354 0.43445,3.13561 1.86587,3.82701l20.64,10.32c1.69948,0.84974 3.76604,0.16089 4.61578,-1.53859c0.84974,-1.69948 0.16089,-3.76604 -1.53859,-4.61578l-20.64,-10.32c-0.51234,-0.26473 -1.083,-0.39642 -1.65953,-0.38297zM161.69344,41.25985c-0.54024,0.00402 -1.07193,0.13522 -1.55203,0.38297l-20.64,10.32c-1.09959,0.54956 -1.82241,1.64406 -1.89613,2.87112c-0.07372,1.22706 0.51286,2.40023 1.53875,3.07749c1.02588,0.67726 2.33518,0.7557 3.43458,0.20576l20.64,-10.32c1.44856,-0.70062 2.21799,-2.31173 1.85241,-3.87875c-0.36558,-1.56702 -1.76851,-2.67131 -3.37756,-2.6586zM82.55328,58.48c-1.89888,0 -3.43328,1.54112 -3.43328,3.44v48.16c0,1.89888 1.52424,3.44 3.42656,3.44h6.89344c1.89888,0 3.43328,-1.54112 3.43328,-3.44l0.00672,-48.16c0,-1.89888 -1.53096,-3.44 -3.43328,-3.44zM3.44,72.24c-1.24059,-0.01754 -2.39452,0.63425 -3.01993,1.7058c-0.62541,1.07155 -0.62541,2.39684 0,3.46839c0.62541,1.07155 1.77935,1.72335 3.01993,1.7058h20.64c1.24059,0.01754 2.39452,-0.63425 3.01993,-1.7058c0.62541,-1.07155 0.62541,-2.39684 0,-3.46839c-0.62541,-1.07155 -1.77935,-1.72335 -3.01993,-1.7058zM147.92,72.24c-1.24059,-0.01754 -2.39452,0.63425 -3.01993,1.7058c-0.62541,1.07155 -0.62541,2.39684 0,3.46839c0.62541,1.07155 1.77935,1.72335 3.01993,1.7058h20.64c1.24059,0.01754 2.39452,-0.63425 3.01993,-1.7058c0.62541,-1.07155 0.62541,-2.39684 0,-3.46839c-0.62541,-1.07155 -1.77935,-1.72335 -3.01993,-1.7058zM82.55328,123.84c-1.89888,0 -3.43328,1.54112 -3.43328,3.44v6.88c0,1.89888 1.53096,3.44 3.43328,3.44h6.89344c1.89888,0 3.43328,-1.54112 3.43328,-3.44v-6.88c0,-1.89888 -1.53096,-3.44 -3.43328,-3.44z"></path></g></g></svg>