<svg xmlns="http://www.w3.org/2000/svg" x="0px" y="0px"
width="50" height="50"
viewBox="0 0 172 172"
style=" fill:#000000;"><g fill="none" fill-rule="nonzero" stroke="none" stroke-width="1" stroke-linecap="butt" stroke-linejoin="miter" stroke-miterlimit="10" stroke-dasharray="" stroke-dashoffset="0" font-family="none" font-weight="none" font-size="none" text-anchor="none" style="mix-blend-mode: normal"><path d="M0,172v-172h172v172z" fill="none"></path><g id="original-icon" fill="#032f9c"><path d="M55.04,6.88c-30.12087,0 -55.04,22.05247 -55.04,49.58437c0,11.18117 4.38558,21.99287 12.02656,30.68453c-3.09898,6.74581 -6.28067,12.71024 -9.46672,17.61656l-3.81625,5.8789l6.9875,-0.57781c8.71409,-0.71843 18.21273,-3.58279 27.45953,-8.10953l-0.56437,-0.22844c0.21119,0.085 0.43979,0.1056 0.65172,0.18812c0.20272,-0.09952 0.40895,-0.14074 0.61141,-0.24187l-0.5375,0.26875c6.92253,2.68537 14.22043,4.10515 21.69484,4.10515c2.47846,0 4.90402,-0.19035 7.29656,-0.47703c-0.25876,1.94786 -0.43,3.91973 -0.43,5.93265c0,27.53191 24.91913,49.58438 55.04,49.58438c7.47441,0 14.77231,-1.41978 21.69485,-4.10515l-0.5375,-0.26875c0.20244,0.10117 0.40868,0.14239 0.6114,0.24187c0.21194,-0.08253 0.44053,-0.10309 0.65172,-0.18812l-0.56438,0.22844c9.2468,4.52674 18.74544,7.3911 27.45953,8.10953l6.9875,0.57781l-3.81625,-5.8789c-3.18699,-4.90775 -6.36688,-10.87497 -9.46672,-17.62328c7.6379,-8.68818 12.02656,-19.49964 12.02656,-30.67781c0,-27.53191 -24.91913,-49.58437 -55.04,-49.58437c-2.47665,0 -4.90112,0.2015 -7.29656,0.49047c0.2607,-1.9532 0.41656,-3.93566 0.41656,-5.9461c0,-27.53191 -24.91913,-49.58437 -55.04,-49.58437zM55.04,13.76c26.78361,0 48.16,19.34493 48.16,42.70437c0,2.48617 -0.30425,4.90198 -0.76594,7.26969c-18.58681,4.60383 -33.35624,17.77432 -38.50516,34.64187c-2.88497,0.47987 -5.83622,0.79281 -8.88219,0.79281c-6.86736,0 -13.5299,-1.28078 -19.84719,-3.82297h-0.00672l-2.21719,-0.90031l-2.15672,1.075c-6.41184,3.2035 -12.80867,5.12647 -18.92672,6.3761c2.25412,-3.96849 4.53445,-7.70762 6.69188,-12.44985l1.53859,-3.38625l-2.49266,-2.72781c-6.96718,-7.61129 -10.75,-17.14943 -10.75,-26.86828c0,-23.35945 21.37639,-42.70437 48.16,-42.70437zM54.9661,24.09344c-9.34097,0.08336 -17.1261,7.75987 -17.1261,17.18656h6.88c0,-6.53672 5.81962,-11.63055 12.7925,-10.03781c3.6426,0.8313 6.73401,3.92272 7.56531,7.56531c0.89525,3.92469 -0.35811,7.39884 -2.76141,9.78922c-6.32147,6.2881 -10.7164,14.3029 -10.7164,23.64328h6.88c0,-7.2129 3.27842,-13.38509 8.68735,-18.76547c3.9951,-3.97363 6.03222,-9.98936 4.61578,-16.1989c-1.43911,-6.30589 -6.43287,-11.29965 -12.73875,-12.73875c-1.37987,-0.31519 -2.74386,-0.45535 -4.07828,-0.44344zM116.96,68.8c26.78361,0 48.16,19.34493 48.16,42.70437c0,9.71886 -3.78369,19.26114 -10.75,26.86828l-2.49265,2.72781l1.53859,3.38625c2.15743,4.74222 4.43775,8.48135 6.69188,12.44985c-6.11805,-1.24962 -12.51488,-3.1726 -18.92672,-6.3761l-2.15672,-1.075l-2.2239,0.90031c-6.31728,2.54218 -12.97983,3.82297 -19.84719,3.82297c-26.78361,0 -48.16,-19.34493 -48.16,-42.70438c0,-23.35914 21.38284,-42.70437 48.16672,-42.70437zM51.6,79.12v6.88h6.88v-6.88zM12.05344,87.18922c0.20583,0.23364 0.27302,0.54221 0.48375,0.77265l-0.55766,-0.6114zM104.19437,89.4064c-0.89355,0.0018 -1.75135,0.35118 -2.39187,0.97422l-17.1664,16.25937l17.1664,16.25937c0.89287,0.84536 2.16896,1.15005 3.34743,0.79925c1.17847,-0.3508 2.0802,-1.30376 2.3654,-2.49979c0.2852,-1.19604 -0.08947,-2.45336 -0.98283,-3.2982l-8.25735,-7.82063h25.56485c5.73958,0 10.32,4.58042 10.32,10.32v13.76c-0.01754,1.24059 0.63425,2.39452 1.7058,3.01993c1.07155,0.62541 2.39684,0.62541 3.46839,0c1.07155,-0.62541 1.72335,-1.77935 1.7058,-3.01993v-13.76c0,-9.45834 -7.74166,-17.2 -17.2,-17.2h-25.56485l8.25735,-7.82063c1.04504,-0.96079 1.39264,-2.4648 0.87518,-3.78671c-0.51746,-1.32191 -1.79373,-2.19025 -3.21331,-2.18626zM159.94656,142.2225l0.0739,0.16797l-0.5711,0.62485c0.21641,-0.2364 0.28597,-0.55302 0.49719,-0.79281z"></path></g></g></svg>