<svg xmlns="http://www.w3.org/2000/svg" x="0px" y="0px"
width="50" height="50"
viewBox="0 0 172 172"
style=" fill:#000000;"><g fill="none" fill-rule="nonzero" stroke="none" stroke-width="1" stroke-linecap="butt" stroke-linejoin="miter" stroke-miterlimit="10" stroke-dasharray="" stroke-dashoffset="0" font-family="none" font-weight="none" font-size="none" text-anchor="none" style="mix-blend-mode: normal"><path d="M0,172v-172h172v172z" fill="none"></path><g fill="#032f9c"><path d="M17.2,13.76c-1.90232,0 -3.44,1.53768 -3.44,3.44v137.6c0,1.90232 1.53768,3.44 3.44,3.44h79.31485c-1.39664,-2.17752 -2.63037,-4.46512 -3.63485,-6.88h-72.24v-130.72h130.72v72.24c2.41488,1.00792 4.70248,2.24492 6.88,3.64156v-79.32156c0,-1.90232 -1.53768,-3.44 -3.44,-3.44zM72.24,30.96c-5.66037,0 -10.32,4.65963 -10.32,10.32c0.00017,0.91558 0.36529,1.79332 1.01453,2.4389c1.2134,4.34868 4.59251,7.8811 9.30547,7.8811h27.52c4.71295,0 8.09207,-3.53241 9.30547,-7.8811c0.64924,-0.64558 1.01436,-1.52333 1.01453,-2.4389c0,-5.66037 -4.65963,-10.32 -10.32,-10.32zM72.24,37.84h27.52c1.90763,0 3.44,1.53237 3.44,3.44c0,1.90763 -1.53237,3.44 -3.44,3.44h-27.52c-1.90763,0 -3.44,-1.53237 -3.44,-3.44c0,-1.90763 1.53237,-3.44 3.44,-3.44zM127.28,96.32l-2.06265,11.00531c-1.032,0.344 -2.408,0.68934 -3.44,1.37734l-9.29203,-6.53734l-10.32,10.32l6.19469,8.6c-0.344,1.376 -1.03335,2.41337 -1.37735,3.78937l-10.66265,1.72v14.44531l10.66265,1.72c0.344,1.032 0.68935,2.408 1.37735,3.44l-6.19469,9.28531l10.32,10.32l9.29203,-6.18797c1.376,0.688 2.40665,1.03334 3.78265,1.37734l1.72,11.00531h14.10265l2.06266,-10.66265c1.032,-0.344 2.064,-0.68935 3.44,-1.37735l9.29203,6.19469l10.32,-10.32l-6.53735,-8.94937c0.688,-1.376 1.03335,-2.75066 1.37735,-3.78266l10.66265,-2.06265v-14.44531l-11.00531,-1.72c-0.344,-1.032 -0.68934,-2.408 -1.37734,-3.44l6.18797,-9.29203l-9.97063,-9.97734l-8.94937,6.53734c-1.032,-0.688 -2.408,-1.03334 -3.44,-1.37734l-1.72,-11.00531zM133.12531,103.2h2.75469l1.37735,9.28531l2.06265,0.69203c2.064,0.688 4.12531,1.37331 5.84531,2.40531l2.06937,1.37735l7.90797,-5.84531l1.72,1.72l-5.50265,7.90797l1.03469,1.72c1.032,2.064 1.71731,4.13069 2.40531,6.19469l0.68531,2.06265l9.63469,1.37735v2.74797l-9.28531,2.06937l-0.69203,2.06266c-0.688,2.064 -1.37331,4.12531 -2.40531,5.84531l-1.37735,2.06266l5.84531,7.91469l-2.06266,2.06265l-7.90797,-5.50265l-1.72,1.03469c-2.064,1.032 -4.13069,1.71731 -6.19469,2.40531l-2.06265,0.68531l-1.72,9.63469h-2.75469l-1.37734,-9.28531l-2.06266,-0.69203c-2.064,-0.688 -4.12531,-1.37331 -5.84531,-2.40531l-2.06266,-1.37735l-8.25734,5.50265l-2.06266,-2.06265l5.50266,-7.91469l-1.03469,-1.72c-1.032,-2.064 -1.71731,-4.46797 -2.40531,-6.18797l-0.69203,-2.06266l-9.28531,-1.72v-2.75469l9.63469,-1.72l0.34266,-2.40531c0.344,-1.72 1.03065,-3.78937 2.06265,-5.50937l1.37735,-1.72l-5.50266,-7.90797l2.06266,-2.06266l7.90797,5.50266l1.72,-0.69203c2.408,-1.032 4.47334,-2.05997 6.53734,-2.74797l2.06266,-0.34266zM134.16,120.05735c-7.568,0 -13.76,6.192 -13.76,13.76c0,7.568 6.192,13.76 13.76,13.76c7.568,0 13.76,-5.848 13.76,-13.76c0,-7.568 -6.192,-13.76 -13.76,-13.76zM134.16,127.28c3.784,0 6.88,2.752 6.88,6.88c0,3.784 -3.096,6.88 -6.88,6.88c-3.784,0 -6.88,-3.096 -6.88,-6.88c0,-3.784 3.096,-6.88 6.88,-6.88z"></path></g></g></svg>