
<svg xmlns="http://www.w3.org/2000/svg" x="0px" y="0px"
width="50" height="50"
viewBox="0 0 172 172"
style=" fill:#000000;"><g fill="none" fill-rule="nonzero" stroke="none" stroke-width="1" stroke-linecap="butt" stroke-linejoin="miter" stroke-miterlimit="10" stroke-dasharray="" stroke-dashoffset="0" font-family="none" font-weight="none" font-size="none" text-anchor="none" style="mix-blend-mode: normal"><path d="M0,172v-172h172v172z" fill="none"></path><g fill="#032f9c"><path d="M76.38547,6.88c-1.6856,0 -3.12121,1.2241 -3.39297,2.88906l-3.28547,20.13609c-4.12112,1.18336 -8.08572,2.81086 -11.825,4.85766l-16.61547,-11.87203c-1.36568,-0.97696 -3.24758,-0.82399 -4.43438,0.36281l-13.37703,13.37031c-1.17992,1.17992 -1.34273,3.04182 -0.38297,4.4075l11.69063,16.72297c-2.07776,3.7668 -3.73756,7.75027 -4.945,11.89891l-20.05547,3.34594c-1.65808,0.2752 -2.87563,1.70409 -2.87563,3.38625v18.92c0,1.6684 1.19443,3.09729 2.83531,3.38625l20.06219,3.56094c1.20056,4.13488 2.85348,8.12179 4.945,11.89891l-11.83844,16.555c-0.97696,1.36912 -0.81727,3.24413 0.36953,4.43437l13.37031,13.39047c1.18336,1.18336 3.05214,1.33929 4.4075,0.38297l16.75656,-11.73094c3.7668,2.07088 7.73436,3.70773 11.84516,4.89797l3.35937,20.16297c0.2752,1.65808 1.70409,2.87563 3.38625,2.87563h18.92c1.66496,0 3.09385,-1.19443 3.38625,-2.83531l0.90031,-5.08609c-2.18096,-1.59272 -4.19664,-3.38356 -6.02672,-5.36156l-1.14219,6.40297h-13.115l-3.24516,-19.47765c-0.2236,-1.3588 -1.23184,-2.44461 -2.56656,-2.77485c-4.95704,-1.2212 -9.70601,-3.18323 -14.11609,-5.82515c-1.1696,-0.70176 -2.63467,-0.64979 -3.74235,0.12765l-16.17875,11.33453l-9.27187,-9.2786l11.42859,-15.99062c0.79808,-1.118 0.85989,-2.60618 0.14781,-3.78266c-2.666,-4.40664 -4.65067,-9.17184 -5.88562,-14.1564c-0.33024,-1.31752 -1.40309,-2.31921 -2.74125,-2.55312l-19.37016,-3.43328v-13.12172l19.35672,-3.225c1.35192,-0.2236 2.44116,-1.23201 2.77484,-2.55985c1.2556,-5.01208 3.22994,-9.7704 5.88562,-14.15641c0.7052,-1.16616 0.6565,-2.64122 -0.12094,-3.75578l-11.30094,-16.1586l9.2786,-9.27188l16.03765,11.46219c1.11112,0.79808 2.59274,0.86661 3.76922,0.15453c4.37224,-2.62472 9.12449,-4.57364 14.12281,-5.79828c1.3416,-0.33024 2.34968,-1.42604 2.57328,-2.78828l3.17125,-19.45078h13.10828l3.41984,19.55828c0.23392,1.3416 1.23217,2.41773 2.55313,2.74797c4.95704,1.23496 9.69666,3.21339 14.07578,5.85875c1.17992,0.71552 2.66794,0.65043 3.78938,-0.15453l16.0914,-11.56969l9.27188,9.26516l-11.46219,16.34c-0.78432,1.11112 -0.8327,2.57619 -0.13438,3.74235c2.61096,4.34472 4.55644,9.06203 5.79828,14.00187c0.33368,1.33472 1.42948,2.33969 2.78828,2.55985l19.63219,3.21156v13.10828l-6.4164,1.12203c1.98488,1.83352 3.78228,3.8556 5.375,6.04688l5.07265,-0.8936c1.64776,-0.28896 2.84203,-1.71785 2.84203,-3.38625v-18.92c0,-1.6856 -1.2241,-3.12121 -2.88906,-3.39297l-20.32422,-3.32578c-1.19368,-4.07984 -2.81773,-7.99902 -4.85765,-11.71078l11.86531,-16.91109c0.95976,-1.36568 0.79695,-3.22758 -0.38297,-4.4075l-13.38375,-13.37703c-1.19024,-1.19024 -3.07197,-1.34337 -4.44109,-0.35609l-16.65578,11.97281c-3.74616,-2.07088 -7.7042,-3.70757 -11.81156,-4.90469l-3.54078,-20.25703c-0.2924,-1.64776 -1.72457,-2.84875 -3.39297,-2.84875zM86,58.48c-15.17384,0 -27.52,12.34616 -27.52,27.52c0,14.47896 11.24671,26.35626 25.45735,27.41922c0.61232,-2.35296 1.42115,-4.62873 2.41875,-6.79937c-0.1204,0 -0.2357,0.02015 -0.3561,0.02015c-11.38296,0 -20.64,-9.25704 -20.64,-20.64c0,-11.38296 9.25704,-20.64 20.64,-20.64c11.38296,0 20.64,9.25704 20.64,20.64c0,0.1204 -0.02015,0.2357 -0.02015,0.3561c2.17064,-0.9976 4.44641,-1.80643 6.79937,-2.41875c-1.06296,-14.21064 -12.94026,-25.45735 -27.41922,-25.45735zM123.84,89.44c-18.95785,0 -34.4,15.44215 -34.4,34.4c0,18.95785 15.44215,34.4 34.4,34.4c8.24399,0 15.815,-2.92749 21.7486,-7.78703l20.53922,20.53922l4.86437,-4.86437l-20.53922,-20.53922c4.85954,-5.93359 7.78703,-13.50461 7.78703,-21.7486c0,-18.95785 -15.44215,-34.4 -34.4,-34.4zM123.84,96.32c15.23962,0 27.52,12.28038 27.52,27.52c0,15.23962 -12.28038,27.52 -27.52,27.52c-15.23962,0 -27.52,-12.28038 -27.52,-27.52c0,-15.23962 12.28038,-27.52 27.52,-27.52z"></path></g></g></svg>