<svg xmlns="http://www.w3.org/2000/svg" x="0px" y="0px"
width="50" height="50"
viewBox="0 0 172 172"
style=" fill:#000000;"><g fill="none" fill-rule="nonzero" stroke="none" stroke-width="1" stroke-linecap="butt" stroke-linejoin="miter" stroke-miterlimit="10" stroke-dasharray="" stroke-dashoffset="0" font-family="none" font-weight="none" font-size="none" text-anchor="none" style="mix-blend-mode: normal"><path d="M0,172v-172h172v172z" fill="none"></path><g fill="#032f9c"><path d="M110.8325,7.095l-2.6875,1.075l-9.675,3.7625l-2.6875,1.075l0.645,2.795l2.0425,10.32c-1.00781,1.00781 -2.08281,2.19031 -3.225,3.44l-10.2125,-2.2575l-2.795,-0.645l-1.075,2.58l-4.1925,9.675l-1.075,2.58l2.365,1.6125l8.815,5.9125c-0.1075,1.67969 -0.09406,3.37281 0,5.0525l-9.03,5.59l-2.4725,1.505l1.075,2.6875l3.7625,9.675l1.075,2.6875l2.795,-0.645l10.32,-2.0425c1.04813,1.24969 2.20375,2.37844 3.44,3.44l-2.365,10.32l-0.645,2.795l2.6875,1.1825l9.675,4.085l2.58,1.075l1.6125,-2.365l5.9125,-8.815c1.67969,0.1075 3.37281,0.09406 5.0525,0l5.59,9.1375l1.505,2.365l2.6875,-0.9675l12.3625,-4.945l-0.645,-2.795l-2.365,-11.2875c1.29,-1.08844 2.45906,-2.2575 3.5475,-3.5475l10.4275,2.6875l2.9025,0.7525l1.075,-2.6875l4.1925,-9.675l1.1825,-2.6875l-2.58,-1.6125l-9.03,-5.4825c0.1075,-1.67969 0.09406,-3.37281 0,-5.0525l9.03,-5.59l2.4725,-1.505l-1.075,-2.6875l-3.7625,-9.675l-1.075,-2.6875l-2.9025,0.645l-10.535,2.365c-1.04812,-1.24969 -2.20375,-2.37844 -3.44,-3.44l2.2575,-10.32l0.645,-2.795l-2.58,-1.075l-9.675,-4.1925l-2.6875,-1.075l-1.6125,2.4725l-5.4825,8.7075c-1.58562,-0.16125 -3.30562,-0.01344 -5.0525,0.1075l-5.59,-9.1375zM107.93,15.5875l5.0525,8.2775l1.29,2.0425l2.365,-0.5375c2.43219,-0.5375 4.73,-0.24187 7.8475,0.1075l2.15,0.215l1.1825,-1.8275l4.945,-7.8475l4.3,1.8275l-2.15,9.245l-0.5375,2.2575l1.935,1.29c2.10969,1.505 3.87,3.26531 5.375,5.375l1.29,1.935l2.2575,-0.5375l9.46,-2.15l1.72,4.3l-8.2775,4.945l-1.8275,1.1825l0.215,2.15c0.3225,2.87563 0.3225,5.29438 0,8.17l-0.215,2.15l1.8275,1.1825l8.17,5.0525l-1.72,4.085l-9.5675,-2.365l-2.365,-0.5375l-1.29,1.935c-1.505,2.10969 -3.26531,3.87 -5.375,5.375l-1.8275,1.29l0.43,2.2575l2.15,10.2125l-4.3,1.6125l-4.945,-8.17l-1.1825,-1.8275l-2.15,0.215c-2.87562,0.3225 -5.29437,0.3225 -8.17,0l-2.15,-0.215l-1.075,1.72l-5.2675,7.955l-4.4075,-1.935l2.0425,-9.245l0.5375,-2.15l-1.8275,-1.3975c-2.10969,-1.505 -3.87,-3.26531 -5.375,-5.375l-1.29,-1.8275l-2.2575,0.43l-9.245,1.935l-1.6125,-4.3l8.17,-5.0525l1.935,-1.1825l-0.3225,-2.15c-0.3225,-2.87562 -0.3225,-5.29437 0,-8.17l0.3225,-2.0425l-1.8275,-1.1825l-7.955,-5.2675l1.8275,-4.4075l9.3525,2.15l2.0425,0.43l1.29,-1.6125c1.96188,-2.28437 3.9775,-4.3 5.6975,-6.02l1.29,-1.29l-0.3225,-1.72l-1.935,-9.245zM120.4,34.4c-9.46,0 -17.2,7.74 -17.2,17.2c0,9.46 7.74,17.2 17.2,17.2c9.46,0 17.2,-7.74 17.2,-17.2c0,-9.46 -7.74,-17.2 -17.2,-17.2zM120.4,41.28c5.73781,0 10.32,4.58219 10.32,10.32c0,5.73781 -4.58219,10.32 -10.32,10.32c-5.73781,0 -10.32,-4.58219 -10.32,-10.32c0,-5.73781 4.58219,-10.32 10.32,-10.32zM46.5475,68.8l-0.43,2.9025l-1.72,11.18c-1.86781,0.59125 -3.66844,1.45125 -5.375,2.365l-11.825,-8.6l-12.04,12.04l1.6125,2.365l6.5575,9.46c-0.92719,1.84094 -1.74687,3.68188 -2.365,5.4825l-11.2875,2.0425l-2.795,0.5375v16.77l2.795,0.5375l11.2875,2.0425c0.60469,1.88125 1.43781,3.64156 2.365,5.375l-6.7725,9.1375l-1.8275,2.365l12.04,12.04l2.365,-1.6125l9.46,-6.5575c1.84094,0.92719 3.68188,1.74688 5.4825,2.365l1.72,11.18l0.43,2.9025h16.8775l0.43,-2.795l2.15,-11.2875c1.86781,-0.59125 3.66844,-1.45125 5.375,-2.365l11.825,8.6l12.04,-12.04l-1.6125,-2.365l-6.88,-9.5675c0.90031,-1.81406 1.76031,-3.60125 2.365,-5.375l11.61,-2.0425l2.795,-0.5375v-16.8775l-14.5125,-2.15c-0.59125,-1.85437 -1.34375,-3.66844 -2.2575,-5.375l6.88,-9.46l1.6125,-2.365l-1.935,-2.0425l-7.955,-8.2775l-2.0425,-2.15l-2.4725,1.72l-9.46,6.88c-1.81406,-0.90031 -3.60125,-1.76031 -5.375,-2.365l-1.72,-11.18l-0.43,-2.9025zM52.46,75.68h5.16l1.935,12.255l1.935,0.645c3.09063,1.03469 5.97969,2.00219 8.2775,3.44l1.935,1.1825l1.8275,-1.29l8.6,-6.235l3.87,4.085l-6.235,8.7075l-1.3975,1.8275l1.29,1.935c1.54531,2.4725 2.75469,5.33469 3.3325,7.955l0.5375,2.2575l2.2575,0.3225l10.535,1.6125v5.2675l-10.535,1.8275l-2.0425,0.3225l-0.645,1.935c-1.03469,3.09063 -2.00219,5.97969 -3.44,8.2775l-1.29,1.935l1.3975,1.8275l6.235,8.7075l-3.87,3.7625l-8.6,-6.235l-1.8275,-1.29l-1.935,1.1825c-2.4725,1.54531 -5.33469,2.75469 -7.955,3.3325l-2.15,0.5375l-0.43,2.2575l-1.8275,10.2125h-5.2675l-1.935,-12.255l-1.935,-0.645c-3.09062,-1.03469 -5.97969,-2.00219 -8.2775,-3.44l-1.935,-1.1825l-1.8275,1.29l-8.7075,5.9125l-3.7625,-3.7625l6.1275,-8.2775l1.505,-1.935l-1.29,-1.935c-1.54531,-2.4725 -2.75469,-5.22719 -3.3325,-7.8475l-0.5375,-2.2575l-2.2575,-0.43l-10.2125,-1.8275v-5.375l10.2125,-1.8275l2.0425,-0.43l0.645,-1.8275c1.03469,-3.09062 2.00219,-5.97969 3.44,-8.2775l1.1825,-1.935l-1.29,-1.8275l-5.9125,-8.7075l3.87,-3.7625l8.6,6.235l1.8275,1.29l1.935,-1.1825c2.4725,-1.54531 5.33469,-2.75469 7.955,-3.3325l2.2575,-0.5375l0.3225,-2.2575zM55.04,99.76c-9.44656,0 -17.2,7.75344 -17.2,17.2c0,9.44656 7.75344,17.2 17.2,17.2c9.44656,0 17.2,-7.75344 17.2,-17.2c0,-9.44656 -7.75344,-17.2 -17.2,-17.2zM55.04,106.64c5.6975,0 10.32,4.6225 10.32,10.32c0,5.6975 -4.6225,10.32 -10.32,10.32c-5.6975,0 -10.32,-4.6225 -10.32,-10.32c0,-5.6975 4.6225,-10.32 10.32,-10.32z"></path></g></g></svg>