<svg xmlns="http://www.w3.org/2000/svg" x="0px" y="0px"
width="50" height="50"
viewBox="0 0 172 172"
style=" fill:#000000;"><g fill="none" fill-rule="nonzero" stroke="none" stroke-width="1" stroke-linecap="butt" stroke-linejoin="miter" stroke-miterlimit="10" stroke-dasharray="" stroke-dashoffset="0" font-family="none" font-weight="none" font-size="none" text-anchor="none" style="mix-blend-mode: normal"><path d="M0,172v-172h172v172z" fill="none" stroke="none"></path><g id="original-icon" fill="#3255ae" stroke="none" opacity="0" visibility="hidden"><path d="M86,6.88c-43.65603,0 -79.12,35.46397 -79.12,79.12c0,43.65603 35.46397,79.12 79.12,79.12c43.65603,0 79.12,-35.46397 79.12,-79.12c0,-43.65603 -35.46397,-79.12 -79.12,-79.12zM86,13.76c39.93779,0 72.24,32.30221 72.24,72.24c0,39.93779 -32.30221,72.24 -72.24,72.24c-39.93779,0 -72.24,-32.30221 -72.24,-72.24c0,-39.93779 32.30221,-72.24 72.24,-72.24zM86,37.84c-5.69958,0 -10.32,4.62042 -10.32,10.32c0,5.69958 4.62042,10.32 10.32,10.32c5.69958,0 10.32,-4.62042 10.32,-10.32c0,-5.69958 -4.62042,-10.32 -10.32,-10.32zM72.24,72.24v6.88h3.44h3.44v44.72h-3.44h-3.44v6.88h3.44h3.44h13.76h3.44h3.44v-6.88h-3.44h-3.44v-51.6h-3.44h-13.76z"></path></g><g id="subtracted-icon" fill="#3255ae" stroke="none"><path d="M165.12,86c0,4.34152 -0.35074,8.60202 -1.02539,12.75467c-2.64809,-0.80173 -4.75813,-1.66589 -6.57097,-2.52678c0.47217,-3.34077 0.71636,-6.75547 0.71636,-10.2279c0,-39.93779 -32.30221,-72.24 -72.24,-72.24c-39.93779,0 -72.24,32.30221 -72.24,72.24c0,39.93779 32.30221,72.24 72.24,72.24c8.31994,0 16.30851,-1.40186 23.7427,-3.98257c1.35173,2.088 2.75221,4.01529 4.1667,5.78849c-8.68152,3.27922 -18.08816,5.07409 -27.9094,5.07409c-43.65603,0 -79.12,-35.46397 -79.12,-79.12c0,-43.65603 35.46397,-79.12 79.12,-79.12c43.65603,0 79.12,35.46397 79.12,79.12zM96.32,48.16c0,5.69958 -4.62042,10.32 -10.32,10.32c-5.69958,0 -10.32,-4.62042 -10.32,-10.32c0,-5.69958 4.62042,-10.32 10.32,-10.32c5.69958,0 10.32,4.62042 10.32,10.32zM92.88,72.24v51.6h5.57497c0.3521,2.35806 0.79104,4.62581 1.30503,6.80551v0.07449h-27.52v-6.88h6.88v-44.72h-6.88v-6.88z"></path></g><g stroke="none"><g fill="#3255ae"><g id="Слой_2" font-family="-apple-system, BlinkMacSystemFont, &quot;San Francisco&quot;, HelveticaNeue-Light, &quot;Helvetica Neue Light&quot;, &quot;Helvetica Neue&quot;, &quot;Segoe UI&quot;, &quot;Fira Sans&quot;, Roboto, Oxygen, Ubuntu, &quot;Droid Sans&quot;, Arial, sans-serif" font-weight="400" font-size="16" text-anchor="start" visibility="hidden"></g><g id="Android_x5F_4" font-family="-apple-system, BlinkMacSystemFont, &quot;San Francisco&quot;, HelveticaNeue-Light, &quot;Helvetica Neue Light&quot;, &quot;Helvetica Neue&quot;, &quot;Segoe UI&quot;, &quot;Fira Sans&quot;, Roboto, Oxygen, Ubuntu, &quot;Droid Sans&quot;, Arial, sans-serif" font-weight="400" font-size="16" text-anchor="start" visibility="hidden"></g><g id="Android_x5F_5" font-family="-apple-system, BlinkMacSystemFont, &quot;San Francisco&quot;, HelveticaNeue-Light, &quot;Helvetica Neue Light&quot;, &quot;Helvetica Neue&quot;, &quot;Segoe UI&quot;, &quot;Fira Sans&quot;, Roboto, Oxygen, Ubuntu, &quot;Droid Sans&quot;, Arial, sans-serif" font-weight="400" font-size="16" text-anchor="start" visibility="hidden"></g><g id="Windows_x5F_8" font-family="-apple-system, BlinkMacSystemFont, &quot;San Francisco&quot;, HelveticaNeue-Light, &quot;Helvetica Neue Light&quot;, &quot;Helvetica Neue&quot;, &quot;Segoe UI&quot;, &quot;Fira Sans&quot;, Roboto, Oxygen, Ubuntu, &quot;Droid Sans&quot;, Arial, sans-serif" font-weight="400" font-size="16" text-anchor="start" visibility="hidden"></g><g id="Windows_x5F_10" font-family="-apple-system, BlinkMacSystemFont, &quot;San Francisco&quot;, HelveticaNeue-Light, &quot;Helvetica Neue Light&quot;, &quot;Helvetica Neue&quot;, &quot;Segoe UI&quot;, &quot;Fira Sans&quot;, Roboto, Oxygen, Ubuntu, &quot;Droid Sans&quot;, Arial, sans-serif" font-weight="400" font-size="16" text-anchor="start" visibility="hidden"></g><g id="Color" font-family="-apple-system, BlinkMacSystemFont, &quot;San Francisco&quot;, HelveticaNeue-Light, &quot;Helvetica Neue Light&quot;, &quot;Helvetica Neue&quot;, &quot;Segoe UI&quot;, &quot;Fira Sans&quot;, Roboto, Oxygen, Ubuntu, &quot;Droid Sans&quot;, Arial, sans-serif" font-weight="400" font-size="16" text-anchor="start" visibility="hidden"></g><g id="IOS" font-family="-apple-system, BlinkMacSystemFont, &quot;San Francisco&quot;, HelveticaNeue-Light, &quot;Helvetica Neue Light&quot;, &quot;Helvetica Neue&quot;, &quot;Segoe UI&quot;, &quot;Fira Sans&quot;, Roboto, Oxygen, Ubuntu, &quot;Droid Sans&quot;, Arial, sans-serif" font-weight="400" font-size="16" text-anchor="start" visibility="hidden"></g><g id="IOS_copy"><path d="M138.12121,172l-1.69394,-0.67758c-1.01636,-0.67758 -32.18485,-16.60061 -32.18485,-60.64303v-2.7103l2.7103,-0.67758c9.48606,-2.03273 14.56788,-4.40424 18.63333,-6.43697c4.06545,-2.03273 7.45333,-3.72667 12.53515,-3.72667c5.08182,0 8.4697,1.69394 12.53515,3.72667c4.06545,2.03273 9.14727,4.40424 18.63333,6.43697l2.7103,0.67758v2.7103c0,42.68727 -30.8297,59.96545 -32.18485,60.64303zM111.01818,113.3897c1.01636,32.86242 21.00485,47.4303 27.10303,50.81818c5.75939,-3.72667 26.08667,-19.31091 27.10303,-50.81818c-8.4697,-2.03273 -13.55152,-4.74303 -17.61697,-6.43697c-3.72667,-2.03273 -5.75939,-3.04909 -9.48606,-3.04909c-3.72667,0 -5.75939,1.01636 -9.48606,3.04909c-3.72667,1.69394 -8.80848,4.40424 -17.61697,6.43697z"></path></g></g><g fill="#000000" opacity="0"><g id="IOS" font-family="-apple-system, BlinkMacSystemFont, &quot;San Francisco&quot;, HelveticaNeue-Light, &quot;Helvetica Neue Light&quot;, &quot;Helvetica Neue&quot;, &quot;Segoe UI&quot;, &quot;Fira Sans&quot;, Roboto, Oxygen, Ubuntu, &quot;Droid Sans&quot;, Arial, sans-serif" font-weight="400" font-size="16" text-anchor="start" visibility="hidden"></g><g id="IOS_copy"><path d="M178.77576,107.46091v-5.42061l-5.42061,-1.01636l-2.7103,-0.67758c-8.80848,-1.69394 -13.21273,-4.06545 -16.93939,-6.09818c-4.40424,-2.03273 -8.80848,-4.40424 -15.58424,-4.40424c-6.77576,0 -11.18,2.37152 -15.58424,4.40424c-4.06545,2.03273 -8.4697,4.06545 -16.93939,6.09818l-2.7103,0.33879l-5.42061,1.35515v5.42061v2.7103c0,48.10788 34.55636,66.06364 36.2503,66.74121l1.69394,0.67758l3.04909,1.69394l3.04909,-1.69394l1.69394,-1.01636c1.35515,-0.67758 35.57273,-19.98848 35.57273,-66.40242z"></path></g></g></g><path d="M104.24242,172v-74.87212h67.75758v74.87212z" id="overlay-drag" fill="#ff0000" stroke="none" opacity="0"></path></g></svg>