<svg xmlns="http://www.w3.org/2000/svg" x="0px" y="0px"
width="50" height="50"
viewBox="0 0 172 172"
style=" fill:#000000;"><g fill="none" fill-rule="nonzero" stroke="none" stroke-width="1" stroke-linecap="butt" stroke-linejoin="miter" stroke-miterlimit="10" stroke-dasharray="" stroke-dashoffset="0" font-family="none" font-weight="none" font-size="none" text-anchor="none" style="mix-blend-mode: normal"><path d="M0,172v-172h172v172z" fill="none"></path><g fill="#032f9c"><path d="M44.72,0c-5.65694,0 -10.32,4.65923 -10.32,10.32v65.36h6.88v-65.36c0,-1.94163 1.50142,-3.44 3.44,-3.44h116.96c1.93858,0 3.44,1.49837 3.44,3.44v151.36c0,1.9365 -1.5035,3.44 -3.44,3.44h-116.96c-1.9365,0 -3.44,-1.5035 -3.44,-3.44v-65.36h-6.88v65.36c0,5.65902 4.66098,10.32 10.32,10.32h116.96c5.65902,0 10.32,-4.66098 10.32,-10.32v-151.36c0,-5.66077 -4.66306,-10.32 -10.32,-10.32zM75.82781,45.06265c-1.39859,0.00309 -2.65612,0.85256 -3.18113,2.14887c-0.52501,1.29631 -0.21302,2.78145 0.78926,3.75691l31.58485,31.59156h-101.58078c-1.24059,-0.01754 -2.39452,0.63425 -3.01993,1.7058c-0.62541,1.07155 -0.62541,2.39684 0,3.46839c0.62541,1.07155 1.77935,1.72335 3.01993,1.7058h101.58078l-31.59156,31.59156c-0.89864,0.86282 -1.26063,2.14403 -0.94636,3.34954c0.31427,1.2055 1.25569,2.14693 2.4612,2.4612c1.20551,0.31427 2.48672,-0.04772 3.34954,-0.94636l39.89594,-39.89594l-39.88922,-39.89594c-0.64928,-0.66743 -1.54136,-1.04317 -2.4725,-1.04141z"></path></g></g></svg>