<svg xmlns="http://www.w3.org/2000/svg" x="0px" y="0px"
width="50" height="50"
viewBox="0 0 172 172"
style=" fill:#000000;"><g fill="none" fill-rule="nonzero" stroke="none" stroke-width="1" stroke-linecap="butt" stroke-linejoin="miter" stroke-miterlimit="10" stroke-dasharray="" stroke-dashoffset="0" font-family="none" font-weight="none" font-size="none" text-anchor="none" style="mix-blend-mode: normal"><path d="M0,172v-172h172v172z" fill="none"></path><g fill="#032f9c"><path d="M50.955,10.32c-1.63937,0.30906 -2.82187,1.76031 -2.795,3.44v34.4h-34.4c-1.89469,0 -3.44,1.54531 -3.44,3.44v13.76c0,1.89469 1.54531,3.44 3.44,3.44h34.4v34.4h-34.4c-1.89469,0 -3.44,1.54531 -3.44,3.44v13.76c0,1.89469 1.54531,3.44 3.44,3.44h34.4v34.4c0,1.89469 1.54531,3.44 3.44,3.44h13.76c1.89469,0 3.44,-1.54531 3.44,-3.44v-34.4h34.4v34.4c0,1.89469 1.54531,3.44 3.44,3.44h13.76c1.89469,0 3.44,-1.54531 3.44,-3.44v-34.4h34.4c1.89469,0 3.44,-1.54531 3.44,-3.44v-13.76c0,-1.89469 -1.54531,-3.44 -3.44,-3.44h-34.4v-34.4h34.4c1.89469,0 3.44,-1.54531 3.44,-3.44v-13.76c0,-1.89469 -1.54531,-3.44 -3.44,-3.44h-34.4v-34.4c0,-1.89469 -1.54531,-3.44 -3.44,-3.44h-13.76c-1.89469,0 -3.44,1.54531 -3.44,3.44v34.4h-34.4v-34.4c0,-1.89469 -1.54531,-3.44 -3.44,-3.44h-13.76c-0.1075,0 -0.215,0 -0.3225,0c-0.1075,0 -0.215,0 -0.3225,0zM55.04,17.2h6.88v34.4c0,1.89469 1.54531,3.44 3.44,3.44h41.28c1.89469,0 3.44,-1.54531 3.44,-3.44v-34.4h6.88v34.4c0,1.89469 1.54531,3.44 3.44,3.44h34.4v6.88h-34.4c-1.89469,0 -3.44,1.54531 -3.44,3.44v41.28c0,1.89469 1.54531,3.44 3.44,3.44h34.4v6.88h-34.4c-1.89469,0 -3.44,1.54531 -3.44,3.44v34.4h-6.88v-34.4c0,-1.89469 -1.54531,-3.44 -3.44,-3.44h-41.28c-1.89469,0 -3.44,1.54531 -3.44,3.44v34.4h-6.88v-34.4c0,-1.89469 -1.54531,-3.44 -3.44,-3.44h-34.4v-6.88h34.4c1.89469,0 3.44,-1.54531 3.44,-3.44v-41.28c0,-1.89469 -1.54531,-3.44 -3.44,-3.44h-34.4v-6.88h34.4c1.89469,0 3.44,-1.54531 3.44,-3.44zM64.715,61.92c-1.63937,0.30906 -2.82187,1.76031 -2.795,3.44v41.28c0,1.89469 1.54531,3.44 3.44,3.44h41.28c1.89469,0 3.44,-1.54531 3.44,-3.44v-41.28c0,-1.89469 -1.54531,-3.44 -3.44,-3.44h-41.28c-0.1075,0 -0.215,0 -0.3225,0c-0.1075,0 -0.215,0 -0.3225,0zM68.8,68.8h34.4v34.4h-34.4z"></path></g></g></svg>