<svg xmlns="http://www.w3.org/2000/svg" x="0px" y="0px"
width="50" height="50"
viewBox="0 0 172 172"
style=" fill:#000000;"><g fill="none" fill-rule="nonzero" stroke="none" stroke-width="1" stroke-linecap="butt" stroke-linejoin="miter" stroke-miterlimit="10" stroke-dasharray="" stroke-dashoffset="0" font-family="none" font-weight="none" font-size="none" text-anchor="none" style="mix-blend-mode: normal"><path d="M0,172v-172h172v172z" fill="none"></path><g fill="#3255ae"><path d="M86,0c-8.43875,0 -15.56062,4.70313 -26.1225,10.13188c-10.57531,5.44219 -24.725,11.99969 -46.85656,16.85062l-2.70094,0.60469v2.75469c0,52.71531 18.42281,87.89469 36.92625,109.73062c18.51688,21.84938 37.3025,30.55688 37.3025,30.55688l1.51844,0.69875l1.49156,-0.7525c0,0 74.12125,-38.20281 74.12125,-140.23375v-2.75469l-2.70094,-0.60469c-22.13156,-4.85094 -36.28125,-11.40844 -46.85656,-16.85062c-10.56187,-5.42875 -17.68375,-10.13188 -26.1225,-10.13188zM86,6.88c5.65719,0 12.18781,3.81625 22.99156,9.37938c10.23937,5.2675 24.69812,11.65031 45.59344,16.58187c-1.22281,93.33688 -64.19094,128.28781 -68.63875,130.62594c-2.15,-1.03469 -17.03875,-8.47906 -33.4325,-27.8425c-17.3075,-20.41156 -34.48062,-53.19906 -35.09875,-102.78344c20.89531,-4.93156 35.35406,-11.31437 45.59344,-16.58187c10.80375,-5.56313 17.33438,-9.37938 22.99156,-9.37938zM86,55.04c-7.60562,0 -13.76,6.15438 -13.76,13.76c0,4.63594 2.35156,8.96281 6.235,11.5025l-6.235,28.0575h27.52l-6.235,-28.0575c3.88344,-2.52625 6.235,-6.86656 6.235,-11.5025c0,-7.60562 -6.15437,-13.76 -13.76,-13.76z"></path></g></g></svg>