<svg xmlns="http://www.w3.org/2000/svg" x="0px" y="0px"
width="50" height="50"
viewBox="0 0 172 172"
style=" fill:#000000;"><g fill="none" fill-rule="nonzero" stroke="none" stroke-width="1" stroke-linecap="butt" stroke-linejoin="miter" stroke-miterlimit="10" stroke-dasharray="" stroke-dashoffset="0" font-family="none" font-weight="none" font-size="none" text-anchor="none" style="mix-blend-mode: normal"><path d="M0,172v-172h172v172z" fill="none"></path><g fill="#032f9c"><path d="M85.94625,24.03297c-1.89722,0.02966 -3.41223,1.58976 -3.38625,3.48703v10.32c-0.01754,1.24059 0.63425,2.39452 1.7058,3.01993c1.07155,0.62541 2.39684,0.62541 3.46839,0c1.07155,-0.62541 1.72335,-1.77935 1.7058,-3.01993v-10.32c0.01273,-0.92983 -0.35149,-1.82522 -1.00967,-2.48214c-0.65819,-0.65692 -1.55427,-1.01942 -2.48408,-1.00489zM56.77344,36.14015c-1.39859,0.0031 -2.65612,0.85256 -3.18113,2.14888c-0.52501,1.29631 -0.21301,2.78145 0.78926,3.75691l7.29656,7.29656c0.86281,0.89867 2.14404,1.26068 3.34956,0.94641c1.20552,-0.31427 2.14696,-1.2557 2.46122,-2.46122c0.31427,-1.20552 -0.04774,-2.48675 -0.94641,-3.34956l-7.29656,-7.29656c-0.64928,-0.66743 -1.54136,-1.04317 -2.4725,-1.04141zM115.11906,36.14015c-0.89371,0.02663 -1.74194,0.40014 -2.365,1.04141l-7.29656,7.29656c-0.89867,0.86281 -1.26068,2.14404 -0.94641,3.34956c0.31427,1.20552 1.2557,2.14696 2.46122,2.46122c1.20552,0.31427 2.48675,-0.04774 3.34956,-0.94641l7.29656,-7.29656c1.01742,-0.98897 1.32333,-2.50111 0.77034,-3.80778c-0.55299,-1.30667 -1.85145,-2.13983 -3.26971,-2.098zM86,48.16c-11.35841,0 -20.64,9.28159 -20.64,20.64c0,11.35841 9.28159,20.64 20.64,20.64c11.35841,0 20.64,-9.28159 20.64,-20.64c0,-11.35841 -9.28159,-20.64 -20.64,-20.64zM86,55.04c7.64018,0 13.76,6.11982 13.76,13.76c0,7.64018 -6.11982,13.76 -13.76,13.76c-7.64018,0 -13.76,-6.11982 -13.76,-13.76c0,-7.64018 6.11982,-13.76 13.76,-13.76zM44.72,65.36c-1.24059,-0.01754 -2.39452,0.63425 -3.01993,1.7058c-0.62541,1.07155 -0.62541,2.39684 0,3.46839c0.62541,1.07155 1.77935,1.72335 3.01993,1.7058h10.32c1.24059,0.01754 2.39452,-0.63425 3.01993,-1.7058c0.62541,-1.07155 0.62541,-2.39684 0,-3.46839c-0.62541,-1.07155 -1.77935,-1.72335 -3.01993,-1.7058zM116.96,65.36c-1.24059,-0.01754 -2.39452,0.63425 -3.01993,1.7058c-0.62541,1.07155 -0.62541,2.39684 0,3.46839c0.62541,1.07155 1.77935,1.72335 3.01993,1.7058h10.32c1.24059,0.01754 2.39452,-0.63425 3.01993,-1.7058c0.62541,-1.07155 0.62541,-2.39684 0,-3.46839c-0.62541,-1.07155 -1.77935,-1.72335 -3.01993,-1.7058zM30.96,79.12c-9.45855,0 -17.2,7.74145 -17.2,17.2c0,9.45855 7.74145,17.2 17.2,17.2c9.45855,0 17.2,-7.74145 17.2,-17.2c0,-9.45855 -7.74145,-17.2 -17.2,-17.2zM141.04,79.12c-9.45855,0 -17.2,7.74145 -17.2,17.2c0,9.45855 7.74145,17.2 17.2,17.2c9.45855,0 17.2,-7.74145 17.2,-17.2c0,-9.45855 -7.74145,-17.2 -17.2,-17.2zM30.96,86c5.74032,0 10.32,4.57968 10.32,10.32c0,5.74032 -4.57968,10.32 -10.32,10.32c-5.74032,0 -10.32,-4.57968 -10.32,-10.32c0,-5.74032 4.57968,-10.32 10.32,-10.32zM141.04,86c5.74032,0 10.32,4.57968 10.32,10.32c0,5.74032 -4.57968,10.32 -10.32,10.32c-5.74032,0 -10.32,-4.57968 -10.32,-10.32c0,-5.74032 4.57968,-10.32 10.32,-10.32zM72.24,96.32c-11.33637,0 -20.64,9.30363 -20.64,20.64v6.78594c-2.79635,-2.07376 -6.21658,-3.34594 -9.93703,-3.34594h-10.70297h-10.70297c-9.23443,0 -16.81703,7.58261 -16.81703,16.81703v7.26297h6.88v-7.26297c0,-5.48189 4.45514,-9.93703 9.93703,-9.93703h10.70297h10.70297c5.48189,0 9.93703,4.45514 9.93703,9.93703v3.82297v3.44h6.88v-7.26297v-20.25703c0,-7.58363 6.17637,-13.76 13.76,-13.76h27.52c7.58363,0 13.76,6.17637 13.76,13.76v20.25703v7.26297h6.88v-7.26297c0,-5.48189 4.45514,-9.93703 9.93703,-9.93703h10.70297h10.70297c5.48189,0 9.93703,4.45514 9.93703,9.93703v7.26297h6.88v-7.26297c0,-9.23443 -7.58261,-16.81703 -16.81703,-16.81703h-10.70297h-10.70297c-3.72045,0 -7.14068,1.27218 -9.93703,3.34594v-6.78594c0,-11.33637 -9.30363,-20.64 -20.64,-20.64z"></path></g></g></svg>