<svg xmlns="http://www.w3.org/2000/svg" x="0px" y="0px"
width="50" height="50"
viewBox="0 0 172 172"
style=" fill:#000000;"><g fill="none" fill-rule="nonzero" stroke="none" stroke-width="1" stroke-linecap="butt" stroke-linejoin="miter" stroke-miterlimit="10" stroke-dasharray="" stroke-dashoffset="0" font-family="none" font-weight="none" font-size="none" text-anchor="none" style="mix-blend-mode: normal"><path d="M0,172v-172h172v172z" fill="none"></path><g fill="#032f9c"><path d="M24.08,27.52c-7.71592,0 -13.76,6.04408 -13.76,13.76v75.68c0,2.53872 0.70541,4.86072 1.85437,6.88h-8.73437c-1.90232,0 -3.44,1.53768 -3.44,3.44c0,9.48408 7.71592,17.2 17.2,17.2h65.0039l6.88,-6.88h-71.8839c-4.48576,0 -8.30803,-2.87584 -9.72875,-6.88h16.60875h71.8839l6.88,-6.88h-78.7639c-3.92504,0 -6.88,-2.95496 -6.88,-6.88v-75.68c0,-3.92504 2.95496,-6.88 6.88,-6.88h123.84c3.92504,0 6.88,2.95496 6.88,6.88v35.95203c2.4252,0.86 4.72656,1.96762 6.88,3.2989v-39.25094c0,-7.71592 -6.04408,-13.76 -13.76,-13.76zM142.76,82.56c-16.10773,0 -29.24,13.13227 -29.24,29.24c0,3.38574 1.00063,6.46271 2.06265,9.48015l-29.36094,29.35422c-4.85861,4.85861 -4.85861,12.83858 0,17.69719c4.85861,4.85861 12.84529,4.85861 17.70391,0l29.3475,-29.35422c3.01997,1.06426 6.10064,2.06265 9.48687,2.06265c16.10773,0 29.24,-13.13227 29.24,-29.24c0,-3.20413 -0.52982,-6.28553 -1.47813,-9.15765l-1.70656,-5.16672l-3.93719,3.7625l-16.03766,15.31875l-8.45219,-2.38515l-2.38515,-8.45219l19.08125,-19.98156l-5.17344,-1.69984c-2.86881,-0.94333 -5.9468,-1.47813 -9.15094,-1.47813zM142.76,89.44c0.38455,0 0.7226,0.15504 1.10187,0.17469l-13.545,14.19l4.49485,15.9436l15.93688,4.49485l14.19,-13.55172c0.01993,0.38191 0.1814,0.72145 0.1814,1.1086c0,12.38923 -9.97077,22.36 -22.36,22.36c-3.29272,0 -6.39129,-0.72764 -9.22485,-2.01563l-2.17015,-0.98765l-32.31047,32.31047c-2.22779,2.22779 -5.74065,2.22779 -7.96844,0c-2.22779,-2.22779 -2.22779,-5.74065 0,-7.96844l32.31047,-32.30375l-0.98766,-2.17015c-1.28496,-2.8305 -2.0089,-5.93212 -2.0089,-9.22485c0,-12.38923 9.97077,-22.36 22.36,-22.36z"></path></g></g></svg>