<svg xmlns="http://www.w3.org/2000/svg" x="0px" y="0px"
width="50" height="50"
viewBox="0 0 172 172"
style=" fill:#000000;"><g fill="none" fill-rule="nonzero" stroke="none" stroke-width="1" stroke-linecap="butt" stroke-linejoin="miter" stroke-miterlimit="10" stroke-dasharray="" stroke-dashoffset="0" font-family="none" font-weight="none" font-size="none" text-anchor="none" style="mix-blend-mode: normal"><path d="M0,172v-172h172v172z" fill="none"></path><g id="original-icon" fill="#032f9c" opacity="0" visibility="hidden"><path d="M13.76,17.2c-3.78937,0 -6.88,3.09063 -6.88,6.88v99.76c0,3.78938 3.09063,6.88 6.88,6.88h51.6v10.32h-10.32c-5.68406,0 -10.32,4.63594 -10.32,10.32v6.88h82.56v-6.88c0,-5.68406 -4.63594,-10.32 -10.32,-10.32h-10.32v-10.32h51.6c3.78938,0 6.88,-3.09062 6.88,-6.88v-99.76c0,-3.78937 -3.09062,-6.88 -6.88,-6.88zM13.76,24.08h144.48v99.76h-144.48v-13.76h144.48v-6.88h-144.48zM141.04,113.52v6.88h6.88v-6.88zM72.24,130.72h27.52v10.32h-27.52zM55.04,147.92h61.92c1.89469,0 3.44,1.54531 3.44,3.44h-68.8c0,-1.89469 1.54531,-3.44 3.44,-3.44z"></path></g><g id="subtracted-icon" fill="#032f9c"><path d="M158.24,17.2c3.78938,0 6.88,3.09063 6.88,6.88v68.8c-2.62889,0 -5.05278,0.92251 -6.88,2.48778v-71.28778h-144.48v79.12h101.09181c-2.93411,1.95079 -5.6075,4.26614 -7.95417,6.88h-93.13764v13.76h84.93214c-0.78896,2.21401 -1.39346,4.51359 -1.79474,6.88h-24.6574v10.32h24.22307c0.19651,2.35349 0.59269,4.65253 1.17143,6.88l-42.5945,0c-1.89469,0 -3.44,1.54531 -3.44,3.44l47.09214,0c0.85597,2.40203 1.92906,4.70334 3.19536,6.88h-57.16751v-6.88c0,-5.68406 4.63594,-10.32 10.32,-10.32h10.32v-10.32h-51.6c-3.78937,0 -6.88,-3.09062 -6.88,-6.88v-99.76c0,-3.78937 3.09063,-6.88 6.88,-6.88zM127.28,151.36l0,4.09625c-5.20739,-3.02947 -8.98788,-8.27049 -10.03062,-14.41223c5.55119,0.15414 10.03062,4.72869 10.03062,10.31599zM136.68393,130.72l-18.50574,0c0.93957,-2.56435 2.38773,-4.8946 4.22138,-6.88h11.76042c0,2.68244 0.94091,5.07537 2.52393,6.88z"></path></g><g><g fill="#032f9c"><g id="Слой_2" font-family="-apple-system, BlinkMacSystemFont, &quot;San Francisco&quot;, HelveticaNeue-Light, &quot;Helvetica Neue Light&quot;, &quot;Helvetica Neue&quot;, &quot;Segoe UI&quot;, &quot;Fira Sans&quot;, Roboto, Oxygen, Ubuntu, &quot;Droid Sans&quot;, Arial, sans-serif" font-weight="400" font-size="16" text-anchor="start" visibility="hidden"></g><g id="Android_x5F_4" font-family="-apple-system, BlinkMacSystemFont, &quot;San Francisco&quot;, HelveticaNeue-Light, &quot;Helvetica Neue Light&quot;, &quot;Helvetica Neue&quot;, &quot;Segoe UI&quot;, &quot;Fira Sans&quot;, Roboto, Oxygen, Ubuntu, &quot;Droid Sans&quot;, Arial, sans-serif" font-weight="400" font-size="16" text-anchor="start" visibility="hidden"></g><g id="Android_x5F_5" font-family="-apple-system, BlinkMacSystemFont, &quot;San Francisco&quot;, HelveticaNeue-Light, &quot;Helvetica Neue Light&quot;, &quot;Helvetica Neue&quot;, &quot;Segoe UI&quot;, &quot;Fira Sans&quot;, Roboto, Oxygen, Ubuntu, &quot;Droid Sans&quot;, Arial, sans-serif" font-weight="400" font-size="16" text-anchor="start" visibility="hidden"></g><g id="Windows_x5F_8" font-family="-apple-system, BlinkMacSystemFont, &quot;San Francisco&quot;, HelveticaNeue-Light, &quot;Helvetica Neue Light&quot;, &quot;Helvetica Neue&quot;, &quot;Segoe UI&quot;, &quot;Fira Sans&quot;, Roboto, Oxygen, Ubuntu, &quot;Droid Sans&quot;, Arial, sans-serif" font-weight="400" font-size="16" text-anchor="start" visibility="hidden"></g><g id="Windows_x5F_10" font-family="-apple-system, BlinkMacSystemFont, &quot;San Francisco&quot;, HelveticaNeue-Light, &quot;Helvetica Neue Light&quot;, &quot;Helvetica Neue&quot;, &quot;Segoe UI&quot;, &quot;Fira Sans&quot;, Roboto, Oxygen, Ubuntu, &quot;Droid Sans&quot;, Arial, sans-serif" font-weight="400" font-size="16" text-anchor="start" visibility="hidden"></g><g id="Color" font-family="-apple-system, BlinkMacSystemFont, &quot;San Francisco&quot;, HelveticaNeue-Light, &quot;Helvetica Neue Light&quot;, &quot;Helvetica Neue&quot;, &quot;Segoe UI&quot;, &quot;Fira Sans&quot;, Roboto, Oxygen, Ubuntu, &quot;Droid Sans&quot;, Arial, sans-serif" font-weight="400" font-size="16" text-anchor="start" visibility="hidden"></g><g id="IOS" font-family="-apple-system, BlinkMacSystemFont, &quot;San Francisco&quot;, HelveticaNeue-Light, &quot;Helvetica Neue Light&quot;, &quot;Helvetica Neue&quot;, &quot;Segoe UI&quot;, &quot;Fira Sans&quot;, Roboto, Oxygen, Ubuntu, &quot;Droid Sans&quot;, Arial, sans-serif" font-weight="400" font-size="16" text-anchor="start" visibility="hidden"></g><g id="IOS_copy"><path d="M168.56,134.16c-2.064,0 -3.44,1.72 -3.44,3.44c0,15.136 -12.384,27.52 -27.52,27.52c-15.136,0 -27.52,-12.384 -27.52,-27.52c0,-15.136 12.384,-27.52 27.52,-27.52c11.008,0 17.544,6.88 20.296,10.32h-13.416c-2.064,0 -3.44,1.376 -3.44,3.44c0,2.064 1.376,3.44 3.44,3.44h24.08v-24.08c0,-2.064 -1.376,-3.44 -3.44,-3.44c-2.064,0 -3.44,1.376 -3.44,3.44v11.008c-4.128,-4.472 -12.04,-11.008 -24.08,-11.008c-18.92,0 -34.4,15.48 -34.4,34.4c0,18.92 15.48,34.4 34.4,34.4c18.92,0 34.4,-15.48 34.4,-34.4c0,-2.064 -1.376,-3.44 -3.44,-3.44z"></path></g></g><g fill="#000000" opacity="0"><g id="IOS" font-family="-apple-system, BlinkMacSystemFont, &quot;San Francisco&quot;, HelveticaNeue-Light, &quot;Helvetica Neue Light&quot;, &quot;Helvetica Neue&quot;, &quot;Segoe UI&quot;, &quot;Fira Sans&quot;, Roboto, Oxygen, Ubuntu, &quot;Droid Sans&quot;, Arial, sans-serif" font-weight="400" font-size="16" text-anchor="start" visibility="hidden"></g><g id="IOS_copy"><path d="M137.6,178.88c22.704,0 41.28,-18.576 41.28,-41.28c0,-3.096 -1.376,-5.848 -3.44,-7.912v-2.408v-24.08c0,-5.848 -4.472,-10.32 -10.32,-10.32c-4.816,0 -8.944,3.096 -9.976,7.568c-5.504,-2.752 -11.352,-4.128 -17.544,-4.128c-22.704,0 -41.28,18.576 -41.28,41.28c0,22.704 18.576,41.28 41.28,41.28zM136.912,116.96c-1.72,2.064 -2.752,4.128 -2.752,6.88c0,5.848 4.472,10.32 10.32,10.32h14.448c-0.344,1.032 -0.688,2.064 -0.688,3.44c0,11.352 -9.288,20.64 -20.64,20.64c-11.352,0 -20.64,-9.288 -20.64,-20.64c0,-11.008 8.944,-19.952 19.952,-20.64z"></path></g></g></g></g></svg>