<svg xmlns="http://www.w3.org/2000/svg" x="0px" y="0px"
width="50" height="50"
viewBox="0 0 172 172"
style=" fill:#000000;"><g fill="none" fill-rule="nonzero" stroke="none" stroke-width="1" stroke-linecap="butt" stroke-linejoin="miter" stroke-miterlimit="10" stroke-dasharray="" stroke-dashoffset="0" font-family="none" font-weight="none" font-size="none" text-anchor="none" style="mix-blend-mode: normal"><path d="M0,172v-172h172v172z" fill="none"></path><g fill="#032f9c"><path d="M41.28,6.88c-9.46,0 -17.2,7.74 -17.2,17.2c0,9.46 7.74,17.2 17.2,17.2c9.46,0 17.2,-7.74 17.2,-17.2c0,-9.46 -7.74,-17.2 -17.2,-17.2zM99.76,6.88v6.88h-34.4v6.88h92.88v89.44h-89.44v6.88h29.24l-18.92,37.84h6.88l17.2,-34.4l17.2,34.4h6.88l-18.92,-37.84h53.32c1.89469,0 3.44,-1.54531 3.44,-3.44v-96.32c0,-1.89469 -1.54531,-3.44 -3.44,-3.44h-55.04v-6.88zM41.28,13.76c5.73781,0 10.32,4.58219 10.32,10.32c0,5.73781 -4.58219,10.32 -10.32,10.32c-5.73781,0 -10.32,-4.58219 -10.32,-10.32c0,-5.73781 4.58219,-10.32 10.32,-10.32zM25.8,44.72c-10.41406,0 -18.92,8.50594 -18.92,18.92v42.355c-0.01344,0.14781 -0.01344,0.28219 0,0.43v0.215c-0.01344,0.3225 0.02688,0.65844 0.1075,0.9675c0.51063,5.20031 4.89125,9.3525 10.2125,9.3525c1.20938,0 2.35156,-0.25531 3.44,-0.645v36.765c0,6.61125 5.42875,12.04 12.04,12.04c3.35938,0 6.40969,-1.41094 8.6,-3.655c2.19031,2.24406 5.24063,3.655 8.6,3.655c6.61125,0 12.04,-5.42875 12.04,-12.04v-87.72h37.84c5.65719,0 10.32,-4.66281 10.32,-10.32c0,-5.59 -4.54187,-10.19906 -10.105,-10.32c-0.06719,0 -0.14781,0 -0.215,0h-48.16c-1.33031,-0.01344 -2.53969,0.73906 -3.1175,1.935l-7.2025,14.405l-7.2025,-14.405c-0.57781,-1.19594 -1.78719,-1.94844 -3.1175,-1.935zM25.8,51.6h3.01l9.3525,18.705c0.56438,1.20938 1.78719,1.98875 3.1175,1.98875c1.33031,0 2.55313,-0.77937 3.1175,-1.98875l9.3525,-18.705h46.01c0.1075,0 0.215,0 0.3225,0c1.78719,0.16125 3.1175,1.6125 3.1175,3.44c0,1.94844 -1.49156,3.44 -3.44,3.44h-41.28c-1.89469,0 -3.44,1.54531 -3.44,3.44v91.16c0,2.88906 -2.27094,5.16 -5.16,5.16c-2.71437,0 -4.90469,-1.98875 -5.16,-4.6225v-0.86c0,-0.1075 0,-0.215 0,-0.3225v-35.475c0.04031,-0.99437 -0.36281,-1.94844 -1.075,-2.62031c-0.72562,-0.68531 -1.70656,-1.02125 -2.6875,-0.92719c-0.14781,0.02688 -0.29562,0.06719 -0.43,0.1075c-1.59906,0.36281 -2.72781,1.80063 -2.6875,3.44v35.475c-0.01344,0.14781 -0.01344,0.28219 0,0.43v0.7525c-0.25531,2.63375 -2.44562,4.6225 -5.16,4.6225c-2.88906,0 -5.16,-2.27094 -5.16,-5.16v-80.84c0.02688,-1.06156 -0.44344,-2.06937 -1.26312,-2.74125c-0.80625,-0.67187 -1.89469,-0.92719 -2.92938,-0.69875c-1.59906,0.36281 -2.72781,1.80063 -2.6875,3.44v33.8625c0,0.1075 0,0.215 0,0.3225v0.215c0,1.94844 -1.49156,3.44 -3.44,3.44c-1.86781,0 -3.3325,-1.38406 -3.44,-3.225c0,-0.06719 0,-0.14781 0,-0.215c0.02688,-0.215 0.02688,-0.43 0,-0.645v-42.355c0,-6.69187 5.34813,-12.04 12.04,-12.04z"></path></g></g></svg>