<svg xmlns="http://www.w3.org/2000/svg" x="0px" y="0px"
width="50" height="50"
viewBox="0 0 172 172"
style=" fill:#000000;"><g fill="none" fill-rule="nonzero" stroke="none" stroke-width="1" stroke-linecap="butt" stroke-linejoin="miter" stroke-miterlimit="10" stroke-dasharray="" stroke-dashoffset="0" font-family="none" font-weight="none" font-size="none" text-anchor="none" style="mix-blend-mode: normal"><path d="M0,172v-172h172v172z" fill="none"></path><g fill="#032f9c"><path d="M13.76,0c-7.56531,0 -13.76,6.19469 -13.76,13.76v96.32c0,7.56531 6.19469,13.76 13.76,13.76h17.2v-6.88h-17.2c-3.84312,0 -6.88,-3.03687 -6.88,-6.88v-96.32c0,-3.84312 3.03688,-6.88 6.88,-6.88h110.08c3.84313,0 6.88,3.03688 6.88,6.88v30.96h6.88v-30.96c0,-7.56531 -6.19469,-13.76 -13.76,-13.76zM13.76,13.76v96.32h17.2v-6.88h-10.32v-82.56h99.76v24.08h6.88v-30.96zM48.16,48.16c-7.56531,0 -13.76,6.19469 -13.76,13.76v96.32c0,7.56531 6.19469,13.76 13.76,13.76h110.08c7.56531,0 13.76,-6.19469 13.76,-13.76v-96.32c0,-7.56531 -6.19469,-13.76 -13.76,-13.76zM48.16,55.04h110.08c3.84313,0 6.88,3.03688 6.88,6.88v96.32c0,3.84313 -3.03687,6.88 -6.88,6.88h-110.08c-3.84312,0 -6.88,-3.03687 -6.88,-6.88v-96.32c0,-3.84312 3.03688,-6.88 6.88,-6.88zM48.16,61.92v96.32h110.08v-96.32zM55.04,68.8h96.32v82.56h-96.32z"></path></g></g></svg>