<svg xmlns="http://www.w3.org/2000/svg" width="64" height="64" viewBox="0 0 172 172"><g fill="none" stroke-miterlimit="10" font-family="none" font-weight="none" font-size="none" text-anchor="none" style="mix-blend-mode:normal"><path d="M0 172V0h172v172z"/><path d="M102.125 16.125a9.406 9.406 0 100 18.812 9.406 9.406 0 000-18.812zm0 120.938a9.406 9.406 0 100 18.812 9.406 9.406 0 000-18.813zM77.937 35.206a12.043 12.043 0 00-12.093-12.094A12.043 12.043 0 0053.75 35.206c-2.284-1.747-4.972-2.687-8.063-2.687-7.39 0-13.437 6.047-13.437 13.437 0 1.478.269 2.822.672 4.031h-.672A14.739 14.739 0 0017.469 64.77c0 3.225.94 6.047 2.687 8.465-5.643 3.629-9.406 9.81-9.406 17.066 0 7.122 3.763 13.438 9.272 16.931-1.613 2.956-2.553 6.316-2.553 9.944 0 11.153 9.003 20.156 20.156 20.156h1.21c2.687 7.794 10.212 13.438 18.946 13.438 11.153 0 20.157-9.003 20.157-20.157V35.206z" fill="#fff"/><path d="M65.844 19.081c-6.853 0-12.631 4.166-15.05 10.213a16.244 16.244 0 00-5.106-.806 17.434 17.434 0 00-17.47 17.468v.135c-8.465 1.88-14.915 9.406-14.915 18.409 0 2.688.538 5.24 1.613 7.66-5.107 4.568-8.197 11.152-8.197 18.14 0 .806 0 1.478.134 2.15v.403c.134.672.134 1.478.269 2.15v.269c.134.672.269 1.344.537 2.016v.134c.27.672.538 1.344.807 2.15 0 0 0 .134.134.134.538 1.344 1.344 2.688 2.15 3.897 0 0 0 .134.134.134.807 1.21 1.747 2.285 2.822 3.36l.269.269c.538.403.94.94 1.478 1.343.135.135.269.27.403.27l1.21.805c.268.135.403.27.672.538l.134.134c.134 0 .134.135.269.135 3.762 2.284 8.062 3.628 12.765 3.628 13.303 0 24.188-10.885 24.188-24.188v-6.719c0-2.284-1.747-4.03-4.031-4.03-2.285 0-4.032 1.746-4.032 4.03v6.72c0 8.868-7.256 16.124-16.125 16.124-3.225 0-6.181-.94-8.734-2.553-1.075-.672-2.15-1.478-2.956-2.419-.135-.134-.27-.268-.27-.403-.268-.269-.537-.672-.805-1.075a1.855 1.855 0 01-.403-.537c-.27-.403-.538-.807-.807-1.21 0-.134-.134-.134-.134-.268l-.806-1.613c-.135-.134-.135-.403-.27-.537-.133-.404-.268-.807-.402-1.21 0-.269-.135-.403-.135-.672-.134-.403-.134-.806-.268-1.209 0-.134 0-.403-.135-.538V90.3c0-5.51 2.822-10.616 7.525-13.572 1.478-.94 2.15-2.687 1.747-4.434-.134-.538-.269-1.21-.672-1.747-1.343-1.881-2.015-3.897-2.015-6.181 0-5.241 3.762-9.541 8.734-10.616 2.956 5.644 8.734 9.54 15.588 9.54 2.284 0 4.03-1.746 4.03-4.03 0-2.285-1.746-4.032-4.03-4.032-4.166 0-7.794-2.822-9.004-6.584-.134-.403-.268-.807-.268-1.21v-.268c0-.404-.135-.807-.135-1.344a9.348 9.348 0 019.407-9.406c2.015 0 4.03.671 5.643 1.88a3.912 3.912 0 004.166.404c1.344-.672 2.284-2.016 2.284-3.628v-.135c0-4.434 3.628-7.928 8.063-7.928 4.434 0 8.062 3.628 8.062 8.063v95.406c0 8.869-7.256 16.125-16.125 16.125-6.853 0-12.9-4.3-15.184-10.75-.538-1.747-2.284-2.822-4.031-2.687H37.625c-8.869 0-16.125-7.257-16.125-16.125 0-2.285-1.747-4.032-4.031-4.032-2.285 0-4.031 1.747-4.031 4.032 0 12.765 10.078 23.38 22.709 24.187 4.031 8.197 12.362 13.438 21.634 13.438 13.303 0 24.188-10.885 24.188-24.188V35.072c0-8.735-7.256-15.99-16.125-15.99z" fill="#444b54"/><path d="M26.875 77.4h-6.719c-2.284 0-4.031-1.747-4.031-4.031 0-2.285 1.747-4.031 4.031-4.031h6.719c2.284 0 4.031 1.746 4.031 4.03 0 2.285-1.747 4.032-4.031 4.032z" fill="#444b54"/><path d="M149.156 76.594a9.406 9.406 0 100 18.812 9.406 9.406 0 000-18.812zm-12.094-41.656a9.406 9.406 0 100 18.812 9.406 9.406 0 000-18.813zm0 83.312a9.406 9.406 0 100 18.812 9.406 9.406 0 000-18.812z" fill="#fff"/><path d="M130.344 124.969c-1.075 0-2.016-.403-2.822-1.21l-13.572-13.571H95.406c-2.284 0-4.031-1.747-4.031-4.032 0-2.284 1.747-4.031 4.031-4.031h20.156c1.075 0 2.15.403 2.822 1.21l14.782 14.78c1.612 1.613 1.612 4.166 0 5.644-.807.807-1.747 1.21-2.822 1.21zm-14.781-55.094H95.406c-2.284 0-4.031-1.747-4.031-4.031 0-2.285 1.747-4.031 4.031-4.031h18.544l13.572-13.572c1.612-1.613 4.165-1.613 5.644 0 1.612 1.612 1.612 4.165 0 5.643l-14.782 14.782c-.671.806-1.746 1.209-2.821 1.209zm24.187 20.156H95.406c-2.284 0-4.031-1.747-4.031-4.031s1.747-4.031 4.031-4.031h44.344c2.284 0 4.031 1.747 4.031 4.031s-1.747 4.031-4.031 4.031z" fill="#1abc9c"/><path d="M149.156 99.438c-7.39 0-13.437-6.047-13.437-13.438 0-7.39 6.047-13.438 13.437-13.438S162.594 78.61 162.594 86c0 7.39-6.047 13.438-13.438 13.438zm0-18.813c-2.956 0-5.375 2.419-5.375 5.375s2.419 5.375 5.375 5.375 5.375-2.419 5.375-5.375-2.419-5.375-5.375-5.375zm-12.094-22.844c-7.39 0-13.437-6.047-13.437-13.437s6.047-13.438 13.438-13.438c7.39 0 13.437 6.047 13.437 13.438 0 7.39-6.047 13.437-13.438 13.437zm0-18.812c-2.956 0-5.375 2.418-5.375 5.375 0 2.956 2.42 5.375 5.375 5.375 2.957 0 5.375-2.419 5.375-5.375 0-2.957-2.418-5.375-5.375-5.375zm-34.937 0c-7.39 0-13.438-6.047-13.438-13.438 0-7.39 6.047-13.437 13.438-13.437 7.39 0 13.438 6.047 13.438 13.437s-6.047 13.438-13.438 13.438zm0-18.813c-2.956 0-5.375 2.419-5.375 5.375 0 2.957 2.419 5.375 5.375 5.375s5.375-2.418 5.375-5.375c0-2.956-2.419-5.375-5.375-5.375zm34.938 120.938c-7.391 0-13.438-6.047-13.438-13.438 0-7.39 6.047-13.437 13.438-13.437 7.39 0 13.437 6.047 13.437 13.437s-6.047 13.438-13.438 13.438zm0-18.813c-2.957 0-5.375 2.419-5.375 5.375s2.418 5.375 5.375 5.375c2.956 0 5.375-2.419 5.375-5.375s-2.42-5.375-5.375-5.375zm-34.938 37.625c-7.39 0-13.438-6.047-13.438-13.437s6.047-13.438 13.438-13.438c7.39 0 13.438 6.047 13.438 13.438 0 7.39-6.047 13.437-13.438 13.437zm0-18.812c-2.956 0-5.375 2.419-5.375 5.375s2.419 5.375 5.375 5.375 5.375-2.419 5.375-5.375-2.419-5.375-5.375-5.375z" fill="#1abc9c"/></g></svg>