<?xml version="1.0" encoding="utf-8"?>
<!-- Generator: Adobe Illustrator 24.0.1, SVG Export Plug-In . SVG Version: 6.00 Build 0)  -->
<svg version="1.1" id="Layer_1" xmlns="http://www.w3.org/2000/svg" xmlns:xlink="http://www.w3.org/1999/xlink" x="0px" y="0px"
	 viewBox="0 0 803.01 399.34" style="enable-background:new 0 0 803.01 399.34;" xml:space="preserve">
<style type="text/css">
	.st0{fill:hsl(187, 92%, 44%);}
	.st1{fill:none;stroke:hsl(187, 92%, 84%);stroke-width:4;stroke-miterlimit:10;}
</style>
<g>
	<path class="st0" d="M787.74,399.34h-119c0-147.35-119.88-267.23-267.23-267.23c-147.35,0-267.23,119.88-267.23,267.23h-119
		c0-52.12,10.22-102.7,30.38-150.36c19.46-46,47.3-87.3,82.75-122.75c35.45-35.45,76.75-63.29,122.75-82.75
		c47.66-20.16,98.24-30.38,150.36-30.38c52.11,0,102.7,10.22,150.36,30.38c46,19.46,87.3,47.3,122.75,82.75
		c35.45,35.45,63.29,76.75,82.75,122.75C777.52,296.64,787.74,347.23,787.74,399.34z"/>
</g>
<path class="st1" d="M2,399.34C2,179.9,180.87,2,401.51,2s399.51,177.9,399.51,397.34"/>
</svg>
