<svg xmlns="http://www.w3.org/2000/svg" x="0px" y="0px"
width="64" height="64"
viewBox="0 0 172 172"
style=" fill:#000000;"><defs><linearGradient x1="65.84375" y1="11.19881" x2="65.84375" y2="159.401" gradientUnits="userSpaceOnUse" id="color-1_48199_gr1"><stop offset="0" stop-color="#e090f0"></stop><stop offset="1" stop-color="#05bdf5"></stop></linearGradient><linearGradient x1="33.59644" y1="11.19881" x2="33.59644" y2="159.401" gradientUnits="userSpaceOnUse" id="color-2_48199_gr2"><stop offset="0" stop-color="#e090f0"></stop><stop offset="1" stop-color="#05bdf5"></stop></linearGradient><linearGradient x1="106.15625" y1="11.19881" x2="106.15625" y2="159.401" gradientUnits="userSpaceOnUse" id="color-3_48199_gr3"><stop offset="0" stop-color="#e090f0"></stop><stop offset="1" stop-color="#05bdf5"></stop></linearGradient><linearGradient x1="138.40356" y1="11.19881" x2="138.40356" y2="159.401" gradientUnits="userSpaceOnUse" id="color-4_48199_gr4"><stop offset="0" stop-color="#e090f0"></stop><stop offset="1" stop-color="#05bdf5"></stop></linearGradient><linearGradient x1="86" y1="11.19881" x2="86" y2="159.401" gradientUnits="userSpaceOnUse" id="color-5_48199_gr5"><stop offset="0" stop-color="#e090f0"></stop><stop offset="1" stop-color="#05bdf5"></stop></linearGradient><linearGradient x1="86" y1="74.80119" x2="86" y2="96.30119" gradientUnits="userSpaceOnUse" id="color-6_48199_gr6"><stop offset="0" stop-color="#fcf3fd"></stop><stop offset="1" stop-color="#6edafc"></stop></linearGradient></defs><g fill="none" fill-rule="nonzero" stroke="none" stroke-width="1" stroke-linecap="butt" stroke-linejoin="miter" stroke-miterlimit="10" stroke-dasharray="" stroke-dashoffset="0" font-family="none" font-weight="none" font-size="none" text-anchor="none" style="mix-blend-mode: normal"><path d="M0,172v-172h172v172z" fill="none"></path><g><path d="M34.9375,43c0,-4.44512 3.61469,-8.0625 8.0625,-8.0625h26.875v10.86288c0,1.86781 0.97556,3.55556 2.61225,4.515c0.84387,0.49719 1.79794,0.74175 2.74931,0.74175c0.91912,0 1.83825,-0.23112 2.66062,-0.69338l20.19656,-11.32244c2.52088,-1.41363 4.03125,-3.95331 4.03125,-6.79131c0,-2.838 -1.51037,-5.37769 -4.03125,-6.79131l-20.19656,-11.32244c-1.67969,-0.94062 -3.75175,-0.9245 -5.41263,0.05106c-1.634,0.95675 -2.60956,2.6445 -2.60956,4.51231v10.86288h-26.875c-7.40944,0 -13.4375,6.02806 -13.4375,13.4375v10.75h5.375zM75.26881,18.82325l20.19656,11.32244c1.15831,0.65038 1.28463,1.68775 1.28463,2.10431c0,0.41656 -0.12631,1.45394 -1.28731,2.10431l-20.21269,11.44606z" fill="url(#color-1_48199_gr1)"></path><path d="M34.9375,129v-26.875h10.86288c1.86781,0 3.55556,-0.97556 4.515,-2.61225c0.97019,-1.66088 0.99169,-3.73562 0.05106,-5.41263l-11.32512,-20.19387c-1.41362,-2.52356 -3.95331,-4.03125 -6.79131,-4.03125c-2.838,0 -5.37769,1.50769 -6.79131,4.03125l-11.32244,20.19656c-0.94331,1.677 -0.92181,3.75175 0.05106,5.41263c0.95406,1.634 2.63913,2.60956 4.50963,2.60956h10.86556v26.875c0,7.40944 6.02806,13.4375 13.4375,13.4375h10.75v-5.375h-10.75c-4.44781,0 -8.0625,-3.61737 -8.0625,-8.0625zM30.14569,76.53463c0.65037,-1.161 1.68506,-1.28463 2.10431,-1.28463c0.41925,0 1.45394,0.12363 2.10431,1.28731l11.44606,20.21269l-26.97713,-0.01881z" fill="url(#color-2_48199_gr2)"></path><path d="M137.0625,129c0,4.44512 -3.61738,8.0625 -8.0625,8.0625h-26.875v-10.86288c0,-1.86781 -0.97556,-3.55556 -2.61225,-4.515c-1.66088,-0.97556 -3.73294,-0.99169 -5.41263,-0.05106l-20.19387,11.32513c-2.52625,1.41362 -4.03125,3.95331 -4.03125,6.79131c0,2.84069 1.50769,5.37769 4.03125,6.79131l20.19656,11.32244c0.82506,0.46225 1.7415,0.69338 2.66063,0.69338c0.95137,0 1.90544,-0.24725 2.752,-0.74175c1.634,-0.95944 2.60956,-2.64719 2.60956,-4.515v-10.86288h26.875c7.40944,0 13.4375,-6.02806 13.4375,-13.4375v-10.75h-5.375zM96.73119,153.17675l-20.19656,-11.32244c-1.161,-0.65037 -1.28463,-1.68775 -1.28463,-2.10431c0,-0.41656 0.12363,-1.45394 1.28731,-2.10431l20.21269,-11.44606z" fill="url(#color-3_48199_gr3)"></path><path d="M157.81269,72.48725c-0.95675,-1.63669 -2.6445,-2.61225 -4.51231,-2.61225h-10.86288v-26.875c0,-7.40944 -6.02806,-13.4375 -13.4375,-13.4375h-10.75v5.375h10.75c4.44512,0 8.0625,3.61738 8.0625,8.0625v26.875h-10.86556c-1.86781,0 -3.55288,0.97556 -4.51231,2.61225c-0.97019,1.65819 -0.99169,3.73562 -0.05106,5.41263l11.32244,20.19656c1.41631,2.52088 3.956,4.02856 6.794,4.02856c2.84069,0 5.37769,-1.50769 6.79131,-4.03125l11.32244,-20.19656c0.94331,-1.677 0.92181,-3.74906 -0.05106,-5.40994zM141.85431,95.46269c-0.65037,1.16369 -1.68775,1.28731 -2.10431,1.28731c-0.41656,0 -1.45394,-0.12363 -2.10431,-1.28731l-11.44875,-20.21269l26.97981,0.01881z" fill="url(#color-4_48199_gr4)"></path><path d="M104.8125,75.25c0,-4.45319 -3.60931,-8.0625 -8.0625,-8.0625h-21.5c-4.45319,0 -8.0625,3.60931 -8.0625,8.0625v21.5c0,4.45319 3.60931,8.0625 8.0625,8.0625h21.5c4.45319,0 8.0625,-3.60931 8.0625,-8.0625zM99.4375,96.75c0,1.4835 -1.204,2.6875 -2.6875,2.6875h-21.5c-1.4835,0 -2.6875,-1.204 -2.6875,-2.6875v-21.5c0,-1.4835 1.204,-2.6875 2.6875,-2.6875h21.5c1.4835,0 2.6875,1.204 2.6875,2.6875z" fill="url(#color-5_48199_gr5)"></path><path d="M94.0625,91.375c0,1.4835 -1.204,2.6875 -2.6875,2.6875h-10.75c-1.4835,0 -2.6875,-1.204 -2.6875,-2.6875v-10.75c0,-1.4835 1.204,-2.6875 2.6875,-2.6875h10.75c1.4835,0 2.6875,1.204 2.6875,2.6875z" fill="url(#color-6_48199_gr6)"></path></g></g></svg>