<?xml version="1.0" encoding="utf-8"?><svg xmlns="http://www.w3.org/2000/svg" xmlns:xlink="http://www.w3.org/1999/xlink" width="400" height="400" preserveAspectRatio="xMidYMid" viewBox="0 0 400 400" style="z-index:1;margin-right:-2px;display:block;background-repeat-y:initial;background-repeat-x:initial;background-color:rgb(0, 158, 250);animation-play-state:paused" ><g transform="" style="animation-play-state:paused" ><linearGradient id="lg-0.09722681440202297" x1="0" x2="1" y1="0" y2="0" style="animation-play-state:paused" ><stop stop-color="#009efa" offset="0" style="animation-play-state:paused" ></stop>

  
<stop stop-color="#00ffff" offset="1" style="animation-play-state:paused" ></stop></linearGradient>
<path fill="url(#lg-0.09722681440202297)" opacity="0.4" d="M 0 0 L 0 347.928 Q 100 202.898 200 174.47 T 400 -33.8397 L 400 0 Z" style="opacity:0.4;animation-play-state:paused" ></path>
<path fill="url(#lg-0.09722681440202297)" opacity="0.4" d="M 0 0 L 0 311.285 Q 100 167.643 200 138.759 T 400 -94.5035 L 400 0 Z" style="opacity:0.4;animation-play-state:paused" ></path>
<path fill="url(#lg-0.09722681440202297)" opacity="0.4" d="M 0 0 L 0 377.741 Q 100 130.306 200 102.842 T 400 36.9613 L 400 0 Z" style="opacity:0.4;animation-play-state:paused" ></path>
<path fill="url(#lg-0.09722681440202297)" opacity="0.4" d="M 0 0 L 0 276.163 Q 100 162.193 200 141.241 T 400 -83.6608 L 400 0 Z" style="opacity:0.4;animation-play-state:paused" ></path>
<path fill="url(#lg-0.09722681440202297)" opacity="0.4" d="M 0 0 L 0 326.35 Q 100 206.346 200 168.057 T 400 -73.8975 L 400 0 Z" style="opacity:0.4;animation-play-state:paused" ></path>
<path fill="url(#lg-0.09722681440202297)" opacity="0.4" d="M 0 0 L 0 330.214 Q 100 162.967 200 118.952 T 400 -102.552 L 400 0 Z" style="opacity:0.4;animation-play-state:paused" ></path></g></svg>