<?xml version="1.0" encoding="utf-8"?><svg xmlns="http://www.w3.org/2000/svg" xmlns:xlink="http://www.w3.org/1999/xlink" width="400" height="400" preserveAspectRatio="xMidYMid" viewBox="0 0 400 400" style="z-index:1;margin-right:-2px;display:block;background-repeat-y:initial;background-repeat-x:initial;animation-play-state:paused" ><g transform="" style="animation-play-state:paused" ><linearGradient id="lg-0.5728148742265773" x1="0" x2="1" y1="0" y2="0" style="animation-play-state:paused" ><stop stop-color="#009efa" offset="0" style="animation-play-state:paused" ></stop>

  
<stop stop-color="#00ffff" offset="1" style="animation-play-state:paused" ></stop></linearGradient>
<path fill="url(#lg-0.5728148742265773)" opacity="0.4" d="M 0 0 L 0 368.461 Q 100 188.28 200 147.081 T 400 -119.882 L 400 0 Z" style="opacity:0.4;animation-play-state:paused" ></path>
<path fill="url(#lg-0.5728148742265773)" opacity="0.4" d="M 0 0 L 0 329.005 Q 100 168.887 200 133.677 T 400 -89.3454 L 400 0 Z" style="opacity:0.4;animation-play-state:paused" ></path>
<path fill="url(#lg-0.5728148742265773)" opacity="0.4" d="M 0 0 L 0 315.809 Q 100 191.389 200 160.698 T 400 7.90766 L 400 0 Z" style="opacity:0.4;animation-play-state:paused" ></path>
<path fill="url(#lg-0.5728148742265773)" opacity="0.4" d="M 0 0 L 0 375.824 Q 100 212.041 200 167.522 T 400 -72.4017 L 400 0 Z" style="opacity:0.4;animation-play-state:paused" ></path>
<path fill="url(#lg-0.5728148742265773)" opacity="0.4" d="M 0 0 L 0 245.116 Q 100 150.388 200 121.018 T 400 -134.585 L 400 0 Z" style="opacity:0.4;animation-play-state:paused" ></path></g></svg>